# Blender 4.1.1
# www.blender.org
o dishwasher_door
v -0.008000 -0.295000 -0.580000
v -0.008000 -0.297000 -0.578000
v -0.010000 -0.295000 -0.578000
v -0.008000 -0.296414 -0.579414
v -0.009155 -0.296155 -0.579155
v -0.009414 -0.296414 -0.578000
v -0.009414 -0.295000 -0.579414
v -0.008000 -0.297000 -0.002000
v -0.008000 -0.295000 -0.000000
v -0.010000 -0.295000 -0.002000
v -0.008000 -0.296414 -0.000586
v -0.009155 -0.296155 -0.000845
v -0.009414 -0.295000 -0.000586
v -0.009414 -0.296414 -0.002000
v -0.008000 0.295000 -0.580000
v -0.010000 0.295000 -0.578000
v -0.008000 0.297000 -0.578000
v -0.009414 0.295000 -0.579414
v -0.009155 0.296155 -0.579155
v -0.009414 0.296414 -0.578000
v -0.008000 0.296414 -0.579414
v -0.008000 0.295000 -0.000000
v -0.008000 0.297000 -0.002000
v -0.010000 0.295000 -0.002000
v -0.008000 0.296414 -0.000586
v -0.009155 0.296155 -0.000845
v -0.009414 0.296414 -0.002000
v -0.009414 0.295000 -0.000586
v 0.008000 -0.295000 -0.580000
v 0.010000 -0.295000 -0.578000
v 0.008000 -0.297000 -0.578000
v 0.009414 -0.295000 -0.579414
v 0.009155 -0.296155 -0.579155
v 0.009414 -0.296414 -0.578000
v 0.008000 -0.296414 -0.579414
v 0.008000 -0.295000 -0.000000
v 0.008000 -0.297000 -0.002000
v 0.010000 -0.295000 -0.002000
v 0.008000 -0.296414 -0.000586
v 0.009155 -0.296155 -0.000845
v 0.009414 -0.296414 -0.002000
v 0.009414 -0.295000 -0.000586
v 0.008000 0.295000 -0.580000
v 0.008000 0.297000 -0.578000
v 0.010000 0.295000 -0.578000
v 0.008000 0.296414 -0.579414
v 0.009155 0.296155 -0.579155
v 0.009414 0.296414 -0.578000
v 0.009414 0.295000 -0.579414
v 0.008000 0.295000 -0.000000
v 0.010000 0.295000 -0.002000
v 0.008000 0.297000 -0.002000
v 0.009414 0.295000 -0.000586
v 0.009155 0.296155 -0.000845
v 0.009414 0.296414 -0.002000
v 0.008000 0.296414 -0.000586
v -0.008000 -0.296414 -0.579414
v -0.009155 -0.296155 -0.579155
v -0.009155 -0.296155 -0.579155
v -0.009414 -0.295000 -0.579414
v -0.009414 -0.296414 -0.578000
v -0.008000 -0.296414 -0.000586
v -0.009155 -0.296155 -0.000845
v -0.009155 -0.296155 -0.000845
v -0.009414 -0.296414 -0.002000
v -0.009414 -0.295000 -0.000586
v -0.009414 0.295000 -0.579414
v -0.009155 0.296155 -0.579155
v -0.009155 0.296155 -0.579155
v -0.008000 0.296414 -0.579414
v -0.009414 0.296414 -0.578000
v -0.008000 0.296414 -0.000586
v -0.009155 0.296155 -0.000845
v -0.009155 0.296155 -0.000845
v -0.009414 0.295000 -0.000586
v -0.009414 0.296414 -0.002000
v 0.009414 -0.295000 -0.579414
v 0.009155 -0.296155 -0.579155
v 0.009155 -0.296155 -0.579155
v 0.008000 -0.296414 -0.579414
v 0.009414 -0.296414 -0.578000
v 0.008000 -0.296414 -0.000586
v 0.009155 -0.296155 -0.000845
v 0.009155 -0.296155 -0.000845
v 0.009414 -0.295000 -0.000586
v 0.009414 -0.296414 -0.002000
v 0.008000 0.296414 -0.579414
v 0.009155 0.296155 -0.579155
v 0.009155 0.296155 -0.579155
v 0.009414 0.295000 -0.579414
v 0.009414 0.296414 -0.578000
v 0.009414 0.295000 -0.000586
v 0.009155 0.296155 -0.000845
v 0.009155 0.296155 -0.000845
v 0.008000 0.296414 -0.000586
v 0.009414 0.296414 -0.002000
s 0
f 31 37 8 2
f 45 51 38 30
f 50 22 9 36
f 3 10 24 16
f 17 23 52 44
f 1 57 58 60
f 2 61 59 4
f 3 7 5 6
f 8 62 63 65
f 9 66 64 11
f 10 14 12 13
f 15 67 68 70
f 16 71 69 18
f 17 21 19 20
f 22 72 73 75
f 23 76 74 25
f 24 28 26 27
f 29 77 78 80
f 30 81 79 32
f 31 35 33 34
f 36 82 83 85
f 37 86 84 39
f 38 42 40 41
f 43 87 88 90
f 44 91 89 46
f 45 49 47 48
f 50 92 93 95
f 51 96 94 53
f 52 56 54 55
f 15 1 60 67
f 18 7 3 16
f 2 8 65 61
f 6 14 10 3
f 9 22 75 66
f 13 28 24 10
f 23 17 20 76
f 27 71 16 24
f 43 15 70 87
f 46 21 17 44
f 22 50 95 72
f 25 56 52 23
f 51 45 48 96
f 55 91 44 52
f 29 43 90 77
f 32 49 45 30
f 50 36 85 92
f 53 42 38 51
f 37 31 34 86
f 41 81 30 38
f 1 29 80 57
f 4 35 31 2
f 36 9 11 82
f 39 62 8 37
f 15 43 29 1
o dw_control_strip
v 0.012000 -0.274000 -0.047500
v 0.012000 -0.275000 -0.046500
v 0.011000 -0.274000 -0.046500
v 0.012000 -0.274707 -0.047207
v 0.011423 -0.274577 -0.047077
v 0.011293 -0.274707 -0.046500
v 0.011293 -0.274000 -0.047207
v 0.012000 -0.275000 -0.013500
v 0.012000 -0.274000 -0.012500
v 0.011000 -0.274000 -0.013500
v 0.012000 -0.274707 -0.012793
v 0.011423 -0.274577 -0.012923
v 0.011293 -0.274000 -0.012793
v 0.011293 -0.274707 -0.013500
v 0.012000 0.274000 -0.047500
v 0.011000 0.274000 -0.046500
v 0.012000 0.275000 -0.046500
v 0.011293 0.274000 -0.047207
v 0.011423 0.274577 -0.047077
v 0.011293 0.274707 -0.046500
v 0.012000 0.274707 -0.047207
v 0.012000 0.274000 -0.012500
v 0.012000 0.275000 -0.013500
v 0.011000 0.274000 -0.013500
v 0.012000 0.274707 -0.012793
v 0.011423 0.274577 -0.012923
v 0.011293 0.274707 -0.013500
v 0.011293 0.274000 -0.012793
v 0.016000 -0.274000 -0.047500
v 0.017000 -0.274000 -0.046500
v 0.016000 -0.275000 -0.046500
v 0.016707 -0.274000 -0.047207
v 0.016577 -0.274577 -0.047077
v 0.016707 -0.274707 -0.046500
v 0.016000 -0.274707 -0.047207
v 0.016000 -0.274000 -0.012500
v 0.016000 -0.275000 -0.013500
v 0.017000 -0.274000 -0.013500
v 0.016000 -0.274707 -0.012793
v 0.016577 -0.274577 -0.012923
v 0.016707 -0.274707 -0.013500
v 0.016707 -0.274000 -0.012793
v 0.016000 0.274000 -0.047500
v 0.016000 0.275000 -0.046500
v 0.017000 0.274000 -0.046500
v 0.016000 0.274707 -0.047207
v 0.016577 0.274577 -0.047077
v 0.016707 0.274707 -0.046500
v 0.016707 0.274000 -0.047207
v 0.016000 0.274000 -0.012500
v 0.017000 0.274000 -0.013500
v 0.016000 0.275000 -0.013500
v 0.016707 0.274000 -0.012793
v 0.016577 0.274577 -0.012923
v 0.016707 0.274707 -0.013500
v 0.016000 0.274707 -0.012793
v 0.012000 -0.274707 -0.047207
v 0.011423 -0.274577 -0.047077
v 0.011423 -0.274577 -0.047077
v 0.011293 -0.274000 -0.047207
v 0.011293 -0.274707 -0.046500
v 0.012000 -0.274707 -0.012793
v 0.011423 -0.274577 -0.012923
v 0.011423 -0.274577 -0.012923
v 0.011293 -0.274707 -0.013500
v 0.011293 -0.274000 -0.012793
v 0.011293 0.274000 -0.047207
v 0.011423 0.274577 -0.047077
v 0.011423 0.274577 -0.047077
v 0.012000 0.274707 -0.047207
v 0.011293 0.274707 -0.046500
v 0.012000 0.274707 -0.012793
v 0.011423 0.274577 -0.012923
v 0.011423 0.274577 -0.012923
v 0.011293 0.274000 -0.012793
v 0.011293 0.274707 -0.013500
v 0.016707 -0.274000 -0.047207
v 0.016577 -0.274577 -0.047077
v 0.016577 -0.274577 -0.047077
v 0.016000 -0.274707 -0.047207
v 0.016707 -0.274707 -0.046500
v 0.016000 -0.274707 -0.012793
v 0.016577 -0.274577 -0.012923
v 0.016577 -0.274577 -0.012923
v 0.016707 -0.274000 -0.012793
v 0.016707 -0.274707 -0.013500
v 0.016000 0.274707 -0.047207
v 0.016577 0.274577 -0.047077
v 0.016577 0.274577 -0.047077
v 0.016707 0.274000 -0.047207
v 0.016707 0.274707 -0.046500
v 0.016707 0.274000 -0.012793
v 0.016577 0.274577 -0.012923
v 0.016577 0.274577 -0.012923
v 0.016000 0.274707 -0.012793
v 0.016707 0.274707 -0.013500
s 0
f 127 133 104 98
f 141 147 134 126
f 146 118 105 132
f 99 106 120 112
f 113 119 148 140
f 97 153 154 156
f 98 157 155 100
f 99 103 101 102
f 104 158 159 161
f 105 162 160 107
f 106 110 108 109
f 111 163 164 166
f 112 167 165 114
f 113 117 115 116
f 118 168 169 171
f 119 172 170 121
f 120 124 122 123
f 125 173 174 176
f 126 177 175 128
f 127 131 129 130
f 132 178 179 181
f 133 182 180 135
f 134 138 136 137
f 139 183 184 186
f 140 187 185 142
f 141 145 143 144
f 146 188 189 191
f 147 192 190 149
f 148 152 150 151
f 111 97 156 163
f 114 103 99 112
f 98 104 161 157
f 102 110 106 99
f 105 118 171 162
f 109 124 120 106
f 119 113 116 172
f 123 167 112 120
f 139 111 166 183
f 142 117 113 140
f 118 146 191 168
f 121 152 148 119
f 147 141 144 192
f 151 187 140 148
f 125 139 186 173
f 128 145 141 126
f 146 132 181 188
f 149 138 134 147
f 133 127 130 182
f 137 177 126 134
f 97 125 176 153
f 100 131 127 98
f 132 105 107 178
f 135 158 104 133
f 111 139 125 97
