# Blender 4.1.1
# www.blender.org
o freezer_drawer_front
v -0.523500 -0.008000 -0.570000
v -0.523500 -0.009500 -0.568500
v -0.525000 -0.008000 -0.568500
v -0.523500 -0.009061 -0.569561
v -0.524366 -0.008866 -0.569366
v -0.524561 -0.009061 -0.568500
v -0.524561 -0.008000 -0.569561
v -0.523500 -0.009500 0.568500
v -0.523500 -0.008000 0.570000
v -0.525000 -0.008000 0.568500
v -0.523500 -0.009061 0.569561
v -0.524366 -0.008866 0.569366
v -0.524561 -0.008000 0.569561
v -0.524561 -0.009061 0.568500
v -0.523500 0.008000 -0.570000
v -0.525000 0.008000 -0.568500
v -0.523500 0.009500 -0.568500
v -0.524561 0.008000 -0.569561
v -0.524366 0.008866 -0.569366
v -0.524561 0.009061 -0.568500
v -0.523500 0.009061 -0.569561
v -0.523500 0.008000 0.570000
v -0.523500 0.009500 0.568500
v -0.525000 0.008000 0.568500
v -0.523500 0.009061 0.569561
v -0.524366 0.008866 0.569366
v -0.524561 0.009061 0.568500
v -0.524561 0.008000 0.569561
v 0.523500 -0.008000 -0.570000
v 0.525000 -0.008000 -0.568500
v 0.523500 -0.009500 -0.568500
v 0.524561 -0.008000 -0.569561
v 0.524366 -0.008866 -0.569366
v 0.524561 -0.009061 -0.568500
v 0.523500 -0.009061 -0.569561
v 0.523500 -0.008000 0.570000
v 0.523500 -0.009500 0.568500
v 0.525000 -0.008000 0.568500
v 0.523500 -0.009061 0.569561
v 0.524366 -0.008866 0.569366
v 0.524561 -0.009061 0.568500
v 0.524561 -0.008000 0.569561
v 0.523500 0.008000 -0.570000
v 0.523500 0.009500 -0.568500
v 0.525000 0.008000 -0.568500
v 0.523500 0.009061 -0.569561
v 0.524366 0.008866 -0.569366
v 0.524561 0.009061 -0.568500
v 0.524561 0.008000 -0.569561
v 0.523500 0.008000 0.570000
v 0.525000 0.008000 0.568500
v 0.523500 0.009500 0.568500
v 0.524561 0.008000 0.569561
v 0.524366 0.008866 0.569366
v 0.524561 0.009061 0.568500
v 0.523500 0.009061 0.569561
v -0.523500 -0.009061 -0.569561
v -0.524366 -0.008866 -0.569366
v -0.524366 -0.008866 -0.569366
v -0.524561 -0.008000 -0.569561
v -0.524561 -0.009061 -0.568500
v -0.523500 -0.009061 0.569561
v -0.524366 -0.008866 0.569366
v -0.524366 -0.008866 0.569366
v -0.524561 -0.009061 0.568500
v -0.524561 -0.008000 0.569561
v -0.524561 0.008000 -0.569561
v -0.524366 0.008866 -0.569366
v -0.524366 0.008866 -0.569366
v -0.523500 0.009061 -0.569561
v -0.524561 0.009061 -0.568500
v -0.523500 0.009061 0.569561
v -0.524366 0.008866 0.569366
v -0.524366 0.008866 0.569366
v -0.524561 0.008000 0.569561
v -0.524561 0.009061 0.568500
v 0.524561 -0.008000 -0.569561
v 0.524366 -0.008866 -0.569366
v 0.524366 -0.008866 -0.569366
v 0.523500 -0.009061 -0.569561
v 0.524561 -0.009061 -0.568500
v 0.523500 -0.009061 0.569561
v 0.524366 -0.008866 0.569366
v 0.524366 -0.008866 0.569366
v 0.524561 -0.008000 0.569561
v 0.524561 -0.009061 0.568500
v 0.523500 0.009061 -0.569561
v 0.524366 0.008866 -0.569366
v 0.524366 0.008866 -0.569366
v 0.524561 0.008000 -0.569561
v 0.524561 0.009061 -0.568500
v 0.524561 0.008000 0.569561
v 0.524366 0.008866 0.569366
v 0.524366 0.008866 0.569366
v 0.523500 0.009061 0.569561
v 0.524561 0.009061 0.568500
s 0
f 31 37 8 2
f 45 51 38 30
f 50 22 9 36
f 3 10 24 16
f 17 23 52 44
f 1 57 58 60
f 2 61 59 4
f 3 7 5 6
f 8 62 63 65
f 9 66 64 11
f 10 14 12 13
f 15 67 68 70
f 16 71 69 18
f 17 21 19 20
f 22 72 73 75
f 23 76 74 25
f 24 28 26 27
f 29 77 78 80
f 30 81 79 32
f 31 35 33 34
f 36 82 83 85
f 37 86 84 39
f 38 42 40 41
f 43 87 88 90
f 44 91 89 46
f 45 49 47 48
f 50 92 93 95
f 51 96 94 53
f 52 56 54 55
f 15 1 60 67
f 18 7 3 16
f 2 8 65 61
f 6 14 10 3
f 9 22 75 66
f 13 28 24 10
f 23 17 20 76
f 27 71 16 24
f 43 15 70 87
f 46 21 17 44
f 22 50 95 72
f 25 56 52 23
f 51 45 48 96
f 55 91 44 52
f 29 43 90 77
f 32 49 45 30
f 50 36 85 92
f 53 42 38 51
f 37 31 34 86
f 41 81 30 38
f 1 29 80 57
f 4 35 31 2
f 36 9 11 82
f 39 62 8 37
f 15 43 29 1
o freezer_drawer_boxA
v 0.487000 -0.528500 -0.558000
v 0.487000 -0.529500 -0.557000
v 0.486000 -0.528500 -0.557000
v 0.487000 -0.529207 -0.557707
v 0.486423 -0.529077 -0.557577
v 0.486293 -0.529207 -0.557000
v 0.486293 -0.528500 -0.557707
v 0.487000 -0.529500 0.511000
v 0.487000 -0.528500 0.512000
v 0.486000 -0.528500 0.511000
v 0.487000 -0.529207 0.511707
v 0.486423 -0.529077 0.511577
v 0.486293 -0.528500 0.511707
v 0.486293 -0.529207 0.511000
v 0.487000 -0.010500 -0.558000
v 0.486000 -0.010500 -0.557000
v 0.487000 -0.009500 -0.557000
v 0.486293 -0.010500 -0.557707
v 0.486423 -0.009923 -0.557577
v 0.486293 -0.009793 -0.557000
v 0.487000 -0.009793 -0.557707
v 0.487000 -0.010500 0.512000
v 0.487000 -0.009500 0.511000
v 0.486000 -0.010500 0.511000
v 0.487000 -0.009793 0.511707
v 0.486423 -0.009923 0.511577
v 0.486293 -0.009793 0.511000
v 0.486293 -0.010500 0.511707
v 0.499000 -0.528500 -0.558000
v 0.500000 -0.528500 -0.557000
v 0.499000 -0.529500 -0.557000
v 0.499707 -0.528500 -0.557707
v 0.499577 -0.529077 -0.557577
v 0.499707 -0.529207 -0.557000
v 0.499000 -0.529207 -0.557707
v 0.499000 -0.528500 0.512000
v 0.499000 -0.529500 0.511000
v 0.500000 -0.528500 0.511000
v 0.499000 -0.529207 0.511707
v 0.499577 -0.529077 0.511577
v 0.499707 -0.529207 0.511000
v 0.499707 -0.528500 0.511707
v 0.499000 -0.010500 -0.558000
v 0.499000 -0.009500 -0.557000
v 0.500000 -0.010500 -0.557000
v 0.499000 -0.009793 -0.557707
v 0.499577 -0.009923 -0.557577
v 0.499707 -0.009793 -0.557000
v 0.499707 -0.010500 -0.557707
v 0.499000 -0.010500 0.512000
v 0.500000 -0.010500 0.511000
v 0.499000 -0.009500 0.511000
v 0.499707 -0.010500 0.511707
v 0.499577 -0.009923 0.511577
v 0.499707 -0.009793 0.511000
v 0.499000 -0.009793 0.511707
v 0.487000 -0.529207 -0.557707
v 0.486423 -0.529077 -0.557577
v 0.486423 -0.529077 -0.557577
v 0.486293 -0.528500 -0.557707
v 0.486293 -0.529207 -0.557000
v 0.487000 -0.529207 0.511707
v 0.486423 -0.529077 0.511577
v 0.486423 -0.529077 0.511577
v 0.486293 -0.529207 0.511000
v 0.486293 -0.528500 0.511707
v 0.486293 -0.010500 -0.557707
v 0.486423 -0.009923 -0.557577
v 0.486423 -0.009923 -0.557577
v 0.487000 -0.009793 -0.557707
v 0.486293 -0.009793 -0.557000
v 0.487000 -0.009793 0.511707
v 0.486423 -0.009923 0.511577
v 0.486423 -0.009923 0.511577
v 0.486293 -0.010500 0.511707
v 0.486293 -0.009793 0.511000
v 0.499707 -0.528500 -0.557707
v 0.499577 -0.529077 -0.557577
v 0.499577 -0.529077 -0.557577
v 0.499000 -0.529207 -0.557707
v 0.499707 -0.529207 -0.557000
v 0.499000 -0.529207 0.511707
v 0.499577 -0.529077 0.511577
v 0.499577 -0.529077 0.511577
v 0.499707 -0.528500 0.511707
v 0.499707 -0.529207 0.511000
v 0.499000 -0.009793 -0.557707
v 0.499577 -0.009923 -0.557577
v 0.499577 -0.009923 -0.557577
v 0.499707 -0.010500 -0.557707
v 0.499707 -0.009793 -0.557000
v 0.499707 -0.010500 0.511707
v 0.499577 -0.009923 0.511577
v 0.499577 -0.009923 0.511577
v 0.499000 -0.009793 0.511707
v 0.499707 -0.009793 0.511000
s 0
f 127 133 104 98
f 141 147 134 126
f 146 118 105 132
f 99 106 120 112
f 113 119 148 140
f 97 153 154 156
f 98 157 155 100
f 99 103 101 102
f 104 158 159 161
f 105 162 160 107
f 106 110 108 109
f 111 163 164 166
f 112 167 165 114
f 113 117 115 116
f 118 168 169 171
f 119 172 170 121
f 120 124 122 123
f 125 173 174 176
f 126 177 175 128
f 127 131 129 130
f 132 178 179 181
f 133 182 180 135
f 134 138 136 137
f 139 183 184 186
f 140 187 185 142
f 141 145 143 144
f 146 188 189 191
f 147 192 190 149
f 148 152 150 151
f 111 97 156 163
f 114 103 99 112
f 98 104 161 157
f 102 110 106 99
f 105 118 171 162
f 109 124 120 106
f 119 113 116 172
f 123 167 112 120
f 139 111 166 183
f 142 117 113 140
f 118 146 191 168
f 121 152 148 119
f 147 141 144 192
f 151 187 140 148
f 125 139 186 173
f 128 145 141 126
f 146 132 181 188
f 149 138 134 147
f 133 127 130 182
f 137 177 126 134
f 97 125 176 153
f 100 131 127 98
f 132 105 107 178
f 135 158 104 133
f 111 139 125 97
o freezer_drawer_boxB
v -0.499000 -0.528500 -0.558000
v -0.499000 -0.529500 -0.557000
v -0.500000 -0.528500 -0.557000
v -0.499000 -0.529207 -0.557707
v -0.499577 -0.529077 -0.557577
v -0.499707 -0.529207 -0.557000
v -0.499707 -0.528500 -0.557707
v -0.499000 -0.529500 0.511000
v -0.499000 -0.528500 0.512000
v -0.500000 -0.528500 0.511000
v -0.499000 -0.529207 0.511707
v -0.499577 -0.529077 0.511577
v -0.499707 -0.528500 0.511707
v -0.499707 -0.529207 0.511000
v -0.499000 -0.010500 -0.558000
v -0.500000 -0.010500 -0.557000
v -0.499000 -0.009500 -0.557000
v -0.499707 -0.010500 -0.557707
v -0.499577 -0.009923 -0.557577
v -0.499707 -0.009793 -0.557000
v -0.499000 -0.009793 -0.557707
v -0.499000 -0.010500 0.512000
v -0.499000 -0.009500 0.511000
v -0.500000 -0.010500 0.511000
v -0.499000 -0.009793 0.511707
v -0.499577 -0.009923 0.511577
v -0.499707 -0.009793 0.511000
v -0.499707 -0.010500 0.511707
v -0.487000 -0.528500 -0.558000
v -0.486000 -0.528500 -0.557000
v -0.487000 -0.529500 -0.557000
v -0.486293 -0.528500 -0.557707
v -0.486423 -0.529077 -0.557577
v -0.486293 -0.529207 -0.557000
v -0.487000 -0.529207 -0.557707
v -0.487000 -0.528500 0.512000
v -0.487000 -0.529500 0.511000
v -0.486000 -0.528500 0.511000
v -0.487000 -0.529207 0.511707
v -0.486423 -0.529077 0.511577
v -0.486293 -0.529207 0.511000
v -0.486293 -0.528500 0.511707
v -0.487000 -0.010500 -0.558000
v -0.487000 -0.009500 -0.557000
v -0.486000 -0.010500 -0.557000
v -0.487000 -0.009793 -0.557707
v -0.486423 -0.009923 -0.557577
v -0.486293 -0.009793 -0.557000
v -0.486293 -0.010500 -0.557707
v -0.487000 -0.010500 0.512000
v -0.486000 -0.010500 0.511000
v -0.487000 -0.009500 0.511000
v -0.486293 -0.010500 0.511707
v -0.486423 -0.009923 0.511577
v -0.486293 -0.009793 0.511000
v -0.487000 -0.009793 0.511707
v -0.499000 -0.529207 -0.557707
v -0.499577 -0.529077 -0.557577
v -0.499577 -0.529077 -0.557577
v -0.499707 -0.528500 -0.557707
v -0.499707 -0.529207 -0.557000
v -0.499000 -0.529207 0.511707
v -0.499577 -0.529077 0.511577
v -0.499577 -0.529077 0.511577
v -0.499707 -0.529207 0.511000
v -0.499707 -0.528500 0.511707
v -0.499707 -0.010500 -0.557707
v -0.499577 -0.009923 -0.557577
v -0.499577 -0.009923 -0.557577
v -0.499000 -0.009793 -0.557707
v -0.499707 -0.009793 -0.557000
v -0.499000 -0.009793 0.511707
v -0.499577 -0.009923 0.511577
v -0.499577 -0.009923 0.511577
v -0.499707 -0.010500 0.511707
v -0.499707 -0.009793 0.511000
v -0.486293 -0.528500 -0.557707
v -0.486423 -0.529077 -0.557577
v -0.486423 -0.529077 -0.557577
v -0.487000 -0.529207 -0.557707
v -0.486293 -0.529207 -0.557000
v -0.487000 -0.529207 0.511707
v -0.486423 -0.529077 0.511577
v -0.486423 -0.529077 0.511577
v -0.486293 -0.528500 0.511707
v -0.486293 -0.529207 0.511000
v -0.487000 -0.009793 -0.557707
v -0.486423 -0.009923 -0.557577
v -0.486423 -0.009923 -0.557577
v -0.486293 -0.010500 -0.557707
v -0.486293 -0.009793 -0.557000
v -0.486293 -0.010500 0.511707
v -0.486423 -0.009923 0.511577
v -0.486423 -0.009923 0.511577
v -0.487000 -0.009793 0.511707
v -0.486293 -0.009793 0.511000
s 0
f 223 229 200 194
f 237 243 230 222
f 242 214 201 228
f 195 202 216 208
f 209 215 244 236
f 193 249 250 252
f 194 253 251 196
f 195 199 197 198
f 200 254 255 257
f 201 258 256 203
f 202 206 204 205
f 207 259 260 262
f 208 263 261 210
f 209 213 211 212
f 214 264 265 267
f 215 268 266 217
f 216 220 218 219
f 221 269 270 272
f 222 273 271 224
f 223 227 225 226
f 228 274 275 277
f 229 278 276 231
f 230 234 232 233
f 235 279 280 282
f 236 283 281 238
f 237 241 239 240
f 242 284 285 287
f 243 288 286 245
f 244 248 246 247
f 207 193 252 259
f 210 199 195 208
f 194 200 257 253
f 198 206 202 195
f 201 214 267 258
f 205 220 216 202
f 215 209 212 268
f 219 263 208 216
f 235 207 262 279
f 238 213 209 236
f 214 242 287 264
f 217 248 244 215
f 243 237 240 288
f 247 283 236 244
f 221 235 282 269
f 224 241 237 222
f 242 228 277 284
f 245 234 230 243
f 229 223 226 278
f 233 273 222 230
f 193 221 272 249
f 196 227 223 194
f 228 201 203 274
f 231 254 200 229
f 207 235 221 193
o freezer_drawer_boxBack
v -0.485000 -0.528500 -0.558000
v -0.485000 -0.529500 -0.557000
v -0.486000 -0.528500 -0.557000
v -0.485000 -0.529207 -0.557707
v -0.485577 -0.529077 -0.557577
v -0.485707 -0.529207 -0.557000
v -0.485707 -0.528500 -0.557707
v -0.485000 -0.529500 0.511000
v -0.485000 -0.528500 0.512000
v -0.486000 -0.528500 0.511000
v -0.485000 -0.529207 0.511707
v -0.485577 -0.529077 0.511577
v -0.485707 -0.528500 0.511707
v -0.485707 -0.529207 0.511000
v -0.485000 -0.516500 -0.558000
v -0.486000 -0.516500 -0.557000
v -0.485000 -0.515500 -0.557000
v -0.485707 -0.516500 -0.557707
v -0.485577 -0.515923 -0.557577
v -0.485707 -0.515793 -0.557000
v -0.485000 -0.515793 -0.557707
v -0.485000 -0.516500 0.512000
v -0.485000 -0.515500 0.511000
v -0.486000 -0.516500 0.511000
v -0.485000 -0.515793 0.511707
v -0.485577 -0.515923 0.511577
v -0.485707 -0.515793 0.511000
v -0.485707 -0.516500 0.511707
v 0.485000 -0.528500 -0.558000
v 0.486000 -0.528500 -0.557000
v 0.485000 -0.529500 -0.557000
v 0.485707 -0.528500 -0.557707
v 0.485577 -0.529077 -0.557577
v 0.485707 -0.529207 -0.557000
v 0.485000 -0.529207 -0.557707
v 0.485000 -0.528500 0.512000
v 0.485000 -0.529500 0.511000
v 0.486000 -0.528500 0.511000
v 0.485000 -0.529207 0.511707
v 0.485577 -0.529077 0.511577
v 0.485707 -0.529207 0.511000
v 0.485707 -0.528500 0.511707
v 0.485000 -0.516500 -0.558000
v 0.485000 -0.515500 -0.557000
v 0.486000 -0.516500 -0.557000
v 0.485000 -0.515793 -0.557707
v 0.485577 -0.515923 -0.557577
v 0.485707 -0.515793 -0.557000
v 0.485707 -0.516500 -0.557707
v 0.485000 -0.516500 0.512000
v 0.486000 -0.516500 0.511000
v 0.485000 -0.515500 0.511000
v 0.485707 -0.516500 0.511707
v 0.485577 -0.515923 0.511577
v 0.485707 -0.515793 0.511000
v 0.485000 -0.515793 0.511707
v -0.485000 -0.529207 -0.557707
v -0.485577 -0.529077 -0.557577
v -0.485577 -0.529077 -0.557577
v -0.485707 -0.528500 -0.557707
v -0.485707 -0.529207 -0.557000
v -0.485000 -0.529207 0.511707
v -0.485577 -0.529077 0.511577
v -0.485577 -0.529077 0.511577
v -0.485707 -0.529207 0.511000
v -0.485707 -0.528500 0.511707
v -0.485707 -0.516500 -0.557707
v -0.485577 -0.515923 -0.557577
v -0.485577 -0.515923 -0.557577
v -0.485000 -0.515793 -0.557707
v -0.485707 -0.515793 -0.557000
v -0.485000 -0.515793 0.511707
v -0.485577 -0.515923 0.511577
v -0.485577 -0.515923 0.511577
v -0.485707 -0.516500 0.511707
v -0.485707 -0.515793 0.511000
v 0.485707 -0.528500 -0.557707
v 0.485577 -0.529077 -0.557577
v 0.485577 -0.529077 -0.557577
v 0.485000 -0.529207 -0.557707
v 0.485707 -0.529207 -0.557000
v 0.485000 -0.529207 0.511707
v 0.485577 -0.529077 0.511577
v 0.485577 -0.529077 0.511577
v 0.485707 -0.528500 0.511707
v 0.485707 -0.529207 0.511000
v 0.485000 -0.515793 -0.557707
v 0.485577 -0.515923 -0.557577
v 0.485577 -0.515923 -0.557577
v 0.485707 -0.516500 -0.557707
v 0.485707 -0.515793 -0.557000
v 0.485707 -0.516500 0.511707
v 0.485577 -0.515923 0.511577
v 0.485577 -0.515923 0.511577
v 0.485000 -0.515793 0.511707
v 0.485707 -0.515793 0.511000
s 0
f 319 325 296 290
f 333 339 326 318
f 338 310 297 324
f 291 298 312 304
f 305 311 340 332
f 289 345 346 348
f 290 349 347 292
f 291 295 293 294
f 296 350 351 353
f 297 354 352 299
f 298 302 300 301
f 303 355 356 358
f 304 359 357 306
f 305 309 307 308
f 310 360 361 363
f 311 364 362 313
f 312 316 314 315
f 317 365 366 368
f 318 369 367 320
f 319 323 321 322
f 324 370 371 373
f 325 374 372 327
f 326 330 328 329
f 331 375 376 378
f 332 379 377 334
f 333 337 335 336
f 338 380 381 383
f 339 384 382 341
f 340 344 342 343
f 303 289 348 355
f 306 295 291 304
f 290 296 353 349
f 294 302 298 291
f 297 310 363 354
f 301 316 312 298
f 311 305 308 364
f 315 359 304 312
f 331 303 358 375
f 334 309 305 332
f 310 338 383 360
f 313 344 340 311
f 339 333 336 384
f 343 379 332 340
f 317 331 378 365
f 320 337 333 318
f 338 324 373 380
f 341 330 326 339
f 325 319 322 374
f 329 369 318 326
f 289 317 368 345
f 292 323 319 290
f 324 297 299 370
f 327 350 296 325
f 303 331 317 289
o freezer_drawer_boxBot
v -0.485200 -0.528700 -0.570000
v -0.485200 -0.529500 -0.569200
v -0.486000 -0.528700 -0.569200
v -0.485200 -0.529266 -0.569766
v -0.485662 -0.529162 -0.569662
v -0.485766 -0.529266 -0.569200
v -0.485766 -0.528700 -0.569766
v -0.485200 -0.529500 -0.558800
v -0.485200 -0.528700 -0.558000
v -0.486000 -0.528700 -0.558800
v -0.485200 -0.529266 -0.558234
v -0.485662 -0.529162 -0.558338
v -0.485766 -0.528700 -0.558234
v -0.485766 -0.529266 -0.558800
v -0.485200 -0.010300 -0.570000
v -0.486000 -0.010300 -0.569200
v -0.485200 -0.009500 -0.569200
v -0.485766 -0.010300 -0.569766
v -0.485662 -0.009838 -0.569662
v -0.485766 -0.009734 -0.569200
v -0.485200 -0.009734 -0.569766
v -0.485200 -0.010300 -0.558000
v -0.485200 -0.009500 -0.558800
v -0.486000 -0.010300 -0.558800
v -0.485200 -0.009734 -0.558234
v -0.485662 -0.009838 -0.558338
v -0.485766 -0.009734 -0.558800
v -0.485766 -0.010300 -0.558234
v 0.485200 -0.528700 -0.570000
v 0.486000 -0.528700 -0.569200
v 0.485200 -0.529500 -0.569200
v 0.485766 -0.528700 -0.569766
v 0.485662 -0.529162 -0.569662
v 0.485766 -0.529266 -0.569200
v 0.485200 -0.529266 -0.569766
v 0.485200 -0.528700 -0.558000
v 0.485200 -0.529500 -0.558800
v 0.486000 -0.528700 -0.558800
v 0.485200 -0.529266 -0.558234
v 0.485662 -0.529162 -0.558338
v 0.485766 -0.529266 -0.558800
v 0.485766 -0.528700 -0.558234
v 0.485200 -0.010300 -0.570000
v 0.485200 -0.009500 -0.569200
v 0.486000 -0.010300 -0.569200
v 0.485200 -0.009734 -0.569766
v 0.485662 -0.009838 -0.569662
v 0.485766 -0.009734 -0.569200
v 0.485766 -0.010300 -0.569766
v 0.485200 -0.010300 -0.558000
v 0.486000 -0.010300 -0.558800
v 0.485200 -0.009500 -0.558800
v 0.485766 -0.010300 -0.558234
v 0.485662 -0.009838 -0.558338
v 0.485766 -0.009734 -0.558800
v 0.485200 -0.009734 -0.558234
v -0.485200 -0.529266 -0.569766
v -0.485662 -0.529162 -0.569662
v -0.485662 -0.529162 -0.569662
v -0.485766 -0.528700 -0.569766
v -0.485766 -0.529266 -0.569200
v -0.485200 -0.529266 -0.558234
v -0.485662 -0.529162 -0.558338
v -0.485662 -0.529162 -0.558338
v -0.485766 -0.529266 -0.558800
v -0.485766 -0.528700 -0.558234
v -0.485766 -0.010300 -0.569766
v -0.485662 -0.009838 -0.569662
v -0.485662 -0.009838 -0.569662
v -0.485200 -0.009734 -0.569766
v -0.485766 -0.009734 -0.569200
v -0.485200 -0.009734 -0.558234
v -0.485662 -0.009838 -0.558338
v -0.485662 -0.009838 -0.558338
v -0.485766 -0.010300 -0.558234
v -0.485766 -0.009734 -0.558800
v 0.485766 -0.528700 -0.569766
v 0.485662 -0.529162 -0.569662
v 0.485662 -0.529162 -0.569662
v 0.485200 -0.529266 -0.569766
v 0.485766 -0.529266 -0.569200
v 0.485200 -0.529266 -0.558234
v 0.485662 -0.529162 -0.558338
v 0.485662 -0.529162 -0.558338
v 0.485766 -0.528700 -0.558234
v 0.485766 -0.529266 -0.558800
v 0.485200 -0.009734 -0.569766
v 0.485662 -0.009838 -0.569662
v 0.485662 -0.009838 -0.569662
v 0.485766 -0.010300 -0.569766
v 0.485766 -0.009734 -0.569200
v 0.485766 -0.010300 -0.558234
v 0.485662 -0.009838 -0.558338
v 0.485662 -0.009838 -0.558338
v 0.485200 -0.009734 -0.558234
v 0.485766 -0.009734 -0.558800
s 0
f 415 421 392 386
f 429 435 422 414
f 434 406 393 420
f 387 394 408 400
f 401 407 436 428
f 385 441 442 444
f 386 445 443 388
f 387 391 389 390
f 392 446 447 449
f 393 450 448 395
f 394 398 396 397
f 399 451 452 454
f 400 455 453 402
f 401 405 403 404
f 406 456 457 459
f 407 460 458 409
f 408 412 410 411
f 413 461 462 464
f 414 465 463 416
f 415 419 417 418
f 420 466 467 469
f 421 470 468 423
f 422 426 424 425
f 427 471 472 474
f 428 475 473 430
f 429 433 431 432
f 434 476 477 479
f 435 480 478 437
f 436 440 438 439
f 399 385 444 451
f 402 391 387 400
f 386 392 449 445
f 390 398 394 387
f 393 406 459 450
f 397 412 408 394
f 407 401 404 460
f 411 455 400 408
f 427 399 454 471
f 430 405 401 428
f 406 434 479 456
f 409 440 436 407
f 435 429 432 480
f 439 475 428 436
f 413 427 474 461
f 416 433 429 414
f 434 420 469 476
f 437 426 422 435
f 421 415 418 470
f 425 465 414 422
f 385 413 464 441
f 388 419 415 386
f 420 393 395 466
f 423 446 392 421
f 399 427 413 385
o freezer_drawer_hstand
v -0.174000 0.028500 0.525000
v -0.146000 0.028500 0.525000
v -0.174000 0.027545 0.522061
v -0.146000 0.027545 0.522061
v -0.174000 0.025045 0.520245
v -0.146000 0.025045 0.520245
v -0.174000 0.021955 0.520245
v -0.146000 0.021955 0.520245
v -0.174000 0.019455 0.522061
v -0.146000 0.019455 0.522061
v -0.174000 0.018500 0.525000
v -0.146000 0.018500 0.525000
v -0.174000 0.019455 0.527939
v -0.146000 0.019455 0.527939
v -0.174000 0.021955 0.529755
v -0.146000 0.021955 0.529755
v -0.174000 0.025045 0.529755
v -0.146000 0.025045 0.529755
v -0.174000 0.027545 0.527939
v -0.146000 0.027545 0.527939
s 1
f 481 482 484 483
f 483 484 486 485
f 485 486 488 487
f 487 488 490 489
f 489 490 492 491
f 491 492 494 493
f 493 494 496 495
f 495 496 498 497
f 484 482 500 498 496 494 492 490 488 486
f 497 498 500 499
f 499 500 482 481
f 481 483 485 487 489 491 493 495 497 499
o freezer_drawer_hstand.001
v 0.146000 0.028500 0.525000
v 0.174000 0.028500 0.525000
v 0.146000 0.027545 0.522061
v 0.174000 0.027545 0.522061
v 0.146000 0.025045 0.520245
v 0.174000 0.025045 0.520245
v 0.146000 0.021955 0.520245
v 0.174000 0.021955 0.520245
v 0.146000 0.019455 0.522061
v 0.174000 0.019455 0.522061
v 0.146000 0.018500 0.525000
v 0.174000 0.018500 0.525000
v 0.146000 0.019455 0.527939
v 0.174000 0.019455 0.527939
v 0.146000 0.021955 0.529755
v 0.174000 0.021955 0.529755
v 0.146000 0.025045 0.529755
v 0.174000 0.025045 0.529755
v 0.146000 0.027545 0.527939
v 0.174000 0.027545 0.527939
s 1
f 501 502 504 503
f 503 504 506 505
f 505 506 508 507
f 507 508 510 509
f 509 510 512 511
f 511 512 514 513
f 513 514 516 515
f 515 516 518 517
f 504 502 520 518 516 514 512 510 508 506
f 517 518 520 519
f 519 520 502 501
f 501 503 505 507 509 511 513 515 517 519
o freezer_drawer_hbar
v -0.160000 0.059500 0.525000
v 0.160000 0.059500 0.525000
v -0.160000 0.058708 0.521529
v 0.160000 0.058708 0.521529
v -0.160000 0.056488 0.518745
v 0.160000 0.056488 0.518745
v -0.160000 0.053280 0.517201
v 0.160000 0.053280 0.517201
v -0.160000 0.049720 0.517201
v 0.160000 0.049720 0.517201
v -0.160000 0.046512 0.518745
v 0.160000 0.046512 0.518745
v -0.160000 0.044292 0.521529
v 0.160000 0.044292 0.521529
v -0.160000 0.043500 0.525000
v 0.160000 0.043500 0.525000
v -0.160000 0.044292 0.528471
v 0.160000 0.044292 0.528471
v -0.160000 0.046512 0.531255
v 0.160000 0.046512 0.531255
v -0.160000 0.049720 0.532799
v 0.160000 0.049720 0.532799
v -0.160000 0.053280 0.532799
v 0.160000 0.053280 0.532799
v -0.160000 0.056488 0.531255
v 0.160000 0.056488 0.531255
v -0.160000 0.058708 0.528471
v 0.160000 0.058708 0.528471
s 1
f 521 522 524 523
f 523 524 526 525
f 525 526 528 527
f 527 528 530 529
f 529 530 532 531
f 531 532 534 533
f 533 534 536 535
f 535 536 538 537
f 537 538 540 539
f 539 540 542 541
f 541 542 544 543
f 543 544 546 545
f 524 522 548 546 544 542 540 538 536 534 532 530 528 526
f 545 546 548 547
f 547 548 522 521
f 521 523 525 527 529 531 533 535 537 539 541 543 545 547
