# Blender 4.1.1
# www.blender.org
o fridge_door
v 0.002000 -0.020500 -0.400000
v 0.002000 -0.022500 -0.398000
v 0.000000 -0.020500 -0.398000
v 0.002000 -0.021914 -0.399414
v 0.000845 -0.021655 -0.399155
v 0.000586 -0.021914 -0.398000
v 0.000586 -0.020500 -0.399414
v 0.002000 -0.022500 0.398000
v 0.002000 -0.020500 0.400000
v 0.000000 -0.020500 0.398000
v 0.002000 -0.021914 0.399414
v 0.000845 -0.021655 0.399155
v 0.000586 -0.020500 0.399414
v 0.000586 -0.021914 0.398000
v 0.002000 0.020500 -0.400000
v 0.000000 0.020500 -0.398000
v 0.002000 0.022500 -0.398000
v 0.000586 0.020500 -0.399414
v 0.000845 0.021655 -0.399155
v 0.000586 0.021914 -0.398000
v 0.002000 0.021914 -0.399414
v 0.002000 0.020500 0.400000
v 0.002000 0.022500 0.398000
v 0.000000 0.020500 0.398000
v 0.002000 0.021914 0.399414
v 0.000845 0.021655 0.399155
v 0.000586 0.021914 0.398000
v 0.000586 0.020500 0.399414
v 1.048000 -0.020500 -0.400000
v 1.050000 -0.020500 -0.398000
v 1.048000 -0.022500 -0.398000
v 1.049414 -0.020500 -0.399414
v 1.049155 -0.021655 -0.399155
v 1.049414 -0.021914 -0.398000
v 1.048000 -0.021914 -0.399414
v 1.048000 -0.020500 0.400000
v 1.048000 -0.022500 0.398000
v 1.050000 -0.020500 0.398000
v 1.048000 -0.021914 0.399414
v 1.049155 -0.021655 0.399155
v 1.049414 -0.021914 0.398000
v 1.049414 -0.020500 0.399414
v 1.048000 0.020500 -0.400000
v 1.048000 0.022500 -0.398000
v 1.050000 0.020500 -0.398000
v 1.048000 0.021914 -0.399414
v 1.049155 0.021655 -0.399155
v 1.049414 0.021914 -0.398000
v 1.049414 0.020500 -0.399414
v 1.048000 0.020500 0.400000
v 1.050000 0.020500 0.398000
v 1.048000 0.022500 0.398000
v 1.049414 0.020500 0.399414
v 1.049155 0.021655 0.399155
v 1.049414 0.021914 0.398000
v 1.048000 0.021914 0.399414
v 0.002000 -0.021914 -0.399414
v 0.000845 -0.021655 -0.399155
v 0.000845 -0.021655 -0.399155
v 0.000586 -0.020500 -0.399414
v 0.000586 -0.021914 -0.398000
v 0.002000 -0.021914 0.399414
v 0.000845 -0.021655 0.399155
v 0.000845 -0.021655 0.399155
v 0.000586 -0.021914 0.398000
v 0.000586 -0.020500 0.399414
v 0.000586 0.020500 -0.399414
v 0.000845 0.021655 -0.399155
v 0.000845 0.021655 -0.399155
v 0.002000 0.021914 -0.399414
v 0.000586 0.021914 -0.398000
v 0.002000 0.021914 0.399414
v 0.000845 0.021655 0.399155
v 0.000845 0.021655 0.399155
v 0.000586 0.020500 0.399414
v 0.000586 0.021914 0.398000
v 1.049414 -0.020500 -0.399414
v 1.049155 -0.021655 -0.399155
v 1.049155 -0.021655 -0.399155
v 1.048000 -0.021914 -0.399414
v 1.049414 -0.021914 -0.398000
v 1.048000 -0.021914 0.399414
v 1.049155 -0.021655 0.399155
v 1.049155 -0.021655 0.399155
v 1.049414 -0.020500 0.399414
v 1.049414 -0.021914 0.398000
v 1.048000 0.021914 -0.399414
v 1.049155 0.021655 -0.399155
v 1.049155 0.021655 -0.399155
v 1.049414 0.020500 -0.399414
v 1.049414 0.021914 -0.398000
v 1.049414 0.020500 0.399414
v 1.049155 0.021655 0.399155
v 1.049155 0.021655 0.399155
v 1.048000 0.021914 0.399414
v 1.049414 0.021914 0.398000
s 0
f 31 37 8 2
f 45 51 38 30
f 50 22 9 36
f 3 10 24 16
f 17 23 52 44
f 1 57 58 60
f 2 61 59 4
f 3 7 5 6
f 8 62 63 65
f 9 66 64 11
f 10 14 12 13
f 15 67 68 70
f 16 71 69 18
f 17 21 19 20
f 22 72 73 75
f 23 76 74 25
f 24 28 26 27
f 29 77 78 80
f 30 81 79 32
f 31 35 33 34
f 36 82 83 85
f 37 86 84 39
f 38 42 40 41
f 43 87 88 90
f 44 91 89 46
f 45 49 47 48
f 50 92 93 95
f 51 96 94 53
f 52 56 54 55
f 15 1 60 67
f 18 7 3 16
f 2 8 65 61
f 6 14 10 3
f 9 22 75 66
f 13 28 24 10
f 23 17 20 76
f 27 71 16 24
f 43 15 70 87
f 46 21 17 44
f 22 50 95 72
f 25 56 52 23
f 51 45 48 96
f 55 91 44 52
f 29 43 90 77
f 32 49 45 30
f 50 36 85 92
f 53 42 38 51
f 37 31 34 86
f 41 81 30 38
f 1 29 80 57
f 4 35 31 2
f 36 9 11 82
f 39 62 8 37
f 15 43 29 1
o fridge_door_hst-0.15
v 1.000000 0.054500 -0.145000
v 1.000000 0.022500 -0.145000
v 1.002500 0.054500 -0.145670
v 1.002500 0.022500 -0.145670
v 1.004330 0.054500 -0.147500
v 1.004330 0.022500 -0.147500
v 1.005000 0.054500 -0.150000
v 1.005000 0.022500 -0.150000
v 1.004330 0.054500 -0.152500
v 1.004330 0.022500 -0.152500
v 1.002500 0.054500 -0.154330
v 1.002500 0.022500 -0.154330
v 1.000000 0.054500 -0.155000
v 1.000000 0.022500 -0.155000
v 0.997500 0.054500 -0.154330
v 0.997500 0.022500 -0.154330
v 0.995670 0.054500 -0.152500
v 0.995670 0.022500 -0.152500
v 0.995000 0.054500 -0.150000
v 0.995000 0.022500 -0.150000
v 0.995670 0.054500 -0.147500
v 0.995670 0.022500 -0.147500
v 0.997500 0.054500 -0.145670
v 0.997500 0.022500 -0.145670
s 1
f 97 98 100 99
f 99 100 102 101
f 101 102 104 103
f 103 104 106 105
f 105 106 108 107
f 107 108 110 109
f 109 110 112 111
f 111 112 114 113
f 113 114 116 115
f 115 116 118 117
f 100 98 120 118 116 114 112 110 108 106 104 102
f 117 118 120 119
f 119 120 98 97
f 97 99 101 103 105 107 109 111 113 115 117 119
o fridge_door_hst0.15
v 1.000000 0.054500 0.155000
v 1.000000 0.022500 0.155000
v 1.002500 0.054500 0.154330
v 1.002500 0.022500 0.154330
v 1.004330 0.054500 0.152500
v 1.004330 0.022500 0.152500
v 1.005000 0.054500 0.150000
v 1.005000 0.022500 0.150000
v 1.004330 0.054500 0.147500
v 1.004330 0.022500 0.147500
v 1.002500 0.054500 0.145670
v 1.002500 0.022500 0.145670
v 1.000000 0.054500 0.145000
v 1.000000 0.022500 0.145000
v 0.997500 0.054500 0.145670
v 0.997500 0.022500 0.145670
v 0.995670 0.054500 0.147500
v 0.995670 0.022500 0.147500
v 0.995000 0.054500 0.150000
v 0.995000 0.022500 0.150000
v 0.995670 0.054500 0.152500
v 0.995670 0.022500 0.152500
v 0.997500 0.054500 0.154330
v 0.997500 0.022500 0.154330
s 1
f 121 122 124 123
f 123 124 126 125
f 125 126 128 127
f 127 128 130 129
f 129 130 132 131
f 131 132 134 133
f 133 134 136 135
f 135 136 138 137
f 137 138 140 139
f 139 140 142 141
f 124 122 144 142 140 138 136 134 132 130 128 126
f 141 142 144 143
f 143 144 122 121
f 121 123 125 127 129 131 133 135 137 139 141 143
o fridge_door_hbar
v 1.000000 0.062500 -0.150000
v 1.000000 0.062500 0.150000
v 1.003471 0.061708 -0.150000
v 1.003471 0.061708 0.150000
v 1.006255 0.059488 -0.150000
v 1.006255 0.059488 0.150000
v 1.007799 0.056280 -0.150000
v 1.007799 0.056280 0.150000
v 1.007799 0.052720 -0.150000
v 1.007799 0.052720 0.150000
v 1.006255 0.049512 -0.150000
v 1.006255 0.049512 0.150000
v 1.003471 0.047292 -0.150000
v 1.003471 0.047292 0.150000
v 1.000000 0.046500 -0.150000
v 1.000000 0.046500 0.150000
v 0.996529 0.047292 -0.150000
v 0.996529 0.047292 0.150000
v 0.993745 0.049512 -0.150000
v 0.993745 0.049512 0.150000
v 0.992201 0.052720 -0.150000
v 0.992201 0.052720 0.150000
v 0.992201 0.056280 -0.150000
v 0.992201 0.056280 0.150000
v 0.993745 0.059488 -0.150000
v 0.993745 0.059488 0.150000
v 0.996529 0.061708 -0.150000
v 0.996529 0.061708 0.150000
s 1
f 145 146 148 147
f 147 148 150 149
f 149 150 152 151
f 151 152 154 153
f 153 154 156 155
f 155 156 158 157
f 157 158 160 159
f 159 160 162 161
f 161 162 164 163
f 163 164 166 165
f 165 166 168 167
f 167 168 170 169
f 148 146 172 170 168 166 164 162 160 158 156 154 152 150
f 169 170 172 171
f 171 172 146 145
f 145 147 149 151 153 155 157 159 161 163 165 167 169 171
o fridge_door_face
v 0.032000 0.026000 -0.385000
v 0.032000 0.024000 -0.383000
v 0.030000 0.026000 -0.383000
v 0.032000 0.024586 -0.384414
v 0.030845 0.024845 -0.384155
v 0.030586 0.024586 -0.383000
v 0.030586 0.026000 -0.384414
v 0.032000 0.024000 0.383000
v 0.032000 0.026000 0.385000
v 0.030000 0.026000 0.383000
v 0.032000 0.024586 0.384414
v 0.030845 0.024845 0.384155
v 0.030586 0.026000 0.384414
v 0.030586 0.024586 0.383000
v 0.032000 0.030000 -0.385000
v 0.030000 0.030000 -0.383000
v 0.032000 0.032000 -0.383000
v 0.030586 0.030000 -0.384414
v 0.030845 0.031155 -0.384155
v 0.030586 0.031414 -0.383000
v 0.032000 0.031414 -0.384414
v 0.032000 0.030000 0.385000
v 0.032000 0.032000 0.383000
v 0.030000 0.030000 0.383000
v 0.032000 0.031414 0.384414
v 0.030845 0.031155 0.384155
v 0.030586 0.031414 0.383000
v 0.030586 0.030000 0.384414
v 1.008000 0.026000 -0.385000
v 1.010000 0.026000 -0.383000
v 1.008000 0.024000 -0.383000
v 1.009414 0.026000 -0.384414
v 1.009155 0.024845 -0.384155
v 1.009414 0.024586 -0.383000
v 1.008000 0.024586 -0.384414
v 1.008000 0.026000 0.385000
v 1.008000 0.024000 0.383000
v 1.010000 0.026000 0.383000
v 1.008000 0.024586 0.384414
v 1.009155 0.024845 0.384155
v 1.009414 0.024586 0.383000
v 1.009414 0.026000 0.384414
v 1.008000 0.030000 -0.385000
v 1.008000 0.032000 -0.383000
v 1.010000 0.030000 -0.383000
v 1.008000 0.031414 -0.384414
v 1.009155 0.031155 -0.384155
v 1.009414 0.031414 -0.383000
v 1.009414 0.030000 -0.384414
v 1.008000 0.030000 0.385000
v 1.010000 0.030000 0.383000
v 1.008000 0.032000 0.383000
v 1.009414 0.030000 0.384414
v 1.009155 0.031155 0.384155
v 1.009414 0.031414 0.383000
v 1.008000 0.031414 0.384414
v 0.032000 0.024586 -0.384414
v 0.030845 0.024845 -0.384155
v 0.030845 0.024845 -0.384155
v 0.030586 0.026000 -0.384414
v 0.030586 0.024586 -0.383000
v 0.032000 0.024586 0.384414
v 0.030845 0.024845 0.384155
v 0.030845 0.024845 0.384155
v 0.030586 0.024586 0.383000
v 0.030586 0.026000 0.384414
v 0.030586 0.030000 -0.384414
v 0.030845 0.031155 -0.384155
v 0.030845 0.031155 -0.384155
v 0.032000 0.031414 -0.384414
v 0.030586 0.031414 -0.383000
v 0.032000 0.031414 0.384414
v 0.030845 0.031155 0.384155
v 0.030845 0.031155 0.384155
v 0.030586 0.030000 0.384414
v 0.030586 0.031414 0.383000
v 1.009414 0.026000 -0.384414
v 1.009155 0.024845 -0.384155
v 1.009155 0.024845 -0.384155
v 1.008000 0.024586 -0.384414
v 1.009414 0.024586 -0.383000
v 1.008000 0.024586 0.384414
v 1.009155 0.024845 0.384155
v 1.009155 0.024845 0.384155
v 1.009414 0.026000 0.384414
v 1.009414 0.024586 0.383000
v 1.008000 0.031414 -0.384414
v 1.009155 0.031155 -0.384155
v 1.009155 0.031155 -0.384155
v 1.009414 0.030000 -0.384414
v 1.009414 0.031414 -0.383000
v 1.009414 0.030000 0.384414
v 1.009155 0.031155 0.384155
v 1.009155 0.031155 0.384155
v 1.008000 0.031414 0.384414
v 1.009414 0.031414 0.383000
s 0
f 203 209 180 174
f 217 223 210 202
f 222 194 181 208
f 175 182 196 188
f 189 195 224 216
f 173 229 230 232
f 174 233 231 176
f 175 179 177 178
f 180 234 235 237
f 181 238 236 183
f 182 186 184 185
f 187 239 240 242
f 188 243 241 190
f 189 193 191 192
f 194 244 245 247
f 195 248 246 197
f 196 200 198 199
f 201 249 250 252
f 202 253 251 204
f 203 207 205 206
f 208 254 255 257
f 209 258 256 211
f 210 214 212 213
f 215 259 260 262
f 216 263 261 218
f 217 221 219 220
f 222 264 265 267
f 223 268 266 225
f 224 228 226 227
f 187 173 232 239
f 190 179 175 188
f 174 180 237 233
f 178 186 182 175
f 181 194 247 238
f 185 200 196 182
f 195 189 192 248
f 199 243 188 196
f 215 187 242 259
f 218 193 189 216
f 194 222 267 244
f 197 228 224 195
f 223 217 220 268
f 227 263 216 224
f 201 215 262 249
f 204 221 217 202
f 222 208 257 264
f 225 214 210 223
f 209 203 206 258
f 213 253 202 210
f 173 201 252 229
f 176 207 203 174
f 208 181 183 254
f 211 234 180 209
f 187 215 201 173
