# Blender 4.1.1
# www.blender.org
o pantry_slide_panel
v -0.527000 -0.017000 -1.110000
v -0.527000 -0.020000 -1.107000
v -0.529999 -0.017000 -1.107000
v -0.527000 -0.019121 -1.109121
v -0.528732 -0.018732 -1.108732
v -0.529121 -0.019121 -1.107000
v -0.529121 -0.017000 -1.109121
v -0.527000 -0.020000 1.107000
v -0.527000 -0.017000 1.110000
v -0.529999 -0.017000 1.107000
v -0.527000 -0.019121 1.109121
v -0.528732 -0.018732 1.108732
v -0.529121 -0.017000 1.109121
v -0.529121 -0.019121 1.107000
v -0.527000 0.017000 -1.110000
v -0.529999 0.017000 -1.107000
v -0.527000 0.020000 -1.107000
v -0.529121 0.017000 -1.109121
v -0.528732 0.018732 -1.108732
v -0.529121 0.019121 -1.107000
v -0.527000 0.019121 -1.109121
v -0.527000 0.017000 1.110000
v -0.527000 0.020000 1.107000
v -0.529999 0.017000 1.107000
v -0.527000 0.019121 1.109121
v -0.528732 0.018732 1.108732
v -0.529121 0.019121 1.107000
v -0.529121 0.017000 1.109121
v 0.527001 -0.017000 -1.110000
v 0.530000 -0.017000 -1.107000
v 0.527001 -0.020000 -1.107000
v 0.529122 -0.017000 -1.109121
v 0.528733 -0.018732 -1.108732
v 0.529122 -0.019121 -1.107000
v 0.527001 -0.019121 -1.109121
v 0.527001 -0.017000 1.110000
v 0.527001 -0.020000 1.107000
v 0.530000 -0.017000 1.107000
v 0.527001 -0.019121 1.109121
v 0.528733 -0.018732 1.108732
v 0.529122 -0.019121 1.107000
v 0.529122 -0.017000 1.109121
v 0.527001 0.017000 -1.110000
v 0.527001 0.020000 -1.107000
v 0.530000 0.017000 -1.107000
v 0.527001 0.019121 -1.109121
v 0.528733 0.018732 -1.108732
v 0.529122 0.019121 -1.107000
v 0.529122 0.017000 -1.109121
v 0.527001 0.017000 1.110000
v 0.530000 0.017000 1.107000
v 0.527001 0.020000 1.107000
v 0.529122 0.017000 1.109121
v 0.528733 0.018732 1.108732
v 0.529122 0.019121 1.107000
v 0.527001 0.019121 1.109121
v -0.527000 -0.019121 -1.109121
v -0.528732 -0.018732 -1.108732
v -0.528732 -0.018732 -1.108732
v -0.529121 -0.017000 -1.109121
v -0.529121 -0.019121 -1.107000
v -0.527000 -0.019121 1.109121
v -0.528732 -0.018732 1.108732
v -0.528732 -0.018732 1.108732
v -0.529121 -0.019121 1.107000
v -0.529121 -0.017000 1.109121
v -0.529121 0.017000 -1.109121
v -0.528732 0.018732 -1.108732
v -0.528732 0.018732 -1.108732
v -0.527000 0.019121 -1.109121
v -0.529121 0.019121 -1.107000
v -0.527000 0.019121 1.109121
v -0.528732 0.018732 1.108732
v -0.528732 0.018732 1.108732
v -0.529121 0.017000 1.109121
v -0.529121 0.019121 1.107000
v 0.529122 -0.017000 -1.109121
v 0.528733 -0.018732 -1.108732
v 0.528733 -0.018732 -1.108732
v 0.527001 -0.019121 -1.109121
v 0.529122 -0.019121 -1.107000
v 0.527001 -0.019121 1.109121
v 0.528733 -0.018732 1.108732
v 0.528733 -0.018732 1.108732
v 0.529122 -0.017000 1.109121
v 0.529122 -0.019121 1.107000
v 0.527001 0.019121 -1.109121
v 0.528733 0.018732 -1.108732
v 0.528733 0.018732 -1.108732
v 0.529122 0.017000 -1.109121
v 0.529122 0.019121 -1.107000
v 0.529122 0.017000 1.109121
v 0.528733 0.018732 1.108732
v 0.528733 0.018732 1.108732
v 0.527001 0.019121 1.109121
v 0.529122 0.019121 1.107000
s 0
f 31 37 8 2
f 45 51 38 30
f 50 22 9 36
f 3 10 24 16
f 17 23 52 44
f 1 57 58 60
f 2 61 59 4
f 3 7 5 6
f 8 62 63 65
f 9 66 64 11
f 10 14 12 13
f 15 67 68 70
f 16 71 69 18
f 17 21 19 20
f 22 72 73 75
f 23 76 74 25
f 24 28 26 27
f 29 77 78 80
f 30 81 79 32
f 31 35 33 34
f 36 82 83 85
f 37 86 84 39
f 38 42 40 41
f 43 87 88 90
f 44 91 89 46
f 45 49 47 48
f 50 92 93 95
f 51 96 94 53
f 52 56 54 55
f 15 1 60 67
f 18 7 3 16
f 2 8 65 61
f 6 14 10 3
f 9 22 75 66
f 13 28 24 10
f 23 17 20 76
f 27 71 16 24
f 43 15 70 87
f 46 21 17 44
f 22 50 95 72
f 25 56 52 23
f 51 45 48 96
f 55 91 44 52
f 29 43 90 77
f 32 49 45 30
f 50 36 85 92
f 53 42 38 51
f 37 31 34 86
f 41 81 30 38
f 1 29 80 57
f 4 35 31 2
f 36 9 11 82
f 39 62 8 37
f 15 43 29 1
o pantry_slide_inset
v -0.378999 -0.027000 -0.960000
v -0.378999 -0.028000 -0.959000
v -0.380000 -0.027000 -0.959000
v -0.378999 -0.027707 -0.959707
v -0.379577 -0.027577 -0.959577
v -0.379707 -0.027707 -0.959000
v -0.379707 -0.027000 -0.959707
v -0.378999 -0.028000 0.959000
v -0.378999 -0.027000 0.960000
v -0.380000 -0.027000 0.959000
v -0.378999 -0.027707 0.959707
v -0.379577 -0.027577 0.959577
v -0.379707 -0.027000 0.959707
v -0.379707 -0.027707 0.959000
v -0.378999 -0.021000 -0.960000
v -0.380000 -0.021000 -0.959000
v -0.378999 -0.020000 -0.959000
v -0.379707 -0.021000 -0.959707
v -0.379577 -0.020423 -0.959577
v -0.379707 -0.020293 -0.959000
v -0.378999 -0.020293 -0.959707
v -0.378999 -0.021000 0.960000
v -0.378999 -0.020000 0.959000
v -0.380000 -0.021000 0.959000
v -0.378999 -0.020293 0.959707
v -0.379577 -0.020423 0.959577
v -0.379707 -0.020293 0.959000
v -0.379707 -0.021000 0.959707
v 0.379000 -0.027000 -0.960000
v 0.380000 -0.027000 -0.959000
v 0.379000 -0.028000 -0.959000
v 0.379708 -0.027000 -0.959707
v 0.379578 -0.027577 -0.959577
v 0.379708 -0.027707 -0.959000
v 0.379000 -0.027707 -0.959707
v 0.379000 -0.027000 0.960000
v 0.379000 -0.028000 0.959000
v 0.380000 -0.027000 0.959000
v 0.379000 -0.027707 0.959707
v 0.379578 -0.027577 0.959577
v 0.379708 -0.027707 0.959000
v 0.379708 -0.027000 0.959707
v 0.379000 -0.021000 -0.960000
v 0.379000 -0.020000 -0.959000
v 0.380000 -0.021000 -0.959000
v 0.379000 -0.020293 -0.959707
v 0.379578 -0.020423 -0.959577
v 0.379708 -0.020293 -0.959000
v 0.379708 -0.021000 -0.959707
v 0.379000 -0.021000 0.960000
v 0.380000 -0.021000 0.959000
v 0.379000 -0.020000 0.959000
v 0.379708 -0.021000 0.959707
v 0.379578 -0.020423 0.959577
v 0.379708 -0.020293 0.959000
v 0.379000 -0.020293 0.959707
v -0.378999 -0.027707 -0.959707
v -0.379577 -0.027577 -0.959577
v -0.379577 -0.027577 -0.959577
v -0.379707 -0.027000 -0.959707
v -0.379707 -0.027707 -0.959000
v -0.378999 -0.027707 0.959707
v -0.379577 -0.027577 0.959577
v -0.379577 -0.027577 0.959577
v -0.379707 -0.027707 0.959000
v -0.379707 -0.027000 0.959707
v -0.379707 -0.021000 -0.959707
v -0.379577 -0.020423 -0.959577
v -0.379577 -0.020423 -0.959577
v -0.378999 -0.020293 -0.959707
v -0.379707 -0.020293 -0.959000
v -0.378999 -0.020293 0.959707
v -0.379577 -0.020423 0.959577
v -0.379577 -0.020423 0.959577
v -0.379707 -0.021000 0.959707
v -0.379707 -0.020293 0.959000
v 0.379708 -0.027000 -0.959707
v 0.379578 -0.027577 -0.959577
v 0.379578 -0.027577 -0.959577
v 0.379000 -0.027707 -0.959707
v 0.379708 -0.027707 -0.959000
v 0.379000 -0.027707 0.959707
v 0.379578 -0.027577 0.959577
v 0.379578 -0.027577 0.959577
v 0.379708 -0.027000 0.959707
v 0.379708 -0.027707 0.959000
v 0.379000 -0.020293 -0.959707
v 0.379578 -0.020423 -0.959577
v 0.379578 -0.020423 -0.959577
v 0.379708 -0.021000 -0.959707
v 0.379708 -0.020293 -0.959000
v 0.379708 -0.021000 0.959707
v 0.379578 -0.020423 0.959577
v 0.379578 -0.020423 0.959577
v 0.379000 -0.020293 0.959707
v 0.379708 -0.020293 0.959000
s 0
f 127 133 104 98
f 141 147 134 126
f 146 118 105 132
f 99 106 120 112
f 113 119 148 140
f 97 153 154 156
f 98 157 155 100
f 99 103 101 102
f 104 158 159 161
f 105 162 160 107
f 106 110 108 109
f 111 163 164 166
f 112 167 165 114
f 113 117 115 116
f 118 168 169 171
f 119 172 170 121
f 120 124 122 123
f 125 173 174 176
f 126 177 175 128
f 127 131 129 130
f 132 178 179 181
f 133 182 180 135
f 134 138 136 137
f 139 183 184 186
f 140 187 185 142
f 141 145 143 144
f 146 188 189 191
f 147 192 190 149
f 148 152 150 151
f 111 97 156 163
f 114 103 99 112
f 98 104 161 157
f 102 110 106 99
f 105 118 171 162
f 109 124 120 106
f 119 113 116 172
f 123 167 112 120
f 139 111 166 183
f 142 117 113 140
f 118 146 191 168
f 121 152 148 119
f 147 141 144 192
f 151 187 140 148
f 125 139 186 173
f 128 145 141 126
f 146 132 181 188
f 149 138 134 147
f 133 127 130 182
f 137 177 126 134
f 97 125 176 153
f 100 131 127 98
f 132 105 107 178
f 135 158 104 133
f 111 139 125 97
o pantry_roller-0.35
v -0.365000 0.022000 1.185000
v -0.335000 0.022000 1.185000
v -0.365000 0.019821 1.175455
v -0.335000 0.019821 1.175455
v -0.365000 0.013717 1.167800
v -0.335000 0.013717 1.167800
v -0.365000 0.004895 1.163552
v -0.335000 0.004895 1.163552
v -0.365000 -0.004895 1.163552
v -0.335000 -0.004895 1.163552
v -0.365000 -0.013717 1.167800
v -0.335000 -0.013717 1.167800
v -0.365000 -0.019821 1.175455
v -0.335000 -0.019821 1.175455
v -0.365000 -0.022000 1.185000
v -0.335000 -0.022000 1.185000
v -0.365000 -0.019821 1.194545
v -0.335000 -0.019821 1.194545
v -0.365000 -0.013717 1.202200
v -0.335000 -0.013717 1.202200
v -0.365000 -0.004895 1.206448
v -0.335000 -0.004895 1.206448
v -0.365000 0.004895 1.206448
v -0.335000 0.004895 1.206448
v -0.365000 0.013717 1.202200
v -0.335000 0.013717 1.202200
v -0.365000 0.019821 1.194545
v -0.335000 0.019821 1.194545
s 1
f 193 194 196 195
f 195 196 198 197
f 197 198 200 199
f 199 200 202 201
f 201 202 204 203
f 203 204 206 205
f 205 206 208 207
f 207 208 210 209
f 209 210 212 211
f 211 212 214 213
f 213 214 216 215
f 215 216 218 217
f 196 194 220 218 216 214 212 210 208 206 204 202 200 198
f 217 218 220 219
f 219 220 194 193
f 193 195 197 199 201 203 205 207 209 211 213 215 217 219
o pantry_roller0.35
v 0.335000 0.022000 1.185000
v 0.365001 0.022000 1.185000
v 0.335000 0.019821 1.175455
v 0.365001 0.019821 1.175455
v 0.335000 0.013717 1.167800
v 0.365001 0.013717 1.167800
v 0.335000 0.004895 1.163552
v 0.365001 0.004895 1.163552
v 0.335000 -0.004895 1.163552
v 0.365001 -0.004895 1.163552
v 0.335000 -0.013717 1.167800
v 0.365001 -0.013717 1.167800
v 0.335000 -0.019821 1.175455
v 0.365001 -0.019821 1.175455
v 0.335000 -0.022000 1.185000
v 0.365001 -0.022000 1.185000
v 0.335000 -0.019821 1.194545
v 0.365001 -0.019821 1.194545
v 0.335000 -0.013717 1.202200
v 0.365001 -0.013717 1.202200
v 0.335000 -0.004895 1.206448
v 0.365001 -0.004895 1.206448
v 0.335000 0.004895 1.206448
v 0.365001 0.004895 1.206448
v 0.335000 0.013717 1.202200
v 0.365001 0.013717 1.202200
v 0.335000 0.019821 1.194545
v 0.365001 0.019821 1.194545
s 1
f 221 222 224 223
f 223 224 226 225
f 225 226 228 227
f 227 228 230 229
f 229 230 232 231
f 231 232 234 233
f 233 234 236 235
f 235 236 238 237
f 237 238 240 239
f 239 240 242 241
f 241 242 244 243
f 243 244 246 245
f 224 222 248 246 244 242 240 238 236 234 232 230 228 226
f 245 246 248 247
f 247 248 222 221
f 221 223 225 227 229 231 233 235 237 239 241 243 245 247
o pantry_handle_bar
v 0.470001 -0.034000 -0.250000
v 0.470001 -0.034000 0.250000
v 0.474774 -0.035089 -0.250000
v 0.474774 -0.035089 0.250000
v 0.478601 -0.038142 -0.250000
v 0.478601 -0.038142 0.250000
v 0.480725 -0.042552 -0.250000
v 0.480725 -0.042552 0.250000
v 0.480725 -0.047448 -0.250000
v 0.480725 -0.047448 0.250000
v 0.478601 -0.051858 -0.250000
v 0.478601 -0.051858 0.250000
v 0.474774 -0.054911 -0.250000
v 0.474774 -0.054911 0.250000
v 0.470001 -0.056000 -0.250000
v 0.470001 -0.056000 0.250000
v 0.465228 -0.054911 -0.250000
v 0.465228 -0.054911 0.250000
v 0.461400 -0.051858 -0.250000
v 0.461400 -0.051858 0.250000
v 0.459277 -0.047448 -0.250000
v 0.459277 -0.047448 0.250000
v 0.459277 -0.042552 -0.250000
v 0.459277 -0.042552 0.250000
v 0.461400 -0.038142 -0.250000
v 0.461400 -0.038142 0.250000
v 0.465228 -0.035089 -0.250000
v 0.465228 -0.035089 0.250000
s 1
f 249 250 252 251
f 251 252 254 253
f 253 254 256 255
f 255 256 258 257
f 257 258 260 259
f 259 260 262 261
f 261 262 264 263
f 263 264 266 265
f 265 266 268 267
f 267 268 270 269
f 269 270 272 271
f 271 272 274 273
f 252 250 276 274 272 270 268 266 264 262 260 258 256 254
f 273 274 276 275
f 275 276 250 249
f 249 251 253 255 257 259 261 263 265 267 269 271 273 275
