# Blender 4.1.1
# www.blender.org
o wr_sink_front
v 0.652000 2.455000 0.113500
v 0.652000 2.453000 0.115500
v 0.650000 2.455000 0.115500
v 0.652000 2.453586 0.114086
v 0.650845 2.453846 0.114345
v 0.650586 2.453586 0.115500
v 0.650586 2.455000 0.114086
v 0.652000 2.453000 0.856500
v 0.652000 2.455000 0.858500
v 0.650000 2.455000 0.856500
v 0.652000 2.453586 0.857914
v 0.650845 2.453846 0.857655
v 0.650586 2.455000 0.857914
v 0.650586 2.453586 0.856500
v 0.652000 3.345000 0.113500
v 0.650000 3.345000 0.115500
v 0.652000 3.347000 0.115500
v 0.650586 3.345000 0.114086
v 0.650845 3.346155 0.114345
v 0.650586 3.346414 0.115500
v 0.652000 3.346414 0.114086
v 0.652000 3.345000 0.858500
v 0.652000 3.347000 0.856500
v 0.650000 3.345000 0.856500
v 0.652000 3.346414 0.857914
v 0.650845 3.346155 0.857655
v 0.650586 3.346414 0.856500
v 0.650586 3.345000 0.857914
v 0.667000 2.455000 0.113500
v 0.669000 2.455000 0.115500
v 0.667000 2.453000 0.115500
v 0.668414 2.455000 0.114086
v 0.668155 2.453846 0.114345
v 0.668414 2.453586 0.115500
v 0.667000 2.453586 0.114086
v 0.667000 2.455000 0.858500
v 0.667000 2.453000 0.856500
v 0.669000 2.455000 0.856500
v 0.667000 2.453586 0.857914
v 0.668155 2.453846 0.857655
v 0.668414 2.453586 0.856500
v 0.668414 2.455000 0.857914
v 0.667000 3.345000 0.113500
v 0.667000 3.347000 0.115500
v 0.669000 3.345000 0.115500
v 0.667000 3.346414 0.114086
v 0.668155 3.346155 0.114345
v 0.668414 3.346414 0.115500
v 0.668414 3.345000 0.114086
v 0.667000 3.345000 0.858500
v 0.669000 3.345000 0.856500
v 0.667000 3.347000 0.856500
v 0.668414 3.345000 0.857914
v 0.668155 3.346155 0.857655
v 0.668414 3.346414 0.856500
v 0.667000 3.346414 0.857914
v 0.652000 2.453586 0.114086
v 0.650845 2.453846 0.114345
v 0.650845 2.453846 0.114345
v 0.650586 2.455000 0.114086
v 0.650586 2.453586 0.115500
v 0.652000 2.453586 0.857914
v 0.650845 2.453846 0.857655
v 0.650845 2.453846 0.857655
v 0.650586 2.453586 0.856500
v 0.650586 2.455000 0.857914
v 0.650586 3.345000 0.114086
v 0.650845 3.346155 0.114345
v 0.650845 3.346155 0.114345
v 0.652000 3.346414 0.114086
v 0.650586 3.346414 0.115500
v 0.652000 3.346414 0.857914
v 0.650845 3.346155 0.857655
v 0.650845 3.346155 0.857655
v 0.650586 3.345000 0.857914
v 0.650586 3.346414 0.856500
v 0.668414 2.455000 0.114086
v 0.668155 2.453846 0.114345
v 0.668155 2.453846 0.114345
v 0.667000 2.453586 0.114086
v 0.668414 2.453586 0.115500
v 0.667000 2.453586 0.857914
v 0.668155 2.453846 0.857655
v 0.668155 2.453846 0.857655
v 0.668414 2.455000 0.857914
v 0.668414 2.453586 0.856500
v 0.667000 3.346414 0.114086
v 0.668155 3.346155 0.114345
v 0.668155 3.346155 0.114345
v 0.668414 3.345000 0.114086
v 0.668414 3.346414 0.115500
v 0.668414 3.345000 0.857914
v 0.668155 3.346155 0.857655
v 0.668155 3.346155 0.857655
v 0.667000 3.346414 0.857914
v 0.668414 3.346414 0.856500
s 0
f 31 37 8 2
f 45 51 38 30
f 50 22 9 36
f 3 10 24 16
f 17 23 52 44
f 1 57 58 60
f 2 61 59 4
f 3 7 5 6
f 8 62 63 65
f 9 66 64 11
f 10 14 12 13
f 15 67 68 70
f 16 71 69 18
f 17 21 19 20
f 22 72 73 75
f 23 76 74 25
f 24 28 26 27
f 29 77 78 80
f 30 81 79 32
f 31 35 33 34
f 36 82 83 85
f 37 86 84 39
f 38 42 40 41
f 43 87 88 90
f 44 91 89 46
f 45 49 47 48
f 50 92 93 95
f 51 96 94 53
f 52 56 54 55
f 15 1 60 67
f 18 7 3 16
f 2 8 65 61
f 6 14 10 3
f 9 22 75 66
f 13 28 24 10
f 23 17 20 76
f 27 71 16 24
f 43 15 70 87
f 46 21 17 44
f 22 50 95 72
f 25 56 52 23
f 51 45 48 96
f 55 91 44 52
f 29 43 90 77
f 32 49 45 30
f 50 36 85 92
f 53 42 38 51
f 37 31 34 86
f 41 81 30 38
f 1 29 80 57
f 4 35 31 2
f 36 9 11 82
f 39 62 8 37
f 15 43 29 1
o wr_cook_door
v 0.652000 4.955000 0.113000
v 0.652000 4.953000 0.115000
v 0.650000 4.955000 0.115000
v 0.652000 4.953586 0.113586
v 0.650845 4.953845 0.113845
v 0.650586 4.953586 0.115000
v 0.650586 4.955000 0.113586
v 0.652000 4.953000 0.862000
v 0.652000 4.955000 0.864000
v 0.650000 4.955000 0.862000
v 0.652000 4.953586 0.863414
v 0.650845 4.953845 0.863155
v 0.650586 4.955000 0.863414
v 0.650586 4.953586 0.862000
v 0.652000 5.745000 0.113000
v 0.650000 5.745000 0.115000
v 0.652000 5.747000 0.115000
v 0.650586 5.745000 0.113586
v 0.650845 5.746155 0.113845
v 0.650586 5.746414 0.115000
v 0.652000 5.746414 0.113586
v 0.652000 5.745000 0.864000
v 0.652000 5.747000 0.862000
v 0.650000 5.745000 0.862000
v 0.652000 5.746414 0.863414
v 0.650845 5.746155 0.863155
v 0.650586 5.746414 0.862000
v 0.650586 5.745000 0.863414
v 0.667000 4.955000 0.113000
v 0.669000 4.955000 0.115000
v 0.667000 4.953000 0.115000
v 0.668414 4.955000 0.113586
v 0.668155 4.953845 0.113845
v 0.668414 4.953586 0.115000
v 0.667000 4.953586 0.113586
v 0.667000 4.955000 0.864000
v 0.667000 4.953000 0.862000
v 0.669000 4.955000 0.862000
v 0.667000 4.953586 0.863414
v 0.668155 4.953845 0.863155
v 0.668414 4.953586 0.862000
v 0.668414 4.955000 0.863414
v 0.667000 5.745000 0.113000
v 0.667000 5.747000 0.115000
v 0.669000 5.745000 0.115000
v 0.667000 5.746414 0.113586
v 0.668155 5.746155 0.113845
v 0.668414 5.746414 0.115000
v 0.668414 5.745000 0.113586
v 0.667000 5.745000 0.864000
v 0.669000 5.745000 0.862000
v 0.667000 5.747000 0.862000
v 0.668414 5.745000 0.863414
v 0.668155 5.746155 0.863155
v 0.668414 5.746414 0.862000
v 0.667000 5.746414 0.863414
v 0.652000 4.953586 0.113586
v 0.650845 4.953845 0.113845
v 0.650845 4.953845 0.113845
v 0.650586 4.955000 0.113586
v 0.650586 4.953586 0.115000
v 0.652000 4.953586 0.863414
v 0.650845 4.953845 0.863155
v 0.650845 4.953845 0.863155
v 0.650586 4.953586 0.862000
v 0.650586 4.955000 0.863414
v 0.650586 5.745000 0.113586
v 0.650845 5.746155 0.113845
v 0.650845 5.746155 0.113845
v 0.652000 5.746414 0.113586
v 0.650586 5.746414 0.115000
v 0.652000 5.746414 0.863414
v 0.650845 5.746155 0.863155
v 0.650845 5.746155 0.863155
v 0.650586 5.745000 0.863414
v 0.650586 5.746414 0.862000
v 0.668414 4.955000 0.113586
v 0.668155 4.953845 0.113845
v 0.668155 4.953845 0.113845
v 0.667000 4.953586 0.113586
v 0.668414 4.953586 0.115000
v 0.667000 4.953586 0.863414
v 0.668155 4.953845 0.863155
v 0.668155 4.953845 0.863155
v 0.668414 4.955000 0.863414
v 0.668414 4.953586 0.862000
v 0.667000 5.746414 0.113586
v 0.668155 5.746155 0.113845
v 0.668155 5.746155 0.113845
v 0.668414 5.745000 0.113586
v 0.668414 5.746414 0.115000
v 0.668414 5.745000 0.863414
v 0.668155 5.746155 0.863155
v 0.668155 5.746155 0.863155
v 0.667000 5.746414 0.863414
v 0.668414 5.746414 0.862000
s 0
f 127 133 104 98
f 141 147 134 126
f 146 118 105 132
f 99 106 120 112
f 113 119 148 140
f 97 153 154 156
f 98 157 155 100
f 99 103 101 102
f 104 158 159 161
f 105 162 160 107
f 106 110 108 109
f 111 163 164 166
f 112 167 165 114
f 113 117 115 116
f 118 168 169 171
f 119 172 170 121
f 120 124 122 123
f 125 173 174 176
f 126 177 175 128
f 127 131 129 130
f 132 178 179 181
f 133 182 180 135
f 134 138 136 137
f 139 183 184 186
f 140 187 185 142
f 141 145 143 144
f 146 188 189 191
f 147 192 190 149
f 148 152 150 151
f 111 97 156 163
f 114 103 99 112
f 98 104 161 157
f 102 110 106 99
f 105 118 171 162
f 109 124 120 106
f 119 113 116 172
f 123 167 112 120
f 139 111 166 183
f 142 117 113 140
f 118 146 191 168
f 121 152 148 119
f 147 141 144 192
f 151 187 140 148
f 125 139 186 173
f 128 145 141 126
f 146 132 181 188
f 149 138 134 147
f 133 127 130 182
f 137 177 126 134
f 97 125 176 153
f 100 131 127 98
f 132 105 107 178
f 135 158 104 133
f 111 139 125 97
o wr_coffee_door
v 0.652000 5.755000 0.113000
v 0.652000 5.753000 0.115000
v 0.650000 5.755000 0.115000
v 0.652000 5.753586 0.113586
v 0.650845 5.753845 0.113845
v 0.650586 5.753586 0.115000
v 0.650586 5.755000 0.113586
v 0.652000 5.753000 0.862000
v 0.652000 5.755000 0.864000
v 0.650000 5.755000 0.862000
v 0.652000 5.753586 0.863414
v 0.650845 5.753845 0.863155
v 0.650586 5.755000 0.863414
v 0.650586 5.753586 0.862000
v 0.652000 6.345000 0.113000
v 0.650000 6.345000 0.115000
v 0.652000 6.347000 0.115000
v 0.650586 6.345000 0.113586
v 0.650845 6.346155 0.113845
v 0.650586 6.346415 0.115000
v 0.652000 6.346415 0.113586
v 0.652000 6.345000 0.864000
v 0.652000 6.347000 0.862000
v 0.650000 6.345000 0.862000
v 0.652000 6.346415 0.863414
v 0.650845 6.346155 0.863155
v 0.650586 6.346415 0.862000
v 0.650586 6.345000 0.863414
v 0.667000 5.755000 0.113000
v 0.669000 5.755000 0.115000
v 0.667000 5.753000 0.115000
v 0.668414 5.755000 0.113586
v 0.668155 5.753845 0.113845
v 0.668414 5.753586 0.115000
v 0.667000 5.753586 0.113586
v 0.667000 5.755000 0.864000
v 0.667000 5.753000 0.862000
v 0.669000 5.755000 0.862000
v 0.667000 5.753586 0.863414
v 0.668155 5.753845 0.863155
v 0.668414 5.753586 0.862000
v 0.668414 5.755000 0.863414
v 0.667000 6.345000 0.113000
v 0.667000 6.347000 0.115000
v 0.669000 6.345000 0.115000
v 0.667000 6.346415 0.113586
v 0.668155 6.346155 0.113845
v 0.668414 6.346415 0.115000
v 0.668414 6.345000 0.113586
v 0.667000 6.345000 0.864000
v 0.669000 6.345000 0.862000
v 0.667000 6.347000 0.862000
v 0.668414 6.345000 0.863414
v 0.668155 6.346155 0.863155
v 0.668414 6.346415 0.862000
v 0.667000 6.346415 0.863414
v 0.652000 5.753586 0.113586
v 0.650845 5.753845 0.113845
v 0.650845 5.753845 0.113845
v 0.650586 5.755000 0.113586
v 0.650586 5.753586 0.115000
v 0.652000 5.753586 0.863414
v 0.650845 5.753845 0.863155
v 0.650845 5.753845 0.863155
v 0.650586 5.753586 0.862000
v 0.650586 5.755000 0.863414
v 0.650586 6.345000 0.113586
v 0.650845 6.346155 0.113845
v 0.650845 6.346155 0.113845
v 0.652000 6.346415 0.113586
v 0.650586 6.346415 0.115000
v 0.652000 6.346415 0.863414
v 0.650845 6.346155 0.863155
v 0.650845 6.346155 0.863155
v 0.650586 6.345000 0.863414
v 0.650586 6.346415 0.862000
v 0.668414 5.755000 0.113586
v 0.668155 5.753845 0.113845
v 0.668155 5.753845 0.113845
v 0.667000 5.753586 0.113586
v 0.668414 5.753586 0.115000
v 0.667000 5.753586 0.863414
v 0.668155 5.753845 0.863155
v 0.668155 5.753845 0.863155
v 0.668414 5.755000 0.863414
v 0.668414 5.753586 0.862000
v 0.667000 6.346415 0.113586
v 0.668155 6.346155 0.113845
v 0.668155 6.346155 0.113845
v 0.668414 6.345000 0.113586
v 0.668414 6.346415 0.115000
v 0.668414 6.345000 0.863414
v 0.668155 6.346155 0.863155
v 0.668155 6.346155 0.863155
v 0.667000 6.346415 0.863414
v 0.668414 6.346415 0.862000
s 0
f 223 229 200 194
f 237 243 230 222
f 242 214 201 228
f 195 202 216 208
f 209 215 244 236
f 193 249 250 252
f 194 253 251 196
f 195 199 197 198
f 200 254 255 257
f 201 258 256 203
f 202 206 204 205
f 207 259 260 262
f 208 263 261 210
f 209 213 211 212
f 214 264 265 267
f 215 268 266 217
f 216 220 218 219
f 221 269 270 272
f 222 273 271 224
f 223 227 225 226
f 228 274 275 277
f 229 278 276 231
f 230 234 232 233
f 235 279 280 282
f 236 283 281 238
f 237 241 239 240
f 242 284 285 287
f 243 288 286 245
f 244 248 246 247
f 207 193 252 259
f 210 199 195 208
f 194 200 257 253
f 198 206 202 195
f 201 214 267 258
f 205 220 216 202
f 215 209 212 268
f 219 263 208 216
f 235 207 262 279
f 238 213 209 236
f 214 242 287 264
f 217 248 244 215
f 243 237 240 288
f 247 283 236 244
f 221 235 282 269
f 224 241 237 222
f 242 228 277 284
f 245 234 230 243
f 229 223 226 278
f 233 273 222 230
f 193 221 272 249
f 196 227 223 194
f 228 201 203 274
f 231 254 200 229
f 207 235 221 193
o oven_col_filler_hi
v 0.652000 6.382000 1.585000
v 0.652000 6.380000 1.587000
v 0.650000 6.382000 1.587000
v 0.652000 6.380586 1.585586
v 0.650845 6.380846 1.585845
v 0.650586 6.380586 1.587000
v 0.650586 6.382000 1.585586
v 0.652000 6.380000 2.438000
v 0.652000 6.382000 2.440000
v 0.650000 6.382000 2.438000
v 0.652000 6.380586 2.439414
v 0.650845 6.380846 2.439155
v 0.650586 6.382000 2.439414
v 0.650586 6.380586 2.438000
v 0.652000 6.788000 1.585000
v 0.650000 6.788000 1.587000
v 0.652000 6.790000 1.587000
v 0.650586 6.788000 1.585586
v 0.650845 6.789155 1.585845
v 0.650586 6.789414 1.587000
v 0.652000 6.789414 1.585586
v 0.652000 6.788000 2.440000
v 0.652000 6.790000 2.438000
v 0.650000 6.788000 2.438000
v 0.652000 6.789414 2.439414
v 0.650845 6.789155 2.439155
v 0.650586 6.789414 2.438000
v 0.650586 6.788000 2.439414
v 0.667000 6.382000 1.585000
v 0.669000 6.382000 1.587000
v 0.667000 6.380000 1.587000
v 0.668414 6.382000 1.585586
v 0.668155 6.380846 1.585845
v 0.668414 6.380586 1.587000
v 0.667000 6.380586 1.585586
v 0.667000 6.382000 2.440000
v 0.667000 6.380000 2.438000
v 0.669000 6.382000 2.438000
v 0.667000 6.380586 2.439414
v 0.668155 6.380846 2.439155
v 0.668414 6.380586 2.438000
v 0.668414 6.382000 2.439414
v 0.667000 6.788000 1.585000
v 0.667000 6.790000 1.587000
v 0.669000 6.788000 1.587000
v 0.667000 6.789414 1.585586
v 0.668155 6.789155 1.585845
v 0.668414 6.789414 1.587000
v 0.668414 6.788000 1.585586
v 0.667000 6.788000 2.440000
v 0.669000 6.788000 2.438000
v 0.667000 6.790000 2.438000
v 0.668414 6.788000 2.439414
v 0.668155 6.789155 2.439155
v 0.668414 6.789414 2.438000
v 0.667000 6.789414 2.439414
v 0.652000 6.380586 1.585586
v 0.650845 6.380846 1.585845
v 0.650845 6.380846 1.585845
v 0.650586 6.382000 1.585586
v 0.650586 6.380586 1.587000
v 0.652000 6.380586 2.439414
v 0.650845 6.380846 2.439155
v 0.650845 6.380846 2.439155
v 0.650586 6.380586 2.438000
v 0.650586 6.382000 2.439414
v 0.650586 6.788000 1.585586
v 0.650845 6.789155 1.585845
v 0.650845 6.789155 1.585845
v 0.652000 6.789414 1.585586
v 0.650586 6.789414 1.587000
v 0.652000 6.789414 2.439414
v 0.650845 6.789155 2.439155
v 0.650845 6.789155 2.439155
v 0.650586 6.788000 2.439414
v 0.650586 6.789414 2.438000
v 0.668414 6.382000 1.585586
v 0.668155 6.380846 1.585845
v 0.668155 6.380846 1.585845
v 0.667000 6.380586 1.585586
v 0.668414 6.380586 1.587000
v 0.667000 6.380586 2.439414
v 0.668155 6.380846 2.439155
v 0.668155 6.380846 2.439155
v 0.668414 6.382000 2.439414
v 0.668414 6.380586 2.438000
v 0.667000 6.789414 1.585586
v 0.668155 6.789155 1.585845
v 0.668155 6.789155 1.585845
v 0.668414 6.788000 1.585586
v 0.668414 6.789414 1.587000
v 0.668414 6.788000 2.439414
v 0.668155 6.789155 2.439155
v 0.668155 6.789155 2.439155
v 0.667000 6.789414 2.439414
v 0.668414 6.789414 2.438000
s 0
f 319 325 296 290
f 333 339 326 318
f 338 310 297 324
f 291 298 312 304
f 305 311 340 332
f 289 345 346 348
f 290 349 347 292
f 291 295 293 294
f 296 350 351 353
f 297 354 352 299
f 298 302 300 301
f 303 355 356 358
f 304 359 357 306
f 305 309 307 308
f 310 360 361 363
f 311 364 362 313
f 312 316 314 315
f 317 365 366 368
f 318 369 367 320
f 319 323 321 322
f 324 370 371 373
f 325 374 372 327
f 326 330 328 329
f 331 375 376 378
f 332 379 377 334
f 333 337 335 336
f 338 380 381 383
f 339 384 382 341
f 340 344 342 343
f 303 289 348 355
f 306 295 291 304
f 290 296 353 349
f 294 302 298 291
f 297 310 363 354
f 301 316 312 298
f 311 305 308 364
f 315 359 304 312
f 331 303 358 375
f 334 309 305 332
f 310 338 383 360
f 313 344 340 311
f 339 333 336 384
f 343 379 332 340
f 317 331 378 365
f 320 337 333 318
f 338 324 373 380
f 341 330 326 339
f 325 319 322 374
f 329 369 318 326
f 289 317 368 345
f 292 323 319 290
f 324 297 299 370
f 327 350 296 325
f 303 331 317 289
o up_door_c
v 0.352000 5.755000 1.453000
v 0.352000 5.753000 1.455000
v 0.350000 5.755000 1.455000
v 0.352000 5.753586 1.453586
v 0.350845 5.753845 1.453845
v 0.350586 5.753586 1.455000
v 0.350586 5.755000 1.453586
v 0.352000 5.753000 2.245000
v 0.352000 5.755000 2.247000
v 0.350000 5.755000 2.245000
v 0.352000 5.753586 2.246414
v 0.350845 5.753845 2.246155
v 0.350586 5.755000 2.246414
v 0.350586 5.753586 2.245000
v 0.352000 6.345000 1.453000
v 0.350000 6.345000 1.455000
v 0.352000 6.347000 1.455000
v 0.350586 6.345000 1.453586
v 0.350845 6.346155 1.453845
v 0.350586 6.346415 1.455000
v 0.352000 6.346415 1.453586
v 0.352000 6.345000 2.247000
v 0.352000 6.347000 2.245000
v 0.350000 6.345000 2.245000
v 0.352000 6.346415 2.246414
v 0.350845 6.346155 2.246155
v 0.350586 6.346415 2.245000
v 0.350586 6.345000 2.246414
v 0.367000 5.755000 1.453000
v 0.369000 5.755000 1.455000
v 0.367000 5.753000 1.455000
v 0.368414 5.755000 1.453586
v 0.368155 5.753845 1.453845
v 0.368414 5.753586 1.455000
v 0.367000 5.753586 1.453586
v 0.367000 5.755000 2.247000
v 0.367000 5.753000 2.245000
v 0.369000 5.755000 2.245000
v 0.367000 5.753586 2.246414
v 0.368155 5.753845 2.246155
v 0.368414 5.753586 2.245000
v 0.368414 5.755000 2.246414
v 0.367000 6.345000 1.453000
v 0.367000 6.347000 1.455000
v 0.369000 6.345000 1.455000
v 0.367000 6.346415 1.453586
v 0.368155 6.346155 1.453845
v 0.368414 6.346415 1.455000
v 0.368414 6.345000 1.453586
v 0.367000 6.345000 2.247000
v 0.369000 6.345000 2.245000
v 0.367000 6.347000 2.245000
v 0.368414 6.345000 2.246414
v 0.368155 6.346155 2.246155
v 0.368414 6.346415 2.245000
v 0.367000 6.346415 2.246414
v 0.352000 5.753586 1.453586
v 0.350845 5.753845 1.453845
v 0.350845 5.753845 1.453845
v 0.350586 5.755000 1.453586
v 0.350586 5.753586 1.455000
v 0.352000 5.753586 2.246414
v 0.350845 5.753845 2.246155
v 0.350845 5.753845 2.246155
v 0.350586 5.753586 2.245000
v 0.350586 5.755000 2.246414
v 0.350586 6.345000 1.453586
v 0.350845 6.346155 1.453845
v 0.350845 6.346155 1.453845
v 0.352000 6.346415 1.453586
v 0.350586 6.346415 1.455000
v 0.352000 6.346415 2.246414
v 0.350845 6.346155 2.246155
v 0.350845 6.346155 2.246155
v 0.350586 6.345000 2.246414
v 0.350586 6.346415 2.245000
v 0.368414 5.755000 1.453586
v 0.368155 5.753845 1.453845
v 0.368155 5.753845 1.453845
v 0.367000 5.753586 1.453586
v 0.368414 5.753586 1.455000
v 0.367000 5.753586 2.246414
v 0.368155 5.753845 2.246155
v 0.368155 5.753845 2.246155
v 0.368414 5.755000 2.246414
v 0.368414 5.753586 2.245000
v 0.367000 6.346415 1.453586
v 0.368155 6.346155 1.453845
v 0.368155 6.346155 1.453845
v 0.368414 6.345000 1.453586
v 0.368414 6.346415 1.455000
v 0.368414 6.345000 2.246414
v 0.368155 6.346155 2.246155
v 0.368155 6.346155 2.246155
v 0.367000 6.346415 2.246414
v 0.368414 6.346415 2.245000
s 0
f 415 421 392 386
f 429 435 422 414
f 434 406 393 420
f 387 394 408 400
f 401 407 436 428
f 385 441 442 444
f 386 445 443 388
f 387 391 389 390
f 392 446 447 449
f 393 450 448 395
f 394 398 396 397
f 399 451 452 454
f 400 455 453 402
f 401 405 403 404
f 406 456 457 459
f 407 460 458 409
f 408 412 410 411
f 413 461 462 464
f 414 465 463 416
f 415 419 417 418
f 420 466 467 469
f 421 470 468 423
f 422 426 424 425
f 427 471 472 474
f 428 475 473 430
f 429 433 431 432
f 434 476 477 479
f 435 480 478 437
f 436 440 438 439
f 399 385 444 451
f 402 391 387 400
f 386 392 449 445
f 390 398 394 387
f 393 406 459 450
f 397 412 408 394
f 407 401 404 460
f 411 455 400 408
f 427 399 454 471
f 430 405 401 428
f 406 434 479 456
f 409 440 436 407
f 435 429 432 480
f 439 475 428 436
f 413 427 474 461
f 416 433 429 414
f 434 420 469 476
f 437 426 422 435
f 421 415 418 470
f 425 465 414 422
f 385 413 464 441
f 388 419 415 386
f 420 393 395 466
f 423 446 392 421
f 399 427 413 385
o up_filler_win
v 0.001000 3.641500 1.450000
v 0.001000 3.640500 1.451000
v 0.000000 3.641500 1.451000
v 0.001000 3.640793 1.450293
v 0.000423 3.640923 1.450423
v 0.000293 3.640793 1.451000
v 0.000293 3.641500 1.450293
v 0.001000 3.640500 2.249000
v 0.001000 3.641500 2.250000
v 0.000000 3.641500 2.249000
v 0.001000 3.640793 2.249707
v 0.000423 3.640923 2.249578
v 0.000293 3.641500 2.249707
v 0.000293 3.640793 2.249000
v 0.001000 3.658500 1.450000
v 0.000000 3.658500 1.451000
v 0.001000 3.659500 1.451000
v 0.000293 3.658500 1.450293
v 0.000423 3.659077 1.450423
v 0.000293 3.659207 1.451000
v 0.001000 3.659207 1.450293
v 0.001000 3.658500 2.250000
v 0.001000 3.659500 2.249000
v 0.000000 3.658500 2.249000
v 0.001000 3.659207 2.249707
v 0.000423 3.659077 2.249578
v 0.000293 3.659207 2.249000
v 0.000293 3.658500 2.249707
v 0.329000 3.641500 1.450000
v 0.330000 3.641500 1.451000
v 0.329000 3.640500 1.451000
v 0.329707 3.641500 1.450293
v 0.329577 3.640923 1.450423
v 0.329707 3.640793 1.451000
v 0.329000 3.640793 1.450293
v 0.329000 3.641500 2.250000
v 0.329000 3.640500 2.249000
v 0.330000 3.641500 2.249000
v 0.329000 3.640793 2.249707
v 0.329577 3.640923 2.249578
v 0.329707 3.640793 2.249000
v 0.329707 3.641500 2.249707
v 0.329000 3.658500 1.450000
v 0.329000 3.659500 1.451000
v 0.330000 3.658500 1.451000
v 0.329000 3.659207 1.450293
v 0.329577 3.659077 1.450423
v 0.329707 3.659207 1.451000
v 0.329707 3.658500 1.450293
v 0.329000 3.658500 2.250000
v 0.330000 3.658500 2.249000
v 0.329000 3.659500 2.249000
v 0.329707 3.658500 2.249707
v 0.329577 3.659077 2.249578
v 0.329707 3.659207 2.249000
v 0.329000 3.659207 2.249707
v 0.001000 3.640793 1.450293
v 0.000423 3.640923 1.450423
v 0.000423 3.640923 1.450423
v 0.000293 3.641500 1.450293
v 0.000293 3.640793 1.451000
v 0.001000 3.640793 2.249707
v 0.000423 3.640923 2.249578
v 0.000423 3.640923 2.249578
v 0.000293 3.640793 2.249000
v 0.000293 3.641500 2.249707
v 0.000293 3.658500 1.450293
v 0.000423 3.659077 1.450423
v 0.000423 3.659077 1.450423
v 0.001000 3.659207 1.450293
v 0.000293 3.659207 1.451000
v 0.001000 3.659207 2.249707
v 0.000423 3.659077 2.249578
v 0.000423 3.659077 2.249578
v 0.000293 3.658500 2.249707
v 0.000293 3.659207 2.249000
v 0.329707 3.641500 1.450293
v 0.329577 3.640923 1.450423
v 0.329577 3.640923 1.450423
v 0.329000 3.640793 1.450293
v 0.329707 3.640793 1.451000
v 0.329000 3.640793 2.249707
v 0.329577 3.640923 2.249578
v 0.329577 3.640923 2.249578
v 0.329707 3.641500 2.249707
v 0.329707 3.640793 2.249000
v 0.329000 3.659207 1.450293
v 0.329577 3.659077 1.450423
v 0.329577 3.659077 1.450423
v 0.329707 3.658500 1.450293
v 0.329707 3.659207 1.451000
v 0.329707 3.658500 2.249707
v 0.329577 3.659077 2.249578
v 0.329577 3.659077 2.249578
v 0.329000 3.659207 2.249707
v 0.329707 3.659207 2.249000
s 0
f 511 517 488 482
f 525 531 518 510
f 530 502 489 516
f 483 490 504 496
f 497 503 532 524
f 481 537 538 540
f 482 541 539 484
f 483 487 485 486
f 488 542 543 545
f 489 546 544 491
f 490 494 492 493
f 495 547 548 550
f 496 551 549 498
f 497 501 499 500
f 502 552 553 555
f 503 556 554 505
f 504 508 506 507
f 509 557 558 560
f 510 561 559 512
f 511 515 513 514
f 516 562 563 565
f 517 566 564 519
f 518 522 520 521
f 523 567 568 570
f 524 571 569 526
f 525 529 527 528
f 530 572 573 575
f 531 576 574 533
f 532 536 534 535
f 495 481 540 547
f 498 487 483 496
f 482 488 545 541
f 486 494 490 483
f 489 502 555 546
f 493 508 504 490
f 503 497 500 556
f 507 551 496 504
f 523 495 550 567
f 526 501 497 524
f 502 530 575 552
f 505 536 532 503
f 531 525 528 576
f 535 571 524 532
f 509 523 570 557
f 512 529 525 510
f 530 516 565 572
f 533 522 518 531
f 517 511 514 566
f 521 561 510 518
f 481 509 560 537
f 484 515 511 482
f 516 489 491 562
f 519 542 488 517
f 495 523 509 481
o fridge_enc_side_l
v 0.132000 0.002000 0.100000
v 0.132000 0.000000 0.102000
v 0.130000 0.002000 0.102000
v 0.132000 0.000586 0.100586
v 0.130845 0.000845 0.100845
v 0.130586 0.000586 0.102000
v 0.130586 0.002000 0.100586
v 0.132000 0.000000 2.448000
v 0.132000 0.002000 2.450000
v 0.130000 0.002000 2.448000
v 0.132000 0.000586 2.449414
v 0.130845 0.000845 2.449155
v 0.130586 0.002000 2.449414
v 0.130586 0.000586 2.448000
v 0.132000 0.648000 0.100000
v 0.130000 0.648000 0.102000
v 0.132000 0.650000 0.102000
v 0.130586 0.648000 0.100586
v 0.130845 0.649155 0.100845
v 0.130586 0.649414 0.102000
v 0.132000 0.649414 0.100586
v 0.132000 0.648000 2.450000
v 0.132000 0.650000 2.448000
v 0.130000 0.648000 2.448000
v 0.132000 0.649414 2.449414
v 0.130845 0.649155 2.449155
v 0.130586 0.649414 2.448000
v 0.130586 0.648000 2.449414
v 0.148000 0.002000 0.100000
v 0.150000 0.002000 0.102000
v 0.148000 0.000000 0.102000
v 0.149414 0.002000 0.100586
v 0.149155 0.000845 0.100845
v 0.149414 0.000586 0.102000
v 0.148000 0.000586 0.100586
v 0.148000 0.002000 2.450000
v 0.148000 0.000000 2.448000
v 0.150000 0.002000 2.448000
v 0.148000 0.000586 2.449414
v 0.149155 0.000845 2.449155
v 0.149414 0.000586 2.448000
v 0.149414 0.002000 2.449414
v 0.148000 0.648000 0.100000
v 0.148000 0.650000 0.102000
v 0.150000 0.648000 0.102000
v 0.148000 0.649414 0.100586
v 0.149155 0.649155 0.100845
v 0.149414 0.649414 0.102000
v 0.149414 0.648000 0.100586
v 0.148000 0.648000 2.450000
v 0.150000 0.648000 2.448000
v 0.148000 0.650000 2.448000
v 0.149414 0.648000 2.449414
v 0.149155 0.649155 2.449155
v 0.149414 0.649414 2.448000
v 0.148000 0.649414 2.449414
v 0.132000 0.000586 0.100586
v 0.130845 0.000845 0.100845
v 0.130845 0.000845 0.100845
v 0.130586 0.002000 0.100586
v 0.130586 0.000586 0.102000
v 0.132000 0.000586 2.449414
v 0.130845 0.000845 2.449155
v 0.130845 0.000845 2.449155
v 0.130586 0.000586 2.448000
v 0.130586 0.002000 2.449414
v 0.130586 0.648000 0.100586
v 0.130845 0.649155 0.100845
v 0.130845 0.649155 0.100845
v 0.132000 0.649414 0.100586
v 0.130586 0.649414 0.102000
v 0.132000 0.649414 2.449414
v 0.130845 0.649155 2.449155
v 0.130845 0.649155 2.449155
v 0.130586 0.648000 2.449414
v 0.130586 0.649414 2.448000
v 0.149414 0.002000 0.100586
v 0.149155 0.000845 0.100845
v 0.149155 0.000845 0.100845
v 0.148000 0.000586 0.100586
v 0.149414 0.000586 0.102000
v 0.148000 0.000586 2.449414
v 0.149155 0.000845 2.449155
v 0.149155 0.000845 2.449155
v 0.149414 0.002000 2.449414
v 0.149414 0.000586 2.448000
v 0.148000 0.649414 0.100586
v 0.149155 0.649155 0.100845
v 0.149155 0.649155 0.100845
v 0.149414 0.648000 0.100586
v 0.149414 0.649414 0.102000
v 0.149414 0.648000 2.449414
v 0.149155 0.649155 2.449155
v 0.149155 0.649155 2.449155
v 0.148000 0.649414 2.449414
v 0.149414 0.649414 2.448000
s 0
f 607 613 584 578
f 621 627 614 606
f 626 598 585 612
f 579 586 600 592
f 593 599 628 620
f 577 633 634 636
f 578 637 635 580
f 579 583 581 582
f 584 638 639 641
f 585 642 640 587
f 586 590 588 589
f 591 643 644 646
f 592 647 645 594
f 593 597 595 596
f 598 648 649 651
f 599 652 650 601
f 600 604 602 603
f 605 653 654 656
f 606 657 655 608
f 607 611 609 610
f 612 658 659 661
f 613 662 660 615
f 614 618 616 617
f 619 663 664 666
f 620 667 665 622
f 621 625 623 624
f 626 668 669 671
f 627 672 670 629
f 628 632 630 631
f 591 577 636 643
f 594 583 579 592
f 578 584 641 637
f 582 590 586 579
f 585 598 651 642
f 589 604 600 586
f 599 593 596 652
f 603 647 592 600
f 619 591 646 663
f 622 597 593 620
f 598 626 671 648
f 601 632 628 599
f 627 621 624 672
f 631 667 620 628
f 605 619 666 653
f 608 625 621 606
f 626 612 661 668
f 629 618 614 627
f 613 607 610 662
f 617 657 606 614
f 577 605 656 633
f 580 611 607 578
f 612 585 587 658
f 615 638 584 613
f 591 619 605 577
o fridge_top_panel
v 0.182000 0.652000 2.085000
v 0.182000 0.650000 2.087000
v 0.180000 0.652000 2.087000
v 0.182000 0.650586 2.085586
v 0.180845 0.650845 2.085845
v 0.180586 0.650586 2.087000
v 0.180586 0.652000 2.085586
v 0.182000 0.650000 2.433000
v 0.182000 0.652000 2.435000
v 0.180000 0.652000 2.433000
v 0.182000 0.650586 2.434414
v 0.180845 0.650845 2.434155
v 0.180586 0.652000 2.434414
v 0.180586 0.650586 2.433000
v 0.182000 0.667000 2.085000
v 0.180000 0.667000 2.087000
v 0.182000 0.669000 2.087000
v 0.180586 0.667000 2.085586
v 0.180845 0.668155 2.085845
v 0.180586 0.668414 2.087000
v 0.182000 0.668414 2.085586
v 0.182000 0.667000 2.435000
v 0.182000 0.669000 2.433000
v 0.180000 0.667000 2.433000
v 0.182000 0.668414 2.434414
v 0.180845 0.668155 2.434155
v 0.180586 0.668414 2.433000
v 0.180586 0.667000 2.434414
v 1.318000 0.652000 2.085000
v 1.320000 0.652000 2.087000
v 1.318000 0.650000 2.087000
v 1.319414 0.652000 2.085586
v 1.319155 0.650845 2.085845
v 1.319414 0.650586 2.087000
v 1.318000 0.650586 2.085586
v 1.318000 0.652000 2.435000
v 1.318000 0.650000 2.433000
v 1.320000 0.652000 2.433000
v 1.318000 0.650586 2.434414
v 1.319155 0.650845 2.434155
v 1.319414 0.650586 2.433000
v 1.319414 0.652000 2.434414
v 1.318000 0.667000 2.085000
v 1.318000 0.669000 2.087000
v 1.320000 0.667000 2.087000
v 1.318000 0.668414 2.085586
v 1.319155 0.668155 2.085845
v 1.319414 0.668414 2.087000
v 1.319414 0.667000 2.085586
v 1.318000 0.667000 2.435000
v 1.320000 0.667000 2.433000
v 1.318000 0.669000 2.433000
v 1.319414 0.667000 2.434414
v 1.319155 0.668155 2.434155
v 1.319414 0.668414 2.433000
v 1.318000 0.668414 2.434414
v 0.182000 0.650586 2.085586
v 0.180845 0.650845 2.085845
v 0.180845 0.650845 2.085845
v 0.180586 0.652000 2.085586
v 0.180586 0.650586 2.087000
v 0.182000 0.650586 2.434414
v 0.180845 0.650845 2.434155
v 0.180845 0.650845 2.434155
v 0.180586 0.650586 2.433000
v 0.180586 0.652000 2.434414
v 0.180586 0.667000 2.085586
v 0.180845 0.668155 2.085845
v 0.180845 0.668155 2.085845
v 0.182000 0.668414 2.085586
v 0.180586 0.668414 2.087000
v 0.182000 0.668414 2.434414
v 0.180845 0.668155 2.434155
v 0.180845 0.668155 2.434155
v 0.180586 0.667000 2.434414
v 0.180586 0.668414 2.433000
v 1.319414 0.652000 2.085586
v 1.319155 0.650845 2.085845
v 1.319155 0.650845 2.085845
v 1.318000 0.650586 2.085586
v 1.319414 0.650586 2.087000
v 1.318000 0.650586 2.434414
v 1.319155 0.650845 2.434155
v 1.319155 0.650845 2.434155
v 1.319414 0.652000 2.434414
v 1.319414 0.650586 2.433000
v 1.318000 0.668414 2.085586
v 1.319155 0.668155 2.085845
v 1.319155 0.668155 2.085845
v 1.319414 0.667000 2.085586
v 1.319414 0.668414 2.087000
v 1.319414 0.667000 2.434414
v 1.319155 0.668155 2.434155
v 1.319155 0.668155 2.434155
v 1.318000 0.668414 2.434414
v 1.319414 0.668414 2.433000
s 0
f 703 709 680 674
f 717 723 710 702
f 722 694 681 708
f 675 682 696 688
f 689 695 724 716
f 673 729 730 732
f 674 733 731 676
f 675 679 677 678
f 680 734 735 737
f 681 738 736 683
f 682 686 684 685
f 687 739 740 742
f 688 743 741 690
f 689 693 691 692
f 694 744 745 747
f 695 748 746 697
f 696 700 698 699
f 701 749 750 752
f 702 753 751 704
f 703 707 705 706
f 708 754 755 757
f 709 758 756 711
f 710 714 712 713
f 715 759 760 762
f 716 763 761 718
f 717 721 719 720
f 722 764 765 767
f 723 768 766 725
f 724 728 726 727
f 687 673 732 739
f 690 679 675 688
f 674 680 737 733
f 678 686 682 675
f 681 694 747 738
f 685 700 696 682
f 695 689 692 748
f 699 743 688 696
f 715 687 742 759
f 718 693 689 716
f 694 722 767 744
f 697 728 724 695
f 723 717 720 768
f 727 763 716 724
f 701 715 762 749
f 704 721 717 702
f 722 708 757 764
f 725 714 710 723
f 709 703 706 758
f 713 753 702 710
f 673 701 752 729
f 676 707 703 674
f 708 681 683 754
f 711 734 680 709
f 687 715 701 673
o srun_filler
v 2.291000 0.651000 0.100000
v 2.291000 0.650000 0.101000
v 2.290000 0.651000 0.101000
v 2.291000 0.650293 0.100293
v 2.290423 0.650423 0.100423
v 2.290293 0.650293 0.101000
v 2.290293 0.651000 0.100293
v 2.291000 0.650000 2.449000
v 2.291000 0.651000 2.450000
v 2.290000 0.651000 2.449000
v 2.291000 0.650293 2.449707
v 2.290423 0.650423 2.449577
v 2.290293 0.651000 2.449707
v 2.290293 0.650293 2.449000
v 2.291000 0.668000 0.100000
v 2.290000 0.668000 0.101000
v 2.291000 0.669000 0.101000
v 2.290293 0.668000 0.100293
v 2.290423 0.668577 0.100423
v 2.290293 0.668707 0.101000
v 2.291000 0.668707 0.100293
v 2.291000 0.668000 2.450000
v 2.291000 0.669000 2.449000
v 2.290000 0.668000 2.449000
v 2.291000 0.668707 2.449707
v 2.290423 0.668577 2.449577
v 2.290293 0.668707 2.449000
v 2.290293 0.668000 2.449707
v 2.349000 0.651000 0.100000
v 2.350000 0.651000 0.101000
v 2.349000 0.650000 0.101000
v 2.349707 0.651000 0.100293
v 2.349577 0.650423 0.100423
v 2.349707 0.650293 0.101000
v 2.349000 0.650293 0.100293
v 2.349000 0.651000 2.450000
v 2.349000 0.650000 2.449000
v 2.350000 0.651000 2.449000
v 2.349000 0.650293 2.449707
v 2.349577 0.650423 2.449577
v 2.349707 0.650293 2.449000
v 2.349707 0.651000 2.449707
v 2.349000 0.668000 0.100000
v 2.349000 0.669000 0.101000
v 2.350000 0.668000 0.101000
v 2.349000 0.668707 0.100293
v 2.349577 0.668577 0.100423
v 2.349707 0.668707 0.101000
v 2.349707 0.668000 0.100293
v 2.349000 0.668000 2.450000
v 2.350000 0.668000 2.449000
v 2.349000 0.669000 2.449000
v 2.349707 0.668000 2.449707
v 2.349577 0.668577 2.449577
v 2.349707 0.668707 2.449000
v 2.349000 0.668707 2.449707
v 2.291000 0.650293 0.100293
v 2.290423 0.650423 0.100423
v 2.290423 0.650423 0.100423
v 2.290293 0.651000 0.100293
v 2.290293 0.650293 0.101000
v 2.291000 0.650293 2.449707
v 2.290423 0.650423 2.449577
v 2.290423 0.650423 2.449577
v 2.290293 0.650293 2.449000
v 2.290293 0.651000 2.449707
v 2.290293 0.668000 0.100293
v 2.290423 0.668577 0.100423
v 2.290423 0.668577 0.100423
v 2.291000 0.668707 0.100293
v 2.290293 0.668707 0.101000
v 2.291000 0.668707 2.449707
v 2.290423 0.668577 2.449577
v 2.290423 0.668577 2.449577
v 2.290293 0.668000 2.449707
v 2.290293 0.668707 2.449000
v 2.349707 0.651000 0.100293
v 2.349577 0.650423 0.100423
v 2.349577 0.650423 0.100423
v 2.349000 0.650293 0.100293
v 2.349707 0.650293 0.101000
v 2.349000 0.650293 2.449707
v 2.349577 0.650423 2.449577
v 2.349577 0.650423 2.449577
v 2.349707 0.651000 2.449707
v 2.349707 0.650293 2.449000
v 2.349000 0.668707 0.100293
v 2.349577 0.668577 0.100423
v 2.349577 0.668577 0.100423
v 2.349707 0.668000 0.100293
v 2.349707 0.668707 0.101000
v 2.349707 0.668000 2.449707
v 2.349577 0.668577 2.449577
v 2.349577 0.668577 2.449577
v 2.349000 0.668707 2.449707
v 2.349707 0.668707 2.449000
s 0
f 799 805 776 770
f 813 819 806 798
f 818 790 777 804
f 771 778 792 784
f 785 791 820 812
f 769 825 826 828
f 770 829 827 772
f 771 775 773 774
f 776 830 831 833
f 777 834 832 779
f 778 782 780 781
f 783 835 836 838
f 784 839 837 786
f 785 789 787 788
f 790 840 841 843
f 791 844 842 793
f 792 796 794 795
f 797 845 846 848
f 798 849 847 800
f 799 803 801 802
f 804 850 851 853
f 805 854 852 807
f 806 810 808 809
f 811 855 856 858
f 812 859 857 814
f 813 817 815 816
f 818 860 861 863
f 819 864 862 821
f 820 824 822 823
f 783 769 828 835
f 786 775 771 784
f 770 776 833 829
f 774 782 778 771
f 777 790 843 834
f 781 796 792 778
f 791 785 788 844
f 795 839 784 792
f 811 783 838 855
f 814 789 785 812
f 790 818 863 840
f 793 824 820 791
f 819 813 816 864
f 823 859 812 820
f 797 811 858 845
f 800 817 813 798
f 818 804 853 860
f 821 810 806 819
f 805 799 802 854
f 809 849 798 806
f 769 797 848 825
f 772 803 799 770
f 804 777 779 850
f 807 830 776 805
f 783 811 797 769
o pantry_drawer_front_b
v 8.637000 0.742000 0.420000
v 8.637000 0.740000 0.422000
v 8.635000 0.742000 0.422000
v 8.637000 0.740586 0.420586
v 8.635846 0.740845 0.420845
v 8.635586 0.740586 0.422000
v 8.635586 0.742000 0.420586
v 8.637000 0.740000 0.618000
v 8.637000 0.742000 0.620000
v 8.635000 0.742000 0.618000
v 8.637000 0.740586 0.619414
v 8.635846 0.740845 0.619155
v 8.635586 0.742000 0.619414
v 8.635586 0.740586 0.618000
v 8.637000 0.757000 0.420000
v 8.635000 0.757000 0.422000
v 8.637000 0.759000 0.422000
v 8.635586 0.757000 0.420586
v 8.635846 0.758155 0.420845
v 8.635586 0.758414 0.422000
v 8.637000 0.758414 0.420586
v 8.637000 0.757000 0.620000
v 8.637000 0.759000 0.618000
v 8.635000 0.757000 0.618000
v 8.637000 0.758414 0.619414
v 8.635846 0.758155 0.619155
v 8.635586 0.758414 0.618000
v 8.635586 0.757000 0.619414
v 9.483001 0.742000 0.420000
v 9.485001 0.742000 0.422000
v 9.483001 0.740000 0.422000
v 9.484415 0.742000 0.420586
v 9.484155 0.740845 0.420845
v 9.484415 0.740586 0.422000
v 9.483001 0.740586 0.420586
v 9.483001 0.742000 0.620000
v 9.483001 0.740000 0.618000
v 9.485001 0.742000 0.618000
v 9.483001 0.740586 0.619414
v 9.484155 0.740845 0.619155
v 9.484415 0.740586 0.618000
v 9.484415 0.742000 0.619414
v 9.483001 0.757000 0.420000
v 9.483001 0.759000 0.422000
v 9.485001 0.757000 0.422000
v 9.483001 0.758414 0.420586
v 9.484155 0.758155 0.420845
v 9.484415 0.758414 0.422000
v 9.484415 0.757000 0.420586
v 9.483001 0.757000 0.620000
v 9.485001 0.757000 0.618000
v 9.483001 0.759000 0.618000
v 9.484415 0.757000 0.619414
v 9.484155 0.758155 0.619155
v 9.484415 0.758414 0.618000
v 9.483001 0.758414 0.619414
v 8.637000 0.740586 0.420586
v 8.635846 0.740845 0.420845
v 8.635846 0.740845 0.420845
v 8.635586 0.742000 0.420586
v 8.635586 0.740586 0.422000
v 8.637000 0.740586 0.619414
v 8.635846 0.740845 0.619155
v 8.635846 0.740845 0.619155
v 8.635586 0.740586 0.618000
v 8.635586 0.742000 0.619414
v 8.635586 0.757000 0.420586
v 8.635846 0.758155 0.420845
v 8.635846 0.758155 0.420845
v 8.637000 0.758414 0.420586
v 8.635586 0.758414 0.422000
v 8.637000 0.758414 0.619414
v 8.635846 0.758155 0.619155
v 8.635846 0.758155 0.619155
v 8.635586 0.757000 0.619414
v 8.635586 0.758414 0.618000
v 9.484415 0.742000 0.420586
v 9.484155 0.740845 0.420845
v 9.484155 0.740845 0.420845
v 9.483001 0.740586 0.420586
v 9.484415 0.740586 0.422000
v 9.483001 0.740586 0.619414
v 9.484155 0.740845 0.619155
v 9.484155 0.740845 0.619155
v 9.484415 0.742000 0.619414
v 9.484415 0.740586 0.618000
v 9.483001 0.758414 0.420586
v 9.484155 0.758155 0.420845
v 9.484155 0.758155 0.420845
v 9.484415 0.757000 0.420586
v 9.484415 0.758414 0.422000
v 9.484415 0.757000 0.619414
v 9.484155 0.758155 0.619155
v 9.484155 0.758155 0.619155
v 9.483001 0.758414 0.619414
v 9.484415 0.758414 0.618000
s 0
f 895 901 872 866
f 909 915 902 894
f 914 886 873 900
f 867 874 888 880
f 881 887 916 908
f 865 921 922 924
f 866 925 923 868
f 867 871 869 870
f 872 926 927 929
f 873 930 928 875
f 874 878 876 877
f 879 931 932 934
f 880 935 933 882
f 881 885 883 884
f 886 936 937 939
f 887 940 938 889
f 888 892 890 891
f 893 941 942 944
f 894 945 943 896
f 895 899 897 898
f 900 946 947 949
f 901 950 948 903
f 902 906 904 905
f 907 951 952 954
f 908 955 953 910
f 909 913 911 912
f 914 956 957 959
f 915 960 958 917
f 916 920 918 919
f 879 865 924 931
f 882 871 867 880
f 866 872 929 925
f 870 878 874 867
f 873 886 939 930
f 877 892 888 874
f 887 881 884 940
f 891 935 880 888
f 907 879 934 951
f 910 885 881 908
f 886 914 959 936
f 889 920 916 887
f 915 909 912 960
f 919 955 908 916
f 893 907 954 941
f 896 913 909 894
f 914 900 949 956
f 917 906 902 915
f 901 895 898 950
f 905 945 894 902
f 865 893 944 921
f 868 899 895 866
f 900 873 875 946
f 903 926 872 901
f 879 907 893 865
o pantry_door_front
v 8.362000 0.742000 0.100000
v 8.362000 0.740000 0.102000
v 8.360001 0.742000 0.102000
v 8.362000 0.740586 0.100586
v 8.360846 0.740845 0.100845
v 8.360586 0.740586 0.102000
v 8.360586 0.742000 0.100586
v 8.362000 0.740000 0.498000
v 8.362000 0.742000 0.500000
v 8.360001 0.742000 0.498000
v 8.362000 0.740586 0.499414
v 8.360846 0.740845 0.499155
v 8.360586 0.742000 0.499414
v 8.360586 0.740586 0.498000
v 8.362000 0.757000 0.100000
v 8.360001 0.757000 0.102000
v 8.362000 0.759000 0.102000
v 8.360586 0.757000 0.100586
v 8.360846 0.758155 0.100845
v 8.360586 0.758414 0.102000
v 8.362000 0.758414 0.100586
v 8.362000 0.757000 0.500000
v 8.362000 0.759000 0.498000
v 8.360001 0.757000 0.498000
v 8.362000 0.758414 0.499414
v 8.360846 0.758155 0.499155
v 8.360586 0.758414 0.498000
v 8.360586 0.757000 0.499414
v 9.758000 0.742000 0.100000
v 9.760000 0.742000 0.102000
v 9.758000 0.740000 0.102000
v 9.759415 0.742000 0.100586
v 9.759155 0.740845 0.100845
v 9.759415 0.740586 0.102000
v 9.758000 0.740586 0.100586
v 9.758000 0.742000 0.500000
v 9.758000 0.740000 0.498000
v 9.760000 0.742000 0.498000
v 9.758000 0.740586 0.499414
v 9.759155 0.740845 0.499155
v 9.759415 0.740586 0.498000
v 9.759415 0.742000 0.499414
v 9.758000 0.757000 0.100000
v 9.758000 0.759000 0.102000
v 9.760000 0.757000 0.102000
v 9.758000 0.758414 0.100586
v 9.759155 0.758155 0.100845
v 9.759415 0.758414 0.102000
v 9.759415 0.757000 0.100586
v 9.758000 0.757000 0.500000
v 9.760000 0.757000 0.498000
v 9.758000 0.759000 0.498000
v 9.759415 0.757000 0.499414
v 9.759155 0.758155 0.499155
v 9.759415 0.758414 0.498000
v 9.758000 0.758414 0.499414
v 8.362000 0.740586 0.100586
v 8.360846 0.740845 0.100845
v 8.360846 0.740845 0.100845
v 8.360586 0.742000 0.100586
v 8.360586 0.740586 0.102000
v 8.362000 0.740586 0.499414
v 8.360846 0.740845 0.499155
v 8.360846 0.740845 0.499155
v 8.360586 0.740586 0.498000
v 8.360586 0.742000 0.499414
v 8.360586 0.757000 0.100586
v 8.360846 0.758155 0.100845
v 8.360846 0.758155 0.100845
v 8.362000 0.758414 0.100586
v 8.360586 0.758414 0.102000
v 8.362000 0.758414 0.499414
v 8.360846 0.758155 0.499155
v 8.360846 0.758155 0.499155
v 8.360586 0.757000 0.499414
v 8.360586 0.758414 0.498000
v 9.759415 0.742000 0.100586
v 9.759155 0.740845 0.100845
v 9.759155 0.740845 0.100845
v 9.758000 0.740586 0.100586
v 9.759415 0.740586 0.102000
v 9.758000 0.740586 0.499414
v 9.759155 0.740845 0.499155
v 9.759155 0.740845 0.499155
v 9.759415 0.742000 0.499414
v 9.759415 0.740586 0.498000
v 9.758000 0.758414 0.100586
v 9.759155 0.758155 0.100845
v 9.759155 0.758155 0.100845
v 9.759415 0.757000 0.100586
v 9.759415 0.758414 0.102000
v 9.759415 0.757000 0.499414
v 9.759155 0.758155 0.499155
v 9.759155 0.758155 0.499155
v 9.758000 0.758414 0.499414
v 9.759415 0.758414 0.498000
s 0
f 991 997 968 962
f 1005 1011 998 990
f 1010 982 969 996
f 963 970 984 976
f 977 983 1012 1004
f 961 1017 1018 1020
f 962 1021 1019 964
f 963 967 965 966
f 968 1022 1023 1025
f 969 1026 1024 971
f 970 974 972 973
f 975 1027 1028 1030
f 976 1031 1029 978
f 977 981 979 980
f 982 1032 1033 1035
f 983 1036 1034 985
f 984 988 986 987
f 989 1037 1038 1040
f 990 1041 1039 992
f 991 995 993 994
f 996 1042 1043 1045
f 997 1046 1044 999
f 998 1002 1000 1001
f 1003 1047 1048 1050
f 1004 1051 1049 1006
f 1005 1009 1007 1008
f 1010 1052 1053 1055
f 1011 1056 1054 1013
f 1012 1016 1014 1015
f 975 961 1020 1027
f 978 967 963 976
f 962 968 1025 1021
f 966 974 970 963
f 969 982 1035 1026
f 973 988 984 970
f 983 977 980 1036
f 987 1031 976 984
f 1003 975 1030 1047
f 1006 981 977 1004
f 982 1010 1055 1032
f 985 1016 1012 983
f 1011 1005 1008 1056
f 1015 1051 1004 1012
f 989 1003 1050 1037
f 992 1009 1005 990
f 1010 996 1045 1052
f 1013 1002 998 1011
f 997 991 994 1046
f 1001 1041 990 998
f 961 989 1040 1017
f 964 995 991 962
f 996 969 971 1042
f 999 1022 968 997
f 975 1003 989 961
