# Blender 4.1.1
# www.blender.org
o tall_basket_0
v 1.482000 0.162000 0.550000
v 1.482000 0.150000 0.562000
v 1.470000 0.162000 0.562000
v 1.482000 0.153515 0.553515
v 1.475072 0.155072 0.555072
v 1.473515 0.153515 0.562000
v 1.473515 0.162000 0.553515
v 1.482000 0.150000 0.758000
v 1.482000 0.162000 0.770000
v 1.470000 0.162000 0.758000
v 1.482000 0.153515 0.766485
v 1.475072 0.155072 0.764928
v 1.473515 0.162000 0.766485
v 1.473515 0.153515 0.758000
v 1.482000 0.498000 0.550000
v 1.470000 0.498000 0.562000
v 1.482000 0.510000 0.562000
v 1.473515 0.498000 0.553515
v 1.475072 0.504928 0.555072
v 1.473515 0.506485 0.562000
v 1.482000 0.506485 0.553515
v 1.482000 0.498000 0.770000
v 1.482000 0.510000 0.758000
v 1.470000 0.498000 0.758000
v 1.482000 0.506485 0.766485
v 1.475072 0.504928 0.764928
v 1.473515 0.506485 0.758000
v 1.473515 0.498000 0.766485
v 1.758000 0.162000 0.550000
v 1.770000 0.162000 0.562000
v 1.758000 0.150000 0.562000
v 1.766485 0.162000 0.553515
v 1.764928 0.155072 0.555072
v 1.766485 0.153515 0.562000
v 1.758000 0.153515 0.553515
v 1.758000 0.162000 0.770000
v 1.758000 0.150000 0.758000
v 1.770000 0.162000 0.758000
v 1.758000 0.153515 0.766485
v 1.764928 0.155072 0.764928
v 1.766485 0.153515 0.758000
v 1.766485 0.162000 0.766485
v 1.758000 0.498000 0.550000
v 1.758000 0.510000 0.562000
v 1.770000 0.498000 0.562000
v 1.758000 0.506485 0.553515
v 1.764928 0.504928 0.555072
v 1.766485 0.506485 0.562000
v 1.766485 0.498000 0.553515
v 1.758000 0.498000 0.770000
v 1.770000 0.498000 0.758000
v 1.758000 0.510000 0.758000
v 1.766485 0.498000 0.766485
v 1.764928 0.504928 0.764928
v 1.766485 0.506485 0.758000
v 1.758000 0.506485 0.766485
v 1.482000 0.153515 0.553515
v 1.475072 0.155072 0.555072
v 1.475072 0.155072 0.555072
v 1.473515 0.162000 0.553515
v 1.473515 0.153515 0.562000
v 1.482000 0.153515 0.766485
v 1.475072 0.155072 0.764928
v 1.475072 0.155072 0.764928
v 1.473515 0.153515 0.758000
v 1.473515 0.162000 0.766485
v 1.473515 0.498000 0.553515
v 1.475072 0.504928 0.555072
v 1.475072 0.504928 0.555072
v 1.482000 0.506485 0.553515
v 1.473515 0.506485 0.562000
v 1.482000 0.506485 0.766485
v 1.475072 0.504928 0.764928
v 1.475072 0.504928 0.764928
v 1.473515 0.498000 0.766485
v 1.473515 0.506485 0.758000
v 1.766485 0.162000 0.553515
v 1.764928 0.155072 0.555072
v 1.764928 0.155072 0.555072
v 1.758000 0.153515 0.553515
v 1.766485 0.153515 0.562000
v 1.758000 0.153515 0.766485
v 1.764928 0.155072 0.764928
v 1.764928 0.155072 0.764928
v 1.766485 0.162000 0.766485
v 1.766485 0.153515 0.758000
v 1.758000 0.506485 0.553515
v 1.764928 0.504928 0.555072
v 1.764928 0.504928 0.555072
v 1.766485 0.498000 0.553515
v 1.766485 0.506485 0.562000
v 1.766485 0.498000 0.766485
v 1.764928 0.504928 0.764928
v 1.764928 0.504928 0.764928
v 1.758000 0.506485 0.766485
v 1.766485 0.506485 0.758000
s 0
f 31 37 8 2
f 45 51 38 30
f 50 22 9 36
f 3 10 24 16
f 17 23 52 44
f 1 57 58 60
f 2 61 59 4
f 3 7 5 6
f 8 62 63 65
f 9 66 64 11
f 10 14 12 13
f 15 67 68 70
f 16 71 69 18
f 17 21 19 20
f 22 72 73 75
f 23 76 74 25
f 24 28 26 27
f 29 77 78 80
f 30 81 79 32
f 31 35 33 34
f 36 82 83 85
f 37 86 84 39
f 38 42 40 41
f 43 87 88 90
f 44 91 89 46
f 45 49 47 48
f 50 92 93 95
f 51 96 94 53
f 52 56 54 55
f 15 1 60 67
f 18 7 3 16
f 2 8 65 61
f 6 14 10 3
f 9 22 75 66
f 13 28 24 10
f 23 17 20 76
f 27 71 16 24
f 43 15 70 87
f 46 21 17 44
f 22 50 95 72
f 25 56 52 23
f 51 45 48 96
f 55 91 44 52
f 29 43 90 77
f 32 49 45 30
f 50 36 85 92
f 53 42 38 51
f 37 31 34 86
f 41 81 30 38
f 1 29 80 57
f 4 35 31 2
f 36 9 11 82
f 39 62 8 37
f 15 43 29 1
o tall_basket_1
v 1.482000 0.162000 1.050000
v 1.482000 0.150000 1.062000
v 1.470000 0.162000 1.062000
v 1.482000 0.153515 1.053515
v 1.475072 0.155072 1.055072
v 1.473515 0.153515 1.062000
v 1.473515 0.162000 1.053515
v 1.482000 0.150000 1.258000
v 1.482000 0.162000 1.270000
v 1.470000 0.162000 1.258000
v 1.482000 0.153515 1.266485
v 1.475072 0.155072 1.264928
v 1.473515 0.162000 1.266485
v 1.473515 0.153515 1.258000
v 1.482000 0.498000 1.050000
v 1.470000 0.498000 1.062000
v 1.482000 0.510000 1.062000
v 1.473515 0.498000 1.053515
v 1.475072 0.504928 1.055072
v 1.473515 0.506485 1.062000
v 1.482000 0.506485 1.053515
v 1.482000 0.498000 1.270000
v 1.482000 0.510000 1.258000
v 1.470000 0.498000 1.258000
v 1.482000 0.506485 1.266485
v 1.475072 0.504928 1.264928
v 1.473515 0.506485 1.258000
v 1.473515 0.498000 1.266485
v 1.758000 0.162000 1.050000
v 1.770000 0.162000 1.062000
v 1.758000 0.150000 1.062000
v 1.766485 0.162000 1.053515
v 1.764928 0.155072 1.055072
v 1.766485 0.153515 1.062000
v 1.758000 0.153515 1.053515
v 1.758000 0.162000 1.270000
v 1.758000 0.150000 1.258000
v 1.770000 0.162000 1.258000
v 1.758000 0.153515 1.266485
v 1.764928 0.155072 1.264928
v 1.766485 0.153515 1.258000
v 1.766485 0.162000 1.266485
v 1.758000 0.498000 1.050000
v 1.758000 0.510000 1.062000
v 1.770000 0.498000 1.062000
v 1.758000 0.506485 1.053515
v 1.764928 0.504928 1.055072
v 1.766485 0.506485 1.062000
v 1.766485 0.498000 1.053515
v 1.758000 0.498000 1.270000
v 1.770000 0.498000 1.258000
v 1.758000 0.510000 1.258000
v 1.766485 0.498000 1.266485
v 1.764928 0.504928 1.264928
v 1.766485 0.506485 1.258000
v 1.758000 0.506485 1.266485
v 1.482000 0.153515 1.053515
v 1.475072 0.155072 1.055072
v 1.475072 0.155072 1.055072
v 1.473515 0.162000 1.053515
v 1.473515 0.153515 1.062000
v 1.482000 0.153515 1.266485
v 1.475072 0.155072 1.264928
v 1.475072 0.155072 1.264928
v 1.473515 0.153515 1.258000
v 1.473515 0.162000 1.266485
v 1.473515 0.498000 1.053515
v 1.475072 0.504928 1.055072
v 1.475072 0.504928 1.055072
v 1.482000 0.506485 1.053515
v 1.473515 0.506485 1.062000
v 1.482000 0.506485 1.266485
v 1.475072 0.504928 1.264928
v 1.475072 0.504928 1.264928
v 1.473515 0.498000 1.266485
v 1.473515 0.506485 1.258000
v 1.766485 0.162000 1.053515
v 1.764928 0.155072 1.055072
v 1.764928 0.155072 1.055072
v 1.758000 0.153515 1.053515
v 1.766485 0.153515 1.062000
v 1.758000 0.153515 1.266485
v 1.764928 0.155072 1.264928
v 1.764928 0.155072 1.264928
v 1.766485 0.162000 1.266485
v 1.766485 0.153515 1.258000
v 1.758000 0.506485 1.053515
v 1.764928 0.504928 1.055072
v 1.764928 0.504928 1.055072
v 1.766485 0.498000 1.053515
v 1.766485 0.506485 1.062000
v 1.766485 0.498000 1.266485
v 1.764928 0.504928 1.264928
v 1.764928 0.504928 1.264928
v 1.758000 0.506485 1.266485
v 1.766485 0.506485 1.258000
s 0
f 127 133 104 98
f 141 147 134 126
f 146 118 105 132
f 99 106 120 112
f 113 119 148 140
f 97 153 154 156
f 98 157 155 100
f 99 103 101 102
f 104 158 159 161
f 105 162 160 107
f 106 110 108 109
f 111 163 164 166
f 112 167 165 114
f 113 117 115 116
f 118 168 169 171
f 119 172 170 121
f 120 124 122 123
f 125 173 174 176
f 126 177 175 128
f 127 131 129 130
f 132 178 179 181
f 133 182 180 135
f 134 138 136 137
f 139 183 184 186
f 140 187 185 142
f 141 145 143 144
f 146 188 189 191
f 147 192 190 149
f 148 152 150 151
f 111 97 156 163
f 114 103 99 112
f 98 104 161 157
f 102 110 106 99
f 105 118 171 162
f 109 124 120 106
f 119 113 116 172
f 123 167 112 120
f 139 111 166 183
f 142 117 113 140
f 118 146 191 168
f 121 152 148 119
f 147 141 144 192
f 151 187 140 148
f 125 139 186 173
f 128 145 141 126
f 146 132 181 188
f 149 138 134 147
f 133 127 130 182
f 137 177 126 134
f 97 125 176 153
f 100 131 127 98
f 132 105 107 178
f 135 158 104 133
f 111 139 125 97
o tall_basket_2
v 1.482000 0.162000 1.550000
v 1.482000 0.150000 1.562000
v 1.470000 0.162000 1.562000
v 1.482000 0.153515 1.553515
v 1.475072 0.155072 1.555072
v 1.473515 0.153515 1.562000
v 1.473515 0.162000 1.553515
v 1.482000 0.150000 1.758000
v 1.482000 0.162000 1.770000
v 1.470000 0.162000 1.758000
v 1.482000 0.153515 1.766485
v 1.475072 0.155072 1.764928
v 1.473515 0.162000 1.766485
v 1.473515 0.153515 1.758000
v 1.482000 0.498000 1.550000
v 1.470000 0.498000 1.562000
v 1.482000 0.510000 1.562000
v 1.473515 0.498000 1.553515
v 1.475072 0.504928 1.555072
v 1.473515 0.506485 1.562000
v 1.482000 0.506485 1.553515
v 1.482000 0.498000 1.770000
v 1.482000 0.510000 1.758000
v 1.470000 0.498000 1.758000
v 1.482000 0.506485 1.766485
v 1.475072 0.504928 1.764928
v 1.473515 0.506485 1.758000
v 1.473515 0.498000 1.766485
v 1.758000 0.162000 1.550000
v 1.770000 0.162000 1.562000
v 1.758000 0.150000 1.562000
v 1.766485 0.162000 1.553515
v 1.764928 0.155072 1.555072
v 1.766485 0.153515 1.562000
v 1.758000 0.153515 1.553515
v 1.758000 0.162000 1.770000
v 1.758000 0.150000 1.758000
v 1.770000 0.162000 1.758000
v 1.758000 0.153515 1.766485
v 1.764928 0.155072 1.764928
v 1.766485 0.153515 1.758000
v 1.766485 0.162000 1.766485
v 1.758000 0.498000 1.550000
v 1.758000 0.510000 1.562000
v 1.770000 0.498000 1.562000
v 1.758000 0.506485 1.553515
v 1.764928 0.504928 1.555072
v 1.766485 0.506485 1.562000
v 1.766485 0.498000 1.553515
v 1.758000 0.498000 1.770000
v 1.770000 0.498000 1.758000
v 1.758000 0.510000 1.758000
v 1.766485 0.498000 1.766485
v 1.764928 0.504928 1.764928
v 1.766485 0.506485 1.758000
v 1.758000 0.506485 1.766485
v 1.482000 0.153515 1.553515
v 1.475072 0.155072 1.555072
v 1.475072 0.155072 1.555072
v 1.473515 0.162000 1.553515
v 1.473515 0.153515 1.562000
v 1.482000 0.153515 1.766485
v 1.475072 0.155072 1.764928
v 1.475072 0.155072 1.764928
v 1.473515 0.153515 1.758000
v 1.473515 0.162000 1.766485
v 1.473515 0.498000 1.553515
v 1.475072 0.504928 1.555072
v 1.475072 0.504928 1.555072
v 1.482000 0.506485 1.553515
v 1.473515 0.506485 1.562000
v 1.482000 0.506485 1.766485
v 1.475072 0.504928 1.764928
v 1.475072 0.504928 1.764928
v 1.473515 0.498000 1.766485
v 1.473515 0.506485 1.758000
v 1.766485 0.162000 1.553515
v 1.764928 0.155072 1.555072
v 1.764928 0.155072 1.555072
v 1.758000 0.153515 1.553515
v 1.766485 0.153515 1.562000
v 1.758000 0.153515 1.766485
v 1.764928 0.155072 1.764928
v 1.764928 0.155072 1.764928
v 1.766485 0.162000 1.766485
v 1.766485 0.153515 1.758000
v 1.758000 0.506485 1.553515
v 1.764928 0.504928 1.555072
v 1.764928 0.504928 1.555072
v 1.766485 0.498000 1.553515
v 1.766485 0.506485 1.562000
v 1.766485 0.498000 1.766485
v 1.764928 0.504928 1.764928
v 1.764928 0.504928 1.764928
v 1.758000 0.506485 1.766485
v 1.766485 0.506485 1.758000
s 0
f 223 229 200 194
f 237 243 230 222
f 242 214 201 228
f 195 202 216 208
f 209 215 244 236
f 193 249 250 252
f 194 253 251 196
f 195 199 197 198
f 200 254 255 257
f 201 258 256 203
f 202 206 204 205
f 207 259 260 262
f 208 263 261 210
f 209 213 211 212
f 214 264 265 267
f 215 268 266 217
f 216 220 218 219
f 221 269 270 272
f 222 273 271 224
f 223 227 225 226
f 228 274 275 277
f 229 278 276 231
f 230 234 232 233
f 235 279 280 282
f 236 283 281 238
f 237 241 239 240
f 242 284 285 287
f 243 288 286 245
f 244 248 246 247
f 207 193 252 259
f 210 199 195 208
f 194 200 257 253
f 198 206 202 195
f 201 214 267 258
f 205 220 216 202
f 215 209 212 268
f 219 263 208 216
f 235 207 262 279
f 238 213 209 236
f 214 242 287 264
f 217 248 244 215
f 243 237 240 288
f 247 283 236 244
f 221 235 282 269
f 224 241 237 222
f 242 228 277 284
f 245 234 230 243
f 229 223 226 278
f 233 273 222 230
f 193 221 272 249
f 196 227 223 194
f 228 201 203 274
f 231 254 200 229
f 207 235 221 193
