# Blender 4.1.1
# www.blender.org
o wall_N_0
v -0.148000 7.402000 0.000000
v -0.148000 7.400000 0.002000
v -0.150000 7.402000 0.002000
v -0.148000 7.400586 0.000586
v -0.149155 7.400845 0.000845
v -0.149414 7.400586 0.002000
v -0.149414 7.402000 0.000586
v -0.148000 7.400000 2.998000
v -0.148000 7.402000 3.000000
v -0.150000 7.402000 2.998000
v -0.148000 7.400586 2.999414
v -0.149155 7.400845 2.999155
v -0.149414 7.402000 2.999414
v -0.149414 7.400586 2.998000
v -0.148000 7.548000 0.000000
v -0.150000 7.548000 0.002000
v -0.148000 7.550000 0.002000
v -0.149414 7.548000 0.000586
v -0.149155 7.549155 0.000845
v -0.149414 7.549414 0.002000
v -0.148000 7.549414 0.000586
v -0.148000 7.548000 3.000000
v -0.148000 7.550000 2.998000
v -0.150000 7.548000 2.998000
v -0.148000 7.549414 2.999414
v -0.149155 7.549155 2.999155
v -0.149414 7.549414 2.998000
v -0.149414 7.548000 2.999414
v 2.798000 7.402000 0.000000
v 2.800000 7.402000 0.002000
v 2.798000 7.400000 0.002000
v 2.799414 7.402000 0.000586
v 2.799155 7.400845 0.000845
v 2.799414 7.400586 0.002000
v 2.798000 7.400586 0.000586
v 2.798000 7.402000 3.000000
v 2.798000 7.400000 2.998000
v 2.800000 7.402000 2.998000
v 2.798000 7.400586 2.999414
v 2.799155 7.400845 2.999155
v 2.799414 7.400586 2.998000
v 2.799414 7.402000 2.999414
v 2.798000 7.548000 0.000000
v 2.798000 7.550000 0.002000
v 2.800000 7.548000 0.002000
v 2.798000 7.549414 0.000586
v 2.799155 7.549155 0.000845
v 2.799414 7.549414 0.002000
v 2.799414 7.548000 0.000586
v 2.798000 7.548000 3.000000
v 2.800000 7.548000 2.998000
v 2.798000 7.550000 2.998000
v 2.799414 7.548000 2.999414
v 2.799155 7.549155 2.999155
v 2.799414 7.549414 2.998000
v 2.798000 7.549414 2.999414
v -0.148000 7.400586 0.000586
v -0.149155 7.400845 0.000845
v -0.149155 7.400845 0.000845
v -0.149414 7.402000 0.000586
v -0.149414 7.400586 0.002000
v -0.148000 7.400586 2.999414
v -0.149155 7.400845 2.999155
v -0.149155 7.400845 2.999155
v -0.149414 7.400586 2.998000
v -0.149414 7.402000 2.999414
v -0.149414 7.548000 0.000586
v -0.149155 7.549155 0.000845
v -0.149155 7.549155 0.000845
v -0.148000 7.549414 0.000586
v -0.149414 7.549414 0.002000
v -0.148000 7.549414 2.999414
v -0.149155 7.549155 2.999155
v -0.149155 7.549155 2.999155
v -0.149414 7.548000 2.999414
v -0.149414 7.549414 2.998000
v 2.799414 7.402000 0.000586
v 2.799155 7.400845 0.000845
v 2.799155 7.400845 0.000845
v 2.798000 7.400586 0.000586
v 2.799414 7.400586 0.002000
v 2.798000 7.400586 2.999414
v 2.799155 7.400845 2.999155
v 2.799155 7.400845 2.999155
v 2.799414 7.402000 2.999414
v 2.799414 7.400586 2.998000
v 2.798000 7.549414 0.000586
v 2.799155 7.549155 0.000845
v 2.799155 7.549155 0.000845
v 2.799414 7.548000 0.000586
v 2.799414 7.549414 0.002000
v 2.799414 7.548000 2.999414
v 2.799155 7.549155 2.999155
v 2.799155 7.549155 2.999155
v 2.798000 7.549414 2.999414
v 2.799414 7.549414 2.998000
s 0
f 31 37 8 2
f 45 51 38 30
f 50 22 9 36
f 3 10 24 16
f 17 23 52 44
f 1 57 58 60
f 2 61 59 4
f 3 7 5 6
f 8 62 63 65
f 9 66 64 11
f 10 14 12 13
f 15 67 68 70
f 16 71 69 18
f 17 21 19 20
f 22 72 73 75
f 23 76 74 25
f 24 28 26 27
f 29 77 78 80
f 30 81 79 32
f 31 35 33 34
f 36 82 83 85
f 37 86 84 39
f 38 42 40 41
f 43 87 88 90
f 44 91 89 46
f 45 49 47 48
f 50 92 93 95
f 51 96 94 53
f 52 56 54 55
f 15 1 60 67
f 18 7 3 16
f 2 8 65 61
f 6 14 10 3
f 9 22 75 66
f 13 28 24 10
f 23 17 20 76
f 27 71 16 24
f 43 15 70 87
f 46 21 17 44
f 22 50 95 72
f 25 56 52 23
f 51 45 48 96
f 55 91 44 52
f 29 43 90 77
f 32 49 45 30
f 50 36 85 92
f 53 42 38 51
f 37 31 34 86
f 41 81 30 38
f 1 29 80 57
f 4 35 31 2
f 36 9 11 82
f 39 62 8 37
f 15 43 29 1
o wall_N_1
v 8.601999 7.402000 0.000000
v 8.601999 7.400000 0.002000
v 8.599999 7.402000 0.002000
v 8.601999 7.400586 0.000586
v 8.600845 7.400845 0.000845
v 8.600585 7.400586 0.002000
v 8.600585 7.402000 0.000586
v 8.601999 7.400000 2.998000
v 8.601999 7.402000 3.000000
v 8.599999 7.402000 2.998000
v 8.601999 7.400586 2.999414
v 8.600845 7.400845 2.999155
v 8.600585 7.402000 2.999414
v 8.600585 7.400586 2.998000
v 8.601999 7.548000 0.000000
v 8.599999 7.548000 0.002000
v 8.601999 7.550000 0.002000
v 8.600585 7.548000 0.000586
v 8.600845 7.549155 0.000845
v 8.600585 7.549414 0.002000
v 8.601999 7.549414 0.000586
v 8.601999 7.548000 3.000000
v 8.601999 7.550000 2.998000
v 8.599999 7.548000 2.998000
v 8.601999 7.549414 2.999414
v 8.600845 7.549155 2.999155
v 8.600585 7.549414 2.998000
v 8.600585 7.548000 2.999414
v 9.948000 7.402000 0.000000
v 9.950000 7.402000 0.002000
v 9.948000 7.400000 0.002000
v 9.949414 7.402000 0.000586
v 9.949154 7.400845 0.000845
v 9.949414 7.400586 0.002000
v 9.948000 7.400586 0.000586
v 9.948000 7.402000 3.000000
v 9.948000 7.400000 2.998000
v 9.950000 7.402000 2.998000
v 9.948000 7.400586 2.999414
v 9.949154 7.400845 2.999155
v 9.949414 7.400586 2.998000
v 9.949414 7.402000 2.999414
v 9.948000 7.548000 0.000000
v 9.948000 7.550000 0.002000
v 9.950000 7.548000 0.002000
v 9.948000 7.549414 0.000586
v 9.949154 7.549155 0.000845
v 9.949414 7.549414 0.002000
v 9.949414 7.548000 0.000586
v 9.948000 7.548000 3.000000
v 9.950000 7.548000 2.998000
v 9.948000 7.550000 2.998000
v 9.949414 7.548000 2.999414
v 9.949154 7.549155 2.999155
v 9.949414 7.549414 2.998000
v 9.948000 7.549414 2.999414
v 8.601999 7.400586 0.000586
v 8.600845 7.400845 0.000845
v 8.600845 7.400845 0.000845
v 8.600585 7.402000 0.000586
v 8.600585 7.400586 0.002000
v 8.601999 7.400586 2.999414
v 8.600845 7.400845 2.999155
v 8.600845 7.400845 2.999155
v 8.600585 7.400586 2.998000
v 8.600585 7.402000 2.999414
v 8.600585 7.548000 0.000586
v 8.600845 7.549155 0.000845
v 8.600845 7.549155 0.000845
v 8.601999 7.549414 0.000586
v 8.600585 7.549414 0.002000
v 8.601999 7.549414 2.999414
v 8.600845 7.549155 2.999155
v 8.600845 7.549155 2.999155
v 8.600585 7.548000 2.999414
v 8.600585 7.549414 2.998000
v 9.949414 7.402000 0.000586
v 9.949154 7.400845 0.000845
v 9.949154 7.400845 0.000845
v 9.948000 7.400586 0.000586
v 9.949414 7.400586 0.002000
v 9.948000 7.400586 2.999414
v 9.949154 7.400845 2.999155
v 9.949154 7.400845 2.999155
v 9.949414 7.402000 2.999414
v 9.949414 7.400586 2.998000
v 9.948000 7.549414 0.000586
v 9.949154 7.549155 0.000845
v 9.949154 7.549155 0.000845
v 9.949414 7.548000 0.000586
v 9.949414 7.549414 0.002000
v 9.949414 7.548000 2.999414
v 9.949154 7.549155 2.999155
v 9.949154 7.549155 2.999155
v 9.948000 7.549414 2.999414
v 9.949414 7.549414 2.998000
s 0
f 127 133 104 98
f 141 147 134 126
f 146 118 105 132
f 99 106 120 112
f 113 119 148 140
f 97 153 154 156
f 98 157 155 100
f 99 103 101 102
f 104 158 159 161
f 105 162 160 107
f 106 110 108 109
f 111 163 164 166
f 112 167 165 114
f 113 117 115 116
f 118 168 169 171
f 119 172 170 121
f 120 124 122 123
f 125 173 174 176
f 126 177 175 128
f 127 131 129 130
f 132 178 179 181
f 133 182 180 135
f 134 138 136 137
f 139 183 184 186
f 140 187 185 142
f 141 145 143 144
f 146 188 189 191
f 147 192 190 149
f 148 152 150 151
f 111 97 156 163
f 114 103 99 112
f 98 104 161 157
f 102 110 106 99
f 105 118 171 162
f 109 124 120 106
f 119 113 116 172
f 123 167 112 120
f 139 111 166 183
f 142 117 113 140
f 118 146 191 168
f 121 152 148 119
f 147 141 144 192
f 151 187 140 148
f 125 139 186 173
f 128 145 141 126
f 146 132 181 188
f 149 138 134 147
f 133 127 130 182
f 137 177 126 134
f 97 125 176 153
f 100 131 127 98
f 132 105 107 178
f 135 158 104 133
f 111 139 125 97
o wall_N_head
v 2.802000 7.402000 2.700000
v 2.802000 7.400000 2.702000
v 2.800000 7.402000 2.702000
v 2.802000 7.400586 2.700586
v 2.800845 7.400845 2.700845
v 2.800586 7.400586 2.702000
v 2.800586 7.402000 2.700586
v 2.802000 7.400000 2.998000
v 2.802000 7.402000 3.000000
v 2.800000 7.402000 2.998000
v 2.802000 7.400586 2.999414
v 2.800845 7.400845 2.999155
v 2.800586 7.402000 2.999414
v 2.800586 7.400586 2.998000
v 2.802000 7.548000 2.700000
v 2.800000 7.548000 2.702000
v 2.802000 7.550000 2.702000
v 2.800586 7.548000 2.700586
v 2.800845 7.549155 2.700845
v 2.800586 7.549414 2.702000
v 2.802000 7.549414 2.700586
v 2.802000 7.548000 3.000000
v 2.802000 7.550000 2.998000
v 2.800000 7.548000 2.998000
v 2.802000 7.549414 2.999414
v 2.800845 7.549155 2.999155
v 2.800586 7.549414 2.998000
v 2.800586 7.548000 2.999414
v 8.598000 7.402000 2.700000
v 8.600000 7.402000 2.702000
v 8.598000 7.400000 2.702000
v 8.599414 7.402000 2.700586
v 8.599154 7.400845 2.700845
v 8.599414 7.400586 2.702000
v 8.598000 7.400586 2.700586
v 8.598000 7.402000 3.000000
v 8.598000 7.400000 2.998000
v 8.600000 7.402000 2.998000
v 8.598000 7.400586 2.999414
v 8.599154 7.400845 2.999155
v 8.599414 7.400586 2.998000
v 8.599414 7.402000 2.999414
v 8.598000 7.548000 2.700000
v 8.598000 7.550000 2.702000
v 8.600000 7.548000 2.702000
v 8.598000 7.549414 2.700586
v 8.599154 7.549155 2.700845
v 8.599414 7.549414 2.702000
v 8.599414 7.548000 2.700586
v 8.598000 7.548000 3.000000
v 8.600000 7.548000 2.998000
v 8.598000 7.550000 2.998000
v 8.599414 7.548000 2.999414
v 8.599154 7.549155 2.999155
v 8.599414 7.549414 2.998000
v 8.598000 7.549414 2.999414
v 2.802000 7.400586 2.700586
v 2.800845 7.400845 2.700845
v 2.800845 7.400845 2.700845
v 2.800586 7.402000 2.700586
v 2.800586 7.400586 2.702000
v 2.802000 7.400586 2.999414
v 2.800845 7.400845 2.999155
v 2.800845 7.400845 2.999155
v 2.800586 7.400586 2.998000
v 2.800586 7.402000 2.999414
v 2.800586 7.548000 2.700586
v 2.800845 7.549155 2.700845
v 2.800845 7.549155 2.700845
v 2.802000 7.549414 2.700586
v 2.800586 7.549414 2.702000
v 2.802000 7.549414 2.999414
v 2.800845 7.549155 2.999155
v 2.800845 7.549155 2.999155
v 2.800586 7.548000 2.999414
v 2.800586 7.549414 2.998000
v 8.599414 7.402000 2.700586
v 8.599154 7.400845 2.700845
v 8.599154 7.400845 2.700845
v 8.598000 7.400586 2.700586
v 8.599414 7.400586 2.702000
v 8.598000 7.400586 2.999414
v 8.599154 7.400845 2.999155
v 8.599154 7.400845 2.999155
v 8.599414 7.402000 2.999414
v 8.599414 7.400586 2.998000
v 8.598000 7.549414 2.700586
v 8.599154 7.549155 2.700845
v 8.599154 7.549155 2.700845
v 8.599414 7.548000 2.700586
v 8.599414 7.549414 2.702000
v 8.599414 7.548000 2.999414
v 8.599154 7.549155 2.999155
v 8.599154 7.549155 2.999155
v 8.598000 7.549414 2.999414
v 8.599414 7.549414 2.998000
s 0
f 223 229 200 194
f 237 243 230 222
f 242 214 201 228
f 195 202 216 208
f 209 215 244 236
f 193 249 250 252
f 194 253 251 196
f 195 199 197 198
f 200 254 255 257
f 201 258 256 203
f 202 206 204 205
f 207 259 260 262
f 208 263 261 210
f 209 213 211 212
f 214 264 265 267
f 215 268 266 217
f 216 220 218 219
f 221 269 270 272
f 222 273 271 224
f 223 227 225 226
f 228 274 275 277
f 229 278 276 231
f 230 234 232 233
f 235 279 280 282
f 236 283 281 238
f 237 241 239 240
f 242 284 285 287
f 243 288 286 245
f 244 248 246 247
f 207 193 252 259
f 210 199 195 208
f 194 200 257 253
f 198 206 202 195
f 201 214 267 258
f 205 220 216 202
f 215 209 212 268
f 219 263 208 216
f 235 207 262 279
f 238 213 209 236
f 214 242 287 264
f 217 248 244 215
f 243 237 240 288
f 247 283 236 244
f 221 235 282 269
f 224 241 237 222
f 242 228 277 284
f 245 234 230 243
f 229 223 226 278
f 233 273 222 230
f 193 221 272 249
f 196 227 223 194
f 228 201 203 274
f 231 254 200 229
f 207 235 221 193
o wall_S
v -0.148000 -0.148000 0.000000
v -0.148000 -0.150000 0.002000
v -0.150000 -0.148000 0.002000
v -0.148000 -0.149414 0.000586
v -0.149155 -0.149155 0.000845
v -0.149415 -0.149414 0.002000
v -0.149415 -0.148000 0.000586
v -0.148000 -0.150000 2.998000
v -0.148000 -0.148000 3.000000
v -0.150000 -0.148000 2.998000
v -0.148000 -0.149414 2.999414
v -0.149155 -0.149155 2.999155
v -0.149415 -0.148000 2.999414
v -0.149415 -0.149414 2.998000
v -0.148000 -0.002000 0.000000
v -0.150000 -0.002000 0.002000
v -0.148000 0.000000 0.002000
v -0.149415 -0.002000 0.000586
v -0.149155 -0.000845 0.000845
v -0.149415 -0.000586 0.002000
v -0.148000 -0.000586 0.000586
v -0.148000 -0.002000 3.000000
v -0.148000 0.000000 2.998000
v -0.150000 -0.002000 2.998000
v -0.148000 -0.000586 2.999414
v -0.149155 -0.000845 2.999155
v -0.149415 -0.000586 2.998000
v -0.149415 -0.002000 2.999414
v 9.948000 -0.148000 0.000000
v 9.950001 -0.148000 0.002000
v 9.948000 -0.150000 0.002000
v 9.949415 -0.148000 0.000586
v 9.949155 -0.149155 0.000845
v 9.949415 -0.149414 0.002000
v 9.948000 -0.149414 0.000586
v 9.948000 -0.148000 3.000000
v 9.948000 -0.150000 2.998000
v 9.950001 -0.148000 2.998000
v 9.948000 -0.149414 2.999414
v 9.949155 -0.149155 2.999155
v 9.949415 -0.149414 2.998000
v 9.949415 -0.148000 2.999414
v 9.948000 -0.002000 0.000000
v 9.948000 0.000000 0.002000
v 9.950001 -0.002000 0.002000
v 9.948000 -0.000586 0.000586
v 9.949155 -0.000845 0.000845
v 9.949415 -0.000586 0.002000
v 9.949415 -0.002000 0.000586
v 9.948000 -0.002000 3.000000
v 9.950001 -0.002000 2.998000
v 9.948000 0.000000 2.998000
v 9.949415 -0.002000 2.999414
v 9.949155 -0.000845 2.999155
v 9.949415 -0.000586 2.998000
v 9.948000 -0.000586 2.999414
v -0.148000 -0.149414 0.000586
v -0.149155 -0.149155 0.000845
v -0.149155 -0.149155 0.000845
v -0.149415 -0.148000 0.000586
v -0.149415 -0.149414 0.002000
v -0.148000 -0.149414 2.999414
v -0.149155 -0.149155 2.999155
v -0.149155 -0.149155 2.999155
v -0.149415 -0.149414 2.998000
v -0.149415 -0.148000 2.999414
v -0.149415 -0.002000 0.000586
v -0.149155 -0.000845 0.000845
v -0.149155 -0.000845 0.000845
v -0.148000 -0.000586 0.000586
v -0.149415 -0.000586 0.002000
v -0.148000 -0.000586 2.999414
v -0.149155 -0.000845 2.999155
v -0.149155 -0.000845 2.999155
v -0.149415 -0.002000 2.999414
v -0.149415 -0.000586 2.998000
v 9.949415 -0.148000 0.000586
v 9.949155 -0.149155 0.000845
v 9.949155 -0.149155 0.000845
v 9.948000 -0.149414 0.000586
v 9.949415 -0.149414 0.002000
v 9.948000 -0.149414 2.999414
v 9.949155 -0.149155 2.999155
v 9.949155 -0.149155 2.999155
v 9.949415 -0.148000 2.999414
v 9.949415 -0.149414 2.998000
v 9.948000 -0.000586 0.000586
v 9.949155 -0.000845 0.000845
v 9.949155 -0.000845 0.000845
v 9.949415 -0.002000 0.000586
v 9.949415 -0.000586 0.002000
v 9.949415 -0.002000 2.999414
v 9.949155 -0.000845 2.999155
v 9.949155 -0.000845 2.999155
v 9.948000 -0.000586 2.999414
v 9.949415 -0.000586 2.998000
s 0
f 319 325 296 290
f 333 339 326 318
f 338 310 297 324
f 291 298 312 304
f 305 311 340 332
f 289 345 346 348
f 290 349 347 292
f 291 295 293 294
f 296 350 351 353
f 297 354 352 299
f 298 302 300 301
f 303 355 356 358
f 304 359 357 306
f 305 309 307 308
f 310 360 361 363
f 311 364 362 313
f 312 316 314 315
f 317 365 366 368
f 318 369 367 320
f 319 323 321 322
f 324 370 371 373
f 325 374 372 327
f 326 330 328 329
f 331 375 376 378
f 332 379 377 334
f 333 337 335 336
f 338 380 381 383
f 339 384 382 341
f 340 344 342 343
f 303 289 348 355
f 306 295 291 304
f 290 296 353 349
f 294 302 298 291
f 297 310 363 354
f 301 316 312 298
f 311 305 308 364
f 315 359 304 312
f 331 303 358 375
f 334 309 305 332
f 310 338 383 360
f 313 344 340 311
f 339 333 336 384
f 343 379 332 340
f 317 331 378 365
f 320 337 333 318
f 338 324 373 380
f 341 330 326 339
f 325 319 322 374
f 329 369 318 326
f 289 317 368 345
f 292 323 319 290
f 324 297 299 370
f 327 350 296 325
f 303 331 317 289
o wall_W_s
v -0.148000 -0.148000 0.000000
v -0.148000 -0.150000 0.002000
v -0.150000 -0.148000 0.002000
v -0.148000 -0.149414 0.000586
v -0.149155 -0.149155 0.000845
v -0.149414 -0.149414 0.002000
v -0.149414 -0.148000 0.000586
v -0.148000 -0.150000 2.998000
v -0.148000 -0.148000 3.000000
v -0.150000 -0.148000 2.998000
v -0.148000 -0.149414 2.999414
v -0.149155 -0.149155 2.999155
v -0.149414 -0.148000 2.999414
v -0.149414 -0.149414 2.998000
v -0.148000 2.448000 0.000000
v -0.150000 2.448000 0.002000
v -0.148000 2.450000 0.002000
v -0.149414 2.448000 0.000586
v -0.149155 2.449155 0.000845
v -0.149414 2.449414 0.002000
v -0.148000 2.449414 0.000586
v -0.148000 2.448000 3.000000
v -0.148000 2.450000 2.998000
v -0.150000 2.448000 2.998000
v -0.148000 2.449414 2.999414
v -0.149155 2.449155 2.999155
v -0.149414 2.449414 2.998000
v -0.149414 2.448000 2.999414
v -0.002000 -0.148000 0.000000
v 0.000000 -0.148000 0.002000
v -0.002000 -0.150000 0.002000
v -0.000586 -0.148000 0.000586
v -0.000845 -0.149155 0.000845
v -0.000586 -0.149414 0.002000
v -0.002000 -0.149414 0.000586
v -0.002000 -0.148000 3.000000
v -0.002000 -0.150000 2.998000
v 0.000000 -0.148000 2.998000
v -0.002000 -0.149414 2.999414
v -0.000845 -0.149155 2.999155
v -0.000586 -0.149414 2.998000
v -0.000586 -0.148000 2.999414
v -0.002000 2.448000 0.000000
v -0.002000 2.450000 0.002000
v 0.000000 2.448000 0.002000
v -0.002000 2.449414 0.000586
v -0.000845 2.449155 0.000845
v -0.000586 2.449414 0.002000
v -0.000586 2.448000 0.000586
v -0.002000 2.448000 3.000000
v 0.000000 2.448000 2.998000
v -0.002000 2.450000 2.998000
v -0.000586 2.448000 2.999414
v -0.000845 2.449155 2.999155
v -0.000586 2.449414 2.998000
v -0.002000 2.449414 2.999414
v -0.148000 -0.149414 0.000586
v -0.149155 -0.149155 0.000845
v -0.149155 -0.149155 0.000845
v -0.149414 -0.148000 0.000586
v -0.149414 -0.149414 0.002000
v -0.148000 -0.149414 2.999414
v -0.149155 -0.149155 2.999155
v -0.149155 -0.149155 2.999155
v -0.149414 -0.149414 2.998000
v -0.149414 -0.148000 2.999414
v -0.149414 2.448000 0.000586
v -0.149155 2.449155 0.000845
v -0.149155 2.449155 0.000845
v -0.148000 2.449414 0.000586
v -0.149414 2.449414 0.002000
v -0.148000 2.449414 2.999414
v -0.149155 2.449155 2.999155
v -0.149155 2.449155 2.999155
v -0.149414 2.448000 2.999414
v -0.149414 2.449414 2.998000
v -0.000586 -0.148000 0.000586
v -0.000845 -0.149155 0.000845
v -0.000845 -0.149155 0.000845
v -0.002000 -0.149414 0.000586
v -0.000586 -0.149414 0.002000
v -0.002000 -0.149414 2.999414
v -0.000845 -0.149155 2.999155
v -0.000845 -0.149155 2.999155
v -0.000586 -0.148000 2.999414
v -0.000586 -0.149414 2.998000
v -0.002000 2.449414 0.000586
v -0.000845 2.449155 0.000845
v -0.000845 2.449155 0.000845
v -0.000586 2.448000 0.000586
v -0.000586 2.449414 0.002000
v -0.000586 2.448000 2.999414
v -0.000845 2.449155 2.999155
v -0.000845 2.449155 2.999155
v -0.002000 2.449414 2.999414
v -0.000586 2.449414 2.998000
s 0
f 415 421 392 386
f 429 435 422 414
f 434 406 393 420
f 387 394 408 400
f 401 407 436 428
f 385 441 442 444
f 386 445 443 388
f 387 391 389 390
f 392 446 447 449
f 393 450 448 395
f 394 398 396 397
f 399 451 452 454
f 400 455 453 402
f 401 405 403 404
f 406 456 457 459
f 407 460 458 409
f 408 412 410 411
f 413 461 462 464
f 414 465 463 416
f 415 419 417 418
f 420 466 467 469
f 421 470 468 423
f 422 426 424 425
f 427 471 472 474
f 428 475 473 430
f 429 433 431 432
f 434 476 477 479
f 435 480 478 437
f 436 440 438 439
f 399 385 444 451
f 402 391 387 400
f 386 392 449 445
f 390 398 394 387
f 393 406 459 450
f 397 412 408 394
f 407 401 404 460
f 411 455 400 408
f 427 399 454 471
f 430 405 401 428
f 406 434 479 456
f 409 440 436 407
f 435 429 432 480
f 439 475 428 436
f 413 427 474 461
f 416 433 429 414
f 434 420 469 476
f 437 426 422 435
f 421 415 418 470
f 425 465 414 422
f 385 413 464 441
f 388 419 415 386
f 420 393 395 466
f 423 446 392 421
f 399 427 413 385
o wall_W_n
v -0.148000 3.352000 0.000000
v -0.148000 3.350000 0.002000
v -0.150000 3.352000 0.002000
v -0.148000 3.350586 0.000586
v -0.149155 3.350845 0.000845
v -0.149414 3.350586 0.002000
v -0.149414 3.352000 0.000586
v -0.148000 3.350000 2.998000
v -0.148000 3.352000 3.000000
v -0.150000 3.352000 2.998000
v -0.148000 3.350586 2.999414
v -0.149155 3.350845 2.999155
v -0.149414 3.352000 2.999414
v -0.149414 3.350586 2.998000
v -0.148000 7.547999 0.000000
v -0.150000 7.547999 0.002000
v -0.148000 7.550000 0.002000
v -0.149414 7.547999 0.000586
v -0.149155 7.549154 0.000845
v -0.149414 7.549414 0.002000
v -0.148000 7.549414 0.000586
v -0.148000 7.547999 3.000000
v -0.148000 7.550000 2.998000
v -0.150000 7.547999 2.998000
v -0.148000 7.549414 2.999414
v -0.149155 7.549154 2.999155
v -0.149414 7.549414 2.998000
v -0.149414 7.547999 2.999414
v -0.002000 3.352000 0.000000
v 0.000000 3.352000 0.002000
v -0.002000 3.350000 0.002000
v -0.000586 3.352000 0.000586
v -0.000845 3.350845 0.000845
v -0.000586 3.350586 0.002000
v -0.002000 3.350586 0.000586
v -0.002000 3.352000 3.000000
v -0.002000 3.350000 2.998000
v 0.000000 3.352000 2.998000
v -0.002000 3.350586 2.999414
v -0.000845 3.350845 2.999155
v -0.000586 3.350586 2.998000
v -0.000586 3.352000 2.999414
v -0.002000 7.547999 0.000000
v -0.002000 7.550000 0.002000
v 0.000000 7.547999 0.002000
v -0.002000 7.549414 0.000586
v -0.000845 7.549154 0.000845
v -0.000586 7.549414 0.002000
v -0.000586 7.547999 0.000586
v -0.002000 7.547999 3.000000
v 0.000000 7.547999 2.998000
v -0.002000 7.550000 2.998000
v -0.000586 7.547999 2.999414
v -0.000845 7.549154 2.999155
v -0.000586 7.549414 2.998000
v -0.002000 7.549414 2.999414
v -0.148000 3.350586 0.000586
v -0.149155 3.350845 0.000845
v -0.149155 3.350845 0.000845
v -0.149414 3.352000 0.000586
v -0.149414 3.350586 0.002000
v -0.148000 3.350586 2.999414
v -0.149155 3.350845 2.999155
v -0.149155 3.350845 2.999155
v -0.149414 3.350586 2.998000
v -0.149414 3.352000 2.999414
v -0.149414 7.547999 0.000586
v -0.149155 7.549154 0.000845
v -0.149155 7.549154 0.000845
v -0.148000 7.549414 0.000586
v -0.149414 7.549414 0.002000
v -0.148000 7.549414 2.999414
v -0.149155 7.549154 2.999155
v -0.149155 7.549154 2.999155
v -0.149414 7.547999 2.999414
v -0.149414 7.549414 2.998000
v -0.000586 3.352000 0.000586
v -0.000845 3.350845 0.000845
v -0.000845 3.350845 0.000845
v -0.002000 3.350586 0.000586
v -0.000586 3.350586 0.002000
v -0.002000 3.350586 2.999414
v -0.000845 3.350845 2.999155
v -0.000845 3.350845 2.999155
v -0.000586 3.352000 2.999414
v -0.000586 3.350586 2.998000
v -0.002000 7.549414 0.000586
v -0.000845 7.549154 0.000845
v -0.000845 7.549154 0.000845
v -0.000586 7.547999 0.000586
v -0.000586 7.549414 0.002000
v -0.000586 7.547999 2.999414
v -0.000845 7.549154 2.999155
v -0.000845 7.549154 2.999155
v -0.002000 7.549414 2.999414
v -0.000586 7.549414 2.998000
s 0
f 511 517 488 482
f 525 531 518 510
f 530 502 489 516
f 483 490 504 496
f 497 503 532 524
f 481 537 538 540
f 482 541 539 484
f 483 487 485 486
f 488 542 543 545
f 489 546 544 491
f 490 494 492 493
f 495 547 548 550
f 496 551 549 498
f 497 501 499 500
f 502 552 553 555
f 503 556 554 505
f 504 508 506 507
f 509 557 558 560
f 510 561 559 512
f 511 515 513 514
f 516 562 563 565
f 517 566 564 519
f 518 522 520 521
f 523 567 568 570
f 524 571 569 526
f 525 529 527 528
f 530 572 573 575
f 531 576 574 533
f 532 536 534 535
f 495 481 540 547
f 498 487 483 496
f 482 488 545 541
f 486 494 490 483
f 489 502 555 546
f 493 508 504 490
f 503 497 500 556
f 507 551 496 504
f 523 495 550 567
f 526 501 497 524
f 502 530 575 552
f 505 536 532 503
f 531 525 528 576
f 535 571 524 532
f 509 523 570 557
f 512 529 525 510
f 530 516 565 572
f 533 522 518 531
f 517 511 514 566
f 521 561 510 518
f 481 509 560 537
f 484 515 511 482
f 516 489 491 562
f 519 542 488 517
f 495 523 509 481
o wall_W_sill
v -0.148000 2.452000 0.000000
v -0.148000 2.450000 0.002000
v -0.150000 2.452000 0.002000
v -0.148000 2.450586 0.000586
v -0.149155 2.450845 0.000845
v -0.149414 2.450586 0.002000
v -0.149414 2.452000 0.000586
v -0.148000 2.450000 1.148000
v -0.148000 2.452000 1.150000
v -0.150000 2.452000 1.148000
v -0.148000 2.450586 1.149414
v -0.149155 2.450845 1.149155
v -0.149414 2.452000 1.149414
v -0.149414 2.450586 1.148000
v -0.148000 3.348000 0.000000
v -0.150000 3.348000 0.002000
v -0.148000 3.350000 0.002000
v -0.149414 3.348000 0.000586
v -0.149155 3.349155 0.000845
v -0.149414 3.349414 0.002000
v -0.148000 3.349414 0.000586
v -0.148000 3.348000 1.150000
v -0.148000 3.350000 1.148000
v -0.150000 3.348000 1.148000
v -0.148000 3.349414 1.149414
v -0.149155 3.349155 1.149155
v -0.149414 3.349414 1.148000
v -0.149414 3.348000 1.149414
v -0.002000 2.452000 0.000000
v 0.000000 2.452000 0.002000
v -0.002000 2.450000 0.002000
v -0.000586 2.452000 0.000586
v -0.000845 2.450845 0.000845
v -0.000586 2.450586 0.002000
v -0.002000 2.450586 0.000586
v -0.002000 2.452000 1.150000
v -0.002000 2.450000 1.148000
v 0.000000 2.452000 1.148000
v -0.002000 2.450586 1.149414
v -0.000845 2.450845 1.149155
v -0.000586 2.450586 1.148000
v -0.000586 2.452000 1.149414
v -0.002000 3.348000 0.000000
v -0.002000 3.350000 0.002000
v 0.000000 3.348000 0.002000
v -0.002000 3.349414 0.000586
v -0.000845 3.349155 0.000845
v -0.000586 3.349414 0.002000
v -0.000586 3.348000 0.000586
v -0.002000 3.348000 1.150000
v 0.000000 3.348000 1.148000
v -0.002000 3.350000 1.148000
v -0.000586 3.348000 1.149414
v -0.000845 3.349155 1.149155
v -0.000586 3.349414 1.148000
v -0.002000 3.349414 1.149414
v -0.148000 2.450586 0.000586
v -0.149155 2.450845 0.000845
v -0.149155 2.450845 0.000845
v -0.149414 2.452000 0.000586
v -0.149414 2.450586 0.002000
v -0.148000 2.450586 1.149414
v -0.149155 2.450845 1.149155
v -0.149155 2.450845 1.149155
v -0.149414 2.450586 1.148000
v -0.149414 2.452000 1.149414
v -0.149414 3.348000 0.000586
v -0.149155 3.349155 0.000845
v -0.149155 3.349155 0.000845
v -0.148000 3.349414 0.000586
v -0.149414 3.349414 0.002000
v -0.148000 3.349414 1.149414
v -0.149155 3.349155 1.149155
v -0.149155 3.349155 1.149155
v -0.149414 3.348000 1.149414
v -0.149414 3.349414 1.148000
v -0.000586 2.452000 0.000586
v -0.000845 2.450845 0.000845
v -0.000845 2.450845 0.000845
v -0.002000 2.450586 0.000586
v -0.000586 2.450586 0.002000
v -0.002000 2.450586 1.149414
v -0.000845 2.450845 1.149155
v -0.000845 2.450845 1.149155
v -0.000586 2.452000 1.149414
v -0.000586 2.450586 1.148000
v -0.002000 3.349414 0.000586
v -0.000845 3.349155 0.000845
v -0.000845 3.349155 0.000845
v -0.000586 3.348000 0.000586
v -0.000586 3.349414 0.002000
v -0.000586 3.348000 1.149414
v -0.000845 3.349155 1.149155
v -0.000845 3.349155 1.149155
v -0.002000 3.349414 1.149414
v -0.000586 3.349414 1.148000
s 0
f 607 613 584 578
f 621 627 614 606
f 626 598 585 612
f 579 586 600 592
f 593 599 628 620
f 577 633 634 636
f 578 637 635 580
f 579 583 581 582
f 584 638 639 641
f 585 642 640 587
f 586 590 588 589
f 591 643 644 646
f 592 647 645 594
f 593 597 595 596
f 598 648 649 651
f 599 652 650 601
f 600 604 602 603
f 605 653 654 656
f 606 657 655 608
f 607 611 609 610
f 612 658 659 661
f 613 662 660 615
f 614 618 616 617
f 619 663 664 666
f 620 667 665 622
f 621 625 623 624
f 626 668 669 671
f 627 672 670 629
f 628 632 630 631
f 591 577 636 643
f 594 583 579 592
f 578 584 641 637
f 582 590 586 579
f 585 598 651 642
f 589 604 600 586
f 599 593 596 652
f 603 647 592 600
f 619 591 646 663
f 622 597 593 620
f 598 626 671 648
f 601 632 628 599
f 627 621 624 672
f 631 667 620 628
f 605 619 666 653
f 608 625 621 606
f 626 612 661 668
f 629 618 614 627
f 613 607 610 662
f 617 657 606 614
f 577 605 656 633
f 580 611 607 578
f 612 585 587 658
f 615 638 584 613
f 591 619 605 577
o wall_W_head
v -0.148000 2.452000 2.350000
v -0.148000 2.450000 2.352000
v -0.150000 2.452000 2.352000
v -0.148000 2.450586 2.350586
v -0.149155 2.450845 2.350845
v -0.149414 2.450586 2.352000
v -0.149414 2.452000 2.350586
v -0.148000 2.450000 2.998000
v -0.148000 2.452000 3.000000
v -0.150000 2.452000 2.998000
v -0.148000 2.450586 2.999414
v -0.149155 2.450845 2.999155
v -0.149414 2.452000 2.999414
v -0.149414 2.450586 2.998000
v -0.148000 3.348000 2.350000
v -0.150000 3.348000 2.352000
v -0.148000 3.350000 2.352000
v -0.149414 3.348000 2.350586
v -0.149155 3.349155 2.350845
v -0.149414 3.349414 2.352000
v -0.148000 3.349414 2.350586
v -0.148000 3.348000 3.000000
v -0.148000 3.350000 2.998000
v -0.150000 3.348000 2.998000
v -0.148000 3.349414 2.999414
v -0.149155 3.349155 2.999155
v -0.149414 3.349414 2.998000
v -0.149414 3.348000 2.999414
v -0.002000 2.452000 2.350000
v 0.000000 2.452000 2.352000
v -0.002000 2.450000 2.352000
v -0.000586 2.452000 2.350586
v -0.000845 2.450845 2.350845
v -0.000586 2.450586 2.352000
v -0.002000 2.450586 2.350586
v -0.002000 2.452000 3.000000
v -0.002000 2.450000 2.998000
v 0.000000 2.452000 2.998000
v -0.002000 2.450586 2.999414
v -0.000845 2.450845 2.999155
v -0.000586 2.450586 2.998000
v -0.000586 2.452000 2.999414
v -0.002000 3.348000 2.350000
v -0.002000 3.350000 2.352000
v 0.000000 3.348000 2.352000
v -0.002000 3.349414 2.350586
v -0.000845 3.349155 2.350845
v -0.000586 3.349414 2.352000
v -0.000586 3.348000 2.350586
v -0.002000 3.348000 3.000000
v 0.000000 3.348000 2.998000
v -0.002000 3.350000 2.998000
v -0.000586 3.348000 2.999414
v -0.000845 3.349155 2.999155
v -0.000586 3.349414 2.998000
v -0.002000 3.349414 2.999414
v -0.148000 2.450586 2.350586
v -0.149155 2.450845 2.350845
v -0.149155 2.450845 2.350845
v -0.149414 2.452000 2.350586
v -0.149414 2.450586 2.352000
v -0.148000 2.450586 2.999414
v -0.149155 2.450845 2.999155
v -0.149155 2.450845 2.999155
v -0.149414 2.450586 2.998000
v -0.149414 2.452000 2.999414
v -0.149414 3.348000 2.350586
v -0.149155 3.349155 2.350845
v -0.149155 3.349155 2.350845
v -0.148000 3.349414 2.350586
v -0.149414 3.349414 2.352000
v -0.148000 3.349414 2.999414
v -0.149155 3.349155 2.999155
v -0.149155 3.349155 2.999155
v -0.149414 3.348000 2.999414
v -0.149414 3.349414 2.998000
v -0.000586 2.452000 2.350586
v -0.000845 2.450845 2.350845
v -0.000845 2.450845 2.350845
v -0.002000 2.450586 2.350586
v -0.000586 2.450586 2.352000
v -0.002000 2.450586 2.999414
v -0.000845 2.450845 2.999155
v -0.000845 2.450845 2.999155
v -0.000586 2.452000 2.999414
v -0.000586 2.450586 2.998000
v -0.002000 3.349414 2.350586
v -0.000845 3.349155 2.350845
v -0.000845 3.349155 2.350845
v -0.000586 3.348000 2.350586
v -0.000586 3.349414 2.352000
v -0.000586 3.348000 2.999414
v -0.000845 3.349155 2.999155
v -0.000845 3.349155 2.999155
v -0.002000 3.349414 2.999414
v -0.000586 3.349414 2.998000
s 0
f 703 709 680 674
f 717 723 710 702
f 722 694 681 708
f 675 682 696 688
f 689 695 724 716
f 673 729 730 732
f 674 733 731 676
f 675 679 677 678
f 680 734 735 737
f 681 738 736 683
f 682 686 684 685
f 687 739 740 742
f 688 743 741 690
f 689 693 691 692
f 694 744 745 747
f 695 748 746 697
f 696 700 698 699
f 701 749 750 752
f 702 753 751 704
f 703 707 705 706
f 708 754 755 757
f 709 758 756 711
f 710 714 712 713
f 715 759 760 762
f 716 763 761 718
f 717 721 719 720
f 722 764 765 767
f 723 768 766 725
f 724 728 726 727
f 687 673 732 739
f 690 679 675 688
f 674 680 737 733
f 678 686 682 675
f 681 694 747 738
f 685 700 696 682
f 695 689 692 748
f 699 743 688 696
f 715 687 742 759
f 718 693 689 716
f 694 722 767 744
f 697 728 724 695
f 723 717 720 768
f 727 763 716 724
f 701 715 762 749
f 704 721 717 702
f 722 708 757 764
f 725 714 710 723
f 709 703 706 758
f 713 753 702 710
f 673 701 752 729
f 676 707 703 674
f 708 681 683 754
f 711 734 680 709
f 687 715 701 673
o wall_E_s
v 9.802000 -0.148000 0.000000
v 9.802000 -0.150000 0.002000
v 9.800000 -0.148000 0.002000
v 9.802000 -0.149414 0.000586
v 9.800845 -0.149155 0.000845
v 9.800586 -0.149414 0.002000
v 9.800586 -0.148000 0.000586
v 9.802000 -0.150000 2.998000
v 9.802000 -0.148000 3.000000
v 9.800000 -0.148000 2.998000
v 9.802000 -0.149414 2.999414
v 9.800845 -0.149155 2.999155
v 9.800586 -0.148000 2.999414
v 9.800586 -0.149414 2.998000
v 9.802000 3.348000 0.000000
v 9.800000 3.348000 0.002000
v 9.802000 3.350000 0.002000
v 9.800586 3.348000 0.000586
v 9.800845 3.349155 0.000845
v 9.800586 3.349414 0.002000
v 9.802000 3.349414 0.000586
v 9.802000 3.348000 3.000000
v 9.802000 3.350000 2.998000
v 9.800000 3.348000 2.998000
v 9.802000 3.349414 2.999414
v 9.800845 3.349155 2.999155
v 9.800586 3.349414 2.998000
v 9.800586 3.348000 2.999414
v 9.948000 -0.148000 0.000000
v 9.950000 -0.148000 0.002000
v 9.948000 -0.150000 0.002000
v 9.949414 -0.148000 0.000586
v 9.949155 -0.149155 0.000845
v 9.949414 -0.149414 0.002000
v 9.948000 -0.149414 0.000586
v 9.948000 -0.148000 3.000000
v 9.948000 -0.150000 2.998000
v 9.950000 -0.148000 2.998000
v 9.948000 -0.149414 2.999414
v 9.949155 -0.149155 2.999155
v 9.949414 -0.149414 2.998000
v 9.949414 -0.148000 2.999414
v 9.948000 3.348000 0.000000
v 9.948000 3.350000 0.002000
v 9.950000 3.348000 0.002000
v 9.948000 3.349414 0.000586
v 9.949155 3.349155 0.000845
v 9.949414 3.349414 0.002000
v 9.949414 3.348000 0.000586
v 9.948000 3.348000 3.000000
v 9.950000 3.348000 2.998000
v 9.948000 3.350000 2.998000
v 9.949414 3.348000 2.999414
v 9.949155 3.349155 2.999155
v 9.949414 3.349414 2.998000
v 9.948000 3.349414 2.999414
v 9.802000 -0.149414 0.000586
v 9.800845 -0.149155 0.000845
v 9.800845 -0.149155 0.000845
v 9.800586 -0.148000 0.000586
v 9.800586 -0.149414 0.002000
v 9.802000 -0.149414 2.999414
v 9.800845 -0.149155 2.999155
v 9.800845 -0.149155 2.999155
v 9.800586 -0.149414 2.998000
v 9.800586 -0.148000 2.999414
v 9.800586 3.348000 0.000586
v 9.800845 3.349155 0.000845
v 9.800845 3.349155 0.000845
v 9.802000 3.349414 0.000586
v 9.800586 3.349414 0.002000
v 9.802000 3.349414 2.999414
v 9.800845 3.349155 2.999155
v 9.800845 3.349155 2.999155
v 9.800586 3.348000 2.999414
v 9.800586 3.349414 2.998000
v 9.949414 -0.148000 0.000586
v 9.949155 -0.149155 0.000845
v 9.949155 -0.149155 0.000845
v 9.948000 -0.149414 0.000586
v 9.949414 -0.149414 0.002000
v 9.948000 -0.149414 2.999414
v 9.949155 -0.149155 2.999155
v 9.949155 -0.149155 2.999155
v 9.949414 -0.148000 2.999414
v 9.949414 -0.149414 2.998000
v 9.948000 3.349414 0.000586
v 9.949155 3.349155 0.000845
v 9.949155 3.349155 0.000845
v 9.949414 3.348000 0.000586
v 9.949414 3.349414 0.002000
v 9.949414 3.348000 2.999414
v 9.949155 3.349155 2.999155
v 9.949155 3.349155 2.999155
v 9.948000 3.349414 2.999414
v 9.949414 3.349414 2.998000
s 0
f 799 805 776 770
f 813 819 806 798
f 818 790 777 804
f 771 778 792 784
f 785 791 820 812
f 769 825 826 828
f 770 829 827 772
f 771 775 773 774
f 776 830 831 833
f 777 834 832 779
f 778 782 780 781
f 783 835 836 838
f 784 839 837 786
f 785 789 787 788
f 790 840 841 843
f 791 844 842 793
f 792 796 794 795
f 797 845 846 848
f 798 849 847 800
f 799 803 801 802
f 804 850 851 853
f 805 854 852 807
f 806 810 808 809
f 811 855 856 858
f 812 859 857 814
f 813 817 815 816
f 818 860 861 863
f 819 864 862 821
f 820 824 822 823
f 783 769 828 835
f 786 775 771 784
f 770 776 833 829
f 774 782 778 771
f 777 790 843 834
f 781 796 792 778
f 791 785 788 844
f 795 839 784 792
f 811 783 838 855
f 814 789 785 812
f 790 818 863 840
f 793 824 820 791
f 819 813 816 864
f 823 859 812 820
f 797 811 858 845
f 800 817 813 798
f 818 804 853 860
f 821 810 806 819
f 805 799 802 854
f 809 849 798 806
f 769 797 848 825
f 772 803 799 770
f 804 777 779 850
f 807 830 776 805
f 783 811 797 769
o wall_E_n
v 9.802000 4.352000 0.000000
v 9.802000 4.350000 0.002000
v 9.800000 4.352000 0.002000
v 9.802000 4.350585 0.000586
v 9.800845 4.350845 0.000845
v 9.800586 4.350585 0.002000
v 9.800586 4.352000 0.000586
v 9.802000 4.350000 2.998000
v 9.802000 4.352000 3.000000
v 9.800000 4.352000 2.998000
v 9.802000 4.350585 2.999414
v 9.800845 4.350845 2.999155
v 9.800586 4.352000 2.999414
v 9.800586 4.350585 2.998000
v 9.802000 7.548000 0.000000
v 9.800000 7.548000 0.002000
v 9.802000 7.550000 0.002000
v 9.800586 7.548000 0.000586
v 9.800845 7.549154 0.000845
v 9.800586 7.549414 0.002000
v 9.802000 7.549414 0.000586
v 9.802000 7.548000 3.000000
v 9.802000 7.550000 2.998000
v 9.800000 7.548000 2.998000
v 9.802000 7.549414 2.999414
v 9.800845 7.549154 2.999155
v 9.800586 7.549414 2.998000
v 9.800586 7.548000 2.999414
v 9.948000 4.352000 0.000000
v 9.950000 4.352000 0.002000
v 9.948000 4.350000 0.002000
v 9.949414 4.352000 0.000586
v 9.949155 4.350845 0.000845
v 9.949414 4.350585 0.002000
v 9.948000 4.350585 0.000586
v 9.948000 4.352000 3.000000
v 9.948000 4.350000 2.998000
v 9.950000 4.352000 2.998000
v 9.948000 4.350585 2.999414
v 9.949155 4.350845 2.999155
v 9.949414 4.350585 2.998000
v 9.949414 4.352000 2.999414
v 9.948000 7.548000 0.000000
v 9.948000 7.550000 0.002000
v 9.950000 7.548000 0.002000
v 9.948000 7.549414 0.000586
v 9.949155 7.549154 0.000845
v 9.949414 7.549414 0.002000
v 9.949414 7.548000 0.000586
v 9.948000 7.548000 3.000000
v 9.950000 7.548000 2.998000
v 9.948000 7.550000 2.998000
v 9.949414 7.548000 2.999414
v 9.949155 7.549154 2.999155
v 9.949414 7.549414 2.998000
v 9.948000 7.549414 2.999414
v 9.802000 4.350585 0.000586
v 9.800845 4.350845 0.000845
v 9.800845 4.350845 0.000845
v 9.800586 4.352000 0.000586
v 9.800586 4.350585 0.002000
v 9.802000 4.350585 2.999414
v 9.800845 4.350845 2.999155
v 9.800845 4.350845 2.999155
v 9.800586 4.350585 2.998000
v 9.800586 4.352000 2.999414
v 9.800586 7.548000 0.000586
v 9.800845 7.549154 0.000845
v 9.800845 7.549154 0.000845
v 9.802000 7.549414 0.000586
v 9.800586 7.549414 0.002000
v 9.802000 7.549414 2.999414
v 9.800845 7.549154 2.999155
v 9.800845 7.549154 2.999155
v 9.800586 7.548000 2.999414
v 9.800586 7.549414 2.998000
v 9.949414 4.352000 0.000586
v 9.949155 4.350845 0.000845
v 9.949155 4.350845 0.000845
v 9.948000 4.350585 0.000586
v 9.949414 4.350585 0.002000
v 9.948000 4.350585 2.999414
v 9.949155 4.350845 2.999155
v 9.949155 4.350845 2.999155
v 9.949414 4.352000 2.999414
v 9.949414 4.350585 2.998000
v 9.948000 7.549414 0.000586
v 9.949155 7.549154 0.000845
v 9.949155 7.549154 0.000845
v 9.949414 7.548000 0.000586
v 9.949414 7.549414 0.002000
v 9.949414 7.548000 2.999414
v 9.949155 7.549154 2.999155
v 9.949155 7.549154 2.999155
v 9.948000 7.549414 2.999414
v 9.949414 7.549414 2.998000
s 0
f 895 901 872 866
f 909 915 902 894
f 914 886 873 900
f 867 874 888 880
f 881 887 916 908
f 865 921 922 924
f 866 925 923 868
f 867 871 869 870
f 872 926 927 929
f 873 930 928 875
f 874 878 876 877
f 879 931 932 934
f 880 935 933 882
f 881 885 883 884
f 886 936 937 939
f 887 940 938 889
f 888 892 890 891
f 893 941 942 944
f 894 945 943 896
f 895 899 897 898
f 900 946 947 949
f 901 950 948 903
f 902 906 904 905
f 907 951 952 954
f 908 955 953 910
f 909 913 911 912
f 914 956 957 959
f 915 960 958 917
f 916 920 918 919
f 879 865 924 931
f 882 871 867 880
f 866 872 929 925
f 870 878 874 867
f 873 886 939 930
f 877 892 888 874
f 887 881 884 940
f 891 935 880 888
f 907 879 934 951
f 910 885 881 908
f 886 914 959 936
f 889 920 916 887
f 915 909 912 960
f 919 955 908 916
f 893 907 954 941
f 896 913 909 894
f 914 900 949 956
f 917 906 902 915
f 901 895 898 950
f 905 945 894 902
f 865 893 944 921
f 868 899 895 866
f 900 873 875 946
f 903 926 872 901
f 879 907 893 865
o wall_E_head
v 9.802000 3.352000 2.150000
v 9.802000 3.350000 2.152000
v 9.800000 3.352000 2.152000
v 9.802000 3.350586 2.150586
v 9.800845 3.350845 2.150845
v 9.800586 3.350586 2.152000
v 9.800586 3.352000 2.150586
v 9.802000 3.350000 2.998000
v 9.802000 3.352000 3.000000
v 9.800000 3.352000 2.998000
v 9.802000 3.350586 2.999414
v 9.800845 3.350845 2.999155
v 9.800586 3.352000 2.999414
v 9.800586 3.350586 2.998000
v 9.802000 4.348000 2.150000
v 9.800000 4.348000 2.152000
v 9.802000 4.350000 2.152000
v 9.800586 4.348000 2.150586
v 9.800845 4.349154 2.150845
v 9.800586 4.349414 2.152000
v 9.802000 4.349414 2.150586
v 9.802000 4.348000 3.000000
v 9.802000 4.350000 2.998000
v 9.800000 4.348000 2.998000
v 9.802000 4.349414 2.999414
v 9.800845 4.349154 2.999155
v 9.800586 4.349414 2.998000
v 9.800586 4.348000 2.999414
v 9.948000 3.352000 2.150000
v 9.950000 3.352000 2.152000
v 9.948000 3.350000 2.152000
v 9.949414 3.352000 2.150586
v 9.949155 3.350845 2.150845
v 9.949414 3.350586 2.152000
v 9.948000 3.350586 2.150586
v 9.948000 3.352000 3.000000
v 9.948000 3.350000 2.998000
v 9.950000 3.352000 2.998000
v 9.948000 3.350586 2.999414
v 9.949155 3.350845 2.999155
v 9.949414 3.350586 2.998000
v 9.949414 3.352000 2.999414
v 9.948000 4.348000 2.150000
v 9.948000 4.350000 2.152000
v 9.950000 4.348000 2.152000
v 9.948000 4.349414 2.150586
v 9.949155 4.349154 2.150845
v 9.949414 4.349414 2.152000
v 9.949414 4.348000 2.150586
v 9.948000 4.348000 3.000000
v 9.950000 4.348000 2.998000
v 9.948000 4.350000 2.998000
v 9.949414 4.348000 2.999414
v 9.949155 4.349154 2.999155
v 9.949414 4.349414 2.998000
v 9.948000 4.349414 2.999414
v 9.802000 3.350586 2.150586
v 9.800845 3.350845 2.150845
v 9.800845 3.350845 2.150845
v 9.800586 3.352000 2.150586
v 9.800586 3.350586 2.152000
v 9.802000 3.350586 2.999414
v 9.800845 3.350845 2.999155
v 9.800845 3.350845 2.999155
v 9.800586 3.350586 2.998000
v 9.800586 3.352000 2.999414
v 9.800586 4.348000 2.150586
v 9.800845 4.349154 2.150845
v 9.800845 4.349154 2.150845
v 9.802000 4.349414 2.150586
v 9.800586 4.349414 2.152000
v 9.802000 4.349414 2.999414
v 9.800845 4.349154 2.999155
v 9.800845 4.349154 2.999155
v 9.800586 4.348000 2.999414
v 9.800586 4.349414 2.998000
v 9.949414 3.352000 2.150586
v 9.949155 3.350845 2.150845
v 9.949155 3.350845 2.150845
v 9.948000 3.350586 2.150586
v 9.949414 3.350586 2.152000
v 9.948000 3.350586 2.999414
v 9.949155 3.350845 2.999155
v 9.949155 3.350845 2.999155
v 9.949414 3.352000 2.999414
v 9.949414 3.350586 2.998000
v 9.948000 4.349414 2.150586
v 9.949155 4.349154 2.150845
v 9.949155 4.349154 2.150845
v 9.949414 4.348000 2.150586
v 9.949414 4.349414 2.152000
v 9.949414 4.348000 2.999414
v 9.949155 4.349154 2.999155
v 9.949155 4.349154 2.999155
v 9.948000 4.349414 2.999414
v 9.949414 4.349414 2.998000
s 0
f 991 997 968 962
f 1005 1011 998 990
f 1010 982 969 996
f 963 970 984 976
f 977 983 1012 1004
f 961 1017 1018 1020
f 962 1021 1019 964
f 963 967 965 966
f 968 1022 1023 1025
f 969 1026 1024 971
f 970 974 972 973
f 975 1027 1028 1030
f 976 1031 1029 978
f 977 981 979 980
f 982 1032 1033 1035
f 983 1036 1034 985
f 984 988 986 987
f 989 1037 1038 1040
f 990 1041 1039 992
f 991 995 993 994
f 996 1042 1043 1045
f 997 1046 1044 999
f 998 1002 1000 1001
f 1003 1047 1048 1050
f 1004 1051 1049 1006
f 1005 1009 1007 1008
f 1010 1052 1053 1055
f 1011 1056 1054 1013
f 1012 1016 1014 1015
f 975 961 1020 1027
f 978 967 963 976
f 962 968 1025 1021
f 966 974 970 963
f 969 982 1035 1026
f 973 988 984 970
f 983 977 980 1036
f 987 1031 976 984
f 1003 975 1030 1047
f 1006 981 977 1004
f 982 1010 1055 1032
f 985 1016 1012 983
f 1011 1005 1008 1056
f 1015 1051 1004 1012
f 989 1003 1050 1037
f 992 1009 1005 990
f 1010 996 1045 1052
f 1013 1002 998 1011
f 997 991 994 1046
f 1001 1041 990 998
f 961 989 1040 1017
f 964 995 991 962
f 996 969 971 1042
f 999 1022 968 997
f 975 1003 989 961
o part_pantry_W
v 8.202001 0.002000 0.000000
v 8.202001 0.000000 0.002000
v 8.200000 0.002000 0.002000
v 8.202001 0.000586 0.000586
v 8.200846 0.000845 0.000845
v 8.200586 0.000586 0.002000
v 8.200586 0.002000 0.000586
v 8.202001 0.000000 2.998000
v 8.202001 0.002000 3.000000
v 8.200000 0.002000 2.998000
v 8.202001 0.000586 2.999414
v 8.200846 0.000845 2.999155
v 8.200586 0.002000 2.999414
v 8.200586 0.000586 2.998000
v 8.202001 2.398000 0.000000
v 8.200000 2.398000 0.002000
v 8.202001 2.400000 0.002000
v 8.200586 2.398000 0.000586
v 8.200846 2.399155 0.000845
v 8.200586 2.399414 0.002000
v 8.202001 2.399414 0.000586
v 8.202001 2.398000 3.000000
v 8.202001 2.400000 2.998000
v 8.200000 2.398000 2.998000
v 8.202001 2.399414 2.999414
v 8.200846 2.399155 2.999155
v 8.200586 2.399414 2.998000
v 8.200586 2.398000 2.999414
v 8.318000 0.002000 0.000000
v 8.320001 0.002000 0.002000
v 8.318000 0.000000 0.002000
v 8.319414 0.002000 0.000586
v 8.319155 0.000845 0.000845
v 8.319414 0.000586 0.002000
v 8.318000 0.000586 0.000586
v 8.318000 0.002000 3.000000
v 8.318000 0.000000 2.998000
v 8.320001 0.002000 2.998000
v 8.318000 0.000586 2.999414
v 8.319155 0.000845 2.999155
v 8.319414 0.000586 2.998000
v 8.319414 0.002000 2.999414
v 8.318000 2.398000 0.000000
v 8.318000 2.400000 0.002000
v 8.320001 2.398000 0.002000
v 8.318000 2.399414 0.000586
v 8.319155 2.399155 0.000845
v 8.319414 2.399414 0.002000
v 8.319414 2.398000 0.000586
v 8.318000 2.398000 3.000000
v 8.320001 2.398000 2.998000
v 8.318000 2.400000 2.998000
v 8.319414 2.398000 2.999414
v 8.319155 2.399155 2.999155
v 8.319414 2.399414 2.998000
v 8.318000 2.399414 2.999414
v 8.202001 0.000586 0.000586
v 8.200846 0.000845 0.000845
v 8.200846 0.000845 0.000845
v 8.200586 0.002000 0.000586
v 8.200586 0.000586 0.002000
v 8.202001 0.000586 2.999414
v 8.200846 0.000845 2.999155
v 8.200846 0.000845 2.999155
v 8.200586 0.000586 2.998000
v 8.200586 0.002000 2.999414
v 8.200586 2.398000 0.000586
v 8.200846 2.399155 0.000845
v 8.200846 2.399155 0.000845
v 8.202001 2.399414 0.000586
v 8.200586 2.399414 0.002000
v 8.202001 2.399414 2.999414
v 8.200846 2.399155 2.999155
v 8.200846 2.399155 2.999155
v 8.200586 2.398000 2.999414
v 8.200586 2.399414 2.998000
v 8.319414 0.002000 0.000586
v 8.319155 0.000845 0.000845
v 8.319155 0.000845 0.000845
v 8.318000 0.000586 0.000586
v 8.319414 0.000586 0.002000
v 8.318000 0.000586 2.999414
v 8.319155 0.000845 2.999155
v 8.319155 0.000845 2.999155
v 8.319414 0.002000 2.999414
v 8.319414 0.000586 2.998000
v 8.318000 2.399414 0.000586
v 8.319155 2.399155 0.000845
v 8.319155 2.399155 0.000845
v 8.319414 2.398000 0.000586
v 8.319414 2.399414 0.002000
v 8.319414 2.398000 2.999414
v 8.319155 2.399155 2.999155
v 8.319155 2.399155 2.999155
v 8.318000 2.399414 2.999414
v 8.319414 2.399414 2.998000
s 0
f 1087 1093 1064 1058
f 1101 1107 1094 1086
f 1106 1078 1065 1092
f 1059 1066 1080 1072
f 1073 1079 1108 1100
f 1057 1113 1114 1116
f 1058 1117 1115 1060
f 1059 1063 1061 1062
f 1064 1118 1119 1121
f 1065 1122 1120 1067
f 1066 1070 1068 1069
f 1071 1123 1124 1126
f 1072 1127 1125 1074
f 1073 1077 1075 1076
f 1078 1128 1129 1131
f 1079 1132 1130 1081
f 1080 1084 1082 1083
f 1085 1133 1134 1136
f 1086 1137 1135 1088
f 1087 1091 1089 1090
f 1092 1138 1139 1141
f 1093 1142 1140 1095
f 1094 1098 1096 1097
f 1099 1143 1144 1146
f 1100 1147 1145 1102
f 1101 1105 1103 1104
f 1106 1148 1149 1151
f 1107 1152 1150 1109
f 1108 1112 1110 1111
f 1071 1057 1116 1123
f 1074 1063 1059 1072
f 1058 1064 1121 1117
f 1062 1070 1066 1059
f 1065 1078 1131 1122
f 1069 1084 1080 1066
f 1079 1073 1076 1132
f 1083 1127 1072 1080
f 1099 1071 1126 1143
f 1102 1077 1073 1100
f 1078 1106 1151 1128
f 1081 1112 1108 1079
f 1107 1101 1104 1152
f 1111 1147 1100 1108
f 1085 1099 1146 1133
f 1088 1105 1101 1086
f 1106 1092 1141 1148
f 1109 1098 1094 1107
f 1093 1087 1090 1142
f 1097 1137 1086 1094
f 1057 1085 1136 1113
f 1060 1091 1087 1058
f 1092 1065 1067 1138
f 1095 1118 1064 1093
f 1071 1099 1085 1057
o part_pantry_S_seg
v 8.202000 2.282000 0.000000
v 8.202000 2.280000 0.002000
v 8.200000 2.282000 0.002000
v 8.202000 2.280586 0.000586
v 8.200845 2.280845 0.000845
v 8.200585 2.280586 0.002000
v 8.200585 2.282000 0.000586
v 8.202000 2.280000 2.998000
v 8.202000 2.282000 3.000000
v 8.200000 2.282000 2.998000
v 8.202000 2.280586 2.999414
v 8.200845 2.280845 2.999155
v 8.200585 2.282000 2.999414
v 8.200585 2.280586 2.998000
v 8.202000 2.398000 0.000000
v 8.200000 2.398000 0.002000
v 8.202000 2.400000 0.002000
v 8.200585 2.398000 0.000586
v 8.200845 2.399155 0.000845
v 8.200585 2.399414 0.002000
v 8.202000 2.399414 0.000586
v 8.202000 2.398000 3.000000
v 8.202000 2.400000 2.998000
v 8.200000 2.398000 2.998000
v 8.202000 2.399414 2.999414
v 8.200845 2.399155 2.999155
v 8.200585 2.399414 2.998000
v 8.200585 2.398000 2.999414
v 8.348000 2.282000 0.000000
v 8.349999 2.282000 0.002000
v 8.348000 2.280000 0.002000
v 8.349414 2.282000 0.000586
v 8.349154 2.280845 0.000845
v 8.349414 2.280586 0.002000
v 8.348000 2.280586 0.000586
v 8.348000 2.282000 3.000000
v 8.348000 2.280000 2.998000
v 8.349999 2.282000 2.998000
v 8.348000 2.280586 2.999414
v 8.349154 2.280845 2.999155
v 8.349414 2.280586 2.998000
v 8.349414 2.282000 2.999414
v 8.348000 2.398000 0.000000
v 8.348000 2.400000 0.002000
v 8.349999 2.398000 0.002000
v 8.348000 2.399414 0.000586
v 8.349154 2.399155 0.000845
v 8.349414 2.399414 0.002000
v 8.349414 2.398000 0.000586
v 8.348000 2.398000 3.000000
v 8.349999 2.398000 2.998000
v 8.348000 2.400000 2.998000
v 8.349414 2.398000 2.999414
v 8.349154 2.399155 2.999155
v 8.349414 2.399414 2.998000
v 8.348000 2.399414 2.999414
v 8.202000 2.280586 0.000586
v 8.200845 2.280845 0.000845
v 8.200845 2.280845 0.000845
v 8.200585 2.282000 0.000586
v 8.200585 2.280586 0.002000
v 8.202000 2.280586 2.999414
v 8.200845 2.280845 2.999155
v 8.200845 2.280845 2.999155
v 8.200585 2.280586 2.998000
v 8.200585 2.282000 2.999414
v 8.200585 2.398000 0.000586
v 8.200845 2.399155 0.000845
v 8.200845 2.399155 0.000845
v 8.202000 2.399414 0.000586
v 8.200585 2.399414 0.002000
v 8.202000 2.399414 2.999414
v 8.200845 2.399155 2.999155
v 8.200845 2.399155 2.999155
v 8.200585 2.398000 2.999414
v 8.200585 2.399414 2.998000
v 8.349414 2.282000 0.000586
v 8.349154 2.280845 0.000845
v 8.349154 2.280845 0.000845
v 8.348000 2.280586 0.000586
v 8.349414 2.280586 0.002000
v 8.348000 2.280586 2.999414
v 8.349154 2.280845 2.999155
v 8.349154 2.280845 2.999155
v 8.349414 2.282000 2.999414
v 8.349414 2.280586 2.998000
v 8.348000 2.399414 0.000586
v 8.349154 2.399155 0.000845
v 8.349154 2.399155 0.000845
v 8.349414 2.398000 0.000586
v 8.349414 2.399414 0.002000
v 8.349414 2.398000 2.999414
v 8.349154 2.399155 2.999155
v 8.349154 2.399155 2.999155
v 8.348000 2.399414 2.999414
v 8.349414 2.399414 2.998000
s 0
f 1183 1189 1160 1154
f 1197 1203 1190 1182
f 1202 1174 1161 1188
f 1155 1162 1176 1168
f 1169 1175 1204 1196
f 1153 1209 1210 1212
f 1154 1213 1211 1156
f 1155 1159 1157 1158
f 1160 1214 1215 1217
f 1161 1218 1216 1163
f 1162 1166 1164 1165
f 1167 1219 1220 1222
f 1168 1223 1221 1170
f 1169 1173 1171 1172
f 1174 1224 1225 1227
f 1175 1228 1226 1177
f 1176 1180 1178 1179
f 1181 1229 1230 1232
f 1182 1233 1231 1184
f 1183 1187 1185 1186
f 1188 1234 1235 1237
f 1189 1238 1236 1191
f 1190 1194 1192 1193
f 1195 1239 1240 1242
f 1196 1243 1241 1198
f 1197 1201 1199 1200
f 1202 1244 1245 1247
f 1203 1248 1246 1205
f 1204 1208 1206 1207
f 1167 1153 1212 1219
f 1170 1159 1155 1168
f 1154 1160 1217 1213
f 1158 1166 1162 1155
f 1161 1174 1227 1218
f 1165 1180 1176 1162
f 1175 1169 1172 1228
f 1179 1223 1168 1176
f 1195 1167 1222 1239
f 1198 1173 1169 1196
f 1174 1202 1247 1224
f 1177 1208 1204 1175
f 1203 1197 1200 1248
f 1207 1243 1196 1204
f 1181 1195 1242 1229
f 1184 1201 1197 1182
f 1202 1188 1237 1244
f 1205 1194 1190 1203
f 1189 1183 1186 1238
f 1193 1233 1182 1190
f 1153 1181 1232 1209
f 1156 1187 1183 1154
f 1188 1161 1163 1234
f 1191 1214 1160 1189
f 1167 1195 1181 1153
o part_pantry_N_seg
v 9.252000 2.282000 0.000000
v 9.252000 2.280000 0.002000
v 9.250000 2.282000 0.002000
v 9.252000 2.280586 0.000586
v 9.250845 2.280845 0.000845
v 9.250586 2.280586 0.002000
v 9.250586 2.282000 0.000586
v 9.252000 2.280000 2.998000
v 9.252000 2.282000 3.000000
v 9.250000 2.282000 2.998000
v 9.252000 2.280586 2.999414
v 9.250845 2.280845 2.999155
v 9.250586 2.282000 2.999414
v 9.250586 2.280586 2.998000
v 9.252000 2.398000 0.000000
v 9.250000 2.398000 0.002000
v 9.252000 2.400000 0.002000
v 9.250586 2.398000 0.000586
v 9.250845 2.399155 0.000845
v 9.250586 2.399414 0.002000
v 9.252000 2.399414 0.000586
v 9.252000 2.398000 3.000000
v 9.252000 2.400000 2.998000
v 9.250000 2.398000 2.998000
v 9.252000 2.399414 2.999414
v 9.250845 2.399155 2.999155
v 9.250586 2.399414 2.998000
v 9.250586 2.398000 2.999414
v 9.797999 2.282000 0.000000
v 9.799999 2.282000 0.002000
v 9.797999 2.280000 0.002000
v 9.799414 2.282000 0.000586
v 9.799154 2.280845 0.000845
v 9.799414 2.280586 0.002000
v 9.797999 2.280586 0.000586
v 9.797999 2.282000 3.000000
v 9.797999 2.280000 2.998000
v 9.799999 2.282000 2.998000
v 9.797999 2.280586 2.999414
v 9.799154 2.280845 2.999155
v 9.799414 2.280586 2.998000
v 9.799414 2.282000 2.999414
v 9.797999 2.398000 0.000000
v 9.797999 2.400000 0.002000
v 9.799999 2.398000 0.002000
v 9.797999 2.399414 0.000586
v 9.799154 2.399155 0.000845
v 9.799414 2.399414 0.002000
v 9.799414 2.398000 0.000586
v 9.797999 2.398000 3.000000
v 9.799999 2.398000 2.998000
v 9.797999 2.400000 2.998000
v 9.799414 2.398000 2.999414
v 9.799154 2.399155 2.999155
v 9.799414 2.399414 2.998000
v 9.797999 2.399414 2.999414
v 9.252000 2.280586 0.000586
v 9.250845 2.280845 0.000845
v 9.250845 2.280845 0.000845
v 9.250586 2.282000 0.000586
v 9.250586 2.280586 0.002000
v 9.252000 2.280586 2.999414
v 9.250845 2.280845 2.999155
v 9.250845 2.280845 2.999155
v 9.250586 2.280586 2.998000
v 9.250586 2.282000 2.999414
v 9.250586 2.398000 0.000586
v 9.250845 2.399155 0.000845
v 9.250845 2.399155 0.000845
v 9.252000 2.399414 0.000586
v 9.250586 2.399414 0.002000
v 9.252000 2.399414 2.999414
v 9.250845 2.399155 2.999155
v 9.250845 2.399155 2.999155
v 9.250586 2.398000 2.999414
v 9.250586 2.399414 2.998000
v 9.799414 2.282000 0.000586
v 9.799154 2.280845 0.000845
v 9.799154 2.280845 0.000845
v 9.797999 2.280586 0.000586
v 9.799414 2.280586 0.002000
v 9.797999 2.280586 2.999414
v 9.799154 2.280845 2.999155
v 9.799154 2.280845 2.999155
v 9.799414 2.282000 2.999414
v 9.799414 2.280586 2.998000
v 9.797999 2.399414 0.000586
v 9.799154 2.399155 0.000845
v 9.799154 2.399155 0.000845
v 9.799414 2.398000 0.000586
v 9.799414 2.399414 0.002000
v 9.799414 2.398000 2.999414
v 9.799154 2.399155 2.999155
v 9.799154 2.399155 2.999155
v 9.797999 2.399414 2.999414
v 9.799414 2.399414 2.998000
s 0
f 1279 1285 1256 1250
f 1293 1299 1286 1278
f 1298 1270 1257 1284
f 1251 1258 1272 1264
f 1265 1271 1300 1292
f 1249 1305 1306 1308
f 1250 1309 1307 1252
f 1251 1255 1253 1254
f 1256 1310 1311 1313
f 1257 1314 1312 1259
f 1258 1262 1260 1261
f 1263 1315 1316 1318
f 1264 1319 1317 1266
f 1265 1269 1267 1268
f 1270 1320 1321 1323
f 1271 1324 1322 1273
f 1272 1276 1274 1275
f 1277 1325 1326 1328
f 1278 1329 1327 1280
f 1279 1283 1281 1282
f 1284 1330 1331 1333
f 1285 1334 1332 1287
f 1286 1290 1288 1289
f 1291 1335 1336 1338
f 1292 1339 1337 1294
f 1293 1297 1295 1296
f 1298 1340 1341 1343
f 1299 1344 1342 1301
f 1300 1304 1302 1303
f 1263 1249 1308 1315
f 1266 1255 1251 1264
f 1250 1256 1313 1309
f 1254 1262 1258 1251
f 1257 1270 1323 1314
f 1261 1276 1272 1258
f 1271 1265 1268 1324
f 1275 1319 1264 1272
f 1291 1263 1318 1335
f 1294 1269 1265 1292
f 1270 1298 1343 1320
f 1273 1304 1300 1271
f 1299 1293 1296 1344
f 1303 1339 1292 1300
f 1277 1291 1338 1325
f 1280 1297 1293 1278
f 1298 1284 1333 1340
f 1301 1290 1286 1299
f 1285 1279 1282 1334
f 1289 1329 1278 1286
f 1249 1277 1328 1305
f 1252 1283 1279 1250
f 1284 1257 1259 1330
f 1287 1310 1256 1285
f 1263 1291 1277 1249
o part_pantry_head
v 8.352000 2.282000 2.100000
v 8.352000 2.280000 2.102000
v 8.350000 2.282000 2.102000
v 8.352000 2.280586 2.100586
v 8.350845 2.280845 2.100845
v 8.350586 2.280586 2.102000
v 8.350586 2.282000 2.100586
v 8.352000 2.280000 2.998000
v 8.352000 2.282000 3.000000
v 8.350000 2.282000 2.998000
v 8.352000 2.280586 2.999414
v 8.350845 2.280845 2.999155
v 8.350586 2.282000 2.999414
v 8.350586 2.280586 2.998000
v 8.352000 2.398000 2.100000
v 8.350000 2.398000 2.102000
v 8.352000 2.400000 2.102000
v 8.350586 2.398000 2.100586
v 8.350845 2.399155 2.100845
v 8.350586 2.399414 2.102000
v 8.352000 2.399414 2.100586
v 8.352000 2.398000 3.000000
v 8.352000 2.400000 2.998000
v 8.350000 2.398000 2.998000
v 8.352000 2.399414 2.999414
v 8.350845 2.399155 2.999155
v 8.350586 2.399414 2.998000
v 8.350586 2.398000 2.999414
v 9.248000 2.282000 2.100000
v 9.250000 2.282000 2.102000
v 9.248000 2.280000 2.102000
v 9.249414 2.282000 2.100586
v 9.249155 2.280845 2.100845
v 9.249414 2.280586 2.102000
v 9.248000 2.280586 2.100586
v 9.248000 2.282000 3.000000
v 9.248000 2.280000 2.998000
v 9.250000 2.282000 2.998000
v 9.248000 2.280586 2.999414
v 9.249155 2.280845 2.999155
v 9.249414 2.280586 2.998000
v 9.249414 2.282000 2.999414
v 9.248000 2.398000 2.100000
v 9.248000 2.400000 2.102000
v 9.250000 2.398000 2.102000
v 9.248000 2.399414 2.100586
v 9.249155 2.399155 2.100845
v 9.249414 2.399414 2.102000
v 9.249414 2.398000 2.100586
v 9.248000 2.398000 3.000000
v 9.250000 2.398000 2.998000
v 9.248000 2.400000 2.998000
v 9.249414 2.398000 2.999414
v 9.249155 2.399155 2.999155
v 9.249414 2.399414 2.998000
v 9.248000 2.399414 2.999414
v 8.352000 2.280586 2.100586
v 8.350845 2.280845 2.100845
v 8.350845 2.280845 2.100845
v 8.350586 2.282000 2.100586
v 8.350586 2.280586 2.102000
v 8.352000 2.280586 2.999414
v 8.350845 2.280845 2.999155
v 8.350845 2.280845 2.999155
v 8.350586 2.280586 2.998000
v 8.350586 2.282000 2.999414
v 8.350586 2.398000 2.100586
v 8.350845 2.399155 2.100845
v 8.350845 2.399155 2.100845
v 8.352000 2.399414 2.100586
v 8.350586 2.399414 2.102000
v 8.352000 2.399414 2.999414
v 8.350845 2.399155 2.999155
v 8.350845 2.399155 2.999155
v 8.350586 2.398000 2.999414
v 8.350586 2.399414 2.998000
v 9.249414 2.282000 2.100586
v 9.249155 2.280845 2.100845
v 9.249155 2.280845 2.100845
v 9.248000 2.280586 2.100586
v 9.249414 2.280586 2.102000
v 9.248000 2.280586 2.999414
v 9.249155 2.280845 2.999155
v 9.249155 2.280845 2.999155
v 9.249414 2.282000 2.999414
v 9.249414 2.280586 2.998000
v 9.248000 2.399414 2.100586
v 9.249155 2.399155 2.100845
v 9.249155 2.399155 2.100845
v 9.249414 2.398000 2.100586
v 9.249414 2.399414 2.102000
v 9.249414 2.398000 2.999414
v 9.249155 2.399155 2.999155
v 9.249155 2.399155 2.999155
v 9.248000 2.399414 2.999414
v 9.249414 2.399414 2.998000
s 0
f 1375 1381 1352 1346
f 1389 1395 1382 1374
f 1394 1366 1353 1380
f 1347 1354 1368 1360
f 1361 1367 1396 1388
f 1345 1401 1402 1404
f 1346 1405 1403 1348
f 1347 1351 1349 1350
f 1352 1406 1407 1409
f 1353 1410 1408 1355
f 1354 1358 1356 1357
f 1359 1411 1412 1414
f 1360 1415 1413 1362
f 1361 1365 1363 1364
f 1366 1416 1417 1419
f 1367 1420 1418 1369
f 1368 1372 1370 1371
f 1373 1421 1422 1424
f 1374 1425 1423 1376
f 1375 1379 1377 1378
f 1380 1426 1427 1429
f 1381 1430 1428 1383
f 1382 1386 1384 1385
f 1387 1431 1432 1434
f 1388 1435 1433 1390
f 1389 1393 1391 1392
f 1394 1436 1437 1439
f 1395 1440 1438 1397
f 1396 1400 1398 1399
f 1359 1345 1404 1411
f 1362 1351 1347 1360
f 1346 1352 1409 1405
f 1350 1358 1354 1347
f 1353 1366 1419 1410
f 1357 1372 1368 1354
f 1367 1361 1364 1420
f 1371 1415 1360 1368
f 1387 1359 1414 1431
f 1390 1365 1361 1388
f 1366 1394 1439 1416
f 1369 1400 1396 1367
f 1395 1389 1392 1440
f 1399 1435 1388 1396
f 1373 1387 1434 1421
f 1376 1393 1389 1374
f 1394 1380 1429 1436
f 1397 1386 1382 1395
f 1381 1375 1378 1430
f 1385 1425 1374 1382
f 1345 1373 1424 1401
f 1348 1379 1375 1346
f 1380 1353 1355 1426
f 1383 1406 1352 1381
f 1359 1387 1373 1345
o hall_wall_S
v 9.802000 2.752000 0.000000
v 9.802000 2.750000 0.002000
v 9.800000 2.752000 0.002000
v 9.802000 2.750586 0.000586
v 9.800845 2.750845 0.000845
v 9.800586 2.750586 0.002000
v 9.800586 2.752000 0.000586
v 9.802000 2.750000 2.598000
v 9.802000 2.752000 2.600000
v 9.800000 2.752000 2.598000
v 9.802000 2.750586 2.599414
v 9.800845 2.750845 2.599154
v 9.800586 2.752000 2.599414
v 9.800586 2.750586 2.598000
v 9.802000 2.848000 0.000000
v 9.800000 2.848000 0.002000
v 9.802000 2.850000 0.002000
v 9.800586 2.848000 0.000586
v 9.800845 2.849155 0.000845
v 9.800586 2.849414 0.002000
v 9.802000 2.849414 0.000586
v 9.802000 2.848000 2.600000
v 9.802000 2.850000 2.598000
v 9.800000 2.848000 2.598000
v 9.802000 2.849414 2.599414
v 9.800845 2.849155 2.599154
v 9.800586 2.849414 2.598000
v 9.800586 2.848000 2.599414
v 11.548000 2.752000 0.000000
v 11.550000 2.752000 0.002000
v 11.548000 2.750000 0.002000
v 11.549415 2.752000 0.000586
v 11.549155 2.750845 0.000845
v 11.549415 2.750586 0.002000
v 11.548000 2.750586 0.000586
v 11.548000 2.752000 2.600000
v 11.548000 2.750000 2.598000
v 11.550000 2.752000 2.598000
v 11.548000 2.750586 2.599414
v 11.549155 2.750845 2.599154
v 11.549415 2.750586 2.598000
v 11.549415 2.752000 2.599414
v 11.548000 2.848000 0.000000
v 11.548000 2.850000 0.002000
v 11.550000 2.848000 0.002000
v 11.548000 2.849414 0.000586
v 11.549155 2.849155 0.000845
v 11.549415 2.849414 0.002000
v 11.549415 2.848000 0.000586
v 11.548000 2.848000 2.600000
v 11.550000 2.848000 2.598000
v 11.548000 2.850000 2.598000
v 11.549415 2.848000 2.599414
v 11.549155 2.849155 2.599154
v 11.549415 2.849414 2.598000
v 11.548000 2.849414 2.599414
v 9.802000 2.750586 0.000586
v 9.800845 2.750845 0.000845
v 9.800845 2.750845 0.000845
v 9.800586 2.752000 0.000586
v 9.800586 2.750586 0.002000
v 9.802000 2.750586 2.599414
v 9.800845 2.750845 2.599154
v 9.800845 2.750845 2.599154
v 9.800586 2.750586 2.598000
v 9.800586 2.752000 2.599414
v 9.800586 2.848000 0.000586
v 9.800845 2.849155 0.000845
v 9.800845 2.849155 0.000845
v 9.802000 2.849414 0.000586
v 9.800586 2.849414 0.002000
v 9.802000 2.849414 2.599414
v 9.800845 2.849155 2.599154
v 9.800845 2.849155 2.599154
v 9.800586 2.848000 2.599414
v 9.800586 2.849414 2.598000
v 11.549415 2.752000 0.000586
v 11.549155 2.750845 0.000845
v 11.549155 2.750845 0.000845
v 11.548000 2.750586 0.000586
v 11.549415 2.750586 0.002000
v 11.548000 2.750586 2.599414
v 11.549155 2.750845 2.599154
v 11.549155 2.750845 2.599154
v 11.549415 2.752000 2.599414
v 11.549415 2.750586 2.598000
v 11.548000 2.849414 0.000586
v 11.549155 2.849155 0.000845
v 11.549155 2.849155 0.000845
v 11.549415 2.848000 0.000586
v 11.549415 2.849414 0.002000
v 11.549415 2.848000 2.599414
v 11.549155 2.849155 2.599154
v 11.549155 2.849155 2.599154
v 11.548000 2.849414 2.599414
v 11.549415 2.849414 2.598000
s 0
f 1471 1477 1448 1442
f 1485 1491 1478 1470
f 1490 1462 1449 1476
f 1443 1450 1464 1456
f 1457 1463 1492 1484
f 1441 1497 1498 1500
f 1442 1501 1499 1444
f 1443 1447 1445 1446
f 1448 1502 1503 1505
f 1449 1506 1504 1451
f 1450 1454 1452 1453
f 1455 1507 1508 1510
f 1456 1511 1509 1458
f 1457 1461 1459 1460
f 1462 1512 1513 1515
f 1463 1516 1514 1465
f 1464 1468 1466 1467
f 1469 1517 1518 1520
f 1470 1521 1519 1472
f 1471 1475 1473 1474
f 1476 1522 1523 1525
f 1477 1526 1524 1479
f 1478 1482 1480 1481
f 1483 1527 1528 1530
f 1484 1531 1529 1486
f 1485 1489 1487 1488
f 1490 1532 1533 1535
f 1491 1536 1534 1493
f 1492 1496 1494 1495
f 1455 1441 1500 1507
f 1458 1447 1443 1456
f 1442 1448 1505 1501
f 1446 1454 1450 1443
f 1449 1462 1515 1506
f 1453 1468 1464 1450
f 1463 1457 1460 1516
f 1467 1511 1456 1464
f 1483 1455 1510 1527
f 1486 1461 1457 1484
f 1462 1490 1535 1512
f 1465 1496 1492 1463
f 1491 1485 1488 1536
f 1495 1531 1484 1492
f 1469 1483 1530 1517
f 1472 1489 1485 1470
f 1490 1476 1525 1532
f 1493 1482 1478 1491
f 1477 1471 1474 1526
f 1481 1521 1470 1478
f 1441 1469 1520 1497
f 1444 1475 1471 1442
f 1476 1449 1451 1522
f 1479 1502 1448 1477
f 1455 1483 1469 1441
o hall_wall_N
v 9.802000 4.852000 0.000000
v 9.802000 4.850000 0.002000
v 9.800000 4.852000 0.002000
v 9.802000 4.850586 0.000586
v 9.800845 4.850845 0.000845
v 9.800586 4.850586 0.002000
v 9.800586 4.852000 0.000586
v 9.802000 4.850000 2.598000
v 9.802000 4.852000 2.600000
v 9.800000 4.852000 2.598000
v 9.802000 4.850586 2.599414
v 9.800845 4.850845 2.599154
v 9.800586 4.852000 2.599414
v 9.800586 4.850586 2.598000
v 9.802000 4.948000 0.000000
v 9.800000 4.948000 0.002000
v 9.802000 4.950000 0.002000
v 9.800586 4.948000 0.000586
v 9.800845 4.949155 0.000845
v 9.800586 4.949414 0.002000
v 9.802000 4.949414 0.000586
v 9.802000 4.948000 2.600000
v 9.802000 4.950000 2.598000
v 9.800000 4.948000 2.598000
v 9.802000 4.949414 2.599414
v 9.800845 4.949155 2.599154
v 9.800586 4.949414 2.598000
v 9.800586 4.948000 2.599414
v 11.548000 4.852000 0.000000
v 11.550000 4.852000 0.002000
v 11.548000 4.850000 0.002000
v 11.549415 4.852000 0.000586
v 11.549155 4.850845 0.000845
v 11.549415 4.850586 0.002000
v 11.548000 4.850586 0.000586
v 11.548000 4.852000 2.600000
v 11.548000 4.850000 2.598000
v 11.550000 4.852000 2.598000
v 11.548000 4.850586 2.599414
v 11.549155 4.850845 2.599154
v 11.549415 4.850586 2.598000
v 11.549415 4.852000 2.599414
v 11.548000 4.948000 0.000000
v 11.548000 4.950000 0.002000
v 11.550000 4.948000 0.002000
v 11.548000 4.949414 0.000586
v 11.549155 4.949155 0.000845
v 11.549415 4.949414 0.002000
v 11.549415 4.948000 0.000586
v 11.548000 4.948000 2.600000
v 11.550000 4.948000 2.598000
v 11.548000 4.950000 2.598000
v 11.549415 4.948000 2.599414
v 11.549155 4.949155 2.599154
v 11.549415 4.949414 2.598000
v 11.548000 4.949414 2.599414
v 9.802000 4.850586 0.000586
v 9.800845 4.850845 0.000845
v 9.800845 4.850845 0.000845
v 9.800586 4.852000 0.000586
v 9.800586 4.850586 0.002000
v 9.802000 4.850586 2.599414
v 9.800845 4.850845 2.599154
v 9.800845 4.850845 2.599154
v 9.800586 4.850586 2.598000
v 9.800586 4.852000 2.599414
v 9.800586 4.948000 0.000586
v 9.800845 4.949155 0.000845
v 9.800845 4.949155 0.000845
v 9.802000 4.949414 0.000586
v 9.800586 4.949414 0.002000
v 9.802000 4.949414 2.599414
v 9.800845 4.949155 2.599154
v 9.800845 4.949155 2.599154
v 9.800586 4.948000 2.599414
v 9.800586 4.949414 2.598000
v 11.549415 4.852000 0.000586
v 11.549155 4.850845 0.000845
v 11.549155 4.850845 0.000845
v 11.548000 4.850586 0.000586
v 11.549415 4.850586 0.002000
v 11.548000 4.850586 2.599414
v 11.549155 4.850845 2.599154
v 11.549155 4.850845 2.599154
v 11.549415 4.852000 2.599414
v 11.549415 4.850586 2.598000
v 11.548000 4.949414 0.000586
v 11.549155 4.949155 0.000845
v 11.549155 4.949155 0.000845
v 11.549415 4.948000 0.000586
v 11.549415 4.949414 0.002000
v 11.549415 4.948000 2.599414
v 11.549155 4.949155 2.599154
v 11.549155 4.949155 2.599154
v 11.548000 4.949414 2.599414
v 11.549415 4.949414 2.598000
s 0
f 1567 1573 1544 1538
f 1581 1587 1574 1566
f 1586 1558 1545 1572
f 1539 1546 1560 1552
f 1553 1559 1588 1580
f 1537 1593 1594 1596
f 1538 1597 1595 1540
f 1539 1543 1541 1542
f 1544 1598 1599 1601
f 1545 1602 1600 1547
f 1546 1550 1548 1549
f 1551 1603 1604 1606
f 1552 1607 1605 1554
f 1553 1557 1555 1556
f 1558 1608 1609 1611
f 1559 1612 1610 1561
f 1560 1564 1562 1563
f 1565 1613 1614 1616
f 1566 1617 1615 1568
f 1567 1571 1569 1570
f 1572 1618 1619 1621
f 1573 1622 1620 1575
f 1574 1578 1576 1577
f 1579 1623 1624 1626
f 1580 1627 1625 1582
f 1581 1585 1583 1584
f 1586 1628 1629 1631
f 1587 1632 1630 1589
f 1588 1592 1590 1591
f 1551 1537 1596 1603
f 1554 1543 1539 1552
f 1538 1544 1601 1597
f 1542 1550 1546 1539
f 1545 1558 1611 1602
f 1549 1564 1560 1546
f 1559 1553 1556 1612
f 1563 1607 1552 1560
f 1579 1551 1606 1623
f 1582 1557 1553 1580
f 1558 1586 1631 1608
f 1561 1592 1588 1559
f 1587 1581 1584 1632
f 1591 1627 1580 1588
f 1565 1579 1626 1613
f 1568 1585 1581 1566
f 1586 1572 1621 1628
f 1589 1578 1574 1587
f 1573 1567 1570 1622
f 1577 1617 1566 1574
f 1537 1565 1616 1593
f 1540 1571 1567 1538
f 1572 1545 1547 1618
f 1575 1598 1544 1573
f 1551 1579 1565 1537
o hall_wall_E
v 11.401999 2.852000 0.000000
v 11.401999 2.850000 0.002000
v 11.400000 2.852000 0.002000
v 11.401999 2.850586 0.000586
v 11.400846 2.850845 0.000845
v 11.400585 2.850586 0.002000
v 11.400585 2.852000 0.000586
v 11.401999 2.850000 2.598000
v 11.401999 2.852000 2.600000
v 11.400000 2.852000 2.598000
v 11.401999 2.850586 2.599414
v 11.400846 2.850845 2.599154
v 11.400585 2.852000 2.599414
v 11.400585 2.850586 2.598000
v 11.401999 4.848000 0.000000
v 11.400000 4.848000 0.002000
v 11.401999 4.850000 0.002000
v 11.400585 4.848000 0.000586
v 11.400846 4.849154 0.000845
v 11.400585 4.849414 0.002000
v 11.401999 4.849414 0.000586
v 11.401999 4.848000 2.600000
v 11.401999 4.850000 2.598000
v 11.400000 4.848000 2.598000
v 11.401999 4.849414 2.599414
v 11.400846 4.849154 2.599154
v 11.400585 4.849414 2.598000
v 11.400585 4.848000 2.599414
v 11.498000 2.852000 0.000000
v 11.500000 2.852000 0.002000
v 11.498000 2.850000 0.002000
v 11.499414 2.852000 0.000586
v 11.499154 2.850845 0.000845
v 11.499414 2.850586 0.002000
v 11.498000 2.850586 0.000586
v 11.498000 2.852000 2.600000
v 11.498000 2.850000 2.598000
v 11.500000 2.852000 2.598000
v 11.498000 2.850586 2.599414
v 11.499154 2.850845 2.599154
v 11.499414 2.850586 2.598000
v 11.499414 2.852000 2.599414
v 11.498000 4.848000 0.000000
v 11.498000 4.850000 0.002000
v 11.500000 4.848000 0.002000
v 11.498000 4.849414 0.000586
v 11.499154 4.849154 0.000845
v 11.499414 4.849414 0.002000
v 11.499414 4.848000 0.000586
v 11.498000 4.848000 2.600000
v 11.500000 4.848000 2.598000
v 11.498000 4.850000 2.598000
v 11.499414 4.848000 2.599414
v 11.499154 4.849154 2.599154
v 11.499414 4.849414 2.598000
v 11.498000 4.849414 2.599414
v 11.401999 2.850586 0.000586
v 11.400846 2.850845 0.000845
v 11.400846 2.850845 0.000845
v 11.400585 2.852000 0.000586
v 11.400585 2.850586 0.002000
v 11.401999 2.850586 2.599414
v 11.400846 2.850845 2.599154
v 11.400846 2.850845 2.599154
v 11.400585 2.850586 2.598000
v 11.400585 2.852000 2.599414
v 11.400585 4.848000 0.000586
v 11.400846 4.849154 0.000845
v 11.400846 4.849154 0.000845
v 11.401999 4.849414 0.000586
v 11.400585 4.849414 0.002000
v 11.401999 4.849414 2.599414
v 11.400846 4.849154 2.599154
v 11.400846 4.849154 2.599154
v 11.400585 4.848000 2.599414
v 11.400585 4.849414 2.598000
v 11.499414 2.852000 0.000586
v 11.499154 2.850845 0.000845
v 11.499154 2.850845 0.000845
v 11.498000 2.850586 0.000586
v 11.499414 2.850586 0.002000
v 11.498000 2.850586 2.599414
v 11.499154 2.850845 2.599154
v 11.499154 2.850845 2.599154
v 11.499414 2.852000 2.599414
v 11.499414 2.850586 2.598000
v 11.498000 4.849414 0.000586
v 11.499154 4.849154 0.000845
v 11.499154 4.849154 0.000845
v 11.499414 4.848000 0.000586
v 11.499414 4.849414 0.002000
v 11.499414 4.848000 2.599414
v 11.499154 4.849154 2.599154
v 11.499154 4.849154 2.599154
v 11.498000 4.849414 2.599414
v 11.499414 4.849414 2.598000
s 0
f 1663 1669 1640 1634
f 1677 1683 1670 1662
f 1682 1654 1641 1668
f 1635 1642 1656 1648
f 1649 1655 1684 1676
f 1633 1689 1690 1692
f 1634 1693 1691 1636
f 1635 1639 1637 1638
f 1640 1694 1695 1697
f 1641 1698 1696 1643
f 1642 1646 1644 1645
f 1647 1699 1700 1702
f 1648 1703 1701 1650
f 1649 1653 1651 1652
f 1654 1704 1705 1707
f 1655 1708 1706 1657
f 1656 1660 1658 1659
f 1661 1709 1710 1712
f 1662 1713 1711 1664
f 1663 1667 1665 1666
f 1668 1714 1715 1717
f 1669 1718 1716 1671
f 1670 1674 1672 1673
f 1675 1719 1720 1722
f 1676 1723 1721 1678
f 1677 1681 1679 1680
f 1682 1724 1725 1727
f 1683 1728 1726 1685
f 1684 1688 1686 1687
f 1647 1633 1692 1699
f 1650 1639 1635 1648
f 1634 1640 1697 1693
f 1638 1646 1642 1635
f 1641 1654 1707 1698
f 1645 1660 1656 1642
f 1655 1649 1652 1708
f 1659 1703 1648 1656
f 1675 1647 1702 1719
f 1678 1653 1649 1676
f 1654 1682 1727 1704
f 1657 1688 1684 1655
f 1683 1677 1680 1728
f 1687 1723 1676 1684
f 1661 1675 1722 1709
f 1664 1681 1677 1662
f 1682 1668 1717 1724
f 1685 1674 1670 1683
f 1669 1663 1666 1718
f 1673 1713 1662 1670
f 1633 1661 1712 1689
f 1636 1667 1663 1634
f 1668 1641 1643 1714
f 1671 1694 1640 1669
f 1647 1675 1661 1633
