# Blender 4.1.1
# www.blender.org
o hall_ceil
v 9.802000 2.852000 2.600000
v 9.802000 2.850000 2.602000
v 9.800000 2.852000 2.602000
v 9.802000 2.850586 2.600586
v 9.800845 2.850845 2.600845
v 9.800586 2.850586 2.602000
v 9.800586 2.852000 2.600586
v 9.802000 2.850000 2.678000
v 9.802000 2.852000 2.680000
v 9.800000 2.852000 2.678000
v 9.802000 2.850586 2.679414
v 9.800845 2.850845 2.679155
v 9.800586 2.852000 2.679414
v 9.800586 2.850586 2.678000
v 9.802000 4.848000 2.600000
v 9.800000 4.848000 2.602000
v 9.802000 4.850000 2.602000
v 9.800586 4.848000 2.600586
v 9.800845 4.849154 2.600845
v 9.800586 4.849414 2.602000
v 9.802000 4.849414 2.600586
v 9.802000 4.848000 2.680000
v 9.802000 4.850000 2.678000
v 9.800000 4.848000 2.678000
v 9.802000 4.849414 2.679414
v 9.800845 4.849154 2.679155
v 9.800586 4.849414 2.678000
v 9.800586 4.848000 2.679414
v 11.548000 2.852000 2.600000
v 11.550000 2.852000 2.602000
v 11.548000 2.850000 2.602000
v 11.549415 2.852000 2.600586
v 11.549155 2.850845 2.600845
v 11.549415 2.850586 2.602000
v 11.548000 2.850586 2.600586
v 11.548000 2.852000 2.680000
v 11.548000 2.850000 2.678000
v 11.550000 2.852000 2.678000
v 11.548000 2.850586 2.679414
v 11.549155 2.850845 2.679155
v 11.549415 2.850586 2.678000
v 11.549415 2.852000 2.679414
v 11.548000 4.848000 2.600000
v 11.548000 4.850000 2.602000
v 11.550000 4.848000 2.602000
v 11.548000 4.849414 2.600586
v 11.549155 4.849154 2.600845
v 11.549415 4.849414 2.602000
v 11.549415 4.848000 2.600586
v 11.548000 4.848000 2.680000
v 11.550000 4.848000 2.678000
v 11.548000 4.850000 2.678000
v 11.549415 4.848000 2.679414
v 11.549155 4.849154 2.679155
v 11.549415 4.849414 2.678000
v 11.548000 4.849414 2.679414
v 9.802000 2.850586 2.600586
v 9.800845 2.850845 2.600845
v 9.800845 2.850845 2.600845
v 9.800586 2.852000 2.600586
v 9.800586 2.850586 2.602000
v 9.802000 2.850586 2.679414
v 9.800845 2.850845 2.679155
v 9.800845 2.850845 2.679155
v 9.800586 2.850586 2.678000
v 9.800586 2.852000 2.679414
v 9.800586 4.848000 2.600586
v 9.800845 4.849154 2.600845
v 9.800845 4.849154 2.600845
v 9.802000 4.849414 2.600586
v 9.800586 4.849414 2.602000
v 9.802000 4.849414 2.679414
v 9.800845 4.849154 2.679155
v 9.800845 4.849154 2.679155
v 9.800586 4.848000 2.679414
v 9.800586 4.849414 2.678000
v 11.549415 2.852000 2.600586
v 11.549155 2.850845 2.600845
v 11.549155 2.850845 2.600845
v 11.548000 2.850586 2.600586
v 11.549415 2.850586 2.602000
v 11.548000 2.850586 2.679414
v 11.549155 2.850845 2.679155
v 11.549155 2.850845 2.679155
v 11.549415 2.852000 2.679414
v 11.549415 2.850586 2.678000
v 11.548000 4.849414 2.600586
v 11.549155 4.849154 2.600845
v 11.549155 4.849154 2.600845
v 11.549415 4.848000 2.600586
v 11.549415 4.849414 2.602000
v 11.549415 4.848000 2.679414
v 11.549155 4.849154 2.679155
v 11.549155 4.849154 2.679155
v 11.548000 4.849414 2.679414
v 11.549415 4.849414 2.678000
s 0
f 31 37 8 2
f 45 51 38 30
f 50 22 9 36
f 3 10 24 16
f 17 23 52 44
f 1 57 58 60
f 2 61 59 4
f 3 7 5 6
f 8 62 63 65
f 9 66 64 11
f 10 14 12 13
f 15 67 68 70
f 16 71 69 18
f 17 21 19 20
f 22 72 73 75
f 23 76 74 25
f 24 28 26 27
f 29 77 78 80
f 30 81 79 32
f 31 35 33 34
f 36 82 83 85
f 37 86 84 39
f 38 42 40 41
f 43 87 88 90
f 44 91 89 46
f 45 49 47 48
f 50 92 93 95
f 51 96 94 53
f 52 56 54 55
f 15 1 60 67
f 18 7 3 16
f 2 8 65 61
f 6 14 10 3
f 9 22 75 66
f 13 28 24 10
f 23 17 20 76
f 27 71 16 24
f 43 15 70 87
f 46 21 17 44
f 22 50 95 72
f 25 56 52 23
f 51 45 48 96
f 55 91 44 52
f 29 43 90 77
f 32 49 45 30
f 50 36 85 92
f 53 42 38 51
f 37 31 34 86
f 41 81 30 38
f 1 29 80 57
f 4 35 31 2
f 36 9 11 82
f 39 62 8 37
f 15 43 29 1
o olive_soil
v 4.350000 7.125000 0.335000
v 4.350000 7.125000 0.355000
v 4.388941 7.120612 0.335000
v 4.388941 7.120612 0.355000
v 4.425930 7.107669 0.335000
v 4.425930 7.107669 0.355000
v 4.459111 7.086820 0.335000
v 4.459111 7.086820 0.355000
v 4.486820 7.059111 0.335000
v 4.486820 7.059111 0.355000
v 4.507669 7.025929 0.335000
v 4.507669 7.025929 0.355000
v 4.520612 6.988941 0.335000
v 4.520612 6.988941 0.355000
v 4.525000 6.950000 0.335000
v 4.525000 6.950000 0.355000
v 4.520612 6.911058 0.335000
v 4.520612 6.911058 0.355000
v 4.507669 6.874070 0.335000
v 4.507669 6.874070 0.355000
v 4.486820 6.840889 0.335000
v 4.486820 6.840889 0.355000
v 4.459111 6.813179 0.335000
v 4.459111 6.813179 0.355000
v 4.425930 6.792330 0.335000
v 4.425930 6.792330 0.355000
v 4.388941 6.779387 0.335000
v 4.388941 6.779387 0.355000
v 4.350000 6.775000 0.335000
v 4.350000 6.775000 0.355000
v 4.311059 6.779387 0.335000
v 4.311059 6.779387 0.355000
v 4.274070 6.792330 0.335000
v 4.274070 6.792330 0.355000
v 4.240889 6.813179 0.335000
v 4.240889 6.813179 0.355000
v 4.213180 6.840889 0.335000
v 4.213180 6.840889 0.355000
v 4.192330 6.874070 0.335000
v 4.192330 6.874070 0.355000
v 4.179388 6.911058 0.335000
v 4.179388 6.911058 0.355000
v 4.175000 6.950000 0.335000
v 4.175000 6.950000 0.355000
v 4.179388 6.988941 0.335000
v 4.179388 6.988941 0.355000
v 4.192330 7.025929 0.335000
v 4.192330 7.025929 0.355000
v 4.213180 7.059111 0.335000
v 4.213180 7.059111 0.355000
v 4.240889 7.086820 0.335000
v 4.240889 7.086820 0.355000
v 4.274070 7.107669 0.335000
v 4.274070 7.107669 0.355000
v 4.311059 7.120612 0.335000
v 4.311059 7.120612 0.355000
s 1
f 97 98 100 99
f 99 100 102 101
f 101 102 104 103
f 103 104 106 105
f 105 106 108 107
f 107 108 110 109
f 109 110 112 111
f 111 112 114 113
f 113 114 116 115
f 115 116 118 117
f 117 118 120 119
f 119 120 122 121
f 121 122 124 123
f 123 124 126 125
f 125 126 128 127
f 127 128 130 129
f 129 130 132 131
f 131 132 134 133
f 133 134 136 135
f 135 136 138 137
f 137 138 140 139
f 139 140 142 141
f 141 142 144 143
f 143 144 146 145
f 145 146 148 147
f 147 148 150 149
f 100 98 152 150 148 146 144 142 140 138 136 134 132 130 128 126 124 122 120 118 116 114 112 110 108 106 104 102
f 149 150 152 151
f 151 152 98 97
f 97 99 101 103 105 107 109 111 113 115 117 119 121 123 125 127 129 131 133 135 137 139 141 143 145 147 149 151
