# Blender 4.1.1
# www.blender.org
o glz_leaf_0
v 2.842500 7.433000 0.050000
v 2.842500 7.433000 2.650000
v 2.842500 7.457000 0.050000
v 2.842500 7.457000 2.650000
v 4.207500 7.433000 0.050000
v 4.207500 7.433000 2.650000
v 4.207500 7.457000 0.050000
v 4.207500 7.457000 2.650000
v 2.842500 7.457000 0.050000
v 2.842500 7.457000 0.050000
v 2.842500 7.433000 0.050000
v 2.842500 7.433000 0.050000
v 2.842500 7.433000 2.650000
v 2.842500 7.433000 2.650000
v 2.842500 7.457000 2.650000
v 2.842500 7.457000 2.650000
v 4.207500 7.457000 0.050000
v 4.207500 7.457000 0.050000
v 4.207500 7.457000 2.650000
v 4.207500 7.457000 2.650000
v 4.207500 7.433000 0.050000
v 4.207500 7.433000 0.050000
v 4.207500 7.433000 2.650000
v 4.207500 7.433000 2.650000
s 0
f 11 13 15 9
f 10 16 19 17
f 18 20 23 21
f 22 24 14 12
f 3 7 5 1
f 8 4 2 6
o glz_leaf_1
v 4.292500 7.503000 0.050000
v 4.292500 7.503000 2.650000
v 4.292500 7.527000 0.050000
v 4.292500 7.527000 2.650000
v 5.657500 7.503000 0.050000
v 5.657500 7.503000 2.650000
v 5.657500 7.527000 0.050000
v 5.657500 7.527000 2.650000
v 4.292500 7.527000 0.050000
v 4.292500 7.527000 0.050000
v 4.292500 7.503000 0.050000
v 4.292500 7.503000 0.050000
v 4.292500 7.503000 2.650000
v 4.292500 7.503000 2.650000
v 4.292500 7.527000 2.650000
v 4.292500 7.527000 2.650000
v 5.657500 7.527000 0.050000
v 5.657500 7.527000 0.050000
v 5.657500 7.527000 2.650000
v 5.657500 7.527000 2.650000
v 5.657500 7.503000 0.050000
v 5.657500 7.503000 0.050000
v 5.657500 7.503000 2.650000
v 5.657500 7.503000 2.650000
s 0
f 35 37 39 33
f 34 40 43 41
f 42 44 47 45
f 46 48 38 36
f 27 31 29 25
f 32 28 26 30
o glz_leaf_2
v 5.742500 7.503000 0.050000
v 5.742500 7.503000 2.650000
v 5.742500 7.527000 0.050000
v 5.742500 7.527000 2.650000
v 7.107500 7.503000 0.050000
v 7.107500 7.503000 2.650000
v 7.107500 7.527000 0.050000
v 7.107500 7.527000 2.650000
v 5.742500 7.527000 0.050000
v 5.742500 7.527000 0.050000
v 5.742500 7.503000 0.050000
v 5.742500 7.503000 0.050000
v 5.742500 7.503000 2.650000
v 5.742500 7.503000 2.650000
v 5.742500 7.527000 2.650000
v 5.742500 7.527000 2.650000
v 7.107500 7.527000 0.050000
v 7.107500 7.527000 0.050000
v 7.107500 7.527000 2.650000
v 7.107500 7.527000 2.650000
v 7.107500 7.503000 0.050000
v 7.107500 7.503000 0.050000
v 7.107500 7.503000 2.650000
v 7.107500 7.503000 2.650000
s 0
f 59 61 63 57
f 58 64 67 65
f 66 68 71 69
f 70 72 62 60
f 51 55 53 49
f 56 52 50 54
o glz_leaf_3
v 7.192500 7.433000 0.050000
v 7.192500 7.433000 2.650000
v 7.192500 7.457000 0.050000
v 7.192500 7.457000 2.650000
v 8.557500 7.433000 0.050000
v 8.557500 7.433000 2.650000
v 8.557500 7.457000 0.050000
v 8.557500 7.457000 2.650000
v 7.192500 7.457000 0.050000
v 7.192500 7.457000 0.050000
v 7.192500 7.433000 0.050000
v 7.192500 7.433000 0.050000
v 7.192500 7.433000 2.650000
v 7.192500 7.433000 2.650000
v 7.192500 7.457000 2.650000
v 7.192500 7.457000 2.650000
v 8.557500 7.457000 0.050000
v 8.557500 7.457000 0.050000
v 8.557500 7.457000 2.650000
v 8.557500 7.457000 2.650000
v 8.557500 7.433000 0.050000
v 8.557500 7.433000 0.050000
v 8.557500 7.433000 2.650000
v 8.557500 7.433000 2.650000
s 0
f 83 85 87 81
f 82 88 91 89
f 90 92 95 93
f 94 96 86 84
f 75 79 77 73
f 80 76 74 78
o fridge_shelf_0
v 0.242000 0.042000 1.353000
v 0.242000 0.040000 1.355000
v 0.240000 0.042000 1.355000
v 0.242000 0.040586 1.353586
v 0.240845 0.040845 1.353845
v 0.240586 0.040586 1.355000
v 0.240586 0.042000 1.353586
v 0.242000 0.040000 1.365000
v 0.242000 0.042000 1.367000
v 0.240000 0.042000 1.365000
v 0.242000 0.040586 1.366414
v 0.240845 0.040845 1.366155
v 0.240586 0.042000 1.366414
v 0.240586 0.040586 1.365000
v 0.242000 0.558000 1.353000
v 0.240000 0.558000 1.355000
v 0.242000 0.560000 1.355000
v 0.240586 0.558000 1.353586
v 0.240845 0.559155 1.353845
v 0.240586 0.559414 1.355000
v 0.242000 0.559414 1.353586
v 0.242000 0.558000 1.367000
v 0.242000 0.560000 1.365000
v 0.240000 0.558000 1.365000
v 0.242000 0.559414 1.366414
v 0.240845 0.559155 1.366155
v 0.240586 0.559414 1.365000
v 0.240586 0.558000 1.366414
v 1.258000 0.042000 1.353000
v 1.260000 0.042000 1.355000
v 1.258000 0.040000 1.355000
v 1.259414 0.042000 1.353586
v 1.259155 0.040845 1.353845
v 1.259414 0.040586 1.355000
v 1.258000 0.040586 1.353586
v 1.258000 0.042000 1.367000
v 1.258000 0.040000 1.365000
v 1.260000 0.042000 1.365000
v 1.258000 0.040586 1.366414
v 1.259155 0.040845 1.366155
v 1.259414 0.040586 1.365000
v 1.259414 0.042000 1.366414
v 1.258000 0.558000 1.353000
v 1.258000 0.560000 1.355000
v 1.260000 0.558000 1.355000
v 1.258000 0.559414 1.353586
v 1.259155 0.559155 1.353845
v 1.259414 0.559414 1.355000
v 1.259414 0.558000 1.353586
v 1.258000 0.558000 1.367000
v 1.260000 0.558000 1.365000
v 1.258000 0.560000 1.365000
v 1.259414 0.558000 1.366414
v 1.259155 0.559155 1.366155
v 1.259414 0.559414 1.365000
v 1.258000 0.559414 1.366414
v 0.242000 0.040586 1.353586
v 0.240845 0.040845 1.353845
v 0.240845 0.040845 1.353845
v 0.240586 0.042000 1.353586
v 0.240586 0.040586 1.355000
v 0.242000 0.040586 1.366414
v 0.240845 0.040845 1.366155
v 0.240845 0.040845 1.366155
v 0.240586 0.040586 1.365000
v 0.240586 0.042000 1.366414
v 0.240586 0.558000 1.353586
v 0.240845 0.559155 1.353845
v 0.240845 0.559155 1.353845
v 0.242000 0.559414 1.353586
v 0.240586 0.559414 1.355000
v 0.242000 0.559414 1.366414
v 0.240845 0.559155 1.366155
v 0.240845 0.559155 1.366155
v 0.240586 0.558000 1.366414
v 0.240586 0.559414 1.365000
v 1.259414 0.042000 1.353586
v 1.259155 0.040845 1.353845
v 1.259155 0.040845 1.353845
v 1.258000 0.040586 1.353586
v 1.259414 0.040586 1.355000
v 1.258000 0.040586 1.366414
v 1.259155 0.040845 1.366155
v 1.259155 0.040845 1.366155
v 1.259414 0.042000 1.366414
v 1.259414 0.040586 1.365000
v 1.258000 0.559414 1.353586
v 1.259155 0.559155 1.353845
v 1.259155 0.559155 1.353845
v 1.259414 0.558000 1.353586
v 1.259414 0.559414 1.355000
v 1.259414 0.558000 1.366414
v 1.259155 0.559155 1.366155
v 1.259155 0.559155 1.366155
v 1.258000 0.559414 1.366414
v 1.259414 0.559414 1.365000
s 0
f 127 133 104 98
f 141 147 134 126
f 146 118 105 132
f 99 106 120 112
f 113 119 148 140
f 97 153 154 156
f 98 157 155 100
f 99 103 101 102
f 104 158 159 161
f 105 162 160 107
f 106 110 108 109
f 111 163 164 166
f 112 167 165 114
f 113 117 115 116
f 118 168 169 171
f 119 172 170 121
f 120 124 122 123
f 125 173 174 176
f 126 177 175 128
f 127 131 129 130
f 132 178 179 181
f 133 182 180 135
f 134 138 136 137
f 139 183 184 186
f 140 187 185 142
f 141 145 143 144
f 146 188 189 191
f 147 192 190 149
f 148 152 150 151
f 111 97 156 163
f 114 103 99 112
f 98 104 161 157
f 102 110 106 99
f 105 118 171 162
f 109 124 120 106
f 119 113 116 172
f 123 167 112 120
f 139 111 166 183
f 142 117 113 140
f 118 146 191 168
f 121 152 148 119
f 147 141 144 192
f 151 187 140 148
f 125 139 186 173
f 128 145 141 126
f 146 132 181 188
f 149 138 134 147
f 133 127 130 182
f 137 177 126 134
f 97 125 176 153
f 100 131 127 98
f 132 105 107 178
f 135 158 104 133
f 111 139 125 97
o fridge_shelf_1
v 0.242000 0.042000 1.633000
v 0.242000 0.040000 1.635000
v 0.240000 0.042000 1.635000
v 0.242000 0.040586 1.633586
v 0.240845 0.040845 1.633845
v 0.240586 0.040586 1.635000
v 0.240586 0.042000 1.633586
v 0.242000 0.040000 1.645000
v 0.242000 0.042000 1.647000
v 0.240000 0.042000 1.645000
v 0.242000 0.040586 1.646414
v 0.240845 0.040845 1.646155
v 0.240586 0.042000 1.646414
v 0.240586 0.040586 1.645000
v 0.242000 0.558000 1.633000
v 0.240000 0.558000 1.635000
v 0.242000 0.560000 1.635000
v 0.240586 0.558000 1.633586
v 0.240845 0.559155 1.633845
v 0.240586 0.559414 1.635000
v 0.242000 0.559414 1.633586
v 0.242000 0.558000 1.647000
v 0.242000 0.560000 1.645000
v 0.240000 0.558000 1.645000
v 0.242000 0.559414 1.646414
v 0.240845 0.559155 1.646155
v 0.240586 0.559414 1.645000
v 0.240586 0.558000 1.646414
v 1.258000 0.042000 1.633000
v 1.260000 0.042000 1.635000
v 1.258000 0.040000 1.635000
v 1.259414 0.042000 1.633586
v 1.259155 0.040845 1.633845
v 1.259414 0.040586 1.635000
v 1.258000 0.040586 1.633586
v 1.258000 0.042000 1.647000
v 1.258000 0.040000 1.645000
v 1.260000 0.042000 1.645000
v 1.258000 0.040586 1.646414
v 1.259155 0.040845 1.646155
v 1.259414 0.040586 1.645000
v 1.259414 0.042000 1.646414
v 1.258000 0.558000 1.633000
v 1.258000 0.560000 1.635000
v 1.260000 0.558000 1.635000
v 1.258000 0.559414 1.633586
v 1.259155 0.559155 1.633845
v 1.259414 0.559414 1.635000
v 1.259414 0.558000 1.633586
v 1.258000 0.558000 1.647000
v 1.260000 0.558000 1.645000
v 1.258000 0.560000 1.645000
v 1.259414 0.558000 1.646414
v 1.259155 0.559155 1.646155
v 1.259414 0.559414 1.645000
v 1.258000 0.559414 1.646414
v 0.242000 0.040586 1.633586
v 0.240845 0.040845 1.633845
v 0.240845 0.040845 1.633845
v 0.240586 0.042000 1.633586
v 0.240586 0.040586 1.635000
v 0.242000 0.040586 1.646414
v 0.240845 0.040845 1.646155
v 0.240845 0.040845 1.646155
v 0.240586 0.040586 1.645000
v 0.240586 0.042000 1.646414
v 0.240586 0.558000 1.633586
v 0.240845 0.559155 1.633845
v 0.240845 0.559155 1.633845
v 0.242000 0.559414 1.633586
v 0.240586 0.559414 1.635000
v 0.242000 0.559414 1.646414
v 0.240845 0.559155 1.646155
v 0.240845 0.559155 1.646155
v 0.240586 0.558000 1.646414
v 0.240586 0.559414 1.645000
v 1.259414 0.042000 1.633586
v 1.259155 0.040845 1.633845
v 1.259155 0.040845 1.633845
v 1.258000 0.040586 1.633586
v 1.259414 0.040586 1.635000
v 1.258000 0.040586 1.646414
v 1.259155 0.040845 1.646155
v 1.259155 0.040845 1.646155
v 1.259414 0.042000 1.646414
v 1.259414 0.040586 1.645000
v 1.258000 0.559414 1.633586
v 1.259155 0.559155 1.633845
v 1.259155 0.559155 1.633845
v 1.259414 0.558000 1.633586
v 1.259414 0.559414 1.635000
v 1.259414 0.558000 1.646414
v 1.259155 0.559155 1.646155
v 1.259155 0.559155 1.646155
v 1.258000 0.559414 1.646414
v 1.259414 0.559414 1.645000
s 0
f 223 229 200 194
f 237 243 230 222
f 242 214 201 228
f 195 202 216 208
f 209 215 244 236
f 193 249 250 252
f 194 253 251 196
f 195 199 197 198
f 200 254 255 257
f 201 258 256 203
f 202 206 204 205
f 207 259 260 262
f 208 263 261 210
f 209 213 211 212
f 214 264 265 267
f 215 268 266 217
f 216 220 218 219
f 221 269 270 272
f 222 273 271 224
f 223 227 225 226
f 228 274 275 277
f 229 278 276 231
f 230 234 232 233
f 235 279 280 282
f 236 283 281 238
f 237 241 239 240
f 242 284 285 287
f 243 288 286 245
f 244 248 246 247
f 207 193 252 259
f 210 199 195 208
f 194 200 257 253
f 198 206 202 195
f 201 214 267 258
f 205 220 216 202
f 215 209 212 268
f 219 263 208 216
f 235 207 262 279
f 238 213 209 236
f 214 242 287 264
f 217 248 244 215
f 243 237 240 288
f 247 283 236 244
f 221 235 282 269
f 224 241 237 222
f 242 228 277 284
f 245 234 230 243
f 229 223 226 278
f 233 273 222 230
f 193 221 272 249
f 196 227 223 194
f 228 201 203 274
f 231 254 200 229
f 207 235 221 193
o fridge_shelf_2
v 0.242000 0.042000 1.913000
v 0.242000 0.040000 1.915000
v 0.240000 0.042000 1.915000
v 0.242000 0.040586 1.913586
v 0.240845 0.040845 1.913845
v 0.240586 0.040586 1.915000
v 0.240586 0.042000 1.913586
v 0.242000 0.040000 1.925000
v 0.242000 0.042000 1.927000
v 0.240000 0.042000 1.925000
v 0.242000 0.040586 1.926414
v 0.240845 0.040845 1.926155
v 0.240586 0.042000 1.926414
v 0.240586 0.040586 1.925000
v 0.242000 0.558000 1.913000
v 0.240000 0.558000 1.915000
v 0.242000 0.560000 1.915000
v 0.240586 0.558000 1.913586
v 0.240845 0.559155 1.913845
v 0.240586 0.559414 1.915000
v 0.242000 0.559414 1.913586
v 0.242000 0.558000 1.927000
v 0.242000 0.560000 1.925000
v 0.240000 0.558000 1.925000
v 0.242000 0.559414 1.926414
v 0.240845 0.559155 1.926155
v 0.240586 0.559414 1.925000
v 0.240586 0.558000 1.926414
v 1.258000 0.042000 1.913000
v 1.260000 0.042000 1.915000
v 1.258000 0.040000 1.915000
v 1.259414 0.042000 1.913586
v 1.259155 0.040845 1.913845
v 1.259414 0.040586 1.915000
v 1.258000 0.040586 1.913586
v 1.258000 0.042000 1.927000
v 1.258000 0.040000 1.925000
v 1.260000 0.042000 1.925000
v 1.258000 0.040586 1.926414
v 1.259155 0.040845 1.926155
v 1.259414 0.040586 1.925000
v 1.259414 0.042000 1.926414
v 1.258000 0.558000 1.913000
v 1.258000 0.560000 1.915000
v 1.260000 0.558000 1.915000
v 1.258000 0.559414 1.913586
v 1.259155 0.559155 1.913845
v 1.259414 0.559414 1.915000
v 1.259414 0.558000 1.913586
v 1.258000 0.558000 1.927000
v 1.260000 0.558000 1.925000
v 1.258000 0.560000 1.925000
v 1.259414 0.558000 1.926414
v 1.259155 0.559155 1.926155
v 1.259414 0.559414 1.925000
v 1.258000 0.559414 1.926414
v 0.242000 0.040586 1.913586
v 0.240845 0.040845 1.913845
v 0.240845 0.040845 1.913845
v 0.240586 0.042000 1.913586
v 0.240586 0.040586 1.915000
v 0.242000 0.040586 1.926414
v 0.240845 0.040845 1.926155
v 0.240845 0.040845 1.926155
v 0.240586 0.040586 1.925000
v 0.240586 0.042000 1.926414
v 0.240586 0.558000 1.913586
v 0.240845 0.559155 1.913845
v 0.240845 0.559155 1.913845
v 0.242000 0.559414 1.913586
v 0.240586 0.559414 1.915000
v 0.242000 0.559414 1.926414
v 0.240845 0.559155 1.926155
v 0.240845 0.559155 1.926155
v 0.240586 0.558000 1.926414
v 0.240586 0.559414 1.925000
v 1.259414 0.042000 1.913586
v 1.259155 0.040845 1.913845
v 1.259155 0.040845 1.913845
v 1.258000 0.040586 1.913586
v 1.259414 0.040586 1.915000
v 1.258000 0.040586 1.926414
v 1.259155 0.040845 1.926155
v 1.259155 0.040845 1.926155
v 1.259414 0.042000 1.926414
v 1.259414 0.040586 1.925000
v 1.258000 0.559414 1.913586
v 1.259155 0.559155 1.913845
v 1.259155 0.559155 1.913845
v 1.259414 0.558000 1.913586
v 1.259414 0.559414 1.915000
v 1.259414 0.558000 1.926414
v 1.259155 0.559155 1.926155
v 1.259155 0.559155 1.926155
v 1.258000 0.559414 1.926414
v 1.259414 0.559414 1.925000
s 0
f 319 325 296 290
f 333 339 326 318
f 338 310 297 324
f 291 298 312 304
f 305 311 340 332
f 289 345 346 348
f 290 349 347 292
f 291 295 293 294
f 296 350 351 353
f 297 354 352 299
f 298 302 300 301
f 303 355 356 358
f 304 359 357 306
f 305 309 307 308
f 310 360 361 363
f 311 364 362 313
f 312 316 314 315
f 317 365 366 368
f 318 369 367 320
f 319 323 321 322
f 324 370 371 373
f 325 374 372 327
f 326 330 328 329
f 331 375 376 378
f 332 379 377 334
f 333 337 335 336
f 338 380 381 383
f 339 384 382 341
f 340 344 342 343
f 303 289 348 355
f 306 295 291 304
f 290 296 353 349
f 294 302 298 291
f 297 310 363 354
f 301 316 312 298
f 311 305 308 364
f 315 359 304 312
f 331 303 358 375
f 334 309 305 332
f 310 338 383 360
f 313 344 340 311
f 339 333 336 384
f 343 379 332 340
f 317 331 378 365
f 320 337 333 318
f 338 324 373 380
f 341 330 326 339
f 325 319 322 374
f 329 369 318 326
f 289 317 368 345
f 292 323 319 290
f 324 297 299 370
f 327 350 296 325
f 303 331 317 289
o fridge_bottle_0
v 0.300000 0.300000 1.377000
v 0.300000 0.300000 1.377000
v 0.300000 0.300000 1.377000
v 0.300000 0.300000 1.377000
v 0.300000 0.300000 1.377000
v 0.300000 0.300000 1.377000
v 0.300000 0.300000 1.377000
v 0.300000 0.300000 1.377000
v 0.300000 0.300000 1.377000
v 0.300000 0.300000 1.377000
v 0.300000 0.300000 1.377000
v 0.300000 0.300000 1.377000
v 0.300000 0.300000 1.377000
v 0.300000 0.300000 1.377000
v 0.300000 0.300000 1.377000
v 0.300000 0.300000 1.377000
v 0.300000 0.300000 1.377000
v 0.300000 0.300000 1.377000
v 0.300000 0.300000 1.377000
v 0.300000 0.300000 1.377000
v 0.333000 0.300000 1.379000
v 0.331385 0.310198 1.379000
v 0.326698 0.319397 1.379000
v 0.319397 0.326698 1.379000
v 0.310198 0.331385 1.379000
v 0.300000 0.333000 1.379000
v 0.289802 0.331385 1.379000
v 0.280603 0.326698 1.379000
v 0.273302 0.319397 1.379000
v 0.268615 0.310198 1.379000
v 0.267000 0.300000 1.379000
v 0.268615 0.289802 1.379000
v 0.273302 0.280603 1.379000
v 0.280603 0.273302 1.379000
v 0.289802 0.268615 1.379000
v 0.300000 0.267000 1.379000
v 0.310198 0.268615 1.379000
v 0.319397 0.273302 1.379000
v 0.326698 0.280603 1.379000
v 0.331385 0.289802 1.379000
v 0.336000 0.300000 1.407000
v 0.334238 0.311125 1.407000
v 0.329125 0.321160 1.407000
v 0.321160 0.329125 1.407000
v 0.311125 0.334238 1.407000
v 0.300000 0.336000 1.407000
v 0.288875 0.334238 1.407000
v 0.278840 0.329125 1.407000
v 0.270875 0.321160 1.407000
v 0.265762 0.311125 1.407000
v 0.264000 0.300000 1.407000
v 0.265762 0.288875 1.407000
v 0.270875 0.278840 1.407000
v 0.278840 0.270875 1.407000
v 0.288875 0.265762 1.407000
v 0.300000 0.264000 1.407000
v 0.311125 0.265762 1.407000
v 0.321160 0.270875 1.407000
v 0.329125 0.278840 1.407000
v 0.334238 0.288875 1.407000
v 0.336000 0.300000 1.537000
v 0.334238 0.311125 1.537000
v 0.329125 0.321160 1.537000
v 0.321160 0.329125 1.537000
v 0.311125 0.334238 1.537000
v 0.300000 0.336000 1.537000
v 0.288875 0.334238 1.537000
v 0.278840 0.329125 1.537000
v 0.270875 0.321160 1.537000
v 0.265762 0.311125 1.537000
v 0.264000 0.300000 1.537000
v 0.265762 0.288875 1.537000
v 0.270875 0.278840 1.537000
v 0.278840 0.270875 1.537000
v 0.288875 0.265762 1.537000
v 0.300000 0.264000 1.537000
v 0.311125 0.265762 1.537000
v 0.321160 0.270875 1.537000
v 0.329125 0.278840 1.537000
v 0.334238 0.288875 1.537000
v 0.320000 0.300000 1.577000
v 0.319021 0.306180 1.577000
v 0.316180 0.311756 1.577000
v 0.311756 0.316180 1.577000
v 0.306180 0.319021 1.577000
v 0.300000 0.320000 1.577000
v 0.293820 0.319021 1.577000
v 0.288244 0.316180 1.577000
v 0.283820 0.311756 1.577000
v 0.280979 0.306180 1.577000
v 0.280000 0.300000 1.577000
v 0.280979 0.293820 1.577000
v 0.283820 0.288244 1.577000
v 0.288244 0.283820 1.577000
v 0.293820 0.280979 1.577000
v 0.300000 0.280000 1.577000
v 0.306180 0.280979 1.577000
v 0.311756 0.283820 1.577000
v 0.316180 0.288244 1.577000
v 0.319021 0.293820 1.577000
v 0.314000 0.300000 1.602000
v 0.313315 0.304326 1.602000
v 0.311326 0.308229 1.602000
v 0.308229 0.311326 1.602000
v 0.304326 0.313315 1.602000
v 0.300000 0.314000 1.602000
v 0.295674 0.313315 1.602000
v 0.291771 0.311326 1.602000
v 0.288674 0.308229 1.602000
v 0.286685 0.304326 1.602000
v 0.286000 0.300000 1.602000
v 0.286685 0.295674 1.602000
v 0.288674 0.291771 1.602000
v 0.291771 0.288674 1.602000
v 0.295674 0.286685 1.602000
v 0.300000 0.286000 1.602000
v 0.304326 0.286685 1.602000
v 0.308229 0.288674 1.602000
v 0.311326 0.291771 1.602000
v 0.313315 0.295674 1.602000
v 0.300000 0.300000 1.604000
v 0.300000 0.300000 1.604000
v 0.300000 0.300000 1.604000
v 0.300000 0.300000 1.604000
v 0.300000 0.300000 1.604000
v 0.300000 0.300000 1.604000
v 0.300000 0.300000 1.604000
v 0.300000 0.300000 1.604000
v 0.300000 0.300000 1.604000
v 0.300000 0.300000 1.604000
v 0.300000 0.300000 1.604000
v 0.300000 0.300000 1.604000
v 0.300000 0.300000 1.604000
v 0.300000 0.300000 1.604000
v 0.300000 0.300000 1.604000
v 0.300000 0.300000 1.604000
v 0.300000 0.300000 1.604000
v 0.300000 0.300000 1.604000
v 0.300000 0.300000 1.604000
v 0.300000 0.300000 1.604000
s 1
f 385 405 406
f 386 406 407
f 387 407 408
f 388 408 409
f 389 409 410
f 390 410 411
f 391 411 412
f 392 412 413
f 393 413 414
f 394 414 415
f 395 415 416
f 396 416 417
f 397 417 418
f 398 418 419
f 399 419 420
f 400 420 421
f 401 421 422
f 402 422 423
f 403 423 424
f 404 424 405
f 405 406 426 425
f 406 407 427 426
f 407 408 428 427
f 408 409 429 428
f 409 410 430 429
f 410 411 431 430
f 411 412 432 431
f 412 413 433 432
f 413 414 434 433
f 414 415 435 434
f 415 416 436 435
f 416 417 437 436
f 417 418 438 437
f 418 419 439 438
f 419 420 440 439
f 420 421 441 440
f 421 422 442 441
f 422 423 443 442
f 423 424 444 443
f 424 405 425 444
f 425 426 446 445
f 426 427 447 446
f 427 428 448 447
f 428 429 449 448
f 429 430 450 449
f 430 431 451 450
f 431 432 452 451
f 432 433 453 452
f 433 434 454 453
f 434 435 455 454
f 435 436 456 455
f 436 437 457 456
f 437 438 458 457
f 438 439 459 458
f 439 440 460 459
f 440 441 461 460
f 441 442 462 461
f 442 443 463 462
f 443 444 464 463
f 444 425 445 464
f 445 446 466 465
f 446 447 467 466
f 447 448 468 467
f 448 449 469 468
f 449 450 470 469
f 450 451 471 470
f 451 452 472 471
f 452 453 473 472
f 453 454 474 473
f 454 455 475 474
f 455 456 476 475
f 456 457 477 476
f 457 458 478 477
f 458 459 479 478
f 459 460 480 479
f 460 461 481 480
f 461 462 482 481
f 462 463 483 482
f 463 464 484 483
f 464 445 465 484
f 465 466 486 485
f 466 467 487 486
f 467 468 488 487
f 468 469 489 488
f 469 470 490 489
f 470 471 491 490
f 471 472 492 491
f 472 473 493 492
f 473 474 494 493
f 474 475 495 494
f 475 476 496 495
f 476 477 497 496
f 477 478 498 497
f 478 479 499 498
f 479 480 500 499
f 480 481 501 500
f 481 482 502 501
f 482 483 503 502
f 483 484 504 503
f 484 465 485 504
f 485 486 506
f 486 487 507
f 487 488 508
f 488 489 509
f 489 490 510
f 490 491 511
f 491 492 512
f 492 493 513
f 493 494 514
f 494 495 515
f 495 496 516
f 496 497 517
f 497 498 518
f 498 499 519
f 499 500 520
f 500 501 521
f 501 502 522
f 502 503 523
f 503 504 524
f 504 485 505
o fridge_bottle_1
v 0.400000 0.300000 1.377000
v 0.400000 0.300000 1.377000
v 0.400000 0.300000 1.377000
v 0.400000 0.300000 1.377000
v 0.400000 0.300000 1.377000
v 0.400000 0.300000 1.377000
v 0.400000 0.300000 1.377000
v 0.400000 0.300000 1.377000
v 0.400000 0.300000 1.377000
v 0.400000 0.300000 1.377000
v 0.400000 0.300000 1.377000
v 0.400000 0.300000 1.377000
v 0.400000 0.300000 1.377000
v 0.400000 0.300000 1.377000
v 0.400000 0.300000 1.377000
v 0.400000 0.300000 1.377000
v 0.400000 0.300000 1.377000
v 0.400000 0.300000 1.377000
v 0.400000 0.300000 1.377000
v 0.400000 0.300000 1.377000
v 0.433000 0.300000 1.379000
v 0.431385 0.310198 1.379000
v 0.426698 0.319397 1.379000
v 0.419397 0.326698 1.379000
v 0.410198 0.331385 1.379000
v 0.400000 0.333000 1.379000
v 0.389802 0.331385 1.379000
v 0.380603 0.326698 1.379000
v 0.373302 0.319397 1.379000
v 0.368615 0.310198 1.379000
v 0.367000 0.300000 1.379000
v 0.368615 0.289802 1.379000
v 0.373302 0.280603 1.379000
v 0.380603 0.273302 1.379000
v 0.389802 0.268615 1.379000
v 0.400000 0.267000 1.379000
v 0.410198 0.268615 1.379000
v 0.419397 0.273302 1.379000
v 0.426698 0.280603 1.379000
v 0.431385 0.289802 1.379000
v 0.436000 0.300000 1.407000
v 0.434238 0.311125 1.407000
v 0.429125 0.321160 1.407000
v 0.421160 0.329125 1.407000
v 0.411125 0.334238 1.407000
v 0.400000 0.336000 1.407000
v 0.388875 0.334238 1.407000
v 0.378840 0.329125 1.407000
v 0.370875 0.321160 1.407000
v 0.365762 0.311125 1.407000
v 0.364000 0.300000 1.407000
v 0.365762 0.288875 1.407000
v 0.370875 0.278840 1.407000
v 0.378840 0.270875 1.407000
v 0.388875 0.265762 1.407000
v 0.400000 0.264000 1.407000
v 0.411125 0.265762 1.407000
v 0.421160 0.270875 1.407000
v 0.429125 0.278840 1.407000
v 0.434238 0.288875 1.407000
v 0.436000 0.300000 1.537000
v 0.434238 0.311125 1.537000
v 0.429125 0.321160 1.537000
v 0.421160 0.329125 1.537000
v 0.411125 0.334238 1.537000
v 0.400000 0.336000 1.537000
v 0.388875 0.334238 1.537000
v 0.378840 0.329125 1.537000
v 0.370875 0.321160 1.537000
v 0.365762 0.311125 1.537000
v 0.364000 0.300000 1.537000
v 0.365762 0.288875 1.537000
v 0.370875 0.278840 1.537000
v 0.378840 0.270875 1.537000
v 0.388875 0.265762 1.537000
v 0.400000 0.264000 1.537000
v 0.411125 0.265762 1.537000
v 0.421160 0.270875 1.537000
v 0.429125 0.278840 1.537000
v 0.434238 0.288875 1.537000
v 0.420000 0.300000 1.577000
v 0.419021 0.306180 1.577000
v 0.416180 0.311756 1.577000
v 0.411756 0.316180 1.577000
v 0.406180 0.319021 1.577000
v 0.400000 0.320000 1.577000
v 0.393820 0.319021 1.577000
v 0.388244 0.316180 1.577000
v 0.383820 0.311756 1.577000
v 0.380979 0.306180 1.577000
v 0.380000 0.300000 1.577000
v 0.380979 0.293820 1.577000
v 0.383820 0.288244 1.577000
v 0.388244 0.283820 1.577000
v 0.393820 0.280979 1.577000
v 0.400000 0.280000 1.577000
v 0.406180 0.280979 1.577000
v 0.411756 0.283820 1.577000
v 0.416180 0.288244 1.577000
v 0.419021 0.293820 1.577000
v 0.414000 0.300000 1.602000
v 0.413315 0.304326 1.602000
v 0.411326 0.308229 1.602000
v 0.408229 0.311326 1.602000
v 0.404326 0.313315 1.602000
v 0.400000 0.314000 1.602000
v 0.395674 0.313315 1.602000
v 0.391771 0.311326 1.602000
v 0.388674 0.308229 1.602000
v 0.386685 0.304326 1.602000
v 0.386000 0.300000 1.602000
v 0.386685 0.295674 1.602000
v 0.388674 0.291771 1.602000
v 0.391771 0.288674 1.602000
v 0.395674 0.286685 1.602000
v 0.400000 0.286000 1.602000
v 0.404326 0.286685 1.602000
v 0.408229 0.288674 1.602000
v 0.411326 0.291771 1.602000
v 0.413315 0.295674 1.602000
v 0.400000 0.300000 1.604000
v 0.400000 0.300000 1.604000
v 0.400000 0.300000 1.604000
v 0.400000 0.300000 1.604000
v 0.400000 0.300000 1.604000
v 0.400000 0.300000 1.604000
v 0.400000 0.300000 1.604000
v 0.400000 0.300000 1.604000
v 0.400000 0.300000 1.604000
v 0.400000 0.300000 1.604000
v 0.400000 0.300000 1.604000
v 0.400000 0.300000 1.604000
v 0.400000 0.300000 1.604000
v 0.400000 0.300000 1.604000
v 0.400000 0.300000 1.604000
v 0.400000 0.300000 1.604000
v 0.400000 0.300000 1.604000
v 0.400000 0.300000 1.604000
v 0.400000 0.300000 1.604000
v 0.400000 0.300000 1.604000
s 1
f 525 545 546
f 526 546 547
f 527 547 548
f 528 548 549
f 529 549 550
f 530 550 551
f 531 551 552
f 532 552 553
f 533 553 554
f 534 554 555
f 535 555 556
f 536 556 557
f 537 557 558
f 538 558 559
f 539 559 560
f 540 560 561
f 541 561 562
f 542 562 563
f 543 563 564
f 544 564 545
f 545 546 566 565
f 546 547 567 566
f 547 548 568 567
f 548 549 569 568
f 549 550 570 569
f 550 551 571 570
f 551 552 572 571
f 552 553 573 572
f 553 554 574 573
f 554 555 575 574
f 555 556 576 575
f 556 557 577 576
f 557 558 578 577
f 558 559 579 578
f 559 560 580 579
f 560 561 581 580
f 561 562 582 581
f 562 563 583 582
f 563 564 584 583
f 564 545 565 584
f 565 566 586 585
f 566 567 587 586
f 567 568 588 587
f 568 569 589 588
f 569 570 590 589
f 570 571 591 590
f 571 572 592 591
f 572 573 593 592
f 573 574 594 593
f 574 575 595 594
f 575 576 596 595
f 576 577 597 596
f 577 578 598 597
f 578 579 599 598
f 579 580 600 599
f 580 581 601 600
f 581 582 602 601
f 582 583 603 602
f 583 584 604 603
f 584 565 585 604
f 585 586 606 605
f 586 587 607 606
f 587 588 608 607
f 588 589 609 608
f 589 590 610 609
f 590 591 611 610
f 591 592 612 611
f 592 593 613 612
f 593 594 614 613
f 594 595 615 614
f 595 596 616 615
f 596 597 617 616
f 597 598 618 617
f 598 599 619 618
f 599 600 620 619
f 600 601 621 620
f 601 602 622 621
f 602 603 623 622
f 603 604 624 623
f 604 585 605 624
f 605 606 626 625
f 606 607 627 626
f 607 608 628 627
f 608 609 629 628
f 609 610 630 629
f 610 611 631 630
f 611 612 632 631
f 612 613 633 632
f 613 614 634 633
f 614 615 635 634
f 615 616 636 635
f 616 617 637 636
f 617 618 638 637
f 618 619 639 638
f 619 620 640 639
f 620 621 641 640
f 621 622 642 641
f 622 623 643 642
f 623 624 644 643
f 624 605 625 644
f 625 626 646
f 626 627 647
f 627 628 648
f 628 629 649
f 629 630 650
f 630 631 651
f 631 632 652
f 632 633 653
f 633 634 654
f 634 635 655
f 635 636 656
f 636 637 657
f 637 638 658
f 638 639 659
f 639 640 660
f 640 641 661
f 641 642 662
f 642 643 663
f 643 644 664
f 644 625 645
o bottle_recycling
v 2.200000 3.420000 0.900000
v 2.200000 3.420000 0.900000
v 2.200000 3.420000 0.900000
v 2.200000 3.420000 0.900000
v 2.200000 3.420000 0.900000
v 2.200000 3.420000 0.900000
v 2.200000 3.420000 0.900000
v 2.200000 3.420000 0.900000
v 2.200000 3.420000 0.900000
v 2.200000 3.420000 0.900000
v 2.200000 3.420000 0.900000
v 2.200000 3.420000 0.900000
v 2.200000 3.420000 0.900000
v 2.200000 3.420000 0.900000
v 2.200000 3.420000 0.900000
v 2.200000 3.420000 0.900000
v 2.200000 3.420000 0.900000
v 2.200000 3.420000 0.900000
v 2.200000 3.420000 0.900000
v 2.200000 3.420000 0.900000
v 2.200000 3.420000 0.900000
v 2.200000 3.420000 0.900000
v 2.232000 3.420000 0.902000
v 2.230704 3.429016 0.902000
v 2.226920 3.437301 0.902000
v 2.220956 3.444184 0.902000
v 2.213293 3.449108 0.902000
v 2.204554 3.451674 0.902000
v 2.195446 3.451674 0.902000
v 2.186707 3.449108 0.902000
v 2.179044 3.444184 0.902000
v 2.173080 3.437301 0.902000
v 2.169296 3.429016 0.902000
v 2.168000 3.420000 0.902000
v 2.169296 3.410985 0.902000
v 2.173080 3.402699 0.902000
v 2.179044 3.395816 0.902000
v 2.186707 3.390892 0.902000
v 2.195446 3.388326 0.902000
v 2.204554 3.388326 0.902000
v 2.213293 3.390892 0.902000
v 2.220956 3.395816 0.902000
v 2.226920 3.402699 0.902000
v 2.230704 3.410985 0.902000
v 2.235000 3.420000 0.940000
v 2.233582 3.429861 0.940000
v 2.229444 3.438922 0.940000
v 2.222920 3.446451 0.940000
v 2.214540 3.451837 0.940000
v 2.204981 3.454644 0.940000
v 2.195019 3.454644 0.940000
v 2.185461 3.451837 0.940000
v 2.177080 3.446451 0.940000
v 2.170556 3.438922 0.940000
v 2.166418 3.429861 0.940000
v 2.165000 3.420000 0.940000
v 2.166418 3.410139 0.940000
v 2.170556 3.401078 0.940000
v 2.177080 3.393549 0.940000
v 2.185461 3.388163 0.940000
v 2.195019 3.385356 0.940000
v 2.204981 3.385356 0.940000
v 2.214540 3.388163 0.940000
v 2.222920 3.393549 0.940000
v 2.229444 3.401078 0.940000
v 2.233582 3.410139 0.940000
v 2.233000 3.420000 1.020000
v 2.231663 3.429297 1.020000
v 2.227762 3.437841 1.020000
v 2.221611 3.444940 1.020000
v 2.213709 3.450018 1.020000
v 2.204696 3.452664 1.020000
v 2.195304 3.452664 1.020000
v 2.186291 3.450018 1.020000
v 2.178390 3.444940 1.020000
v 2.172239 3.437841 1.020000
v 2.168337 3.429297 1.020000
v 2.167000 3.420000 1.020000
v 2.168337 3.410703 1.020000
v 2.172239 3.402159 1.020000
v 2.178390 3.395060 1.020000
v 2.186291 3.389982 1.020000
v 2.195304 3.387336 1.020000
v 2.204696 3.387336 1.020000
v 2.213709 3.389982 1.020000
v 2.221611 3.395060 1.020000
v 2.227762 3.402159 1.020000
v 2.231663 3.410703 1.020000
v 2.216000 3.420000 1.070000
v 2.215352 3.424508 1.070000
v 2.213460 3.428650 1.070000
v 2.210478 3.432092 1.070000
v 2.206647 3.434554 1.070000
v 2.202277 3.435837 1.070000
v 2.197723 3.435837 1.070000
v 2.193353 3.434554 1.070000
v 2.189522 3.432092 1.070000
v 2.186540 3.428650 1.070000
v 2.184648 3.424508 1.070000
v 2.184000 3.420000 1.070000
v 2.184648 3.415492 1.070000
v 2.186540 3.411350 1.070000
v 2.189522 3.407908 1.070000
v 2.193353 3.405446 1.070000
v 2.197723 3.404163 1.070000
v 2.202277 3.404163 1.070000
v 2.206647 3.405446 1.070000
v 2.210478 3.407908 1.070000
v 2.213460 3.411350 1.070000
v 2.215352 3.415492 1.070000
v 2.213000 3.420000 1.105000
v 2.212473 3.423663 1.105000
v 2.210936 3.427028 1.105000
v 2.208513 3.429825 1.105000
v 2.205400 3.431825 1.105000
v 2.201850 3.432868 1.105000
v 2.198150 3.432868 1.105000
v 2.194600 3.431825 1.105000
v 2.191487 3.429825 1.105000
v 2.189064 3.427028 1.105000
v 2.187527 3.423663 1.105000
v 2.187000 3.420000 1.105000
v 2.187527 3.416337 1.105000
v 2.189064 3.412972 1.105000
v 2.191487 3.410175 1.105000
v 2.194600 3.408175 1.105000
v 2.198150 3.407132 1.105000
v 2.201850 3.407132 1.105000
v 2.205400 3.408175 1.105000
v 2.208513 3.410175 1.105000
v 2.210936 3.412972 1.105000
v 2.212473 3.416337 1.105000
v 2.217000 3.420000 1.115000
v 2.216311 3.424789 1.115000
v 2.214301 3.429191 1.115000
v 2.211133 3.432848 1.115000
v 2.207062 3.435464 1.115000
v 2.202419 3.436827 1.115000
v 2.197581 3.436827 1.115000
v 2.192938 3.435464 1.115000
v 2.188867 3.432848 1.115000
v 2.185699 3.429191 1.115000
v 2.183689 3.424789 1.115000
v 2.183000 3.420000 1.115000
v 2.183689 3.415211 1.115000
v 2.185699 3.410809 1.115000
v 2.188867 3.407152 1.115000
v 2.192938 3.404536 1.115000
v 2.197581 3.403173 1.115000
v 2.202419 3.403173 1.115000
v 2.207062 3.404536 1.115000
v 2.211133 3.407152 1.115000
v 2.214301 3.410809 1.115000
v 2.216311 3.415211 1.115000
v 2.213000 3.420000 1.135000
v 2.212473 3.423663 1.135000
v 2.210936 3.427028 1.135000
v 2.208513 3.429825 1.135000
v 2.205400 3.431825 1.135000
v 2.201850 3.432868 1.135000
v 2.198150 3.432868 1.135000
v 2.194600 3.431825 1.135000
v 2.191487 3.429825 1.135000
v 2.189064 3.427028 1.135000
v 2.187527 3.423663 1.135000
v 2.187000 3.420000 1.135000
v 2.187527 3.416337 1.135000
v 2.189064 3.412972 1.135000
v 2.191487 3.410175 1.135000
v 2.194600 3.408175 1.135000
v 2.198150 3.407132 1.135000
v 2.201850 3.407132 1.135000
v 2.205400 3.408175 1.135000
v 2.208513 3.410175 1.135000
v 2.210936 3.412972 1.135000
v 2.212473 3.416337 1.135000
v 2.200000 3.420000 1.137000
v 2.200000 3.420000 1.137000
v 2.200000 3.420000 1.137000
v 2.200000 3.420000 1.137000
v 2.200000 3.420000 1.137000
v 2.200000 3.420000 1.137000
v 2.200000 3.420000 1.137000
v 2.200000 3.420000 1.137000
v 2.200000 3.420000 1.137000
v 2.200000 3.420000 1.137000
v 2.200000 3.420000 1.137000
v 2.200000 3.420000 1.137000
v 2.200000 3.420000 1.137000
v 2.200000 3.420000 1.137000
v 2.200000 3.420000 1.137000
v 2.200000 3.420000 1.137000
v 2.200000 3.420000 1.137000
v 2.200000 3.420000 1.137000
v 2.200000 3.420000 1.137000
v 2.200000 3.420000 1.137000
v 2.200000 3.420000 1.137000
v 2.200000 3.420000 1.137000
s 1
f 665 687 688
f 666 688 689
f 667 689 690
f 668 690 691
f 669 691 692
f 670 692 693
f 671 693 694
f 672 694 695
f 673 695 696
f 674 696 697
f 675 697 698
f 676 698 699
f 677 699 700
f 678 700 701
f 679 701 702
f 680 702 703
f 681 703 704
f 682 704 705
f 683 705 706
f 684 706 707
f 685 707 708
f 686 708 687
f 687 688 710 709
f 688 689 711 710
f 689 690 712 711
f 690 691 713 712
f 691 692 714 713
f 692 693 715 714
f 693 694 716 715
f 694 695 717 716
f 695 696 718 717
f 696 697 719 718
f 697 698 720 719
f 698 699 721 720
f 699 700 722 721
f 700 701 723 722
f 701 702 724 723
f 702 703 725 724
f 703 704 726 725
f 704 705 727 726
f 705 706 728 727
f 706 707 729 728
f 707 708 730 729
f 708 687 709 730
f 709 710 732 731
f 710 711 733 732
f 711 712 734 733
f 712 713 735 734
f 713 714 736 735
f 714 715 737 736
f 715 716 738 737
f 716 717 739 738
f 717 718 740 739
f 718 719 741 740
f 719 720 742 741
f 720 721 743 742
f 721 722 744 743
f 722 723 745 744
f 723 724 746 745
f 724 725 747 746
f 725 726 748 747
f 726 727 749 748
f 727 728 750 749
f 728 729 751 750
f 729 730 752 751
f 730 709 731 752
f 731 732 754 753
f 732 733 755 754
f 733 734 756 755
f 734 735 757 756
f 735 736 758 757
f 736 737 759 758
f 737 738 760 759
f 738 739 761 760
f 739 740 762 761
f 740 741 763 762
f 741 742 764 763
f 742 743 765 764
f 743 744 766 765
f 744 745 767 766
f 745 746 768 767
f 746 747 769 768
f 747 748 770 769
f 748 749 771 770
f 749 750 772 771
f 750 751 773 772
f 751 752 774 773
f 752 731 753 774
f 753 754 776 775
f 754 755 777 776
f 755 756 778 777
f 756 757 779 778
f 757 758 780 779
f 758 759 781 780
f 759 760 782 781
f 760 761 783 782
f 761 762 784 783
f 762 763 785 784
f 763 764 786 785
f 764 765 787 786
f 765 766 788 787
f 766 767 789 788
f 767 768 790 789
f 768 769 791 790
f 769 770 792 791
f 770 771 793 792
f 771 772 794 793
f 772 773 795 794
f 773 774 796 795
f 774 753 775 796
f 775 776 798 797
f 776 777 799 798
f 777 778 800 799
f 778 779 801 800
f 779 780 802 801
f 780 781 803 802
f 781 782 804 803
f 782 783 805 804
f 783 784 806 805
f 784 785 807 806
f 785 786 808 807
f 786 787 809 808
f 787 788 810 809
f 788 789 811 810
f 789 790 812 811
f 790 791 813 812
f 791 792 814 813
f 792 793 815 814
f 793 794 816 815
f 794 795 817 816
f 795 796 818 817
f 796 775 797 818
f 797 798 820 819
f 798 799 821 820
f 799 800 822 821
f 800 801 823 822
f 801 802 824 823
f 802 803 825 824
f 803 804 826 825
f 804 805 827 826
f 805 806 828 827
f 806 807 829 828
f 807 808 830 829
f 808 809 831 830
f 809 810 832 831
f 810 811 833 832
f 811 812 834 833
f 812 813 835 834
f 813 814 836 835
f 814 815 837 836
f 815 816 838 837
f 816 817 839 838
f 817 818 840 839
f 818 797 819 840
f 819 820 842
f 820 821 843
f 821 822 844
f 822 823 845
f 823 824 846
f 824 825 847
f 825 826 848
f 826 827 849
f 827 828 850
f 828 829 851
f 829 830 852
f 830 831 853
f 831 832 854
f 832 833 855
f 833 834 856
f 834 835 857
f 835 836 858
f 836 837 859
f 837 838 860
f 838 839 861
f 839 840 862
f 840 819 841
o jar_1
v 8.470000 1.150000 0.564000
v 8.470000 1.150000 0.564000
v 8.470000 1.150000 0.564000
v 8.470000 1.150000 0.564000
v 8.470000 1.150000 0.564000
v 8.470000 1.150000 0.564000
v 8.470000 1.150000 0.564000
v 8.470000 1.150000 0.564000
v 8.470000 1.150000 0.564000
v 8.470000 1.150000 0.564000
v 8.470000 1.150000 0.564000
v 8.470000 1.150000 0.564000
v 8.470000 1.150000 0.564000
v 8.470000 1.150000 0.564000
v 8.470000 1.150000 0.564000
v 8.470000 1.150000 0.564000
v 8.470000 1.150000 0.564000
v 8.470000 1.150000 0.564000
v 8.470000 1.150000 0.564000
v 8.470000 1.150000 0.564000
v 8.470000 1.150000 0.564000
v 8.470000 1.150000 0.564000
v 8.470000 1.150000 0.564000
v 8.470000 1.150000 0.564000
v 8.516211 1.150000 0.567000
v 8.514635 1.161960 0.567000
v 8.510019 1.173105 0.567000
v 8.502676 1.182675 0.567000
v 8.493105 1.190019 0.567000
v 8.481960 1.194635 0.567000
v 8.470000 1.196210 0.567000
v 8.458040 1.194635 0.567000
v 8.446896 1.190019 0.567000
v 8.437325 1.182675 0.567000
v 8.429981 1.173105 0.567000
v 8.425365 1.161960 0.567000
v 8.423790 1.150000 0.567000
v 8.425365 1.138040 0.567000
v 8.429981 1.126895 0.567000
v 8.437325 1.117325 0.567000
v 8.446896 1.109981 0.567000
v 8.458040 1.105365 0.567000
v 8.470000 1.103790 0.567000
v 8.481960 1.105365 0.567000
v 8.493105 1.109981 0.567000
v 8.502676 1.117325 0.567000
v 8.510019 1.126895 0.567000
v 8.514635 1.138040 0.567000
v 8.516211 1.150000 0.703051
v 8.514635 1.161960 0.703051
v 8.510019 1.173105 0.703051
v 8.502676 1.182675 0.703051
v 8.493105 1.190019 0.703051
v 8.481960 1.194635 0.703051
v 8.470000 1.196210 0.703051
v 8.458040 1.194635 0.703051
v 8.446896 1.190019 0.703051
v 8.437325 1.182675 0.703051
v 8.429981 1.173105 0.703051
v 8.425365 1.161960 0.703051
v 8.423790 1.150000 0.703051
v 8.425365 1.138040 0.703051
v 8.429981 1.126895 0.703051
v 8.437325 1.117325 0.703051
v 8.446896 1.109981 0.703051
v 8.458040 1.105365 0.703051
v 8.470000 1.103790 0.703051
v 8.481960 1.105365 0.703051
v 8.493105 1.109981 0.703051
v 8.502676 1.117325 0.703051
v 8.510019 1.126895 0.703051
v 8.514635 1.138040 0.703051
v 8.510210 1.150000 0.703051
v 8.508840 1.160407 0.703051
v 8.504823 1.170105 0.703051
v 8.498433 1.178433 0.703051
v 8.490106 1.184823 0.703051
v 8.480408 1.188840 0.703051
v 8.470000 1.190210 0.703051
v 8.459593 1.188840 0.703051
v 8.449895 1.184823 0.703051
v 8.441567 1.178433 0.703051
v 8.435178 1.170105 0.703051
v 8.431161 1.160407 0.703051
v 8.429790 1.150000 0.703051
v 8.431161 1.139593 0.703051
v 8.435178 1.129895 0.703051
v 8.441567 1.121567 0.703051
v 8.449895 1.115177 0.703051
v 8.459593 1.111160 0.703051
v 8.470000 1.109790 0.703051
v 8.480408 1.111160 0.703051
v 8.490106 1.115177 0.703051
v 8.498433 1.121567 0.703051
v 8.504823 1.129895 0.703051
v 8.508840 1.139593 0.703051
v 8.510210 1.150000 0.576000
v 8.508840 1.160407 0.576000
v 8.504823 1.170105 0.576000
v 8.498433 1.178433 0.576000
v 8.490106 1.184823 0.576000
v 8.480408 1.188840 0.576000
v 8.470000 1.190210 0.576000
v 8.459593 1.188840 0.576000
v 8.449895 1.184823 0.576000
v 8.441567 1.178433 0.576000
v 8.435178 1.170105 0.576000
v 8.431161 1.160407 0.576000
v 8.429790 1.150000 0.576000
v 8.431161 1.139593 0.576000
v 8.435178 1.129895 0.576000
v 8.441567 1.121567 0.576000
v 8.449895 1.115177 0.576000
v 8.459593 1.111160 0.576000
v 8.470000 1.109790 0.576000
v 8.480408 1.111160 0.576000
v 8.490106 1.115177 0.576000
v 8.498433 1.121567 0.576000
v 8.504823 1.129895 0.576000
v 8.508840 1.139593 0.576000
v 8.470000 1.150000 0.574000
v 8.470000 1.150000 0.574000
v 8.470000 1.150000 0.574000
v 8.470000 1.150000 0.574000
v 8.470000 1.150000 0.574000
v 8.470000 1.150000 0.574000
v 8.470000 1.150000 0.574000
v 8.470000 1.150000 0.574000
v 8.470000 1.150000 0.574000
v 8.470000 1.150000 0.574000
v 8.470000 1.150000 0.574000
v 8.470000 1.150000 0.574000
v 8.470000 1.150000 0.574000
v 8.470000 1.150000 0.574000
v 8.470000 1.150000 0.574000
v 8.470000 1.150000 0.574000
v 8.470000 1.150000 0.574000
v 8.470000 1.150000 0.574000
v 8.470000 1.150000 0.574000
v 8.470000 1.150000 0.574000
v 8.470000 1.150000 0.574000
v 8.470000 1.150000 0.574000
v 8.470000 1.150000 0.574000
v 8.470000 1.150000 0.574000
s 1
f 863 887 888
f 864 888 889
f 865 889 890
f 866 890 891
f 867 891 892
f 868 892 893
f 869 893 894
f 870 894 895
f 871 895 896
f 872 896 897
f 873 897 898
f 874 898 899
f 875 899 900
f 876 900 901
f 877 901 902
f 878 902 903
f 879 903 904
f 880 904 905
f 881 905 906
f 882 906 907
f 883 907 908
f 884 908 909
f 885 909 910
f 886 910 887
f 887 888 912 911
f 888 889 913 912
f 889 890 914 913
f 890 891 915 914
f 891 892 916 915
f 892 893 917 916
f 893 894 918 917
f 894 895 919 918
f 895 896 920 919
f 896 897 921 920
f 897 898 922 921
f 898 899 923 922
f 899 900 924 923
f 900 901 925 924
f 901 902 926 925
f 902 903 927 926
f 903 904 928 927
f 904 905 929 928
f 905 906 930 929
f 906 907 931 930
f 907 908 932 931
f 908 909 933 932
f 909 910 934 933
f 910 887 911 934
f 911 912 936 935
f 912 913 937 936
f 913 914 938 937
f 914 915 939 938
f 915 916 940 939
f 916 917 941 940
f 917 918 942 941
f 918 919 943 942
f 919 920 944 943
f 920 921 945 944
f 921 922 946 945
f 922 923 947 946
f 923 924 948 947
f 924 925 949 948
f 925 926 950 949
f 926 927 951 950
f 927 928 952 951
f 928 929 953 952
f 929 930 954 953
f 930 931 955 954
f 931 932 956 955
f 932 933 957 956
f 933 934 958 957
f 934 911 935 958
f 935 936 960 959
f 936 937 961 960
f 937 938 962 961
f 938 939 963 962
f 939 940 964 963
f 940 941 965 964
f 941 942 966 965
f 942 943 967 966
f 943 944 968 967
f 944 945 969 968
f 945 946 970 969
f 946 947 971 970
f 947 948 972 971
f 948 949 973 972
f 949 950 974 973
f 950 951 975 974
f 951 952 976 975
f 952 953 977 976
f 953 954 978 977
f 954 955 979 978
f 955 956 980 979
f 956 957 981 980
f 957 958 982 981
f 958 935 959 982
f 959 960 984
f 960 961 985
f 961 962 986
f 962 963 987
f 963 964 988
f 964 965 989
f 965 966 990
f 966 967 991
f 967 968 992
f 968 969 993
f 969 970 994
f 970 971 995
f 971 972 996
f 972 973 997
f 973 974 998
f 974 975 999
f 975 976 1000
f 976 977 1001
f 977 978 1002
f 978 979 1003
f 979 980 1004
f 980 981 1005
f 981 982 1006
f 982 959 983
o jar_2
v 9.620000 1.150000 0.564000
v 9.620000 1.150000 0.564000
v 9.620000 1.150000 0.564000
v 9.620000 1.150000 0.564000
v 9.620000 1.150000 0.564000
v 9.620000 1.150000 0.564000
v 9.620000 1.150000 0.564000
v 9.620000 1.150000 0.564000
v 9.620000 1.150000 0.564000
v 9.620000 1.150000 0.564000
v 9.620000 1.150000 0.564000
v 9.620000 1.150000 0.564000
v 9.620000 1.150000 0.564000
v 9.620000 1.150000 0.564000
v 9.620000 1.150000 0.564000
v 9.620000 1.150000 0.564000
v 9.620000 1.150000 0.564000
v 9.620000 1.150000 0.564000
v 9.620000 1.150000 0.564000
v 9.620000 1.150000 0.564000
v 9.620000 1.150000 0.564000
v 9.620000 1.150000 0.564000
v 9.620000 1.150000 0.564000
v 9.620000 1.150000 0.564000
v 9.662942 1.150000 0.567000
v 9.661478 1.161114 0.567000
v 9.657188 1.171471 0.567000
v 9.650364 1.180364 0.567000
v 9.641471 1.187189 0.567000
v 9.631114 1.191478 0.567000
v 9.620000 1.192942 0.567000
v 9.608886 1.191478 0.567000
v 9.598529 1.187189 0.567000
v 9.589636 1.180364 0.567000
v 9.582811 1.171471 0.567000
v 9.578522 1.161114 0.567000
v 9.577058 1.150000 0.567000
v 9.578522 1.138886 0.567000
v 9.582811 1.128529 0.567000
v 9.589636 1.119636 0.567000
v 9.598529 1.112811 0.567000
v 9.608886 1.108521 0.567000
v 9.620000 1.107058 0.567000
v 9.631114 1.108521 0.567000
v 9.641471 1.112811 0.567000
v 9.650364 1.119636 0.567000
v 9.657188 1.128529 0.567000
v 9.661478 1.138886 0.567000
v 9.662942 1.150000 0.726153
v 9.661478 1.161114 0.726153
v 9.657188 1.171471 0.726153
v 9.650364 1.180364 0.726153
v 9.641471 1.187189 0.726153
v 9.631114 1.191478 0.726153
v 9.620000 1.192942 0.726153
v 9.608886 1.191478 0.726153
v 9.598529 1.187189 0.726153
v 9.589636 1.180364 0.726153
v 9.582811 1.171471 0.726153
v 9.578522 1.161114 0.726153
v 9.577058 1.150000 0.726153
v 9.578522 1.138886 0.726153
v 9.582811 1.128529 0.726153
v 9.589636 1.119636 0.726153
v 9.598529 1.112811 0.726153
v 9.608886 1.108521 0.726153
v 9.620000 1.107058 0.726153
v 9.631114 1.108521 0.726153
v 9.641471 1.112811 0.726153
v 9.650364 1.119636 0.726153
v 9.657188 1.128529 0.726153
v 9.661478 1.138886 0.726153
v 9.656941 1.150000 0.726153
v 9.655683 1.159561 0.726153
v 9.651992 1.168471 0.726153
v 9.646122 1.176122 0.726153
v 9.638471 1.181992 0.726153
v 9.629561 1.185683 0.726153
v 9.620000 1.186942 0.726153
v 9.610438 1.185683 0.726153
v 9.601529 1.181992 0.726153
v 9.593878 1.176122 0.726153
v 9.588008 1.168471 0.726153
v 9.584317 1.159561 0.726153
v 9.583058 1.150000 0.726153
v 9.584317 1.140439 0.726153
v 9.588008 1.131529 0.726153
v 9.593878 1.123878 0.726153
v 9.601529 1.118008 0.726153
v 9.610438 1.114317 0.726153
v 9.620000 1.113058 0.726153
v 9.629561 1.114317 0.726153
v 9.638471 1.118008 0.726153
v 9.646122 1.123878 0.726153
v 9.651992 1.131529 0.726153
v 9.655683 1.140439 0.726153
v 9.656941 1.150000 0.576000
v 9.655683 1.159561 0.576000
v 9.651992 1.168471 0.576000
v 9.646122 1.176122 0.576000
v 9.638471 1.181992 0.576000
v 9.629561 1.185683 0.576000
v 9.620000 1.186942 0.576000
v 9.610438 1.185683 0.576000
v 9.601529 1.181992 0.576000
v 9.593878 1.176122 0.576000
v 9.588008 1.168471 0.576000
v 9.584317 1.159561 0.576000
v 9.583058 1.150000 0.576000
v 9.584317 1.140439 0.576000
v 9.588008 1.131529 0.576000
v 9.593878 1.123878 0.576000
v 9.601529 1.118008 0.576000
v 9.610438 1.114317 0.576000
v 9.620000 1.113058 0.576000
v 9.629561 1.114317 0.576000
v 9.638471 1.118008 0.576000
v 9.646122 1.123878 0.576000
v 9.651992 1.131529 0.576000
v 9.655683 1.140439 0.576000
v 9.620000 1.150000 0.574000
v 9.620000 1.150000 0.574000
v 9.620000 1.150000 0.574000
v 9.620000 1.150000 0.574000
v 9.620000 1.150000 0.574000
v 9.620000 1.150000 0.574000
v 9.620000 1.150000 0.574000
v 9.620000 1.150000 0.574000
v 9.620000 1.150000 0.574000
v 9.620000 1.150000 0.574000
v 9.620000 1.150000 0.574000
v 9.620000 1.150000 0.574000
v 9.620000 1.150000 0.574000
v 9.620000 1.150000 0.574000
v 9.620000 1.150000 0.574000
v 9.620000 1.150000 0.574000
v 9.620000 1.150000 0.574000
v 9.620000 1.150000 0.574000
v 9.620000 1.150000 0.574000
v 9.620000 1.150000 0.574000
v 9.620000 1.150000 0.574000
v 9.620000 1.150000 0.574000
v 9.620000 1.150000 0.574000
v 9.620000 1.150000 0.574000
s 1
f 1007 1031 1032
f 1008 1032 1033
f 1009 1033 1034
f 1010 1034 1035
f 1011 1035 1036
f 1012 1036 1037
f 1013 1037 1038
f 1014 1038 1039
f 1015 1039 1040
f 1016 1040 1041
f 1017 1041 1042
f 1018 1042 1043
f 1019 1043 1044
f 1020 1044 1045
f 1021 1045 1046
f 1022 1046 1047
f 1023 1047 1048
f 1024 1048 1049
f 1025 1049 1050
f 1026 1050 1051
f 1027 1051 1052
f 1028 1052 1053
f 1029 1053 1054
f 1030 1054 1031
f 1031 1032 1056 1055
f 1032 1033 1057 1056
f 1033 1034 1058 1057
f 1034 1035 1059 1058
f 1035 1036 1060 1059
f 1036 1037 1061 1060
f 1037 1038 1062 1061
f 1038 1039 1063 1062
f 1039 1040 1064 1063
f 1040 1041 1065 1064
f 1041 1042 1066 1065
f 1042 1043 1067 1066
f 1043 1044 1068 1067
f 1044 1045 1069 1068
f 1045 1046 1070 1069
f 1046 1047 1071 1070
f 1047 1048 1072 1071
f 1048 1049 1073 1072
f 1049 1050 1074 1073
f 1050 1051 1075 1074
f 1051 1052 1076 1075
f 1052 1053 1077 1076
f 1053 1054 1078 1077
f 1054 1031 1055 1078
f 1055 1056 1080 1079
f 1056 1057 1081 1080
f 1057 1058 1082 1081
f 1058 1059 1083 1082
f 1059 1060 1084 1083
f 1060 1061 1085 1084
f 1061 1062 1086 1085
f 1062 1063 1087 1086
f 1063 1064 1088 1087
f 1064 1065 1089 1088
f 1065 1066 1090 1089
f 1066 1067 1091 1090
f 1067 1068 1092 1091
f 1068 1069 1093 1092
f 1069 1070 1094 1093
f 1070 1071 1095 1094
f 1071 1072 1096 1095
f 1072 1073 1097 1096
f 1073 1074 1098 1097
f 1074 1075 1099 1098
f 1075 1076 1100 1099
f 1076 1077 1101 1100
f 1077 1078 1102 1101
f 1078 1055 1079 1102
f 1079 1080 1104 1103
f 1080 1081 1105 1104
f 1081 1082 1106 1105
f 1082 1083 1107 1106
f 1083 1084 1108 1107
f 1084 1085 1109 1108
f 1085 1086 1110 1109
f 1086 1087 1111 1110
f 1087 1088 1112 1111
f 1088 1089 1113 1112
f 1089 1090 1114 1113
f 1090 1091 1115 1114
f 1091 1092 1116 1115
f 1092 1093 1117 1116
f 1093 1094 1118 1117
f 1094 1095 1119 1118
f 1095 1096 1120 1119
f 1096 1097 1121 1120
f 1097 1098 1122 1121
f 1098 1099 1123 1122
f 1099 1100 1124 1123
f 1100 1101 1125 1124
f 1101 1102 1126 1125
f 1102 1079 1103 1126
f 1103 1104 1128
f 1104 1105 1129
f 1105 1106 1130
f 1106 1107 1131
f 1107 1108 1132
f 1108 1109 1133
f 1109 1110 1134
f 1110 1111 1135
f 1111 1112 1136
f 1112 1113 1137
f 1113 1114 1138
f 1114 1115 1139
f 1115 1116 1140
f 1116 1117 1141
f 1117 1118 1142
f 1118 1119 1143
f 1119 1120 1144
f 1120 1121 1145
f 1121 1122 1146
f 1122 1123 1147
f 1123 1124 1148
f 1124 1125 1149
f 1125 1126 1150
f 1126 1103 1127
o jar_3
v 8.470000 1.430000 0.564000
v 8.470000 1.430000 0.564000
v 8.470000 1.430000 0.564000
v 8.470000 1.430000 0.564000
v 8.470000 1.430000 0.564000
v 8.470000 1.430000 0.564000
v 8.470000 1.430000 0.564000
v 8.470000 1.430000 0.564000
v 8.470000 1.430000 0.564000
v 8.470000 1.430000 0.564000
v 8.470000 1.430000 0.564000
v 8.470000 1.430000 0.564000
v 8.470000 1.430000 0.564000
v 8.470000 1.430000 0.564000
v 8.470000 1.430000 0.564000
v 8.470000 1.430000 0.564000
v 8.470000 1.430000 0.564000
v 8.470000 1.430000 0.564000
v 8.470000 1.430000 0.564000
v 8.470000 1.430000 0.564000
v 8.470000 1.430000 0.564000
v 8.470000 1.430000 0.564000
v 8.470000 1.430000 0.564000
v 8.470000 1.430000 0.564000
v 8.512754 1.430000 0.567000
v 8.511297 1.441066 0.567000
v 8.507027 1.451377 0.567000
v 8.500232 1.460232 0.567000
v 8.491377 1.467026 0.567000
v 8.481066 1.471297 0.567000
v 8.470000 1.472754 0.567000
v 8.458935 1.471297 0.567000
v 8.448624 1.467026 0.567000
v 8.439769 1.460232 0.567000
v 8.432974 1.451377 0.567000
v 8.428703 1.441066 0.567000
v 8.427246 1.430000 0.567000
v 8.428703 1.418934 0.567000
v 8.432974 1.408623 0.567000
v 8.439769 1.399768 0.567000
v 8.448624 1.392974 0.567000
v 8.458935 1.388703 0.567000
v 8.470000 1.387246 0.567000
v 8.481066 1.388703 0.567000
v 8.491377 1.392974 0.567000
v 8.500232 1.399768 0.567000
v 8.507027 1.408623 0.567000
v 8.511297 1.418934 0.567000
v 8.512754 1.430000 0.724446
v 8.511297 1.441066 0.724446
v 8.507027 1.451377 0.724446
v 8.500232 1.460232 0.724446
v 8.491377 1.467026 0.724446
v 8.481066 1.471297 0.724446
v 8.470000 1.472754 0.724446
v 8.458935 1.471297 0.724446
v 8.448624 1.467026 0.724446
v 8.439769 1.460232 0.724446
v 8.432974 1.451377 0.724446
v 8.428703 1.441066 0.724446
v 8.427246 1.430000 0.724446
v 8.428703 1.418934 0.724446
v 8.432974 1.408623 0.724446
v 8.439769 1.399768 0.724446
v 8.448624 1.392974 0.724446
v 8.458935 1.388703 0.724446
v 8.470000 1.387246 0.724446
v 8.481066 1.388703 0.724446
v 8.491377 1.392974 0.724446
v 8.500232 1.399768 0.724446
v 8.507027 1.408623 0.724446
v 8.511297 1.418934 0.724446
v 8.506754 1.430000 0.724446
v 8.505502 1.439513 0.724446
v 8.501830 1.448377 0.724446
v 8.495989 1.455989 0.724446
v 8.488378 1.461830 0.724446
v 8.479513 1.465502 0.724446
v 8.470000 1.466754 0.724446
v 8.460487 1.465502 0.724446
v 8.451623 1.461830 0.724446
v 8.444012 1.455989 0.724446
v 8.438170 1.448377 0.724446
v 8.434499 1.439513 0.724446
v 8.433247 1.430000 0.724446
v 8.434499 1.420487 0.724446
v 8.438170 1.411623 0.724446
v 8.444012 1.404011 0.724446
v 8.451623 1.398170 0.724446
v 8.460487 1.394498 0.724446
v 8.470000 1.393246 0.724446
v 8.479513 1.394498 0.724446
v 8.488378 1.398170 0.724446
v 8.495989 1.404011 0.724446
v 8.501830 1.411623 0.724446
v 8.505502 1.420487 0.724446
v 8.506754 1.430000 0.576000
v 8.505502 1.439513 0.576000
v 8.501830 1.448377 0.576000
v 8.495989 1.455989 0.576000
v 8.488378 1.461830 0.576000
v 8.479513 1.465502 0.576000
v 8.470000 1.466754 0.576000
v 8.460487 1.465502 0.576000
v 8.451623 1.461830 0.576000
v 8.444012 1.455989 0.576000
v 8.438170 1.448377 0.576000
v 8.434499 1.439513 0.576000
v 8.433247 1.430000 0.576000
v 8.434499 1.420487 0.576000
v 8.438170 1.411623 0.576000
v 8.444012 1.404011 0.576000
v 8.451623 1.398170 0.576000
v 8.460487 1.394498 0.576000
v 8.470000 1.393246 0.576000
v 8.479513 1.394498 0.576000
v 8.488378 1.398170 0.576000
v 8.495989 1.404011 0.576000
v 8.501830 1.411623 0.576000
v 8.505502 1.420487 0.576000
v 8.470000 1.430000 0.574000
v 8.470000 1.430000 0.574000
v 8.470000 1.430000 0.574000
v 8.470000 1.430000 0.574000
v 8.470000 1.430000 0.574000
v 8.470000 1.430000 0.574000
v 8.470000 1.430000 0.574000
v 8.470000 1.430000 0.574000
v 8.470000 1.430000 0.574000
v 8.470000 1.430000 0.574000
v 8.470000 1.430000 0.574000
v 8.470000 1.430000 0.574000
v 8.470000 1.430000 0.574000
v 8.470000 1.430000 0.574000
v 8.470000 1.430000 0.574000
v 8.470000 1.430000 0.574000
v 8.470000 1.430000 0.574000
v 8.470000 1.430000 0.574000
v 8.470000 1.430000 0.574000
v 8.470000 1.430000 0.574000
v 8.470000 1.430000 0.574000
v 8.470000 1.430000 0.574000
v 8.470000 1.430000 0.574000
v 8.470000 1.430000 0.574000
s 1
f 1151 1175 1176
f 1152 1176 1177
f 1153 1177 1178
f 1154 1178 1179
f 1155 1179 1180
f 1156 1180 1181
f 1157 1181 1182
f 1158 1182 1183
f 1159 1183 1184
f 1160 1184 1185
f 1161 1185 1186
f 1162 1186 1187
f 1163 1187 1188
f 1164 1188 1189
f 1165 1189 1190
f 1166 1190 1191
f 1167 1191 1192
f 1168 1192 1193
f 1169 1193 1194
f 1170 1194 1195
f 1171 1195 1196
f 1172 1196 1197
f 1173 1197 1198
f 1174 1198 1175
f 1175 1176 1200 1199
f 1176 1177 1201 1200
f 1177 1178 1202 1201
f 1178 1179 1203 1202
f 1179 1180 1204 1203
f 1180 1181 1205 1204
f 1181 1182 1206 1205
f 1182 1183 1207 1206
f 1183 1184 1208 1207
f 1184 1185 1209 1208
f 1185 1186 1210 1209
f 1186 1187 1211 1210
f 1187 1188 1212 1211
f 1188 1189 1213 1212
f 1189 1190 1214 1213
f 1190 1191 1215 1214
f 1191 1192 1216 1215
f 1192 1193 1217 1216
f 1193 1194 1218 1217
f 1194 1195 1219 1218
f 1195 1196 1220 1219
f 1196 1197 1221 1220
f 1197 1198 1222 1221
f 1198 1175 1199 1222
f 1199 1200 1224 1223
f 1200 1201 1225 1224
f 1201 1202 1226 1225
f 1202 1203 1227 1226
f 1203 1204 1228 1227
f 1204 1205 1229 1228
f 1205 1206 1230 1229
f 1206 1207 1231 1230
f 1207 1208 1232 1231
f 1208 1209 1233 1232
f 1209 1210 1234 1233
f 1210 1211 1235 1234
f 1211 1212 1236 1235
f 1212 1213 1237 1236
f 1213 1214 1238 1237
f 1214 1215 1239 1238
f 1215 1216 1240 1239
f 1216 1217 1241 1240
f 1217 1218 1242 1241
f 1218 1219 1243 1242
f 1219 1220 1244 1243
f 1220 1221 1245 1244
f 1221 1222 1246 1245
f 1222 1199 1223 1246
f 1223 1224 1248 1247
f 1224 1225 1249 1248
f 1225 1226 1250 1249
f 1226 1227 1251 1250
f 1227 1228 1252 1251
f 1228 1229 1253 1252
f 1229 1230 1254 1253
f 1230 1231 1255 1254
f 1231 1232 1256 1255
f 1232 1233 1257 1256
f 1233 1234 1258 1257
f 1234 1235 1259 1258
f 1235 1236 1260 1259
f 1236 1237 1261 1260
f 1237 1238 1262 1261
f 1238 1239 1263 1262
f 1239 1240 1264 1263
f 1240 1241 1265 1264
f 1241 1242 1266 1265
f 1242 1243 1267 1266
f 1243 1244 1268 1267
f 1244 1245 1269 1268
f 1245 1246 1270 1269
f 1246 1223 1247 1270
f 1247 1248 1272
f 1248 1249 1273
f 1249 1250 1274
f 1250 1251 1275
f 1251 1252 1276
f 1252 1253 1277
f 1253 1254 1278
f 1254 1255 1279
f 1255 1256 1280
f 1256 1257 1281
f 1257 1258 1282
f 1258 1259 1283
f 1259 1260 1284
f 1260 1261 1285
f 1261 1262 1286
f 1262 1263 1287
f 1263 1264 1288
f 1264 1265 1289
f 1265 1266 1290
f 1266 1267 1291
f 1267 1268 1292
f 1268 1269 1293
f 1269 1270 1294
f 1270 1247 1271
o jar_4
v 9.620000 1.430000 0.564000
v 9.620000 1.430000 0.564000
v 9.620000 1.430000 0.564000
v 9.620000 1.430000 0.564000
v 9.620000 1.430000 0.564000
v 9.620000 1.430000 0.564000
v 9.620000 1.430000 0.564000
v 9.620000 1.430000 0.564000
v 9.620000 1.430000 0.564000
v 9.620000 1.430000 0.564000
v 9.620000 1.430000 0.564000
v 9.620000 1.430000 0.564000
v 9.620000 1.430000 0.564000
v 9.620000 1.430000 0.564000
v 9.620000 1.430000 0.564000
v 9.620000 1.430000 0.564000
v 9.620000 1.430000 0.564000
v 9.620000 1.430000 0.564000
v 9.620000 1.430000 0.564000
v 9.620000 1.430000 0.564000
v 9.620000 1.430000 0.564000
v 9.620000 1.430000 0.564000
v 9.620000 1.430000 0.564000
v 9.620000 1.430000 0.564000
v 9.667637 1.430000 0.567000
v 9.666014 1.442329 0.567000
v 9.661255 1.453819 0.567000
v 9.653685 1.463685 0.567000
v 9.643819 1.471255 0.567000
v 9.632329 1.476014 0.567000
v 9.620000 1.477637 0.567000
v 9.607671 1.476014 0.567000
v 9.596181 1.471255 0.567000
v 9.586315 1.463685 0.567000
v 9.578745 1.453819 0.567000
v 9.573986 1.442329 0.567000
v 9.572363 1.430000 0.567000
v 9.573986 1.417670 0.567000
v 9.578745 1.406181 0.567000
v 9.586315 1.396315 0.567000
v 9.596181 1.388745 0.567000
v 9.607671 1.383986 0.567000
v 9.620000 1.382363 0.567000
v 9.632329 1.383986 0.567000
v 9.643819 1.388745 0.567000
v 9.653685 1.396315 0.567000
v 9.661255 1.406181 0.567000
v 9.666014 1.417670 0.567000
v 9.667637 1.430000 0.698191
v 9.666014 1.442329 0.698191
v 9.661255 1.453819 0.698191
v 9.653685 1.463685 0.698191
v 9.643819 1.471255 0.698191
v 9.632329 1.476014 0.698191
v 9.620000 1.477637 0.698191
v 9.607671 1.476014 0.698191
v 9.596181 1.471255 0.698191
v 9.586315 1.463685 0.698191
v 9.578745 1.453819 0.698191
v 9.573986 1.442329 0.698191
v 9.572363 1.430000 0.698191
v 9.573986 1.417670 0.698191
v 9.578745 1.406181 0.698191
v 9.586315 1.396315 0.698191
v 9.596181 1.388745 0.698191
v 9.607671 1.383986 0.698191
v 9.620000 1.382363 0.698191
v 9.632329 1.383986 0.698191
v 9.643819 1.388745 0.698191
v 9.653685 1.396315 0.698191
v 9.661255 1.406181 0.698191
v 9.666014 1.417670 0.698191
v 9.661637 1.430000 0.698191
v 9.660218 1.440776 0.698191
v 9.656059 1.450819 0.698191
v 9.649442 1.459442 0.698191
v 9.640819 1.466059 0.698191
v 9.630776 1.470219 0.698191
v 9.620000 1.471637 0.698191
v 9.609223 1.470219 0.698191
v 9.599181 1.466059 0.698191
v 9.590558 1.459442 0.698191
v 9.583941 1.450819 0.698191
v 9.579782 1.440776 0.698191
v 9.578362 1.430000 0.698191
v 9.579782 1.419223 0.698191
v 9.583941 1.409181 0.698191
v 9.590558 1.400558 0.698191
v 9.599181 1.393941 0.698191
v 9.609223 1.389781 0.698191
v 9.620000 1.388363 0.698191
v 9.630776 1.389781 0.698191
v 9.640819 1.393941 0.698191
v 9.649442 1.400558 0.698191
v 9.656059 1.409181 0.698191
v 9.660218 1.419223 0.698191
v 9.661637 1.430000 0.576000
v 9.660218 1.440776 0.576000
v 9.656059 1.450819 0.576000
v 9.649442 1.459442 0.576000
v 9.640819 1.466059 0.576000
v 9.630776 1.470219 0.576000
v 9.620000 1.471637 0.576000
v 9.609223 1.470219 0.576000
v 9.599181 1.466059 0.576000
v 9.590558 1.459442 0.576000
v 9.583941 1.450819 0.576000
v 9.579782 1.440776 0.576000
v 9.578362 1.430000 0.576000
v 9.579782 1.419223 0.576000
v 9.583941 1.409181 0.576000
v 9.590558 1.400558 0.576000
v 9.599181 1.393941 0.576000
v 9.609223 1.389781 0.576000
v 9.620000 1.388363 0.576000
v 9.630776 1.389781 0.576000
v 9.640819 1.393941 0.576000
v 9.649442 1.400558 0.576000
v 9.656059 1.409181 0.576000
v 9.660218 1.419223 0.576000
v 9.620000 1.430000 0.574000
v 9.620000 1.430000 0.574000
v 9.620000 1.430000 0.574000
v 9.620000 1.430000 0.574000
v 9.620000 1.430000 0.574000
v 9.620000 1.430000 0.574000
v 9.620000 1.430000 0.574000
v 9.620000 1.430000 0.574000
v 9.620000 1.430000 0.574000
v 9.620000 1.430000 0.574000
v 9.620000 1.430000 0.574000
v 9.620000 1.430000 0.574000
v 9.620000 1.430000 0.574000
v 9.620000 1.430000 0.574000
v 9.620000 1.430000 0.574000
v 9.620000 1.430000 0.574000
v 9.620000 1.430000 0.574000
v 9.620000 1.430000 0.574000
v 9.620000 1.430000 0.574000
v 9.620000 1.430000 0.574000
v 9.620000 1.430000 0.574000
v 9.620000 1.430000 0.574000
v 9.620000 1.430000 0.574000
v 9.620000 1.430000 0.574000
s 1
f 1295 1319 1320
f 1296 1320 1321
f 1297 1321 1322
f 1298 1322 1323
f 1299 1323 1324
f 1300 1324 1325
f 1301 1325 1326
f 1302 1326 1327
f 1303 1327 1328
f 1304 1328 1329
f 1305 1329 1330
f 1306 1330 1331
f 1307 1331 1332
f 1308 1332 1333
f 1309 1333 1334
f 1310 1334 1335
f 1311 1335 1336
f 1312 1336 1337
f 1313 1337 1338
f 1314 1338 1339
f 1315 1339 1340
f 1316 1340 1341
f 1317 1341 1342
f 1318 1342 1319
f 1319 1320 1344 1343
f 1320 1321 1345 1344
f 1321 1322 1346 1345
f 1322 1323 1347 1346
f 1323 1324 1348 1347
f 1324 1325 1349 1348
f 1325 1326 1350 1349
f 1326 1327 1351 1350
f 1327 1328 1352 1351
f 1328 1329 1353 1352
f 1329 1330 1354 1353
f 1330 1331 1355 1354
f 1331 1332 1356 1355
f 1332 1333 1357 1356
f 1333 1334 1358 1357
f 1334 1335 1359 1358
f 1335 1336 1360 1359
f 1336 1337 1361 1360
f 1337 1338 1362 1361
f 1338 1339 1363 1362
f 1339 1340 1364 1363
f 1340 1341 1365 1364
f 1341 1342 1366 1365
f 1342 1319 1343 1366
f 1343 1344 1368 1367
f 1344 1345 1369 1368
f 1345 1346 1370 1369
f 1346 1347 1371 1370
f 1347 1348 1372 1371
f 1348 1349 1373 1372
f 1349 1350 1374 1373
f 1350 1351 1375 1374
f 1351 1352 1376 1375
f 1352 1353 1377 1376
f 1353 1354 1378 1377
f 1354 1355 1379 1378
f 1355 1356 1380 1379
f 1356 1357 1381 1380
f 1357 1358 1382 1381
f 1358 1359 1383 1382
f 1359 1360 1384 1383
f 1360 1361 1385 1384
f 1361 1362 1386 1385
f 1362 1363 1387 1386
f 1363 1364 1388 1387
f 1364 1365 1389 1388
f 1365 1366 1390 1389
f 1366 1343 1367 1390
f 1367 1368 1392 1391
f 1368 1369 1393 1392
f 1369 1370 1394 1393
f 1370 1371 1395 1394
f 1371 1372 1396 1395
f 1372 1373 1397 1396
f 1373 1374 1398 1397
f 1374 1375 1399 1398
f 1375 1376 1400 1399
f 1376 1377 1401 1400
f 1377 1378 1402 1401
f 1378 1379 1403 1402
f 1379 1380 1404 1403
f 1380 1381 1405 1404
f 1381 1382 1406 1405
f 1382 1383 1407 1406
f 1383 1384 1408 1407
f 1384 1385 1409 1408
f 1385 1386 1410 1409
f 1386 1387 1411 1410
f 1387 1388 1412 1411
f 1388 1389 1413 1412
f 1389 1390 1414 1413
f 1390 1367 1391 1414
f 1391 1392 1416
f 1392 1393 1417
f 1393 1394 1418
f 1394 1395 1419
f 1395 1396 1420
f 1396 1397 1421
f 1397 1398 1422
f 1398 1399 1423
f 1399 1400 1424
f 1400 1401 1425
f 1401 1402 1426
f 1402 1403 1427
f 1403 1404 1428
f 1404 1405 1429
f 1405 1406 1430
f 1406 1407 1431
f 1407 1408 1432
f 1408 1409 1433
f 1409 1410 1434
f 1410 1411 1435
f 1411 1412 1436
f 1412 1413 1437
f 1413 1414 1438
f 1414 1391 1415
o jar_5
v 8.470000 1.710000 0.564000
v 8.470000 1.710000 0.564000
v 8.470000 1.710000 0.564000
v 8.470000 1.710000 0.564000
v 8.470000 1.710000 0.564000
v 8.470000 1.710000 0.564000
v 8.470000 1.710000 0.564000
v 8.470000 1.710000 0.564000
v 8.470000 1.710000 0.564000
v 8.470000 1.710000 0.564000
v 8.470000 1.710000 0.564000
v 8.470000 1.710000 0.564000
v 8.470000 1.710000 0.564000
v 8.470000 1.710000 0.564000
v 8.470000 1.710000 0.564000
v 8.470000 1.710000 0.564000
v 8.470000 1.710000 0.564000
v 8.470000 1.710000 0.564000
v 8.470000 1.710000 0.564000
v 8.470000 1.710000 0.564000
v 8.470000 1.710000 0.564000
v 8.470000 1.710000 0.564000
v 8.470000 1.710000 0.564000
v 8.470000 1.710000 0.564000
v 8.517519 1.710000 0.567000
v 8.515900 1.722299 0.567000
v 8.511152 1.733759 0.567000
v 8.503601 1.743601 0.567000
v 8.493760 1.751153 0.567000
v 8.482299 1.755900 0.567000
v 8.470000 1.757519 0.567000
v 8.457702 1.755900 0.567000
v 8.446240 1.751153 0.567000
v 8.436399 1.743601 0.567000
v 8.428848 1.733759 0.567000
v 8.424101 1.722299 0.567000
v 8.422482 1.710000 0.567000
v 8.424101 1.697701 0.567000
v 8.428848 1.686241 0.567000
v 8.436399 1.676399 0.567000
v 8.446240 1.668848 0.567000
v 8.457702 1.664100 0.567000
v 8.470000 1.662481 0.567000
v 8.482299 1.664100 0.567000
v 8.493760 1.668848 0.567000
v 8.503601 1.676399 0.567000
v 8.511152 1.686241 0.567000
v 8.515900 1.697701 0.567000
v 8.517519 1.710000 0.743611
v 8.515900 1.722299 0.743611
v 8.511152 1.733759 0.743611
v 8.503601 1.743601 0.743611
v 8.493760 1.751153 0.743611
v 8.482299 1.755900 0.743611
v 8.470000 1.757519 0.743611
v 8.457702 1.755900 0.743611
v 8.446240 1.751153 0.743611
v 8.436399 1.743601 0.743611
v 8.428848 1.733759 0.743611
v 8.424101 1.722299 0.743611
v 8.422482 1.710000 0.743611
v 8.424101 1.697701 0.743611
v 8.428848 1.686241 0.743611
v 8.436399 1.676399 0.743611
v 8.446240 1.668848 0.743611
v 8.457702 1.664100 0.743611
v 8.470000 1.662481 0.743611
v 8.482299 1.664100 0.743611
v 8.493760 1.668848 0.743611
v 8.503601 1.676399 0.743611
v 8.511152 1.686241 0.743611
v 8.515900 1.697701 0.743611
v 8.511519 1.710000 0.743611
v 8.510104 1.720746 0.743611
v 8.505957 1.730759 0.743611
v 8.499358 1.739358 0.743611
v 8.490760 1.745956 0.743611
v 8.480746 1.750104 0.743611
v 8.470000 1.751519 0.743611
v 8.459254 1.750104 0.743611
v 8.449241 1.745956 0.743611
v 8.440642 1.739358 0.743611
v 8.434044 1.730759 0.743611
v 8.429896 1.720746 0.743611
v 8.428481 1.710000 0.743611
v 8.429896 1.699254 0.743611
v 8.434044 1.689241 0.743611
v 8.440642 1.680642 0.743611
v 8.449241 1.674044 0.743611
v 8.459254 1.669896 0.743611
v 8.470000 1.668481 0.743611
v 8.480746 1.669896 0.743611
v 8.490760 1.674044 0.743611
v 8.499358 1.680642 0.743611
v 8.505957 1.689241 0.743611
v 8.510104 1.699254 0.743611
v 8.511519 1.710000 0.576000
v 8.510104 1.720746 0.576000
v 8.505957 1.730759 0.576000
v 8.499358 1.739358 0.576000
v 8.490760 1.745956 0.576000
v 8.480746 1.750104 0.576000
v 8.470000 1.751519 0.576000
v 8.459254 1.750104 0.576000
v 8.449241 1.745956 0.576000
v 8.440642 1.739358 0.576000
v 8.434044 1.730759 0.576000
v 8.429896 1.720746 0.576000
v 8.428481 1.710000 0.576000
v 8.429896 1.699254 0.576000
v 8.434044 1.689241 0.576000
v 8.440642 1.680642 0.576000
v 8.449241 1.674044 0.576000
v 8.459254 1.669896 0.576000
v 8.470000 1.668481 0.576000
v 8.480746 1.669896 0.576000
v 8.490760 1.674044 0.576000
v 8.499358 1.680642 0.576000
v 8.505957 1.689241 0.576000
v 8.510104 1.699254 0.576000
v 8.470000 1.710000 0.574000
v 8.470000 1.710000 0.574000
v 8.470000 1.710000 0.574000
v 8.470000 1.710000 0.574000
v 8.470000 1.710000 0.574000
v 8.470000 1.710000 0.574000
v 8.470000 1.710000 0.574000
v 8.470000 1.710000 0.574000
v 8.470000 1.710000 0.574000
v 8.470000 1.710000 0.574000
v 8.470000 1.710000 0.574000
v 8.470000 1.710000 0.574000
v 8.470000 1.710000 0.574000
v 8.470000 1.710000 0.574000
v 8.470000 1.710000 0.574000
v 8.470000 1.710000 0.574000
v 8.470000 1.710000 0.574000
v 8.470000 1.710000 0.574000
v 8.470000 1.710000 0.574000
v 8.470000 1.710000 0.574000
v 8.470000 1.710000 0.574000
v 8.470000 1.710000 0.574000
v 8.470000 1.710000 0.574000
v 8.470000 1.710000 0.574000
s 1
f 1439 1463 1464
f 1440 1464 1465
f 1441 1465 1466
f 1442 1466 1467
f 1443 1467 1468
f 1444 1468 1469
f 1445 1469 1470
f 1446 1470 1471
f 1447 1471 1472
f 1448 1472 1473
f 1449 1473 1474
f 1450 1474 1475
f 1451 1475 1476
f 1452 1476 1477
f 1453 1477 1478
f 1454 1478 1479
f 1455 1479 1480
f 1456 1480 1481
f 1457 1481 1482
f 1458 1482 1483
f 1459 1483 1484
f 1460 1484 1485
f 1461 1485 1486
f 1462 1486 1463
f 1463 1464 1488 1487
f 1464 1465 1489 1488
f 1465 1466 1490 1489
f 1466 1467 1491 1490
f 1467 1468 1492 1491
f 1468 1469 1493 1492
f 1469 1470 1494 1493
f 1470 1471 1495 1494
f 1471 1472 1496 1495
f 1472 1473 1497 1496
f 1473 1474 1498 1497
f 1474 1475 1499 1498
f 1475 1476 1500 1499
f 1476 1477 1501 1500
f 1477 1478 1502 1501
f 1478 1479 1503 1502
f 1479 1480 1504 1503
f 1480 1481 1505 1504
f 1481 1482 1506 1505
f 1482 1483 1507 1506
f 1483 1484 1508 1507
f 1484 1485 1509 1508
f 1485 1486 1510 1509
f 1486 1463 1487 1510
f 1487 1488 1512 1511
f 1488 1489 1513 1512
f 1489 1490 1514 1513
f 1490 1491 1515 1514
f 1491 1492 1516 1515
f 1492 1493 1517 1516
f 1493 1494 1518 1517
f 1494 1495 1519 1518
f 1495 1496 1520 1519
f 1496 1497 1521 1520
f 1497 1498 1522 1521
f 1498 1499 1523 1522
f 1499 1500 1524 1523
f 1500 1501 1525 1524
f 1501 1502 1526 1525
f 1502 1503 1527 1526
f 1503 1504 1528 1527
f 1504 1505 1529 1528
f 1505 1506 1530 1529
f 1506 1507 1531 1530
f 1507 1508 1532 1531
f 1508 1509 1533 1532
f 1509 1510 1534 1533
f 1510 1487 1511 1534
f 1511 1512 1536 1535
f 1512 1513 1537 1536
f 1513 1514 1538 1537
f 1514 1515 1539 1538
f 1515 1516 1540 1539
f 1516 1517 1541 1540
f 1517 1518 1542 1541
f 1518 1519 1543 1542
f 1519 1520 1544 1543
f 1520 1521 1545 1544
f 1521 1522 1546 1545
f 1522 1523 1547 1546
f 1523 1524 1548 1547
f 1524 1525 1549 1548
f 1525 1526 1550 1549
f 1526 1527 1551 1550
f 1527 1528 1552 1551
f 1528 1529 1553 1552
f 1529 1530 1554 1553
f 1530 1531 1555 1554
f 1531 1532 1556 1555
f 1532 1533 1557 1556
f 1533 1534 1558 1557
f 1534 1511 1535 1558
f 1535 1536 1560
f 1536 1537 1561
f 1537 1538 1562
f 1538 1539 1563
f 1539 1540 1564
f 1540 1541 1565
f 1541 1542 1566
f 1542 1543 1567
f 1543 1544 1568
f 1544 1545 1569
f 1545 1546 1570
f 1546 1547 1571
f 1547 1548 1572
f 1548 1549 1573
f 1549 1550 1574
f 1550 1551 1575
f 1551 1552 1576
f 1552 1553 1577
f 1553 1554 1578
f 1554 1555 1579
f 1555 1556 1580
f 1556 1557 1581
f 1557 1558 1582
f 1558 1535 1559
o jar_6
v 9.620000 1.710000 0.564000
v 9.620000 1.710000 0.564000
v 9.620000 1.710000 0.564000
v 9.620000 1.710000 0.564000
v 9.620000 1.710000 0.564000
v 9.620000 1.710000 0.564000
v 9.620000 1.710000 0.564000
v 9.620000 1.710000 0.564000
v 9.620000 1.710000 0.564000
v 9.620000 1.710000 0.564000
v 9.620000 1.710000 0.564000
v 9.620000 1.710000 0.564000
v 9.620000 1.710000 0.564000
v 9.620000 1.710000 0.564000
v 9.620000 1.710000 0.564000
v 9.620000 1.710000 0.564000
v 9.620000 1.710000 0.564000
v 9.620000 1.710000 0.564000
v 9.620000 1.710000 0.564000
v 9.620000 1.710000 0.564000
v 9.620000 1.710000 0.564000
v 9.620000 1.710000 0.564000
v 9.620000 1.710000 0.564000
v 9.620000 1.710000 0.564000
v 9.664902 1.710000 0.567000
v 9.663372 1.721622 0.567000
v 9.658886 1.732451 0.567000
v 9.651751 1.741751 0.567000
v 9.642451 1.748886 0.567000
v 9.631621 1.753372 0.567000
v 9.620000 1.754902 0.567000
v 9.608378 1.753372 0.567000
v 9.597548 1.748886 0.567000
v 9.588249 1.741751 0.567000
v 9.581114 1.732451 0.567000
v 9.576628 1.721622 0.567000
v 9.575098 1.710000 0.567000
v 9.576628 1.698379 0.567000
v 9.581114 1.687549 0.567000
v 9.588249 1.678249 0.567000
v 9.597548 1.671114 0.567000
v 9.608378 1.666628 0.567000
v 9.620000 1.665098 0.567000
v 9.631621 1.666628 0.567000
v 9.642451 1.671114 0.567000
v 9.651751 1.678249 0.567000
v 9.658886 1.687549 0.567000
v 9.663372 1.698379 0.567000
v 9.664902 1.710000 0.731646
v 9.663372 1.721622 0.731646
v 9.658886 1.732451 0.731646
v 9.651751 1.741751 0.731646
v 9.642451 1.748886 0.731646
v 9.631621 1.753372 0.731646
v 9.620000 1.754902 0.731646
v 9.608378 1.753372 0.731646
v 9.597548 1.748886 0.731646
v 9.588249 1.741751 0.731646
v 9.581114 1.732451 0.731646
v 9.576628 1.721622 0.731646
v 9.575098 1.710000 0.731646
v 9.576628 1.698379 0.731646
v 9.581114 1.687549 0.731646
v 9.588249 1.678249 0.731646
v 9.597548 1.671114 0.731646
v 9.608378 1.666628 0.731646
v 9.620000 1.665098 0.731646
v 9.631621 1.666628 0.731646
v 9.642451 1.671114 0.731646
v 9.651751 1.678249 0.731646
v 9.658886 1.687549 0.731646
v 9.663372 1.698379 0.731646
v 9.658902 1.710000 0.731646
v 9.657577 1.720069 0.731646
v 9.653690 1.729451 0.731646
v 9.647508 1.737508 0.731646
v 9.639451 1.743690 0.731646
v 9.630069 1.747577 0.731646
v 9.620000 1.748902 0.731646
v 9.609931 1.747577 0.731646
v 9.600549 1.743690 0.731646
v 9.592492 1.737508 0.731646
v 9.586309 1.729451 0.731646
v 9.582423 1.720069 0.731646
v 9.581098 1.710000 0.731646
v 9.582423 1.699931 0.731646
v 9.586309 1.690549 0.731646
v 9.592492 1.682492 0.731646
v 9.600549 1.676310 0.731646
v 9.609931 1.672423 0.731646
v 9.620000 1.671098 0.731646
v 9.630069 1.672423 0.731646
v 9.639451 1.676310 0.731646
v 9.647508 1.682492 0.731646
v 9.653690 1.690549 0.731646
v 9.657577 1.699931 0.731646
v 9.658902 1.710000 0.576000
v 9.657577 1.720069 0.576000
v 9.653690 1.729451 0.576000
v 9.647508 1.737508 0.576000
v 9.639451 1.743690 0.576000
v 9.630069 1.747577 0.576000
v 9.620000 1.748902 0.576000
v 9.609931 1.747577 0.576000
v 9.600549 1.743690 0.576000
v 9.592492 1.737508 0.576000
v 9.586309 1.729451 0.576000
v 9.582423 1.720069 0.576000
v 9.581098 1.710000 0.576000
v 9.582423 1.699931 0.576000
v 9.586309 1.690549 0.576000
v 9.592492 1.682492 0.576000
v 9.600549 1.676310 0.576000
v 9.609931 1.672423 0.576000
v 9.620000 1.671098 0.576000
v 9.630069 1.672423 0.576000
v 9.639451 1.676310 0.576000
v 9.647508 1.682492 0.576000
v 9.653690 1.690549 0.576000
v 9.657577 1.699931 0.576000
v 9.620000 1.710000 0.574000
v 9.620000 1.710000 0.574000
v 9.620000 1.710000 0.574000
v 9.620000 1.710000 0.574000
v 9.620000 1.710000 0.574000
v 9.620000 1.710000 0.574000
v 9.620000 1.710000 0.574000
v 9.620000 1.710000 0.574000
v 9.620000 1.710000 0.574000
v 9.620000 1.710000 0.574000
v 9.620000 1.710000 0.574000
v 9.620000 1.710000 0.574000
v 9.620000 1.710000 0.574000
v 9.620000 1.710000 0.574000
v 9.620000 1.710000 0.574000
v 9.620000 1.710000 0.574000
v 9.620000 1.710000 0.574000
v 9.620000 1.710000 0.574000
v 9.620000 1.710000 0.574000
v 9.620000 1.710000 0.574000
v 9.620000 1.710000 0.574000
v 9.620000 1.710000 0.574000
v 9.620000 1.710000 0.574000
v 9.620000 1.710000 0.574000
s 1
f 1583 1607 1608
f 1584 1608 1609
f 1585 1609 1610
f 1586 1610 1611
f 1587 1611 1612
f 1588 1612 1613
f 1589 1613 1614
f 1590 1614 1615
f 1591 1615 1616
f 1592 1616 1617
f 1593 1617 1618
f 1594 1618 1619
f 1595 1619 1620
f 1596 1620 1621
f 1597 1621 1622
f 1598 1622 1623
f 1599 1623 1624
f 1600 1624 1625
f 1601 1625 1626
f 1602 1626 1627
f 1603 1627 1628
f 1604 1628 1629
f 1605 1629 1630
f 1606 1630 1607
f 1607 1608 1632 1631
f 1608 1609 1633 1632
f 1609 1610 1634 1633
f 1610 1611 1635 1634
f 1611 1612 1636 1635
f 1612 1613 1637 1636
f 1613 1614 1638 1637
f 1614 1615 1639 1638
f 1615 1616 1640 1639
f 1616 1617 1641 1640
f 1617 1618 1642 1641
f 1618 1619 1643 1642
f 1619 1620 1644 1643
f 1620 1621 1645 1644
f 1621 1622 1646 1645
f 1622 1623 1647 1646
f 1623 1624 1648 1647
f 1624 1625 1649 1648
f 1625 1626 1650 1649
f 1626 1627 1651 1650
f 1627 1628 1652 1651
f 1628 1629 1653 1652
f 1629 1630 1654 1653
f 1630 1607 1631 1654
f 1631 1632 1656 1655
f 1632 1633 1657 1656
f 1633 1634 1658 1657
f 1634 1635 1659 1658
f 1635 1636 1660 1659
f 1636 1637 1661 1660
f 1637 1638 1662 1661
f 1638 1639 1663 1662
f 1639 1640 1664 1663
f 1640 1641 1665 1664
f 1641 1642 1666 1665
f 1642 1643 1667 1666
f 1643 1644 1668 1667
f 1644 1645 1669 1668
f 1645 1646 1670 1669
f 1646 1647 1671 1670
f 1647 1648 1672 1671
f 1648 1649 1673 1672
f 1649 1650 1674 1673
f 1650 1651 1675 1674
f 1651 1652 1676 1675
f 1652 1653 1677 1676
f 1653 1654 1678 1677
f 1654 1631 1655 1678
f 1655 1656 1680 1679
f 1656 1657 1681 1680
f 1657 1658 1682 1681
f 1658 1659 1683 1682
f 1659 1660 1684 1683
f 1660 1661 1685 1684
f 1661 1662 1686 1685
f 1662 1663 1687 1686
f 1663 1664 1688 1687
f 1664 1665 1689 1688
f 1665 1666 1690 1689
f 1666 1667 1691 1690
f 1667 1668 1692 1691
f 1668 1669 1693 1692
f 1669 1670 1694 1693
f 1670 1671 1695 1694
f 1671 1672 1696 1695
f 1672 1673 1697 1696
f 1673 1674 1698 1697
f 1674 1675 1699 1698
f 1675 1676 1700 1699
f 1676 1677 1701 1700
f 1677 1678 1702 1701
f 1678 1655 1679 1702
f 1679 1680 1704
f 1680 1681 1705
f 1681 1682 1706
f 1682 1683 1707
f 1683 1684 1708
f 1684 1685 1709
f 1685 1686 1710
f 1686 1687 1711
f 1687 1688 1712
f 1688 1689 1713
f 1689 1690 1714
f 1690 1691 1715
f 1691 1692 1716
f 1692 1693 1717
f 1693 1694 1718
f 1694 1695 1719
f 1695 1696 1720
f 1696 1697 1721
f 1697 1698 1722
f 1698 1699 1723
f 1699 1700 1724
f 1700 1701 1725
f 1701 1702 1726
f 1702 1679 1703
o jar_7
v 8.470000 1.150000 1.114000
v 8.470000 1.150000 1.114000
v 8.470000 1.150000 1.114000
v 8.470000 1.150000 1.114000
v 8.470000 1.150000 1.114000
v 8.470000 1.150000 1.114000
v 8.470000 1.150000 1.114000
v 8.470000 1.150000 1.114000
v 8.470000 1.150000 1.114000
v 8.470000 1.150000 1.114000
v 8.470000 1.150000 1.114000
v 8.470000 1.150000 1.114000
v 8.470000 1.150000 1.114000
v 8.470000 1.150000 1.114000
v 8.470000 1.150000 1.114000
v 8.470000 1.150000 1.114000
v 8.470000 1.150000 1.114000
v 8.470000 1.150000 1.114000
v 8.470000 1.150000 1.114000
v 8.470000 1.150000 1.114000
v 8.470000 1.150000 1.114000
v 8.470000 1.150000 1.114000
v 8.470000 1.150000 1.114000
v 8.470000 1.150000 1.114000
v 8.519503 1.150000 1.117000
v 8.517816 1.162812 1.117000
v 8.512871 1.174751 1.117000
v 8.505004 1.185003 1.117000
v 8.494751 1.192870 1.117000
v 8.482813 1.197816 1.117000
v 8.470000 1.199502 1.117000
v 8.457188 1.197816 1.117000
v 8.445250 1.192870 1.117000
v 8.434997 1.185003 1.117000
v 8.427130 1.174751 1.117000
v 8.422185 1.162812 1.117000
v 8.420498 1.150000 1.117000
v 8.422185 1.137188 1.117000
v 8.427130 1.125249 1.117000
v 8.434997 1.114997 1.117000
v 8.445250 1.107130 1.117000
v 8.457188 1.102184 1.117000
v 8.470000 1.100498 1.117000
v 8.482813 1.102184 1.117000
v 8.494751 1.107130 1.117000
v 8.505004 1.114997 1.117000
v 8.512871 1.125249 1.117000
v 8.517816 1.137188 1.117000
v 8.519503 1.150000 1.267801
v 8.517816 1.162812 1.267801
v 8.512871 1.174751 1.267801
v 8.505004 1.185003 1.267801
v 8.494751 1.192870 1.267801
v 8.482813 1.197816 1.267801
v 8.470000 1.199502 1.267801
v 8.457188 1.197816 1.267801
v 8.445250 1.192870 1.267801
v 8.434997 1.185003 1.267801
v 8.427130 1.174751 1.267801
v 8.422185 1.162812 1.267801
v 8.420498 1.150000 1.267801
v 8.422185 1.137188 1.267801
v 8.427130 1.125249 1.267801
v 8.434997 1.114997 1.267801
v 8.445250 1.107130 1.267801
v 8.457188 1.102184 1.267801
v 8.470000 1.100498 1.267801
v 8.482813 1.102184 1.267801
v 8.494751 1.107130 1.267801
v 8.505004 1.114997 1.267801
v 8.512871 1.125249 1.267801
v 8.517816 1.137188 1.267801
v 8.513503 1.150000 1.267801
v 8.512020 1.161259 1.267801
v 8.507674 1.171751 1.267801
v 8.500761 1.180761 1.267801
v 8.491752 1.187674 1.267801
v 8.481259 1.192020 1.267801
v 8.470000 1.193502 1.267801
v 8.458741 1.192020 1.267801
v 8.448249 1.187674 1.267801
v 8.439240 1.180761 1.267801
v 8.432326 1.171751 1.267801
v 8.427980 1.161259 1.267801
v 8.426497 1.150000 1.267801
v 8.427980 1.138741 1.267801
v 8.432326 1.128249 1.267801
v 8.439240 1.119239 1.267801
v 8.448249 1.112326 1.267801
v 8.458741 1.107980 1.267801
v 8.470000 1.106498 1.267801
v 8.481259 1.107980 1.267801
v 8.491752 1.112326 1.267801
v 8.500761 1.119239 1.267801
v 8.507674 1.128249 1.267801
v 8.512020 1.138741 1.267801
v 8.513503 1.150000 1.126000
v 8.512020 1.161259 1.126000
v 8.507674 1.171751 1.126000
v 8.500761 1.180761 1.126000
v 8.491752 1.187674 1.126000
v 8.481259 1.192020 1.126000
v 8.470000 1.193502 1.126000
v 8.458741 1.192020 1.126000
v 8.448249 1.187674 1.126000
v 8.439240 1.180761 1.126000
v 8.432326 1.171751 1.126000
v 8.427980 1.161259 1.126000
v 8.426497 1.150000 1.126000
v 8.427980 1.138741 1.126000
v 8.432326 1.128249 1.126000
v 8.439240 1.119239 1.126000
v 8.448249 1.112326 1.126000
v 8.458741 1.107980 1.126000
v 8.470000 1.106498 1.126000
v 8.481259 1.107980 1.126000
v 8.491752 1.112326 1.126000
v 8.500761 1.119239 1.126000
v 8.507674 1.128249 1.126000
v 8.512020 1.138741 1.126000
v 8.470000 1.150000 1.124000
v 8.470000 1.150000 1.124000
v 8.470000 1.150000 1.124000
v 8.470000 1.150000 1.124000
v 8.470000 1.150000 1.124000
v 8.470000 1.150000 1.124000
v 8.470000 1.150000 1.124000
v 8.470000 1.150000 1.124000
v 8.470000 1.150000 1.124000
v 8.470000 1.150000 1.124000
v 8.470000 1.150000 1.124000
v 8.470000 1.150000 1.124000
v 8.470000 1.150000 1.124000
v 8.470000 1.150000 1.124000
v 8.470000 1.150000 1.124000
v 8.470000 1.150000 1.124000
v 8.470000 1.150000 1.124000
v 8.470000 1.150000 1.124000
v 8.470000 1.150000 1.124000
v 8.470000 1.150000 1.124000
v 8.470000 1.150000 1.124000
v 8.470000 1.150000 1.124000
v 8.470000 1.150000 1.124000
v 8.470000 1.150000 1.124000
s 1
f 1727 1751 1752
f 1728 1752 1753
f 1729 1753 1754
f 1730 1754 1755
f 1731 1755 1756
f 1732 1756 1757
f 1733 1757 1758
f 1734 1758 1759
f 1735 1759 1760
f 1736 1760 1761
f 1737 1761 1762
f 1738 1762 1763
f 1739 1763 1764
f 1740 1764 1765
f 1741 1765 1766
f 1742 1766 1767
f 1743 1767 1768
f 1744 1768 1769
f 1745 1769 1770
f 1746 1770 1771
f 1747 1771 1772
f 1748 1772 1773
f 1749 1773 1774
f 1750 1774 1751
f 1751 1752 1776 1775
f 1752 1753 1777 1776
f 1753 1754 1778 1777
f 1754 1755 1779 1778
f 1755 1756 1780 1779
f 1756 1757 1781 1780
f 1757 1758 1782 1781
f 1758 1759 1783 1782
f 1759 1760 1784 1783
f 1760 1761 1785 1784
f 1761 1762 1786 1785
f 1762 1763 1787 1786
f 1763 1764 1788 1787
f 1764 1765 1789 1788
f 1765 1766 1790 1789
f 1766 1767 1791 1790
f 1767 1768 1792 1791
f 1768 1769 1793 1792
f 1769 1770 1794 1793
f 1770 1771 1795 1794
f 1771 1772 1796 1795
f 1772 1773 1797 1796
f 1773 1774 1798 1797
f 1774 1751 1775 1798
f 1775 1776 1800 1799
f 1776 1777 1801 1800
f 1777 1778 1802 1801
f 1778 1779 1803 1802
f 1779 1780 1804 1803
f 1780 1781 1805 1804
f 1781 1782 1806 1805
f 1782 1783 1807 1806
f 1783 1784 1808 1807
f 1784 1785 1809 1808
f 1785 1786 1810 1809
f 1786 1787 1811 1810
f 1787 1788 1812 1811
f 1788 1789 1813 1812
f 1789 1790 1814 1813
f 1790 1791 1815 1814
f 1791 1792 1816 1815
f 1792 1793 1817 1816
f 1793 1794 1818 1817
f 1794 1795 1819 1818
f 1795 1796 1820 1819
f 1796 1797 1821 1820
f 1797 1798 1822 1821
f 1798 1775 1799 1822
f 1799 1800 1824 1823
f 1800 1801 1825 1824
f 1801 1802 1826 1825
f 1802 1803 1827 1826
f 1803 1804 1828 1827
f 1804 1805 1829 1828
f 1805 1806 1830 1829
f 1806 1807 1831 1830
f 1807 1808 1832 1831
f 1808 1809 1833 1832
f 1809 1810 1834 1833
f 1810 1811 1835 1834
f 1811 1812 1836 1835
f 1812 1813 1837 1836
f 1813 1814 1838 1837
f 1814 1815 1839 1838
f 1815 1816 1840 1839
f 1816 1817 1841 1840
f 1817 1818 1842 1841
f 1818 1819 1843 1842
f 1819 1820 1844 1843
f 1820 1821 1845 1844
f 1821 1822 1846 1845
f 1822 1799 1823 1846
f 1823 1824 1848
f 1824 1825 1849
f 1825 1826 1850
f 1826 1827 1851
f 1827 1828 1852
f 1828 1829 1853
f 1829 1830 1854
f 1830 1831 1855
f 1831 1832 1856
f 1832 1833 1857
f 1833 1834 1858
f 1834 1835 1859
f 1835 1836 1860
f 1836 1837 1861
f 1837 1838 1862
f 1838 1839 1863
f 1839 1840 1864
f 1840 1841 1865
f 1841 1842 1866
f 1842 1843 1867
f 1843 1844 1868
f 1844 1845 1869
f 1845 1846 1870
f 1846 1823 1847
o jar_8
v 9.620000 1.150000 1.114000
v 9.620000 1.150000 1.114000
v 9.620000 1.150000 1.114000
v 9.620000 1.150000 1.114000
v 9.620000 1.150000 1.114000
v 9.620000 1.150000 1.114000
v 9.620000 1.150000 1.114000
v 9.620000 1.150000 1.114000
v 9.620000 1.150000 1.114000
v 9.620000 1.150000 1.114000
v 9.620000 1.150000 1.114000
v 9.620000 1.150000 1.114000
v 9.620000 1.150000 1.114000
v 9.620000 1.150000 1.114000
v 9.620000 1.150000 1.114000
v 9.620000 1.150000 1.114000
v 9.620000 1.150000 1.114000
v 9.620000 1.150000 1.114000
v 9.620000 1.150000 1.114000
v 9.620000 1.150000 1.114000
v 9.620000 1.150000 1.114000
v 9.620000 1.150000 1.114000
v 9.620000 1.150000 1.114000
v 9.620000 1.150000 1.114000
v 9.662605 1.150000 1.117000
v 9.661154 1.161027 1.117000
v 9.656898 1.171303 1.117000
v 9.650126 1.180127 1.117000
v 9.641303 1.186898 1.117000
v 9.631027 1.191154 1.117000
v 9.620000 1.192605 1.117000
v 9.608973 1.191154 1.117000
v 9.598697 1.186898 1.117000
v 9.589873 1.180127 1.117000
v 9.583102 1.171303 1.117000
v 9.578846 1.161027 1.117000
v 9.577394 1.150000 1.117000
v 9.578846 1.138973 1.117000
v 9.583102 1.128697 1.117000
v 9.589873 1.119873 1.117000
v 9.598697 1.113102 1.117000
v 9.608973 1.108846 1.117000
v 9.620000 1.107394 1.117000
v 9.631027 1.108846 1.117000
v 9.641303 1.113102 1.117000
v 9.650126 1.119873 1.117000
v 9.656898 1.128697 1.117000
v 9.661154 1.138973 1.117000
v 9.662605 1.150000 1.295508
v 9.661154 1.161027 1.295508
v 9.656898 1.171303 1.295508
v 9.650126 1.180127 1.295508
v 9.641303 1.186898 1.295508
v 9.631027 1.191154 1.295508
v 9.620000 1.192605 1.295508
v 9.608973 1.191154 1.295508
v 9.598697 1.186898 1.295508
v 9.589873 1.180127 1.295508
v 9.583102 1.171303 1.295508
v 9.578846 1.161027 1.295508
v 9.577394 1.150000 1.295508
v 9.578846 1.138973 1.295508
v 9.583102 1.128697 1.295508
v 9.589873 1.119873 1.295508
v 9.598697 1.113102 1.295508
v 9.608973 1.108846 1.295508
v 9.620000 1.107394 1.295508
v 9.631027 1.108846 1.295508
v 9.641303 1.113102 1.295508
v 9.650126 1.119873 1.295508
v 9.656898 1.128697 1.295508
v 9.661154 1.138973 1.295508
v 9.656606 1.150000 1.295508
v 9.655358 1.159474 1.295508
v 9.651701 1.168303 1.295508
v 9.645884 1.175884 1.295508
v 9.638303 1.181701 1.295508
v 9.629474 1.185358 1.295508
v 9.620000 1.186606 1.295508
v 9.610526 1.185358 1.295508
v 9.601697 1.181701 1.295508
v 9.594116 1.175884 1.295508
v 9.588299 1.168303 1.295508
v 9.584641 1.159474 1.295508
v 9.583394 1.150000 1.295508
v 9.584641 1.140526 1.295508
v 9.588299 1.131697 1.295508
v 9.594116 1.124116 1.295508
v 9.601697 1.118299 1.295508
v 9.610526 1.114642 1.295508
v 9.620000 1.113394 1.295508
v 9.629474 1.114642 1.295508
v 9.638303 1.118299 1.295508
v 9.645884 1.124116 1.295508
v 9.651701 1.131697 1.295508
v 9.655358 1.140526 1.295508
v 9.656606 1.150000 1.126000
v 9.655358 1.159474 1.126000
v 9.651701 1.168303 1.126000
v 9.645884 1.175884 1.126000
v 9.638303 1.181701 1.126000
v 9.629474 1.185358 1.126000
v 9.620000 1.186606 1.126000
v 9.610526 1.185358 1.126000
v 9.601697 1.181701 1.126000
v 9.594116 1.175884 1.126000
v 9.588299 1.168303 1.126000
v 9.584641 1.159474 1.126000
v 9.583394 1.150000 1.126000
v 9.584641 1.140526 1.126000
v 9.588299 1.131697 1.126000
v 9.594116 1.124116 1.126000
v 9.601697 1.118299 1.126000
v 9.610526 1.114642 1.126000
v 9.620000 1.113394 1.126000
v 9.629474 1.114642 1.126000
v 9.638303 1.118299 1.126000
v 9.645884 1.124116 1.126000
v 9.651701 1.131697 1.126000
v 9.655358 1.140526 1.126000
v 9.620000 1.150000 1.124000
v 9.620000 1.150000 1.124000
v 9.620000 1.150000 1.124000
v 9.620000 1.150000 1.124000
v 9.620000 1.150000 1.124000
v 9.620000 1.150000 1.124000
v 9.620000 1.150000 1.124000
v 9.620000 1.150000 1.124000
v 9.620000 1.150000 1.124000
v 9.620000 1.150000 1.124000
v 9.620000 1.150000 1.124000
v 9.620000 1.150000 1.124000
v 9.620000 1.150000 1.124000
v 9.620000 1.150000 1.124000
v 9.620000 1.150000 1.124000
v 9.620000 1.150000 1.124000
v 9.620000 1.150000 1.124000
v 9.620000 1.150000 1.124000
v 9.620000 1.150000 1.124000
v 9.620000 1.150000 1.124000
v 9.620000 1.150000 1.124000
v 9.620000 1.150000 1.124000
v 9.620000 1.150000 1.124000
v 9.620000 1.150000 1.124000
s 1
f 1871 1895 1896
f 1872 1896 1897
f 1873 1897 1898
f 1874 1898 1899
f 1875 1899 1900
f 1876 1900 1901
f 1877 1901 1902
f 1878 1902 1903
f 1879 1903 1904
f 1880 1904 1905
f 1881 1905 1906
f 1882 1906 1907
f 1883 1907 1908
f 1884 1908 1909
f 1885 1909 1910
f 1886 1910 1911
f 1887 1911 1912
f 1888 1912 1913
f 1889 1913 1914
f 1890 1914 1915
f 1891 1915 1916
f 1892 1916 1917
f 1893 1917 1918
f 1894 1918 1895
f 1895 1896 1920 1919
f 1896 1897 1921 1920
f 1897 1898 1922 1921
f 1898 1899 1923 1922
f 1899 1900 1924 1923
f 1900 1901 1925 1924
f 1901 1902 1926 1925
f 1902 1903 1927 1926
f 1903 1904 1928 1927
f 1904 1905 1929 1928
f 1905 1906 1930 1929
f 1906 1907 1931 1930
f 1907 1908 1932 1931
f 1908 1909 1933 1932
f 1909 1910 1934 1933
f 1910 1911 1935 1934
f 1911 1912 1936 1935
f 1912 1913 1937 1936
f 1913 1914 1938 1937
f 1914 1915 1939 1938
f 1915 1916 1940 1939
f 1916 1917 1941 1940
f 1917 1918 1942 1941
f 1918 1895 1919 1942
f 1919 1920 1944 1943
f 1920 1921 1945 1944
f 1921 1922 1946 1945
f 1922 1923 1947 1946
f 1923 1924 1948 1947
f 1924 1925 1949 1948
f 1925 1926 1950 1949
f 1926 1927 1951 1950
f 1927 1928 1952 1951
f 1928 1929 1953 1952
f 1929 1930 1954 1953
f 1930 1931 1955 1954
f 1931 1932 1956 1955
f 1932 1933 1957 1956
f 1933 1934 1958 1957
f 1934 1935 1959 1958
f 1935 1936 1960 1959
f 1936 1937 1961 1960
f 1937 1938 1962 1961
f 1938 1939 1963 1962
f 1939 1940 1964 1963
f 1940 1941 1965 1964
f 1941 1942 1966 1965
f 1942 1919 1943 1966
f 1943 1944 1968 1967
f 1944 1945 1969 1968
f 1945 1946 1970 1969
f 1946 1947 1971 1970
f 1947 1948 1972 1971
f 1948 1949 1973 1972
f 1949 1950 1974 1973
f 1950 1951 1975 1974
f 1951 1952 1976 1975
f 1952 1953 1977 1976
f 1953 1954 1978 1977
f 1954 1955 1979 1978
f 1955 1956 1980 1979
f 1956 1957 1981 1980
f 1957 1958 1982 1981
f 1958 1959 1983 1982
f 1959 1960 1984 1983
f 1960 1961 1985 1984
f 1961 1962 1986 1985
f 1962 1963 1987 1986
f 1963 1964 1988 1987
f 1964 1965 1989 1988
f 1965 1966 1990 1989
f 1966 1943 1967 1990
f 1967 1968 1992
f 1968 1969 1993
f 1969 1970 1994
f 1970 1971 1995
f 1971 1972 1996
f 1972 1973 1997
f 1973 1974 1998
f 1974 1975 1999
f 1975 1976 2000
f 1976 1977 2001
f 1977 1978 2002
f 1978 1979 2003
f 1979 1980 2004
f 1980 1981 2005
f 1981 1982 2006
f 1982 1983 2007
f 1983 1984 2008
f 1984 1985 2009
f 1985 1986 2010
f 1986 1987 2011
f 1987 1988 2012
f 1988 1989 2013
f 1989 1990 2014
f 1990 1967 1991
