# Blender 4.1.1
# www.blender.org
o faucet_gooseneck
v 0.227000 2.900000 1.180000
v 0.224722 2.891500 1.180000
v 0.218500 2.885278 1.180000
v 0.210000 2.883000 1.180000
v 0.201500 2.885278 1.180000
v 0.195278 2.891500 1.180000
v 0.193000 2.900000 1.180000
v 0.195278 2.908500 1.180000
v 0.201500 2.914722 1.180000
v 0.210000 2.917000 1.180000
v 0.218500 2.914722 1.180000
v 0.224722 2.908500 1.180000
v 0.226201 2.900000 1.194219
v 0.223938 2.891500 1.193964
v 0.217755 2.885278 1.193268
v 0.209308 2.883000 1.192316
v 0.200862 2.885278 1.191364
v 0.194678 2.891500 1.190668
v 0.192415 2.900000 1.190413
v 0.194678 2.908500 1.190668
v 0.200862 2.914722 1.191364
v 0.209308 2.917000 1.192316
v 0.217755 2.914722 1.193268
v 0.223938 2.908500 1.193964
v 0.223816 2.900000 1.208260
v 0.221595 2.891500 1.207753
v 0.215529 2.885278 1.206369
v 0.207242 2.883000 1.204477
v 0.198955 2.885278 1.202586
v 0.192889 2.891500 1.201201
v 0.190668 2.900000 1.200694
v 0.192889 2.908500 1.201201
v 0.198955 2.914722 1.202586
v 0.207242 2.917000 1.204477
v 0.215529 2.914722 1.206369
v 0.221595 2.908500 1.207753
v 0.219873 2.900000 1.221945
v 0.217723 2.891500 1.221193
v 0.211850 2.885278 1.219138
v 0.203827 2.883000 1.216331
v 0.195804 2.885278 1.213523
v 0.189931 2.891500 1.211468
v 0.187781 2.900000 1.210716
v 0.189931 2.908500 1.211468
v 0.195804 2.914722 1.213523
v 0.203827 2.917000 1.216331
v 0.211850 2.914722 1.219138
v 0.217723 2.908500 1.221193
v 0.214423 2.900000 1.235103
v 0.212371 2.891500 1.234115
v 0.206765 2.885278 1.231415
v 0.199107 2.883000 1.227727
v 0.191448 2.885278 1.224039
v 0.185842 2.891500 1.221339
v 0.183790 2.900000 1.220351
v 0.185842 2.908500 1.221339
v 0.191448 2.914722 1.224039
v 0.199107 2.917000 1.227727
v 0.206765 2.914722 1.231415
v 0.212371 2.908500 1.234115
v 0.207534 2.900000 1.247568
v 0.205606 2.891500 1.246356
v 0.200337 2.885278 1.243046
v 0.193140 2.883000 1.238523
v 0.185943 2.885278 1.234001
v 0.180674 2.891500 1.230691
v 0.178745 2.900000 1.229479
v 0.180674 2.908500 1.230691
v 0.185943 2.914722 1.234001
v 0.193140 2.917000 1.238523
v 0.200337 2.914722 1.243046
v 0.205606 2.908500 1.246356
v 0.199293 2.900000 1.259183
v 0.197512 2.891500 1.257763
v 0.192647 2.885278 1.253883
v 0.186001 2.883000 1.248584
v 0.179356 2.885278 1.243284
v 0.174491 2.891500 1.239405
v 0.172710 2.900000 1.237985
v 0.174491 2.908500 1.239405
v 0.179356 2.914722 1.243284
v 0.186001 2.917000 1.248584
v 0.192647 2.914722 1.253883
v 0.197512 2.908500 1.257763
v 0.189803 2.900000 1.269803
v 0.188192 2.891500 1.268192
v 0.183792 2.885278 1.263792
v 0.177782 2.883000 1.257782
v 0.171771 2.885278 1.251771
v 0.167371 2.891500 1.247371
v 0.165761 2.900000 1.245761
v 0.167371 2.908500 1.247371
v 0.171771 2.914722 1.251771
v 0.177782 2.917000 1.257782
v 0.183792 2.914722 1.263792
v 0.188192 2.908500 1.268192
v 0.179183 2.900000 1.279293
v 0.177763 2.891500 1.277512
v 0.173884 2.885278 1.272647
v 0.168584 2.883000 1.266001
v 0.163284 2.885278 1.259356
v 0.159405 2.891500 1.254491
v 0.157985 2.900000 1.252710
v 0.159405 2.908500 1.254491
v 0.163284 2.914722 1.259356
v 0.168584 2.917000 1.266001
v 0.173884 2.914722 1.272647
v 0.177763 2.908500 1.277512
v 0.167568 2.900000 1.287534
v 0.166356 2.891500 1.285605
v 0.163046 2.885278 1.280337
v 0.158524 2.883000 1.273140
v 0.154001 2.885278 1.265942
v 0.150691 2.891500 1.260674
v 0.149479 2.900000 1.258745
v 0.150691 2.908500 1.260674
v 0.154001 2.914722 1.265942
v 0.158524 2.917000 1.273140
v 0.163046 2.914722 1.280337
v 0.166356 2.908500 1.285605
v 0.155103 2.900000 1.294423
v 0.154115 2.891500 1.292371
v 0.151415 2.885278 1.286765
v 0.147727 2.883000 1.279106
v 0.144039 2.885278 1.271448
v 0.141339 2.891500 1.265842
v 0.140351 2.900000 1.263790
v 0.141339 2.908500 1.265842
v 0.144039 2.914722 1.271448
v 0.147727 2.917000 1.279106
v 0.151415 2.914722 1.286765
v 0.154115 2.908500 1.292371
v 0.141945 2.900000 1.299873
v 0.141193 2.891500 1.297723
v 0.139138 2.885278 1.291850
v 0.136331 2.883000 1.283827
v 0.133523 2.885278 1.275804
v 0.131468 2.891500 1.269931
v 0.130716 2.900000 1.267781
v 0.131468 2.908500 1.269931
v 0.133523 2.914722 1.275804
v 0.136331 2.917000 1.283827
v 0.139138 2.914722 1.291850
v 0.141193 2.908500 1.297723
v 0.128260 2.900000 1.303816
v 0.127753 2.891500 1.301595
v 0.126369 2.885278 1.295529
v 0.124477 2.883000 1.287242
v 0.122586 2.885278 1.278955
v 0.121201 2.891500 1.272889
v 0.120694 2.900000 1.270668
v 0.121201 2.908500 1.272889
v 0.122586 2.914722 1.278955
v 0.124477 2.917000 1.287242
v 0.126369 2.914722 1.295529
v 0.127753 2.908500 1.301595
v 0.114219 2.900000 1.306201
v 0.113964 2.891500 1.303938
v 0.113268 2.885278 1.297755
v 0.112316 2.883000 1.289308
v 0.111364 2.885278 1.280862
v 0.110668 2.891500 1.274678
v 0.110413 2.900000 1.272415
v 0.110668 2.908500 1.274678
v 0.111364 2.914722 1.280862
v 0.112316 2.917000 1.289308
v 0.113268 2.914722 1.297755
v 0.113964 2.908500 1.303938
v 0.100000 2.900000 1.307000
v 0.100000 2.891500 1.304722
v 0.100000 2.885278 1.298500
v 0.100000 2.883000 1.290000
v 0.100000 2.885278 1.281500
v 0.100000 2.891500 1.275277
v 0.100000 2.900000 1.273000
v 0.100000 2.908500 1.275277
v 0.100000 2.914722 1.281500
v 0.100000 2.917000 1.290000
v 0.100000 2.914722 1.298500
v 0.100000 2.908500 1.304722
v 0.085781 2.900000 1.306201
v 0.086036 2.891500 1.303938
v 0.086732 2.885278 1.297755
v 0.087684 2.883000 1.289308
v 0.088636 2.885278 1.280862
v 0.089332 2.891500 1.274678
v 0.089587 2.900000 1.272415
v 0.089332 2.908500 1.274678
v 0.088636 2.914722 1.280862
v 0.087684 2.917000 1.289308
v 0.086732 2.914722 1.297755
v 0.086036 2.908500 1.303938
v 0.071740 2.900000 1.303816
v 0.072247 2.891500 1.301595
v 0.073631 2.885278 1.295529
v 0.075523 2.883000 1.287242
v 0.077414 2.885278 1.278955
v 0.078799 2.891500 1.272889
v 0.079306 2.900000 1.270668
v 0.078799 2.908500 1.272889
v 0.077414 2.914722 1.278955
v 0.075523 2.917000 1.287242
v 0.073631 2.914722 1.295529
v 0.072247 2.908500 1.301595
v 0.058055 2.900000 1.299873
v 0.058807 2.891500 1.297723
v 0.060862 2.885278 1.291850
v 0.063669 2.883000 1.283827
v 0.066477 2.885278 1.275804
v 0.068532 2.891500 1.269931
v 0.069284 2.900000 1.267781
v 0.068532 2.908500 1.269931
v 0.066477 2.914722 1.275804
v 0.063669 2.917000 1.283827
v 0.060862 2.914722 1.291850
v 0.058807 2.908500 1.297723
v 0.044897 2.900000 1.294423
v 0.045885 2.891500 1.292371
v 0.048585 2.885278 1.286765
v 0.052273 2.883000 1.279106
v 0.055961 2.885278 1.271448
v 0.058661 2.891500 1.265842
v 0.059649 2.900000 1.263790
v 0.058661 2.908500 1.265842
v 0.055961 2.914722 1.271448
v 0.052273 2.917000 1.279106
v 0.048585 2.914722 1.286765
v 0.045885 2.908500 1.292371
v 0.032432 2.900000 1.287534
v 0.033644 2.891500 1.285605
v 0.036954 2.885278 1.280337
v 0.041476 2.883000 1.273140
v 0.045999 2.885278 1.265942
v 0.049309 2.891500 1.260674
v 0.050521 2.900000 1.258745
v 0.049309 2.908500 1.260674
v 0.045999 2.914722 1.265942
v 0.041476 2.917000 1.273140
v 0.036954 2.914722 1.280337
v 0.033644 2.908500 1.285605
v 0.020817 2.900000 1.279293
v 0.022237 2.891500 1.277512
v 0.026116 2.885278 1.272647
v 0.031416 2.883000 1.266001
v 0.036716 2.885278 1.259356
v 0.040595 2.891500 1.254491
v 0.042015 2.900000 1.252710
v 0.040595 2.908500 1.254491
v 0.036716 2.914722 1.259356
v 0.031416 2.917000 1.266001
v 0.026116 2.914722 1.272647
v 0.022237 2.908500 1.277512
v 0.010197 2.900000 1.269803
v 0.011808 2.891500 1.268192
v 0.016208 2.885278 1.263792
v 0.022218 2.883000 1.257782
v 0.028229 2.885278 1.251771
v 0.032629 2.891500 1.247371
v 0.034239 2.900000 1.245761
v 0.032629 2.908500 1.247371
v 0.028229 2.914722 1.251771
v 0.022218 2.917000 1.257782
v 0.016208 2.914722 1.263792
v 0.011808 2.908500 1.268192
v 0.000707 2.900000 1.259183
v 0.002488 2.891500 1.257763
v 0.007353 2.885278 1.253883
v 0.013999 2.883000 1.248584
v 0.020644 2.885278 1.243284
v 0.025509 2.891500 1.239405
v 0.027290 2.900000 1.237985
v 0.025509 2.908500 1.239405
v 0.020644 2.914722 1.243284
v 0.013999 2.917000 1.248584
v 0.007353 2.914722 1.253883
v 0.002488 2.908500 1.257763
v -0.007534 2.900000 1.247568
v -0.005605 2.891500 1.246356
v -0.000337 2.885278 1.243046
v 0.006860 2.883000 1.238523
v 0.014057 2.885278 1.234001
v 0.019326 2.891500 1.230691
v 0.021255 2.900000 1.229479
v 0.019326 2.908500 1.230691
v 0.014057 2.914722 1.234001
v 0.006860 2.917000 1.238523
v -0.000337 2.914722 1.243046
v -0.005605 2.908500 1.246356
v -0.014423 2.900000 1.235103
v -0.012371 2.891500 1.234115
v -0.006765 2.885278 1.231415
v 0.000893 2.883000 1.227727
v 0.008552 2.885278 1.224039
v 0.014158 2.891500 1.221339
v 0.016210 2.900000 1.220351
v 0.014158 2.908500 1.221339
v 0.008552 2.914722 1.224039
v 0.000893 2.917000 1.227727
v -0.006765 2.914722 1.231415
v -0.012371 2.908500 1.234115
v -0.019873 2.900000 1.221945
v -0.017723 2.891500 1.221193
v -0.011850 2.885278 1.219138
v -0.003827 2.883000 1.216331
v 0.004196 2.885278 1.213523
v 0.010069 2.891500 1.211468
v 0.012219 2.900000 1.210716
v 0.010069 2.908500 1.211468
v 0.004196 2.914722 1.213523
v -0.003827 2.917000 1.216331
v -0.011850 2.914722 1.219138
v -0.017723 2.908500 1.221193
v -0.023816 2.900000 1.208260
v -0.021595 2.891500 1.207753
v -0.015529 2.885278 1.206369
v -0.007242 2.883000 1.204477
v 0.001045 2.885278 1.202586
v 0.007111 2.891500 1.201201
v 0.009332 2.900000 1.200694
v 0.007111 2.908500 1.201201
v 0.001045 2.914722 1.202586
v -0.007242 2.917000 1.204477
v -0.015529 2.914722 1.206369
v -0.021595 2.908500 1.207753
v -0.026201 2.900000 1.194219
v -0.023938 2.891500 1.193964
v -0.017755 2.885278 1.193268
v -0.009308 2.883000 1.192316
v -0.000862 2.885278 1.191364
v 0.005322 2.891500 1.190668
v 0.007585 2.900000 1.190413
v 0.005322 2.908500 1.190668
v -0.000862 2.914722 1.191364
v -0.009308 2.917000 1.192316
v -0.017755 2.914722 1.193268
v -0.023938 2.908500 1.193964
v -0.027000 2.900000 1.180000
v -0.024722 2.891500 1.180000
v -0.018500 2.885278 1.180000
v -0.010000 2.883000 1.180000
v -0.001500 2.885278 1.180000
v 0.004722 2.891500 1.180000
v 0.007000 2.900000 1.180000
v 0.004722 2.908500 1.180000
v -0.001500 2.914722 1.180000
v -0.010000 2.917000 1.180000
v -0.018500 2.914722 1.180000
v -0.024722 2.908500 1.180000
s 1
f 1 2 14 13
f 2 3 15 14
f 3 4 16 15
f 4 5 17 16
f 5 6 18 17
f 6 7 19 18
f 7 8 20 19
f 8 9 21 20
f 9 10 22 21
f 10 11 23 22
f 11 12 24 23
f 12 1 13 24
f 13 14 26 25
f 14 15 27 26
f 15 16 28 27
f 16 17 29 28
f 17 18 30 29
f 18 19 31 30
f 19 20 32 31
f 20 21 33 32
f 21 22 34 33
f 22 23 35 34
f 23 24 36 35
f 24 13 25 36
f 25 26 38 37
f 26 27 39 38
f 27 28 40 39
f 28 29 41 40
f 29 30 42 41
f 30 31 43 42
f 31 32 44 43
f 32 33 45 44
f 33 34 46 45
f 34 35 47 46
f 35 36 48 47
f 36 25 37 48
f 37 38 50 49
f 38 39 51 50
f 39 40 52 51
f 40 41 53 52
f 41 42 54 53
f 42 43 55 54
f 43 44 56 55
f 44 45 57 56
f 45 46 58 57
f 46 47 59 58
f 47 48 60 59
f 48 37 49 60
f 49 50 62 61
f 50 51 63 62
f 51 52 64 63
f 52 53 65 64
f 53 54 66 65
f 54 55 67 66
f 55 56 68 67
f 56 57 69 68
f 57 58 70 69
f 58 59 71 70
f 59 60 72 71
f 60 49 61 72
f 61 62 74 73
f 62 63 75 74
f 63 64 76 75
f 64 65 77 76
f 65 66 78 77
f 66 67 79 78
f 67 68 80 79
f 68 69 81 80
f 69 70 82 81
f 70 71 83 82
f 71 72 84 83
f 72 61 73 84
f 73 74 86 85
f 74 75 87 86
f 75 76 88 87
f 76 77 89 88
f 77 78 90 89
f 78 79 91 90
f 79 80 92 91
f 80 81 93 92
f 81 82 94 93
f 82 83 95 94
f 83 84 96 95
f 84 73 85 96
f 85 86 98 97
f 86 87 99 98
f 87 88 100 99
f 88 89 101 100
f 89 90 102 101
f 90 91 103 102
f 91 92 104 103
f 92 93 105 104
f 93 94 106 105
f 94 95 107 106
f 95 96 108 107
f 96 85 97 108
f 97 98 110 109
f 98 99 111 110
f 99 100 112 111
f 100 101 113 112
f 101 102 114 113
f 102 103 115 114
f 103 104 116 115
f 104 105 117 116
f 105 106 118 117
f 106 107 119 118
f 107 108 120 119
f 108 97 109 120
f 109 110 122 121
f 110 111 123 122
f 111 112 124 123
f 112 113 125 124
f 113 114 126 125
f 114 115 127 126
f 115 116 128 127
f 116 117 129 128
f 117 118 130 129
f 118 119 131 130
f 119 120 132 131
f 120 109 121 132
f 121 122 134 133
f 122 123 135 134
f 123 124 136 135
f 124 125 137 136
f 125 126 138 137
f 126 127 139 138
f 127 128 140 139
f 128 129 141 140
f 129 130 142 141
f 130 131 143 142
f 131 132 144 143
f 132 121 133 144
f 133 134 146 145
f 134 135 147 146
f 135 136 148 147
f 136 137 149 148
f 137 138 150 149
f 138 139 151 150
f 139 140 152 151
f 140 141 153 152
f 141 142 154 153
f 142 143 155 154
f 143 144 156 155
f 144 133 145 156
f 145 146 158 157
f 146 147 159 158
f 147 148 160 159
f 148 149 161 160
f 149 150 162 161
f 150 151 163 162
f 151 152 164 163
f 152 153 165 164
f 153 154 166 165
f 154 155 167 166
f 155 156 168 167
f 156 145 157 168
f 157 158 170 169
f 158 159 171 170
f 159 160 172 171
f 160 161 173 172
f 161 162 174 173
f 162 163 175 174
f 163 164 176 175
f 164 165 177 176
f 165 166 178 177
f 166 167 179 178
f 167 168 180 179
f 168 157 169 180
f 169 170 182 181
f 170 171 183 182
f 171 172 184 183
f 172 173 185 184
f 173 174 186 185
f 174 175 187 186
f 175 176 188 187
f 176 177 189 188
f 177 178 190 189
f 178 179 191 190
f 179 180 192 191
f 180 169 181 192
f 181 182 194 193
f 182 183 195 194
f 183 184 196 195
f 184 185 197 196
f 185 186 198 197
f 186 187 199 198
f 187 188 200 199
f 188 189 201 200
f 189 190 202 201
f 190 191 203 202
f 191 192 204 203
f 192 181 193 204
f 193 194 206 205
f 194 195 207 206
f 195 196 208 207
f 196 197 209 208
f 197 198 210 209
f 198 199 211 210
f 199 200 212 211
f 200 201 213 212
f 201 202 214 213
f 202 203 215 214
f 203 204 216 215
f 204 193 205 216
f 205 206 218 217
f 206 207 219 218
f 207 208 220 219
f 208 209 221 220
f 209 210 222 221
f 210 211 223 222
f 211 212 224 223
f 212 213 225 224
f 213 214 226 225
f 214 215 227 226
f 215 216 228 227
f 216 205 217 228
f 217 218 230 229
f 218 219 231 230
f 219 220 232 231
f 220 221 233 232
f 221 222 234 233
f 222 223 235 234
f 223 224 236 235
f 224 225 237 236
f 225 226 238 237
f 226 227 239 238
f 227 228 240 239
f 228 217 229 240
f 229 230 242 241
f 230 231 243 242
f 231 232 244 243
f 232 233 245 244
f 233 234 246 245
f 234 235 247 246
f 235 236 248 247
f 236 237 249 248
f 237 238 250 249
f 238 239 251 250
f 239 240 252 251
f 240 229 241 252
f 241 242 254 253
f 242 243 255 254
f 243 244 256 255
f 244 245 257 256
f 245 246 258 257
f 246 247 259 258
f 247 248 260 259
f 248 249 261 260
f 249 250 262 261
f 250 251 263 262
f 251 252 264 263
f 252 241 253 264
f 253 254 266 265
f 254 255 267 266
f 255 256 268 267
f 256 257 269 268
f 257 258 270 269
f 258 259 271 270
f 259 260 272 271
f 260 261 273 272
f 261 262 274 273
f 262 263 275 274
f 263 264 276 275
f 264 253 265 276
f 265 266 278 277
f 266 267 279 278
f 267 268 280 279
f 268 269 281 280
f 269 270 282 281
f 270 271 283 282
f 271 272 284 283
f 272 273 285 284
f 273 274 286 285
f 274 275 287 286
f 275 276 288 287
f 276 265 277 288
f 277 278 290 289
f 278 279 291 290
f 279 280 292 291
f 280 281 293 292
f 281 282 294 293
f 282 283 295 294
f 283 284 296 295
f 284 285 297 296
f 285 286 298 297
f 286 287 299 298
f 287 288 300 299
f 288 277 289 300
f 289 290 302 301
f 290 291 303 302
f 291 292 304 303
f 292 293 305 304
f 293 294 306 305
f 294 295 307 306
f 295 296 308 307
f 296 297 309 308
f 297 298 310 309
f 298 299 311 310
f 299 300 312 311
f 300 289 301 312
f 301 302 314 313
f 302 303 315 314
f 303 304 316 315
f 304 305 317 316
f 305 306 318 317
f 306 307 319 318
f 307 308 320 319
f 308 309 321 320
f 309 310 322 321
f 310 311 323 322
f 311 312 324 323
f 312 301 313 324
f 313 314 326 325
f 314 315 327 326
f 315 316 328 327
f 316 317 329 328
f 317 318 330 329
f 318 319 331 330
f 319 320 332 331
f 320 321 333 332
f 321 322 334 333
f 322 323 335 334
f 323 324 336 335
f 324 313 325 336
f 325 326 338 337
f 326 327 339 338
f 327 328 340 339
f 328 329 341 340
f 329 330 342 341
f 330 331 343 342
f 331 332 344 343
f 332 333 345 344
f 333 334 346 345
f 334 335 347 346
f 335 336 348 347
f 336 325 337 348
