# Blender 4.1.1
# www.blender.org
o doormat
v 8.678600 3.603600 0.002000
v 8.678600 3.600000 0.005600
v 8.675000 3.603600 0.005600
v 8.678600 3.601054 0.003054
v 8.676521 3.601521 0.003522
v 8.676055 3.601054 0.005600
v 8.676055 3.603600 0.003054
v 8.678600 3.600000 0.010400
v 8.678600 3.603600 0.014000
v 8.675000 3.603600 0.010400
v 8.678600 3.601054 0.012946
v 8.676521 3.601521 0.012478
v 8.676055 3.603600 0.012946
v 8.676055 3.601054 0.010400
v 8.678600 4.096400 0.002000
v 8.675000 4.096400 0.005600
v 8.678600 4.100000 0.005600
v 8.676055 4.096400 0.003054
v 8.676521 4.098478 0.003522
v 8.676055 4.098946 0.005600
v 8.678600 4.098946 0.003054
v 8.678600 4.096400 0.014000
v 8.678600 4.100000 0.010400
v 8.675000 4.096400 0.010400
v 8.678600 4.098946 0.012946
v 8.676521 4.098478 0.012478
v 8.676055 4.098946 0.010400
v 8.676055 4.096400 0.012946
v 9.421400 3.603600 0.002000
v 9.425000 3.603600 0.005600
v 9.421400 3.600000 0.005600
v 9.423945 3.603600 0.003054
v 9.423479 3.601521 0.003522
v 9.423945 3.601054 0.005600
v 9.421400 3.601054 0.003054
v 9.421400 3.603600 0.014000
v 9.421400 3.600000 0.010400
v 9.425000 3.603600 0.010400
v 9.421400 3.601054 0.012946
v 9.423479 3.601521 0.012478
v 9.423945 3.601054 0.010400
v 9.423945 3.603600 0.012946
v 9.421400 4.096400 0.002000
v 9.421400 4.100000 0.005600
v 9.425000 4.096400 0.005600
v 9.421400 4.098946 0.003054
v 9.423479 4.098478 0.003522
v 9.423945 4.098946 0.005600
v 9.423945 4.096400 0.003054
v 9.421400 4.096400 0.014000
v 9.425000 4.096400 0.010400
v 9.421400 4.100000 0.010400
v 9.423945 4.096400 0.012946
v 9.423479 4.098478 0.012478
v 9.423945 4.098946 0.010400
v 9.421400 4.098946 0.012946
v 8.678600 3.601054 0.003054
v 8.676521 3.601521 0.003522
v 8.676521 3.601521 0.003522
v 8.676055 3.603600 0.003054
v 8.676055 3.601054 0.005600
v 8.678600 3.601054 0.012946
v 8.676521 3.601521 0.012478
v 8.676521 3.601521 0.012478
v 8.676055 3.601054 0.010400
v 8.676055 3.603600 0.012946
v 8.676055 4.096400 0.003054
v 8.676521 4.098478 0.003522
v 8.676521 4.098478 0.003522
v 8.678600 4.098946 0.003054
v 8.676055 4.098946 0.005600
v 8.678600 4.098946 0.012946
v 8.676521 4.098478 0.012478
v 8.676521 4.098478 0.012478
v 8.676055 4.096400 0.012946
v 8.676055 4.098946 0.010400
v 9.423945 3.603600 0.003054
v 9.423479 3.601521 0.003522
v 9.423479 3.601521 0.003522
v 9.421400 3.601054 0.003054
v 9.423945 3.601054 0.005600
v 9.421400 3.601054 0.012946
v 9.423479 3.601521 0.012478
v 9.423479 3.601521 0.012478
v 9.423945 3.603600 0.012946
v 9.423945 3.601054 0.010400
v 9.421400 4.098946 0.003054
v 9.423479 4.098478 0.003522
v 9.423479 4.098478 0.003522
v 9.423945 4.096400 0.003054
v 9.423945 4.098946 0.005600
v 9.423945 4.096400 0.012946
v 9.423479 4.098478 0.012478
v 9.423479 4.098478 0.012478
v 9.421400 4.098946 0.012946
v 9.423945 4.098946 0.010400
s 0
f 31 37 8 2
f 45 51 38 30
f 50 22 9 36
f 3 10 24 16
f 17 23 52 44
f 1 57 58 60
f 2 61 59 4
f 3 7 5 6
f 8 62 63 65
f 9 66 64 11
f 10 14 12 13
f 15 67 68 70
f 16 71 69 18
f 17 21 19 20
f 22 72 73 75
f 23 76 74 25
f 24 28 26 27
f 29 77 78 80
f 30 81 79 32
f 31 35 33 34
f 36 82 83 85
f 37 86 84 39
f 38 42 40 41
f 43 87 88 90
f 44 91 89 46
f 45 49 47 48
f 50 92 93 95
f 51 96 94 53
f 52 56 54 55
f 15 1 60 67
f 18 7 3 16
f 2 8 65 61
f 6 14 10 3
f 9 22 75 66
f 13 28 24 10
f 23 17 20 76
f 27 71 16 24
f 43 15 70 87
f 46 21 17 44
f 22 50 95 72
f 25 56 52 23
f 51 45 48 96
f 55 91 44 52
f 29 43 90 77
f 32 49 45 30
f 50 36 85 92
f 53 42 38 51
f 37 31 34 86
f 41 81 30 38
f 1 29 80 57
f 4 35 31 2
f 36 9 11 82
f 39 62 8 37
f 15 43 29 1
