# Blender 4.1.1
# www.blender.org
o art_canvas_0
v 3.305000 0.034000 1.230000
v 3.305000 0.034000 1.870000
v 3.305000 0.046000 1.230000
v 3.305000 0.046000 1.870000
v 3.795000 0.034000 1.230000
v 3.795000 0.034000 1.870000
v 3.795000 0.046000 1.230000
v 3.795000 0.046000 1.870000
v 3.305000 0.046000 1.230000
v 3.305000 0.046000 1.230000
v 3.305000 0.034000 1.230000
v 3.305000 0.034000 1.230000
v 3.305000 0.034000 1.870000
v 3.305000 0.034000 1.870000
v 3.305000 0.046000 1.870000
v 3.305000 0.046000 1.870000
v 3.795000 0.046000 1.230000
v 3.795000 0.046000 1.230000
v 3.795000 0.046000 1.870000
v 3.795000 0.046000 1.870000
v 3.795000 0.034000 1.230000
v 3.795000 0.034000 1.230000
v 3.795000 0.034000 1.870000
v 3.795000 0.034000 1.870000
s 0
f 11 13 15 9
f 10 16 19 17
f 18 20 23 21
f 22 24 14 12
f 3 7 5 1
f 8 4 2 6
o art_canvas_1
v 4.270000 0.034000 1.305000
v 4.270000 0.034000 1.795000
v 4.270000 0.046000 1.305000
v 4.270000 0.046000 1.795000
v 4.630000 0.034000 1.305000
v 4.630000 0.034000 1.795000
v 4.630000 0.046000 1.305000
v 4.630000 0.046000 1.795000
v 4.270000 0.046000 1.305000
v 4.270000 0.046000 1.305000
v 4.270000 0.034000 1.305000
v 4.270000 0.034000 1.305000
v 4.270000 0.034000 1.795000
v 4.270000 0.034000 1.795000
v 4.270000 0.046000 1.795000
v 4.270000 0.046000 1.795000
v 4.630000 0.046000 1.305000
v 4.630000 0.046000 1.305000
v 4.630000 0.046000 1.795000
v 4.630000 0.046000 1.795000
v 4.630000 0.034000 1.305000
v 4.630000 0.034000 1.305000
v 4.630000 0.034000 1.795000
v 4.630000 0.034000 1.795000
s 0
f 35 37 39 33
f 34 40 43 41
f 42 44 47 45
f 46 48 38 36
f 27 31 29 25
f 32 28 26 30
o cookbook_0
v 2.197094 3.316728 0.465000
v 2.196832 3.313740 0.468000
v 2.194105 3.316990 0.468000
v 2.196909 3.314615 0.465879
v 2.195217 3.315154 0.466268
v 2.194796 3.314800 0.468000
v 2.194981 3.316913 0.465879
v 2.196832 3.313740 0.492000
v 2.197094 3.316728 0.495000
v 2.194105 3.316990 0.492000
v 2.196909 3.314615 0.494121
v 2.195217 3.315154 0.493732
v 2.194981 3.316913 0.494121
v 2.194796 3.314800 0.492000
v 2.209644 3.460180 0.465000
v 2.206656 3.460442 0.468000
v 2.209906 3.463169 0.468000
v 2.207531 3.460365 0.465879
v 2.208070 3.462057 0.466268
v 2.207716 3.462478 0.468000
v 2.209829 3.462293 0.465879
v 2.209644 3.460180 0.495000
v 2.209906 3.463169 0.492000
v 2.206656 3.460442 0.492000
v 2.209829 3.462293 0.494121
v 2.208070 3.462057 0.493732
v 2.207716 3.462478 0.492000
v 2.207531 3.460365 0.494121
v 2.390356 3.299820 0.465000
v 2.393344 3.299559 0.468000
v 2.390094 3.296831 0.468000
v 2.392469 3.299635 0.465879
v 2.391930 3.297944 0.466268
v 2.392284 3.297522 0.468000
v 2.390171 3.297707 0.465879
v 2.390356 3.299820 0.495000
v 2.390094 3.296831 0.492000
v 2.393344 3.299559 0.492000
v 2.390171 3.297707 0.494121
v 2.391930 3.297944 0.493732
v 2.392284 3.297522 0.492000
v 2.392469 3.299635 0.494121
v 2.402906 3.443272 0.465000
v 2.403167 3.446261 0.468000
v 2.405895 3.443011 0.468000
v 2.403091 3.445385 0.465879
v 2.404783 3.444847 0.466268
v 2.405204 3.445200 0.468000
v 2.405019 3.443087 0.465879
v 2.402906 3.443272 0.495000
v 2.405895 3.443011 0.492000
v 2.403167 3.446261 0.492000
v 2.405019 3.443087 0.494121
v 2.404783 3.444847 0.493732
v 2.405204 3.445200 0.492000
v 2.403091 3.445385 0.494121
v 2.196909 3.314615 0.465879
v 2.195217 3.315154 0.466268
v 2.195217 3.315154 0.466268
v 2.194981 3.316913 0.465879
v 2.194796 3.314800 0.468000
v 2.196909 3.314615 0.494121
v 2.195217 3.315154 0.493732
v 2.195217 3.315154 0.493732
v 2.194796 3.314800 0.492000
v 2.194981 3.316913 0.494121
v 2.207531 3.460365 0.465879
v 2.208070 3.462057 0.466268
v 2.208070 3.462057 0.466268
v 2.209829 3.462293 0.465879
v 2.207716 3.462478 0.468000
v 2.209829 3.462293 0.494121
v 2.208070 3.462057 0.493732
v 2.208070 3.462057 0.493732
v 2.207531 3.460365 0.494121
v 2.207716 3.462478 0.492000
v 2.392469 3.299635 0.465879
v 2.391930 3.297944 0.466268
v 2.391930 3.297944 0.466268
v 2.390171 3.297707 0.465879
v 2.392284 3.297522 0.468000
v 2.390171 3.297707 0.494121
v 2.391930 3.297944 0.493732
v 2.391930 3.297944 0.493732
v 2.392469 3.299635 0.494121
v 2.392284 3.297522 0.492000
v 2.403091 3.445385 0.465879
v 2.404783 3.444847 0.466268
v 2.404783 3.444847 0.466268
v 2.405019 3.443087 0.465879
v 2.405204 3.445200 0.468000
v 2.405019 3.443087 0.494121
v 2.404783 3.444847 0.493732
v 2.404783 3.444847 0.493732
v 2.403091 3.445385 0.494121
v 2.405204 3.445200 0.492000
s 0
f 79 85 56 50
f 93 99 86 78
f 98 70 57 84
f 51 58 72 64
f 65 71 100 92
f 49 105 106 108
f 50 109 107 52
f 51 55 53 54
f 56 110 111 113
f 57 114 112 59
f 58 62 60 61
f 63 115 116 118
f 64 119 117 66
f 65 69 67 68
f 70 120 121 123
f 71 124 122 73
f 72 76 74 75
f 77 125 126 128
f 78 129 127 80
f 79 83 81 82
f 84 130 131 133
f 85 134 132 87
f 86 90 88 89
f 91 135 136 138
f 92 139 137 94
f 93 97 95 96
f 98 140 141 143
f 99 144 142 101
f 100 104 102 103
f 63 49 108 115
f 66 55 51 64
f 50 56 113 109
f 54 62 58 51
f 57 70 123 114
f 61 76 72 58
f 71 65 68 124
f 75 119 64 72
f 91 63 118 135
f 94 69 65 92
f 70 98 143 120
f 73 104 100 71
f 99 93 96 144
f 103 139 92 100
f 77 91 138 125
f 80 97 93 78
f 98 84 133 140
f 101 90 86 99
f 85 79 82 134
f 89 129 78 86
f 49 77 128 105
f 52 83 79 50
f 84 57 59 130
f 87 110 56 85
f 63 91 77 49
o sideboard_book
v 6.536500 0.148770 0.775265
v 6.536500 0.144194 0.778590
v 6.532500 0.148144 0.779215
v 6.536500 0.145793 0.775979
v 6.534191 0.146225 0.776573
v 6.533672 0.145351 0.778773
v 6.533672 0.148587 0.776422
v 6.536500 0.098515 1.066995
v 6.536500 0.101840 1.071571
v 6.532500 0.102466 1.067621
v 6.536500 0.099230 1.069972
v 6.534191 0.099823 1.069540
v 6.533672 0.102023 1.070414
v 6.533672 0.099672 1.067178
v 6.536500 0.358160 0.808429
v 6.532500 0.357534 0.812380
v 6.536500 0.361485 0.813005
v 6.533672 0.357977 0.809586
v 6.534191 0.360177 0.810460
v 6.533672 0.360328 0.812822
v 6.536500 0.360770 0.810028
v 6.536500 0.311230 1.104735
v 6.536500 0.315806 1.101410
v 6.532500 0.311856 1.100785
v 6.536500 0.314207 1.104021
v 6.534191 0.313775 1.103427
v 6.533672 0.314649 1.101227
v 6.533672 0.311413 1.103578
v 6.563500 0.148770 0.775265
v 6.567500 0.148144 0.779215
v 6.563500 0.144194 0.778590
v 6.566329 0.148587 0.776422
v 6.565810 0.146225 0.776573
v 6.566329 0.145351 0.778773
v 6.563500 0.145793 0.775979
v 6.563500 0.101840 1.071571
v 6.563500 0.098515 1.066995
v 6.567500 0.102466 1.067621
v 6.563500 0.099230 1.069972
v 6.565810 0.099823 1.069540
v 6.566329 0.099672 1.067178
v 6.566329 0.102023 1.070414
v 6.563500 0.358160 0.808429
v 6.563500 0.361485 0.813005
v 6.567500 0.357534 0.812380
v 6.563500 0.360770 0.810028
v 6.565810 0.360177 0.810460
v 6.566329 0.360328 0.812822
v 6.566329 0.357977 0.809586
v 6.563500 0.311230 1.104735
v 6.567500 0.311856 1.100785
v 6.563500 0.315806 1.101410
v 6.566329 0.311413 1.103578
v 6.565810 0.313775 1.103427
v 6.566329 0.314649 1.101227
v 6.563500 0.314207 1.104021
v 6.536500 0.145793 0.775979
v 6.534191 0.146225 0.776573
v 6.534191 0.146225 0.776573
v 6.533672 0.148587 0.776422
v 6.533672 0.145351 0.778773
v 6.536500 0.099230 1.069972
v 6.534191 0.099823 1.069540
v 6.534191 0.099823 1.069540
v 6.533672 0.099672 1.067178
v 6.533672 0.102023 1.070414
v 6.533672 0.357977 0.809586
v 6.534191 0.360177 0.810460
v 6.534191 0.360177 0.810460
v 6.536500 0.360770 0.810028
v 6.533672 0.360328 0.812822
v 6.536500 0.314207 1.104021
v 6.534191 0.313775 1.103427
v 6.534191 0.313775 1.103427
v 6.533672 0.311413 1.103578
v 6.533672 0.314649 1.101227
v 6.566329 0.148587 0.776422
v 6.565810 0.146225 0.776573
v 6.565810 0.146225 0.776573
v 6.563500 0.145793 0.775979
v 6.566329 0.145351 0.778773
v 6.563500 0.099230 1.069972
v 6.565810 0.099823 1.069540
v 6.565810 0.099823 1.069540
v 6.566329 0.102023 1.070414
v 6.566329 0.099672 1.067178
v 6.563500 0.360770 0.810028
v 6.565810 0.360177 0.810460
v 6.565810 0.360177 0.810460
v 6.566329 0.357977 0.809586
v 6.566329 0.360328 0.812822
v 6.566329 0.311413 1.103578
v 6.565810 0.313775 1.103427
v 6.565810 0.313775 1.103427
v 6.563500 0.314207 1.104021
v 6.566329 0.314649 1.101227
s 0
f 175 181 152 146
f 189 195 182 174
f 194 166 153 180
f 147 154 168 160
f 161 167 196 188
f 145 201 202 204
f 146 205 203 148
f 147 151 149 150
f 152 206 207 209
f 153 210 208 155
f 154 158 156 157
f 159 211 212 214
f 160 215 213 162
f 161 165 163 164
f 166 216 217 219
f 167 220 218 169
f 168 172 170 171
f 173 221 222 224
f 174 225 223 176
f 175 179 177 178
f 180 226 227 229
f 181 230 228 183
f 182 186 184 185
f 187 231 232 234
f 188 235 233 190
f 189 193 191 192
f 194 236 237 239
f 195 240 238 197
f 196 200 198 199
f 159 145 204 211
f 162 151 147 160
f 146 152 209 205
f 150 158 154 147
f 153 166 219 210
f 157 172 168 154
f 167 161 164 220
f 171 215 160 168
f 187 159 214 231
f 190 165 161 188
f 166 194 239 216
f 169 200 196 167
f 195 189 192 240
f 199 235 188 196
f 173 187 234 221
f 176 193 189 174
f 194 180 229 236
f 197 186 182 195
f 181 175 178 230
f 185 225 174 182
f 145 173 224 201
f 148 179 175 146
f 180 153 155 226
f 183 206 152 181
f 159 187 173 145
