# Blender 4.1.1
# www.blender.org
o tall_goods_2
v 1.936000 0.206000 2.060000
v 1.936000 0.200000 2.066000
v 1.930000 0.206000 2.066000
v 1.936000 0.201757 2.061758
v 1.932536 0.202536 2.062536
v 1.931757 0.201757 2.066000
v 1.931757 0.206000 2.061758
v 1.936000 0.200000 2.214000
v 1.936000 0.206000 2.220000
v 1.930000 0.206000 2.214000
v 1.936000 0.201757 2.218243
v 1.932536 0.202536 2.217464
v 1.931757 0.206000 2.218243
v 1.931757 0.201757 2.214000
v 1.936000 0.454000 2.060000
v 1.930000 0.454000 2.066000
v 1.936000 0.460000 2.066000
v 1.931757 0.454000 2.061758
v 1.932536 0.457464 2.062536
v 1.931757 0.458243 2.066000
v 1.936000 0.458243 2.061758
v 1.936000 0.454000 2.220000
v 1.936000 0.460000 2.214000
v 1.930000 0.454000 2.214000
v 1.936000 0.458243 2.218243
v 1.932536 0.457464 2.217464
v 1.931757 0.458243 2.214000
v 1.931757 0.454000 2.218243
v 2.144000 0.206000 2.060000
v 2.150000 0.206000 2.066000
v 2.144000 0.200000 2.066000
v 2.148243 0.206000 2.061758
v 2.147464 0.202536 2.062536
v 2.148243 0.201757 2.066000
v 2.144000 0.201757 2.061758
v 2.144000 0.206000 2.220000
v 2.144000 0.200000 2.214000
v 2.150000 0.206000 2.214000
v 2.144000 0.201757 2.218243
v 2.147464 0.202536 2.217464
v 2.148243 0.201757 2.214000
v 2.148243 0.206000 2.218243
v 2.144000 0.454000 2.060000
v 2.144000 0.460000 2.066000
v 2.150000 0.454000 2.066000
v 2.144000 0.458243 2.061758
v 2.147464 0.457464 2.062536
v 2.148243 0.458243 2.066000
v 2.148243 0.454000 2.061758
v 2.144000 0.454000 2.220000
v 2.150000 0.454000 2.214000
v 2.144000 0.460000 2.214000
v 2.148243 0.454000 2.218243
v 2.147464 0.457464 2.217464
v 2.148243 0.458243 2.214000
v 2.144000 0.458243 2.218243
v 1.936000 0.201757 2.061758
v 1.932536 0.202536 2.062536
v 1.932536 0.202536 2.062536
v 1.931757 0.206000 2.061758
v 1.931757 0.201757 2.066000
v 1.936000 0.201757 2.218243
v 1.932536 0.202536 2.217464
v 1.932536 0.202536 2.217464
v 1.931757 0.201757 2.214000
v 1.931757 0.206000 2.218243
v 1.931757 0.454000 2.061758
v 1.932536 0.457464 2.062536
v 1.932536 0.457464 2.062536
v 1.936000 0.458243 2.061758
v 1.931757 0.458243 2.066000
v 1.936000 0.458243 2.218243
v 1.932536 0.457464 2.217464
v 1.932536 0.457464 2.217464
v 1.931757 0.454000 2.218243
v 1.931757 0.458243 2.214000
v 2.148243 0.206000 2.061758
v 2.147464 0.202536 2.062536
v 2.147464 0.202536 2.062536
v 2.144000 0.201757 2.061758
v 2.148243 0.201757 2.066000
v 2.144000 0.201757 2.218243
v 2.147464 0.202536 2.217464
v 2.147464 0.202536 2.217464
v 2.148243 0.206000 2.218243
v 2.148243 0.201757 2.214000
v 2.144000 0.458243 2.061758
v 2.147464 0.457464 2.062536
v 2.147464 0.457464 2.062536
v 2.148243 0.454000 2.061758
v 2.148243 0.458243 2.066000
v 2.148243 0.454000 2.218243
v 2.147464 0.457464 2.217464
v 2.147464 0.457464 2.217464
v 2.144000 0.458243 2.218243
v 2.148243 0.458243 2.214000
s 0
f 31 37 8 2
f 45 51 38 30
f 50 22 9 36
f 3 10 24 16
f 17 23 52 44
f 1 57 58 60
f 2 61 59 4
f 3 7 5 6
f 8 62 63 65
f 9 66 64 11
f 10 14 12 13
f 15 67 68 70
f 16 71 69 18
f 17 21 19 20
f 22 72 73 75
f 23 76 74 25
f 24 28 26 27
f 29 77 78 80
f 30 81 79 32
f 31 35 33 34
f 36 82 83 85
f 37 86 84 39
f 38 42 40 41
f 43 87 88 90
f 44 91 89 46
f 45 49 47 48
f 50 92 93 95
f 51 96 94 53
f 52 56 54 55
f 15 1 60 67
f 18 7 3 16
f 2 8 65 61
f 6 14 10 3
f 9 22 75 66
f 13 28 24 10
f 23 17 20 76
f 27 71 16 24
f 43 15 70 87
f 46 21 17 44
f 22 50 95 72
f 25 56 52 23
f 51 45 48 96
f 55 91 44 52
f 29 43 90 77
f 32 49 45 30
f 50 36 85 92
f 53 42 38 51
f 37 31 34 86
f 41 81 30 38
f 1 29 80 57
f 4 35 31 2
f 36 9 11 82
f 39 62 8 37
f 15 43 29 1
o cereal_box_body
v 2.478758 4.148307 0.900000
v 2.477790 4.144425 0.904000
v 2.474877 4.149274 0.904000
v 2.478074 4.145562 0.901172
v 2.475958 4.146625 0.901691
v 2.475329 4.146246 0.904000
v 2.476013 4.148991 0.901172
v 2.477790 4.144425 1.172000
v 2.478758 4.148307 1.176000
v 2.474877 4.149274 1.172000
v 2.478074 4.145562 1.174828
v 2.475958 4.146625 1.174309
v 2.476013 4.148991 1.174828
v 2.475329 4.146246 1.172000
v 2.493757 4.208465 0.900000
v 2.489876 4.209433 0.904000
v 2.494725 4.212346 0.904000
v 2.491013 4.209149 0.901172
v 2.492075 4.211265 0.901691
v 2.491697 4.211894 0.904000
v 2.494441 4.211209 0.901172
v 2.493757 4.208465 1.176000
v 2.494725 4.212346 1.172000
v 2.489876 4.209433 1.172000
v 2.494441 4.211209 1.174828
v 2.492075 4.211265 1.174309
v 2.491697 4.211894 1.172000
v 2.491013 4.209149 1.174828
v 2.626243 4.111535 0.900000
v 2.630124 4.110567 0.904000
v 2.625275 4.107654 0.904000
v 2.628987 4.110850 0.901172
v 2.627925 4.108735 0.901691
v 2.628303 4.108106 0.904000
v 2.625559 4.108790 0.901172
v 2.626243 4.111535 1.176000
v 2.625275 4.107654 1.172000
v 2.630124 4.110567 1.172000
v 2.625559 4.108790 1.174828
v 2.627925 4.108735 1.174309
v 2.628303 4.108106 1.172000
v 2.628987 4.110850 1.174828
v 2.641242 4.171693 0.900000
v 2.642210 4.175574 0.904000
v 2.645123 4.170725 0.904000
v 2.641926 4.174438 0.901172
v 2.644042 4.173375 0.901691
v 2.644671 4.173753 0.904000
v 2.643986 4.171009 0.901172
v 2.641242 4.171693 1.176000
v 2.645123 4.170725 1.172000
v 2.642210 4.175574 1.172000
v 2.643986 4.171009 1.174828
v 2.644042 4.173375 1.174309
v 2.644671 4.173753 1.172000
v 2.641926 4.174438 1.174828
v 2.478074 4.145562 0.901172
v 2.475958 4.146625 0.901691
v 2.475958 4.146625 0.901691
v 2.476013 4.148991 0.901172
v 2.475329 4.146246 0.904000
v 2.478074 4.145562 1.174828
v 2.475958 4.146625 1.174309
v 2.475958 4.146625 1.174309
v 2.475329 4.146246 1.172000
v 2.476013 4.148991 1.174828
v 2.491013 4.209149 0.901172
v 2.492075 4.211265 0.901691
v 2.492075 4.211265 0.901691
v 2.494441 4.211209 0.901172
v 2.491697 4.211894 0.904000
v 2.494441 4.211209 1.174828
v 2.492075 4.211265 1.174309
v 2.492075 4.211265 1.174309
v 2.491013 4.209149 1.174828
v 2.491697 4.211894 1.172000
v 2.628987 4.110850 0.901172
v 2.627925 4.108735 0.901691
v 2.627925 4.108735 0.901691
v 2.625559 4.108790 0.901172
v 2.628303 4.108106 0.904000
v 2.625559 4.108790 1.174828
v 2.627925 4.108735 1.174309
v 2.627925 4.108735 1.174309
v 2.628987 4.110850 1.174828
v 2.628303 4.108106 1.172000
v 2.641926 4.174438 0.901172
v 2.644042 4.173375 0.901691
v 2.644042 4.173375 0.901691
v 2.643986 4.171009 0.901172
v 2.644671 4.173753 0.904000
v 2.643986 4.171009 1.174828
v 2.644042 4.173375 1.174309
v 2.644042 4.173375 1.174309
v 2.641926 4.174438 1.174828
v 2.644671 4.173753 1.172000
s 0
f 127 133 104 98
f 141 147 134 126
f 146 118 105 132
f 99 106 120 112
f 113 119 148 140
f 97 153 154 156
f 98 157 155 100
f 99 103 101 102
f 104 158 159 161
f 105 162 160 107
f 106 110 108 109
f 111 163 164 166
f 112 167 165 114
f 113 117 115 116
f 118 168 169 171
f 119 172 170 121
f 120 124 122 123
f 125 173 174 176
f 126 177 175 128
f 127 131 129 130
f 132 178 179 181
f 133 182 180 135
f 134 138 136 137
f 139 183 184 186
f 140 187 185 142
f 141 145 143 144
f 146 188 189 191
f 147 192 190 149
f 148 152 150 151
f 111 97 156 163
f 114 103 99 112
f 98 104 161 157
f 102 110 106 99
f 105 118 171 162
f 109 124 120 106
f 119 113 116 172
f 123 167 112 120
f 139 111 166 183
f 142 117 113 140
f 118 146 191 168
f 121 152 148 119
f 147 141 144 192
f 151 187 140 148
f 125 139 186 173
f 128 145 141 126
f 146 132 181 188
f 149 138 134 147
f 133 127 130 182
f 137 177 126 134
f 97 125 176 153
f 100 131 127 98
f 132 105 107 178
f 135 158 104 133
f 111 139 125 97
o pantry_box_1_body
v 9.564000 1.019000 1.664000
v 9.564000 1.015000 1.668000
v 9.560000 1.019000 1.668000
v 9.564000 1.016172 1.665172
v 9.561691 1.016690 1.665691
v 9.561172 1.016172 1.668000
v 9.561172 1.019000 1.665172
v 9.564000 1.015000 1.936000
v 9.564000 1.019000 1.940000
v 9.560000 1.019000 1.936000
v 9.564000 1.016172 1.938828
v 9.561691 1.016690 1.938309
v 9.561172 1.019000 1.938828
v 9.561172 1.016172 1.936000
v 9.564000 1.081000 1.664000
v 9.560000 1.081000 1.668000
v 9.564000 1.085000 1.668000
v 9.561172 1.081000 1.665172
v 9.561691 1.083309 1.665691
v 9.561172 1.083828 1.668000
v 9.564000 1.083828 1.665172
v 9.564000 1.081000 1.940000
v 9.564000 1.085000 1.936000
v 9.560000 1.081000 1.936000
v 9.564000 1.083828 1.938828
v 9.561691 1.083309 1.938309
v 9.561172 1.083828 1.936000
v 9.561172 1.081000 1.938828
v 9.716001 1.019000 1.664000
v 9.720000 1.019000 1.668000
v 9.716001 1.015000 1.668000
v 9.718829 1.019000 1.665172
v 9.718309 1.016690 1.665691
v 9.718829 1.016172 1.668000
v 9.716001 1.016172 1.665172
v 9.716001 1.019000 1.940000
v 9.716001 1.015000 1.936000
v 9.720000 1.019000 1.936000
v 9.716001 1.016172 1.938828
v 9.718309 1.016690 1.938309
v 9.718829 1.016172 1.936000
v 9.718829 1.019000 1.938828
v 9.716001 1.081000 1.664000
v 9.716001 1.085000 1.668000
v 9.720000 1.081000 1.668000
v 9.716001 1.083828 1.665172
v 9.718309 1.083309 1.665691
v 9.718829 1.083828 1.668000
v 9.718829 1.081000 1.665172
v 9.716001 1.081000 1.940000
v 9.720000 1.081000 1.936000
v 9.716001 1.085000 1.936000
v 9.718829 1.081000 1.938828
v 9.718309 1.083309 1.938309
v 9.718829 1.083828 1.936000
v 9.716001 1.083828 1.938828
v 9.564000 1.016172 1.665172
v 9.561691 1.016690 1.665691
v 9.561691 1.016690 1.665691
v 9.561172 1.019000 1.665172
v 9.561172 1.016172 1.668000
v 9.564000 1.016172 1.938828
v 9.561691 1.016690 1.938309
v 9.561691 1.016690 1.938309
v 9.561172 1.016172 1.936000
v 9.561172 1.019000 1.938828
v 9.561172 1.081000 1.665172
v 9.561691 1.083309 1.665691
v 9.561691 1.083309 1.665691
v 9.564000 1.083828 1.665172
v 9.561172 1.083828 1.668000
v 9.564000 1.083828 1.938828
v 9.561691 1.083309 1.938309
v 9.561691 1.083309 1.938309
v 9.561172 1.081000 1.938828
v 9.561172 1.083828 1.936000
v 9.718829 1.019000 1.665172
v 9.718309 1.016690 1.665691
v 9.718309 1.016690 1.665691
v 9.716001 1.016172 1.665172
v 9.718829 1.016172 1.668000
v 9.716001 1.016172 1.938828
v 9.718309 1.016690 1.938309
v 9.718309 1.016690 1.938309
v 9.718829 1.019000 1.938828
v 9.718829 1.016172 1.936000
v 9.716001 1.083828 1.665172
v 9.718309 1.083309 1.665691
v 9.718309 1.083309 1.665691
v 9.718829 1.081000 1.665172
v 9.718829 1.083828 1.668000
v 9.718829 1.081000 1.938828
v 9.718309 1.083309 1.938309
v 9.718309 1.083309 1.938309
v 9.716001 1.083828 1.938828
v 9.718829 1.083828 1.936000
s 0
f 223 229 200 194
f 237 243 230 222
f 242 214 201 228
f 195 202 216 208
f 209 215 244 236
f 193 249 250 252
f 194 253 251 196
f 195 199 197 198
f 200 254 255 257
f 201 258 256 203
f 202 206 204 205
f 207 259 260 262
f 208 263 261 210
f 209 213 211 212
f 214 264 265 267
f 215 268 266 217
f 216 220 218 219
f 221 269 270 272
f 222 273 271 224
f 223 227 225 226
f 228 274 275 277
f 229 278 276 231
f 230 234 232 233
f 235 279 280 282
f 236 283 281 238
f 237 241 239 240
f 242 284 285 287
f 243 288 286 245
f 244 248 246 247
f 207 193 252 259
f 210 199 195 208
f 194 200 257 253
f 198 206 202 195
f 201 214 267 258
f 205 220 216 202
f 215 209 212 268
f 219 263 208 216
f 235 207 262 279
f 238 213 209 236
f 214 242 287 264
f 217 248 244 215
f 243 237 240 288
f 247 283 236 244
f 221 235 282 269
f 224 241 237 222
f 242 228 277 284
f 245 234 230 243
f 229 223 226 278
f 233 273 222 230
f 193 221 272 249
f 196 227 223 194
f 228 201 203 274
f 231 254 200 229
f 207 235 221 193
o pantry_box_2_body
v 8.369574 1.033611 1.664000
v 8.368833 1.029680 1.668000
v 8.365643 1.034352 1.668000
v 8.369050 1.030831 1.665172
v 8.366877 1.031769 1.665691
v 8.366270 1.031355 1.668000
v 8.366794 1.034135 1.665172
v 8.368833 1.029680 1.936000
v 8.369574 1.033611 1.940000
v 8.365643 1.034352 1.936000
v 8.369050 1.030831 1.938828
v 8.366877 1.031769 1.938309
v 8.366794 1.034135 1.938828
v 8.366270 1.031355 1.936000
v 8.381056 1.094538 1.664000
v 8.377125 1.095279 1.668000
v 8.381796 1.098469 1.668000
v 8.378276 1.095062 1.665172
v 8.379213 1.097235 1.665691
v 8.378799 1.097842 1.668000
v 8.381579 1.097318 1.665172
v 8.381056 1.094538 1.940000
v 8.381796 1.098469 1.936000
v 8.377125 1.095279 1.936000
v 8.381579 1.097318 1.938828
v 8.379213 1.097235 1.938309
v 8.378799 1.097842 1.936000
v 8.378276 1.095062 1.938828
v 8.518944 1.005462 1.664000
v 8.522875 1.004721 1.668000
v 8.518204 1.001531 1.668000
v 8.521724 1.004938 1.665172
v 8.520786 1.002764 1.665691
v 8.521200 1.002158 1.668000
v 8.518420 1.002682 1.665172
v 8.518944 1.005462 1.940000
v 8.518204 1.001531 1.936000
v 8.522875 1.004721 1.936000
v 8.518420 1.002682 1.938828
v 8.520786 1.002764 1.938309
v 8.521200 1.002158 1.936000
v 8.521724 1.004938 1.938828
v 8.530426 1.066389 1.664000
v 8.531167 1.070320 1.668000
v 8.534357 1.065648 1.668000
v 8.530950 1.069169 1.665172
v 8.533123 1.068231 1.665691
v 8.533730 1.068645 1.668000
v 8.533206 1.065865 1.665172
v 8.530426 1.066389 1.940000
v 8.534357 1.065648 1.936000
v 8.531167 1.070320 1.936000
v 8.533206 1.065865 1.938828
v 8.533123 1.068231 1.938309
v 8.533730 1.068645 1.936000
v 8.530950 1.069169 1.938828
v 8.369050 1.030831 1.665172
v 8.366877 1.031769 1.665691
v 8.366877 1.031769 1.665691
v 8.366794 1.034135 1.665172
v 8.366270 1.031355 1.668000
v 8.369050 1.030831 1.938828
v 8.366877 1.031769 1.938309
v 8.366877 1.031769 1.938309
v 8.366270 1.031355 1.936000
v 8.366794 1.034135 1.938828
v 8.378276 1.095062 1.665172
v 8.379213 1.097235 1.665691
v 8.379213 1.097235 1.665691
v 8.381579 1.097318 1.665172
v 8.378799 1.097842 1.668000
v 8.381579 1.097318 1.938828
v 8.379213 1.097235 1.938309
v 8.379213 1.097235 1.938309
v 8.378276 1.095062 1.938828
v 8.378799 1.097842 1.936000
v 8.521724 1.004938 1.665172
v 8.520786 1.002764 1.665691
v 8.520786 1.002764 1.665691
v 8.518420 1.002682 1.665172
v 8.521200 1.002158 1.668000
v 8.518420 1.002682 1.938828
v 8.520786 1.002764 1.938309
v 8.520786 1.002764 1.938309
v 8.521724 1.004938 1.938828
v 8.521200 1.002158 1.936000
v 8.530950 1.069169 1.665172
v 8.533123 1.068231 1.665691
v 8.533123 1.068231 1.665691
v 8.533206 1.065865 1.665172
v 8.533730 1.068645 1.668000
v 8.533206 1.065865 1.938828
v 8.533123 1.068231 1.938309
v 8.533123 1.068231 1.938309
v 8.530950 1.069169 1.938828
v 8.533730 1.068645 1.936000
s 0
f 319 325 296 290
f 333 339 326 318
f 338 310 297 324
f 291 298 312 304
f 305 311 340 332
f 289 345 346 348
f 290 349 347 292
f 291 295 293 294
f 296 350 351 353
f 297 354 352 299
f 298 302 300 301
f 303 355 356 358
f 304 359 357 306
f 305 309 307 308
f 310 360 361 363
f 311 364 362 313
f 312 316 314 315
f 317 365 366 368
f 318 369 367 320
f 319 323 321 322
f 324 370 371 373
f 325 374 372 327
f 326 330 328 329
f 331 375 376 378
f 332 379 377 334
f 333 337 335 336
f 338 380 381 383
f 339 384 382 341
f 340 344 342 343
f 303 289 348 355
f 306 295 291 304
f 290 296 353 349
f 294 302 298 291
f 297 310 363 354
f 301 316 312 298
f 311 305 308 364
f 315 359 304 312
f 331 303 358 375
f 334 309 305 332
f 310 338 383 360
f 313 344 340 311
f 339 333 336 384
f 343 379 332 340
f 317 331 378 365
f 320 337 333 318
f 338 324 373 380
f 341 330 326 339
f 325 319 322 374
f 329 369 318 326
f 289 317 368 345
f 292 323 319 290
f 324 297 299 370
f 327 350 296 325
f 303 331 317 289
o pantry_box_3_body
v 9.564000 1.469000 1.114000
v 9.564000 1.465000 1.118000
v 9.560000 1.469000 1.118000
v 9.564000 1.466172 1.115172
v 9.561691 1.466691 1.115691
v 9.561172 1.466172 1.118000
v 9.561172 1.469000 1.115172
v 9.564000 1.465000 1.386000
v 9.564000 1.469000 1.390000
v 9.560000 1.469000 1.386000
v 9.564000 1.466172 1.388828
v 9.561691 1.466691 1.388309
v 9.561172 1.469000 1.388828
v 9.561172 1.466172 1.386000
v 9.564000 1.531000 1.114000
v 9.560000 1.531000 1.118000
v 9.564000 1.535000 1.118000
v 9.561172 1.531000 1.115172
v 9.561691 1.533309 1.115691
v 9.561172 1.533828 1.118000
v 9.564000 1.533828 1.115172
v 9.564000 1.531000 1.390000
v 9.564000 1.535000 1.386000
v 9.560000 1.531000 1.386000
v 9.564000 1.533828 1.388828
v 9.561691 1.533309 1.388309
v 9.561172 1.533828 1.386000
v 9.561172 1.531000 1.388828
v 9.716001 1.469000 1.114000
v 9.720000 1.469000 1.118000
v 9.716001 1.465000 1.118000
v 9.718829 1.469000 1.115172
v 9.718309 1.466691 1.115691
v 9.718829 1.466172 1.118000
v 9.716001 1.466172 1.115172
v 9.716001 1.469000 1.390000
v 9.716001 1.465000 1.386000
v 9.720000 1.469000 1.386000
v 9.716001 1.466172 1.388828
v 9.718309 1.466691 1.388309
v 9.718829 1.466172 1.386000
v 9.718829 1.469000 1.388828
v 9.716001 1.531000 1.114000
v 9.716001 1.535000 1.118000
v 9.720000 1.531000 1.118000
v 9.716001 1.533828 1.115172
v 9.718309 1.533309 1.115691
v 9.718829 1.533828 1.118000
v 9.718829 1.531000 1.115172
v 9.716001 1.531000 1.390000
v 9.720000 1.531000 1.386000
v 9.716001 1.535000 1.386000
v 9.718829 1.531000 1.388828
v 9.718309 1.533309 1.388309
v 9.718829 1.533828 1.386000
v 9.716001 1.533828 1.388828
v 9.564000 1.466172 1.115172
v 9.561691 1.466691 1.115691
v 9.561691 1.466691 1.115691
v 9.561172 1.469000 1.115172
v 9.561172 1.466172 1.118000
v 9.564000 1.466172 1.388828
v 9.561691 1.466691 1.388309
v 9.561691 1.466691 1.388309
v 9.561172 1.466172 1.386000
v 9.561172 1.469000 1.388828
v 9.561172 1.531000 1.115172
v 9.561691 1.533309 1.115691
v 9.561691 1.533309 1.115691
v 9.564000 1.533828 1.115172
v 9.561172 1.533828 1.118000
v 9.564000 1.533828 1.388828
v 9.561691 1.533309 1.388309
v 9.561691 1.533309 1.388309
v 9.561172 1.531000 1.388828
v 9.561172 1.533828 1.386000
v 9.718829 1.469000 1.115172
v 9.718309 1.466691 1.115691
v 9.718309 1.466691 1.115691
v 9.716001 1.466172 1.115172
v 9.718829 1.466172 1.118000
v 9.716001 1.466172 1.388828
v 9.718309 1.466691 1.388309
v 9.718309 1.466691 1.388309
v 9.718829 1.469000 1.388828
v 9.718829 1.466172 1.386000
v 9.716001 1.533828 1.115172
v 9.718309 1.533309 1.115691
v 9.718309 1.533309 1.115691
v 9.718829 1.531000 1.115172
v 9.718829 1.533828 1.118000
v 9.718829 1.531000 1.388828
v 9.718309 1.533309 1.388309
v 9.718309 1.533309 1.388309
v 9.716001 1.533828 1.388828
v 9.718829 1.533828 1.386000
s 0
f 415 421 392 386
f 429 435 422 414
f 434 406 393 420
f 387 394 408 400
f 401 407 436 428
f 385 441 442 444
f 386 445 443 388
f 387 391 389 390
f 392 446 447 449
f 393 450 448 395
f 394 398 396 397
f 399 451 452 454
f 400 455 453 402
f 401 405 403 404
f 406 456 457 459
f 407 460 458 409
f 408 412 410 411
f 413 461 462 464
f 414 465 463 416
f 415 419 417 418
f 420 466 467 469
f 421 470 468 423
f 422 426 424 425
f 427 471 472 474
f 428 475 473 430
f 429 433 431 432
f 434 476 477 479
f 435 480 478 437
f 436 440 438 439
f 399 385 444 451
f 402 391 387 400
f 386 392 449 445
f 390 398 394 387
f 393 406 459 450
f 397 412 408 394
f 407 401 404 460
f 411 455 400 408
f 427 399 454 471
f 430 405 401 428
f 406 434 479 456
f 409 440 436 407
f 435 429 432 480
f 439 475 428 436
f 413 427 474 461
f 416 433 429 414
f 434 420 469 476
f 437 426 422 435
f 421 415 418 470
f 425 465 414 422
f 385 413 464 441
f 388 419 415 386
f 420 393 395 466
f 423 446 392 421
f 399 427 413 385
o pantry_box_4_body
v 8.369354 1.484727 1.114000
v 8.368559 1.480807 1.118000
v 8.365434 1.485522 1.118000
v 8.368792 1.481955 1.115172
v 8.366632 1.482923 1.115691
v 8.366020 1.482517 1.118000
v 8.366582 1.485289 1.115172
v 8.368559 1.480807 1.386000
v 8.369354 1.484727 1.390000
v 8.365434 1.485522 1.386000
v 8.368792 1.481955 1.388828
v 8.366632 1.482923 1.388309
v 8.366582 1.485289 1.388828
v 8.366020 1.482517 1.386000
v 8.381680 1.545489 1.114000
v 8.377759 1.546285 1.118000
v 8.382474 1.549410 1.118000
v 8.378907 1.546052 1.115172
v 8.379875 1.548212 1.115691
v 8.379470 1.548824 1.118000
v 8.382241 1.548261 1.115172
v 8.381680 1.545489 1.390000
v 8.382474 1.549410 1.386000
v 8.377759 1.546285 1.386000
v 8.382241 1.548261 1.388828
v 8.379875 1.548212 1.388309
v 8.379470 1.548824 1.386000
v 8.378907 1.546052 1.388828
v 8.518320 1.454511 1.114000
v 8.522241 1.453715 1.118000
v 8.517526 1.450590 1.118000
v 8.521092 1.453948 1.115172
v 8.520124 1.451788 1.115691
v 8.520530 1.451176 1.118000
v 8.517758 1.451739 1.115172
v 8.518320 1.454511 1.390000
v 8.517526 1.450590 1.386000
v 8.522241 1.453715 1.386000
v 8.517758 1.451739 1.388828
v 8.520124 1.451788 1.388309
v 8.520530 1.451176 1.386000
v 8.521092 1.453948 1.388828
v 8.530645 1.515273 1.114000
v 8.531441 1.519193 1.118000
v 8.534566 1.514478 1.118000
v 8.531208 1.518045 1.115172
v 8.533368 1.517077 1.115691
v 8.533979 1.517483 1.118000
v 8.533418 1.514711 1.115172
v 8.530645 1.515273 1.390000
v 8.534566 1.514478 1.386000
v 8.531441 1.519193 1.386000
v 8.533418 1.514711 1.388828
v 8.533368 1.517077 1.388309
v 8.533979 1.517483 1.386000
v 8.531208 1.518045 1.388828
v 8.368792 1.481955 1.115172
v 8.366632 1.482923 1.115691
v 8.366632 1.482923 1.115691
v 8.366582 1.485289 1.115172
v 8.366020 1.482517 1.118000
v 8.368792 1.481955 1.388828
v 8.366632 1.482923 1.388309
v 8.366632 1.482923 1.388309
v 8.366020 1.482517 1.386000
v 8.366582 1.485289 1.388828
v 8.378907 1.546052 1.115172
v 8.379875 1.548212 1.115691
v 8.379875 1.548212 1.115691
v 8.382241 1.548261 1.115172
v 8.379470 1.548824 1.118000
v 8.382241 1.548261 1.388828
v 8.379875 1.548212 1.388309
v 8.379875 1.548212 1.388309
v 8.378907 1.546052 1.388828
v 8.379470 1.548824 1.386000
v 8.521092 1.453948 1.115172
v 8.520124 1.451788 1.115691
v 8.520124 1.451788 1.115691
v 8.517758 1.451739 1.115172
v 8.520530 1.451176 1.118000
v 8.517758 1.451739 1.388828
v 8.520124 1.451788 1.388309
v 8.520124 1.451788 1.388309
v 8.521092 1.453948 1.388828
v 8.520530 1.451176 1.386000
v 8.531208 1.518045 1.115172
v 8.533368 1.517077 1.115691
v 8.533368 1.517077 1.115691
v 8.533418 1.514711 1.115172
v 8.533979 1.517483 1.118000
v 8.533418 1.514711 1.388828
v 8.533368 1.517077 1.388309
v 8.533368 1.517077 1.388309
v 8.531208 1.518045 1.388828
v 8.533979 1.517483 1.386000
s 0
f 511 517 488 482
f 525 531 518 510
f 530 502 489 516
f 483 490 504 496
f 497 503 532 524
f 481 537 538 540
f 482 541 539 484
f 483 487 485 486
f 488 542 543 545
f 489 546 544 491
f 490 494 492 493
f 495 547 548 550
f 496 551 549 498
f 497 501 499 500
f 502 552 553 555
f 503 556 554 505
f 504 508 506 507
f 509 557 558 560
f 510 561 559 512
f 511 515 513 514
f 516 562 563 565
f 517 566 564 519
f 518 522 520 521
f 523 567 568 570
f 524 571 569 526
f 525 529 527 528
f 530 572 573 575
f 531 576 574 533
f 532 536 534 535
f 495 481 540 547
f 498 487 483 496
f 482 488 545 541
f 486 494 490 483
f 489 502 555 546
f 493 508 504 490
f 503 497 500 556
f 507 551 496 504
f 523 495 550 567
f 526 501 497 524
f 502 530 575 552
f 505 536 532 503
f 531 525 528 576
f 535 571 524 532
f 509 523 570 557
f 512 529 525 510
f 530 516 565 572
f 533 522 518 531
f 517 511 514 566
f 521 561 510 518
f 481 509 560 537
f 484 515 511 482
f 516 489 491 562
f 519 542 488 517
f 495 523 509 481
o cereal_box_pantry_body
v 8.399055 1.708724 1.114000
v 8.399611 1.704763 1.118000
v 8.395093 1.708168 1.118000
v 8.399447 1.705924 1.115172
v 8.397089 1.706116 1.115691
v 8.396647 1.705530 1.118000
v 8.396254 1.708331 1.115172
v 8.399611 1.704763 1.386000
v 8.399055 1.708724 1.390000
v 8.395093 1.708168 1.386000
v 8.399447 1.705924 1.388828
v 8.397089 1.706116 1.388309
v 8.396254 1.708331 1.388828
v 8.396647 1.705530 1.386000
v 8.390426 1.770121 1.114000
v 8.386464 1.769565 1.118000
v 8.389869 1.774082 1.118000
v 8.387625 1.769727 1.115172
v 8.387817 1.772087 1.115691
v 8.387231 1.772528 1.118000
v 8.390032 1.772922 1.115172
v 8.390426 1.770121 1.390000
v 8.389869 1.774082 1.386000
v 8.386464 1.769565 1.386000
v 8.390032 1.772922 1.388828
v 8.387817 1.772087 1.388309
v 8.387231 1.772528 1.386000
v 8.387625 1.769727 1.388828
v 8.549575 1.729879 1.114000
v 8.553536 1.730435 1.118000
v 8.550132 1.725918 1.118000
v 8.552376 1.730273 1.115172
v 8.552183 1.727913 1.115691
v 8.552770 1.727472 1.118000
v 8.549969 1.727078 1.115172
v 8.549575 1.729879 1.390000
v 8.550132 1.725918 1.386000
v 8.553536 1.730435 1.386000
v 8.549969 1.727078 1.388828
v 8.552183 1.727913 1.388309
v 8.552770 1.727472 1.386000
v 8.552376 1.730273 1.388828
v 8.540946 1.791276 1.114000
v 8.540390 1.795237 1.118000
v 8.544908 1.791832 1.118000
v 8.540553 1.794076 1.115172
v 8.542912 1.793884 1.115691
v 8.543353 1.794470 1.118000
v 8.543747 1.791669 1.115172
v 8.540946 1.791276 1.390000
v 8.544908 1.791832 1.386000
v 8.540390 1.795237 1.386000
v 8.543747 1.791669 1.388828
v 8.542912 1.793884 1.388309
v 8.543353 1.794470 1.386000
v 8.540553 1.794076 1.388828
v 8.399447 1.705924 1.115172
v 8.397089 1.706116 1.115691
v 8.397089 1.706116 1.115691
v 8.396254 1.708331 1.115172
v 8.396647 1.705530 1.118000
v 8.399447 1.705924 1.388828
v 8.397089 1.706116 1.388309
v 8.397089 1.706116 1.388309
v 8.396647 1.705530 1.386000
v 8.396254 1.708331 1.388828
v 8.387625 1.769727 1.115172
v 8.387817 1.772087 1.115691
v 8.387817 1.772087 1.115691
v 8.390032 1.772922 1.115172
v 8.387231 1.772528 1.118000
v 8.390032 1.772922 1.388828
v 8.387817 1.772087 1.388309
v 8.387817 1.772087 1.388309
v 8.387625 1.769727 1.388828
v 8.387231 1.772528 1.386000
v 8.552376 1.730273 1.115172
v 8.552183 1.727913 1.115691
v 8.552183 1.727913 1.115691
v 8.549969 1.727078 1.115172
v 8.552770 1.727472 1.118000
v 8.549969 1.727078 1.388828
v 8.552183 1.727913 1.388309
v 8.552183 1.727913 1.388309
v 8.552376 1.730273 1.388828
v 8.552770 1.727472 1.386000
v 8.540553 1.794076 1.115172
v 8.542912 1.793884 1.115691
v 8.542912 1.793884 1.115691
v 8.543747 1.791669 1.115172
v 8.543353 1.794470 1.118000
v 8.543747 1.791669 1.388828
v 8.542912 1.793884 1.388309
v 8.542912 1.793884 1.388309
v 8.540553 1.794076 1.388828
v 8.543353 1.794470 1.386000
s 0
f 607 613 584 578
f 621 627 614 606
f 626 598 585 612
f 579 586 600 592
f 593 599 628 620
f 577 633 634 636
f 578 637 635 580
f 579 583 581 582
f 584 638 639 641
f 585 642 640 587
f 586 590 588 589
f 591 643 644 646
f 592 647 645 594
f 593 597 595 596
f 598 648 649 651
f 599 652 650 601
f 600 604 602 603
f 605 653 654 656
f 606 657 655 608
f 607 611 609 610
f 612 658 659 661
f 613 662 660 615
f 614 618 616 617
f 619 663 664 666
f 620 667 665 622
f 621 625 623 624
f 626 668 669 671
f 627 672 670 629
f 628 632 630 631
f 591 577 636 643
f 594 583 579 592
f 578 584 641 637
f 582 590 586 579
f 585 598 651 642
f 589 604 600 586
f 599 593 596 652
f 603 647 592 600
f 619 591 646 663
f 622 597 593 620
f 598 626 671 648
f 601 632 628 599
f 627 621 624 672
f 631 667 620 628
f 605 619 666 653
f 608 625 621 606
f 626 612 661 668
f 629 618 614 627
f 613 607 610 662
f 617 657 606 614
f 577 605 656 633
f 580 611 607 578
f 612 585 587 658
f 615 638 584 613
f 591 619 605 577
