# Blender 4.1.1
# www.blender.org
o floor_slab
v -0.148000 -0.148000 -0.120000
v -0.148000 -0.150000 -0.118000
v -0.150000 -0.148000 -0.118000
v -0.148000 -0.149414 -0.119414
v -0.149155 -0.149154 -0.119155
v -0.149415 -0.149414 -0.118000
v -0.149415 -0.148000 -0.119414
v -0.148000 -0.150000 -0.002000
v -0.148000 -0.148000 0.000000
v -0.150000 -0.148000 -0.002000
v -0.148000 -0.149414 -0.000586
v -0.149155 -0.149154 -0.000845
v -0.149415 -0.148000 -0.000586
v -0.149415 -0.149414 -0.002000
v -0.148000 7.548000 -0.120000
v -0.150000 7.548000 -0.118000
v -0.148000 7.550000 -0.118000
v -0.149415 7.548000 -0.119414
v -0.149155 7.549154 -0.119155
v -0.149415 7.549414 -0.118000
v -0.148000 7.549414 -0.119414
v -0.148000 7.548000 0.000000
v -0.148000 7.550000 -0.002000
v -0.150000 7.548000 -0.002000
v -0.148000 7.549414 -0.000586
v -0.149155 7.549154 -0.000845
v -0.149415 7.549414 -0.002000
v -0.149415 7.548000 -0.000586
v 9.948000 -0.148000 -0.120000
v 9.950001 -0.148000 -0.118000
v 9.948000 -0.150000 -0.118000
v 9.949415 -0.148000 -0.119414
v 9.949155 -0.149154 -0.119155
v 9.949415 -0.149414 -0.118000
v 9.948000 -0.149414 -0.119414
v 9.948000 -0.148000 0.000000
v 9.948000 -0.150000 -0.002000
v 9.950001 -0.148000 -0.002000
v 9.948000 -0.149414 -0.000586
v 9.949155 -0.149154 -0.000845
v 9.949415 -0.149414 -0.002000
v 9.949415 -0.148000 -0.000586
v 9.948000 7.548000 -0.120000
v 9.948000 7.550000 -0.118000
v 9.950001 7.548000 -0.118000
v 9.948000 7.549414 -0.119414
v 9.949155 7.549154 -0.119155
v 9.949415 7.549414 -0.118000
v 9.949415 7.548000 -0.119414
v 9.948000 7.548000 0.000000
v 9.950001 7.548000 -0.002000
v 9.948000 7.550000 -0.002000
v 9.949415 7.548000 -0.000586
v 9.949155 7.549154 -0.000845
v 9.949415 7.549414 -0.002000
v 9.948000 7.549414 -0.000586
v -0.148000 -0.149414 -0.119414
v -0.149155 -0.149154 -0.119155
v -0.149155 -0.149154 -0.119155
v -0.149415 -0.148000 -0.119414
v -0.149415 -0.149414 -0.118000
v -0.148000 -0.149414 -0.000586
v -0.149155 -0.149154 -0.000845
v -0.149155 -0.149154 -0.000845
v -0.149415 -0.149414 -0.002000
v -0.149415 -0.148000 -0.000586
v -0.149415 7.548000 -0.119414
v -0.149155 7.549154 -0.119155
v -0.149155 7.549154 -0.119155
v -0.148000 7.549414 -0.119414
v -0.149415 7.549414 -0.118000
v -0.148000 7.549414 -0.000586
v -0.149155 7.549154 -0.000845
v -0.149155 7.549154 -0.000845
v -0.149415 7.548000 -0.000586
v -0.149415 7.549414 -0.002000
v 9.949415 -0.148000 -0.119414
v 9.949155 -0.149154 -0.119155
v 9.949155 -0.149154 -0.119155
v 9.948000 -0.149414 -0.119414
v 9.949415 -0.149414 -0.118000
v 9.948000 -0.149414 -0.000586
v 9.949155 -0.149154 -0.000845
v 9.949155 -0.149154 -0.000845
v 9.949415 -0.148000 -0.000586
v 9.949415 -0.149414 -0.002000
v 9.948000 7.549414 -0.119414
v 9.949155 7.549154 -0.119155
v 9.949155 7.549154 -0.119155
v 9.949415 7.548000 -0.119414
v 9.949415 7.549414 -0.118000
v 9.949415 7.548000 -0.000586
v 9.949155 7.549154 -0.000845
v 9.949155 7.549154 -0.000845
v 9.948000 7.549414 -0.000586
v 9.949415 7.549414 -0.002000
s 0
f 31 37 8 2
f 45 51 38 30
f 50 22 9 36
f 3 10 24 16
f 17 23 52 44
f 1 57 58 60
f 2 61 59 4
f 3 7 5 6
f 8 62 63 65
f 9 66 64 11
f 10 14 12 13
f 15 67 68 70
f 16 71 69 18
f 17 21 19 20
f 22 72 73 75
f 23 76 74 25
f 24 28 26 27
f 29 77 78 80
f 30 81 79 32
f 31 35 33 34
f 36 82 83 85
f 37 86 84 39
f 38 42 40 41
f 43 87 88 90
f 44 91 89 46
f 45 49 47 48
f 50 92 93 95
f 51 96 94 53
f 52 56 54 55
f 15 1 60 67
f 18 7 3 16
f 2 8 65 61
f 6 14 10 3
f 9 22 75 66
f 13 28 24 10
f 23 17 20 76
f 27 71 16 24
f 43 15 70 87
f 46 21 17 44
f 22 50 95 72
f 25 56 52 23
f 51 45 48 96
f 55 91 44 52
f 29 43 90 77
f 32 49 45 30
f 50 36 85 92
f 53 42 38 51
f 37 31 34 86
f 41 81 30 38
f 1 29 80 57
f 4 35 31 2
f 36 9 11 82
f 39 62 8 37
f 15 43 29 1
