# Blender 4.1.1
# www.blender.org
o up_door_b
v -0.007500 -0.492000 -0.397000
v -0.007500 -0.494000 -0.395000
v -0.009500 -0.492000 -0.395000
v -0.007500 -0.493414 -0.396414
v -0.008655 -0.493154 -0.396155
v -0.008914 -0.493414 -0.395000
v -0.008914 -0.492000 -0.396414
v -0.007500 -0.494000 0.395000
v -0.007500 -0.492000 0.397000
v -0.009500 -0.492000 0.395000
v -0.007500 -0.493414 0.396414
v -0.008655 -0.493154 0.396155
v -0.008914 -0.492000 0.396414
v -0.008914 -0.493414 0.395000
v -0.007500 -0.002000 -0.397000
v -0.009500 -0.002000 -0.395000
v -0.007500 -0.000000 -0.395000
v -0.008914 -0.002000 -0.396414
v -0.008655 -0.000845 -0.396155
v -0.008914 -0.000586 -0.395000
v -0.007500 -0.000586 -0.396414
v -0.007500 -0.002000 0.397000
v -0.007500 -0.000000 0.395000
v -0.009500 -0.002000 0.395000
v -0.007500 -0.000586 0.396414
v -0.008655 -0.000845 0.396155
v -0.008914 -0.000586 0.395000
v -0.008914 -0.002000 0.396414
v 0.007500 -0.492000 -0.397000
v 0.009500 -0.492000 -0.395000
v 0.007500 -0.494000 -0.395000
v 0.008914 -0.492000 -0.396414
v 0.008655 -0.493154 -0.396155
v 0.008914 -0.493414 -0.395000
v 0.007500 -0.493414 -0.396414
v 0.007500 -0.492000 0.397000
v 0.007500 -0.494000 0.395000
v 0.009500 -0.492000 0.395000
v 0.007500 -0.493414 0.396414
v 0.008655 -0.493154 0.396155
v 0.008914 -0.493414 0.395000
v 0.008914 -0.492000 0.396414
v 0.007500 -0.002000 -0.397000
v 0.007500 -0.000000 -0.395000
v 0.009500 -0.002000 -0.395000
v 0.007500 -0.000586 -0.396414
v 0.008655 -0.000845 -0.396155
v 0.008914 -0.000586 -0.395000
v 0.008914 -0.002000 -0.396414
v 0.007500 -0.002000 0.397000
v 0.009500 -0.002000 0.395000
v 0.007500 -0.000000 0.395000
v 0.008914 -0.002000 0.396414
v 0.008655 -0.000845 0.396155
v 0.008914 -0.000586 0.395000
v 0.007500 -0.000586 0.396414
v -0.007500 -0.493414 -0.396414
v -0.008655 -0.493154 -0.396155
v -0.008655 -0.493154 -0.396155
v -0.008914 -0.492000 -0.396414
v -0.008914 -0.493414 -0.395000
v -0.007500 -0.493414 0.396414
v -0.008655 -0.493154 0.396155
v -0.008655 -0.493154 0.396155
v -0.008914 -0.493414 0.395000
v -0.008914 -0.492000 0.396414
v -0.008914 -0.002000 -0.396414
v -0.008655 -0.000845 -0.396155
v -0.008655 -0.000845 -0.396155
v -0.007500 -0.000586 -0.396414
v -0.008914 -0.000586 -0.395000
v -0.007500 -0.000586 0.396414
v -0.008655 -0.000845 0.396155
v -0.008655 -0.000845 0.396155
v -0.008914 -0.002000 0.396414
v -0.008914 -0.000586 0.395000
v 0.008914 -0.492000 -0.396414
v 0.008655 -0.493154 -0.396155
v 0.008655 -0.493154 -0.396155
v 0.007500 -0.493414 -0.396414
v 0.008914 -0.493414 -0.395000
v 0.007500 -0.493414 0.396414
v 0.008655 -0.493154 0.396155
v 0.008655 -0.493154 0.396155
v 0.008914 -0.492000 0.396414
v 0.008914 -0.493414 0.395000
v 0.007500 -0.000586 -0.396414
v 0.008655 -0.000845 -0.396155
v 0.008655 -0.000845 -0.396155
v 0.008914 -0.002000 -0.396414
v 0.008914 -0.000586 -0.395000
v 0.008914 -0.002000 0.396414
v 0.008655 -0.000845 0.396155
v 0.008655 -0.000845 0.396155
v 0.007500 -0.000586 0.396414
v 0.008914 -0.000586 0.395000
s 0
f 31 37 8 2
f 45 51 38 30
f 50 22 9 36
f 3 10 24 16
f 17 23 52 44
f 1 57 58 60
f 2 61 59 4
f 3 7 5 6
f 8 62 63 65
f 9 66 64 11
f 10 14 12 13
f 15 67 68 70
f 16 71 69 18
f 17 21 19 20
f 22 72 73 75
f 23 76 74 25
f 24 28 26 27
f 29 77 78 80
f 30 81 79 32
f 31 35 33 34
f 36 82 83 85
f 37 86 84 39
f 38 42 40 41
f 43 87 88 90
f 44 91 89 46
f 45 49 47 48
f 50 92 93 95
f 51 96 94 53
f 52 56 54 55
f 15 1 60 67
f 18 7 3 16
f 2 8 65 61
f 6 14 10 3
f 9 22 75 66
f 13 28 24 10
f 23 17 20 76
f 27 71 16 24
f 43 15 70 87
f 46 21 17 44
f 22 50 95 72
f 25 56 52 23
f 51 45 48 96
f 55 91 44 52
f 29 43 90 77
f 32 49 45 30
f 50 36 85 92
f 53 42 38 51
f 37 31 34 86
f 41 81 30 38
f 1 29 80 57
f 4 35 31 2
f 36 9 11 82
f 39 62 8 37
f 15 43 29 1
o up_door_b_hst-0.15
v 0.009500 -0.439000 -0.150000
v 0.041500 -0.439000 -0.150000
v 0.009500 -0.439670 -0.152500
v 0.041500 -0.439670 -0.152500
v 0.009500 -0.441500 -0.154330
v 0.041500 -0.441500 -0.154330
v 0.009500 -0.444000 -0.155000
v 0.041500 -0.444000 -0.155000
v 0.009500 -0.446500 -0.154330
v 0.041500 -0.446500 -0.154330
v 0.009500 -0.448330 -0.152500
v 0.041500 -0.448330 -0.152500
v 0.009500 -0.449000 -0.150000
v 0.041500 -0.449000 -0.150000
v 0.009500 -0.448330 -0.147500
v 0.041500 -0.448330 -0.147500
v 0.009500 -0.446500 -0.145670
v 0.041500 -0.446500 -0.145670
v 0.009500 -0.444000 -0.145000
v 0.041500 -0.444000 -0.145000
v 0.009500 -0.441500 -0.145670
v 0.041500 -0.441500 -0.145670
v 0.009500 -0.439670 -0.147500
v 0.041500 -0.439670 -0.147500
s 1
f 97 98 100 99
f 99 100 102 101
f 101 102 104 103
f 103 104 106 105
f 105 106 108 107
f 107 108 110 109
f 109 110 112 111
f 111 112 114 113
f 113 114 116 115
f 115 116 118 117
f 100 98 120 118 116 114 112 110 108 106 104 102
f 117 118 120 119
f 119 120 98 97
f 97 99 101 103 105 107 109 111 113 115 117 119
o up_door_b_hst0.15
v 0.009500 -0.439000 0.150000
v 0.041500 -0.439000 0.150000
v 0.009500 -0.439670 0.147500
v 0.041500 -0.439670 0.147500
v 0.009500 -0.441500 0.145670
v 0.041500 -0.441500 0.145670
v 0.009500 -0.444000 0.145000
v 0.041500 -0.444000 0.145000
v 0.009500 -0.446500 0.145670
v 0.041500 -0.446500 0.145670
v 0.009500 -0.448330 0.147500
v 0.041500 -0.448330 0.147500
v 0.009500 -0.449000 0.150000
v 0.041500 -0.449000 0.150000
v 0.009500 -0.448330 0.152500
v 0.041500 -0.448330 0.152500
v 0.009500 -0.446500 0.154330
v 0.041500 -0.446500 0.154330
v 0.009500 -0.444000 0.155000
v 0.041500 -0.444000 0.155000
v 0.009500 -0.441500 0.154330
v 0.041500 -0.441500 0.154330
v 0.009500 -0.439670 0.152500
v 0.041500 -0.439670 0.152500
s 1
f 121 122 124 123
f 123 124 126 125
f 125 126 128 127
f 127 128 130 129
f 129 130 132 131
f 131 132 134 133
f 133 134 136 135
f 135 136 138 137
f 137 138 140 139
f 139 140 142 141
f 124 122 144 142 140 138 136 134 132 130 128 126
f 141 142 144 143
f 143 144 122 121
f 121 123 125 127 129 131 133 135 137 139 141 143
o up_door_b_hbar
v 0.041500 -0.436000 -0.150000
v 0.041500 -0.436000 0.150000
v 0.044971 -0.436792 -0.150000
v 0.044971 -0.436792 0.150000
v 0.047755 -0.439012 -0.150000
v 0.047755 -0.439012 0.150000
v 0.049299 -0.442220 -0.150000
v 0.049299 -0.442220 0.150000
v 0.049299 -0.445780 -0.150000
v 0.049299 -0.445780 0.150000
v 0.047755 -0.448987 -0.150000
v 0.047755 -0.448987 0.150000
v 0.044971 -0.451208 -0.150000
v 0.044971 -0.451208 0.150000
v 0.041500 -0.452000 -0.150000
v 0.041500 -0.452000 0.150000
v 0.038029 -0.451208 -0.150000
v 0.038029 -0.451208 0.150000
v 0.035245 -0.448987 -0.150000
v 0.035245 -0.448987 0.150000
v 0.033701 -0.445780 -0.150000
v 0.033701 -0.445780 0.150000
v 0.033701 -0.442220 -0.150000
v 0.033701 -0.442220 0.150000
v 0.035245 -0.439012 -0.150000
v 0.035245 -0.439012 0.150000
v 0.038029 -0.436792 -0.150000
v 0.038029 -0.436792 0.150000
s 1
f 145 146 148 147
f 147 148 150 149
f 149 150 152 151
f 151 152 154 153
f 153 154 156 155
f 155 156 158 157
f 157 158 160 159
f 159 160 162 161
f 161 162 164 163
f 163 164 166 165
f 165 166 168 167
f 167 168 170 169
f 148 146 172 170 168 166 164 162 160 158 156 154 152 150
f 169 170 172 171
f 171 172 146 145
f 145 147 149 151 153 155 157 159 161 163 165 167 169 171
