# Blender 4.1.1
# www.blender.org
o waste_pullout_door
v -0.007500 -0.295000 -0.372500
v -0.007500 -0.297000 -0.370500
v -0.009500 -0.295000 -0.370500
v -0.007500 -0.296414 -0.371914
v -0.008655 -0.296155 -0.371655
v -0.008914 -0.296414 -0.370500
v -0.008914 -0.295000 -0.371914
v -0.007500 -0.297000 0.370500
v -0.007500 -0.295000 0.372500
v -0.009500 -0.295000 0.370500
v -0.007500 -0.296414 0.371914
v -0.008655 -0.296155 0.371655
v -0.008914 -0.295000 0.371914
v -0.008914 -0.296414 0.370500
v -0.007500 0.295000 -0.372500
v -0.009500 0.295000 -0.370500
v -0.007500 0.297000 -0.370500
v -0.008914 0.295000 -0.371914
v -0.008655 0.296155 -0.371655
v -0.008914 0.296414 -0.370500
v -0.007500 0.296414 -0.371914
v -0.007500 0.295000 0.372500
v -0.007500 0.297000 0.370500
v -0.009500 0.295000 0.370500
v -0.007500 0.296414 0.371914
v -0.008655 0.296155 0.371655
v -0.008914 0.296414 0.370500
v -0.008914 0.295000 0.371914
v 0.007500 -0.295000 -0.372500
v 0.009500 -0.295000 -0.370500
v 0.007500 -0.297000 -0.370500
v 0.008914 -0.295000 -0.371914
v 0.008655 -0.296155 -0.371655
v 0.008914 -0.296414 -0.370500
v 0.007500 -0.296414 -0.371914
v 0.007500 -0.295000 0.372500
v 0.007500 -0.297000 0.370500
v 0.009500 -0.295000 0.370500
v 0.007500 -0.296414 0.371914
v 0.008655 -0.296155 0.371655
v 0.008914 -0.296414 0.370500
v 0.008914 -0.295000 0.371914
v 0.007500 0.295000 -0.372500
v 0.007500 0.297000 -0.370500
v 0.009500 0.295000 -0.370500
v 0.007500 0.296414 -0.371914
v 0.008655 0.296155 -0.371655
v 0.008914 0.296414 -0.370500
v 0.008914 0.295000 -0.371914
v 0.007500 0.295000 0.372500
v 0.009500 0.295000 0.370500
v 0.007500 0.297000 0.370500
v 0.008914 0.295000 0.371914
v 0.008655 0.296155 0.371655
v 0.008914 0.296414 0.370500
v 0.007500 0.296414 0.371914
v -0.007500 -0.296414 -0.371914
v -0.008655 -0.296155 -0.371655
v -0.008655 -0.296155 -0.371655
v -0.008914 -0.295000 -0.371914
v -0.008914 -0.296414 -0.370500
v -0.007500 -0.296414 0.371914
v -0.008655 -0.296155 0.371655
v -0.008655 -0.296155 0.371655
v -0.008914 -0.296414 0.370500
v -0.008914 -0.295000 0.371914
v -0.008914 0.295000 -0.371914
v -0.008655 0.296155 -0.371655
v -0.008655 0.296155 -0.371655
v -0.007500 0.296414 -0.371914
v -0.008914 0.296414 -0.370500
v -0.007500 0.296414 0.371914
v -0.008655 0.296155 0.371655
v -0.008655 0.296155 0.371655
v -0.008914 0.295000 0.371914
v -0.008914 0.296414 0.370500
v 0.008914 -0.295000 -0.371914
v 0.008655 -0.296155 -0.371655
v 0.008655 -0.296155 -0.371655
v 0.007500 -0.296414 -0.371914
v 0.008914 -0.296414 -0.370500
v 0.007500 -0.296414 0.371914
v 0.008655 -0.296155 0.371655
v 0.008655 -0.296155 0.371655
v 0.008914 -0.295000 0.371914
v 0.008914 -0.296414 0.370500
v 0.007500 0.296414 -0.371914
v 0.008655 0.296155 -0.371655
v 0.008655 0.296155 -0.371655
v 0.008914 0.295000 -0.371914
v 0.008914 0.296414 -0.370500
v 0.008914 0.295000 0.371914
v 0.008655 0.296155 0.371655
v 0.008655 0.296155 0.371655
v 0.007500 0.296414 0.371914
v 0.008914 0.296414 0.370500
s 0
f 31 37 8 2
f 45 51 38 30
f 50 22 9 36
f 3 10 24 16
f 17 23 52 44
f 1 57 58 60
f 2 61 59 4
f 3 7 5 6
f 8 62 63 65
f 9 66 64 11
f 10 14 12 13
f 15 67 68 70
f 16 71 69 18
f 17 21 19 20
f 22 72 73 75
f 23 76 74 25
f 24 28 26 27
f 29 77 78 80
f 30 81 79 32
f 31 35 33 34
f 36 82 83 85
f 37 86 84 39
f 38 42 40 41
f 43 87 88 90
f 44 91 89 46
f 45 49 47 48
f 50 92 93 95
f 51 96 94 53
f 52 56 54 55
f 15 1 60 67
f 18 7 3 16
f 2 8 65 61
f 6 14 10 3
f 9 22 75 66
f 13 28 24 10
f 23 17 20 76
f 27 71 16 24
f 43 15 70 87
f 46 21 17 44
f 22 50 95 72
f 25 56 52 23
f 51 45 48 96
f 55 91 44 52
f 29 43 90 77
f 32 49 45 30
f 50 36 85 92
f 53 42 38 51
f 37 31 34 86
f 41 81 30 38
f 1 29 80 57
f 4 35 31 2
f 36 9 11 82
f 39 62 8 37
f 15 43 29 1
o waste_handle_bar
v 0.042000 0.125000 0.228000
v 0.042000 -0.125000 0.228000
v 0.045471 0.125000 0.227208
v 0.045471 -0.125000 0.227208
v 0.048255 0.125000 0.224988
v 0.048255 -0.125000 0.224988
v 0.049799 0.125000 0.221780
v 0.049799 -0.125000 0.221780
v 0.049799 0.125000 0.218220
v 0.049799 -0.125000 0.218220
v 0.048255 0.125000 0.215012
v 0.048255 -0.125000 0.215012
v 0.045471 0.125000 0.212792
v 0.045471 -0.125000 0.212792
v 0.042000 0.125000 0.212000
v 0.042000 -0.125000 0.212000
v 0.038529 0.125000 0.212792
v 0.038529 -0.125000 0.212792
v 0.035745 0.125000 0.215012
v 0.035745 -0.125000 0.215012
v 0.034201 0.125000 0.218220
v 0.034201 -0.125000 0.218220
v 0.034201 0.125000 0.221780
v 0.034201 -0.125000 0.221780
v 0.035745 0.125000 0.224988
v 0.035745 -0.125000 0.224988
v 0.038529 0.125000 0.227208
v 0.038529 -0.125000 0.227208
s 1
f 97 98 100 99
f 99 100 102 101
f 101 102 104 103
f 103 104 106 105
f 105 106 108 107
f 107 108 110 109
f 109 110 112 111
f 111 112 114 113
f 113 114 116 115
f 115 116 118 117
f 117 118 120 119
f 119 120 122 121
f 100 98 124 122 120 118 116 114 112 110 108 106 104 102
f 121 122 124 123
f 123 124 98 97
f 97 99 101 103 105 107 109 111 113 115 117 119 121 123
o waste_handle_st-0.125
v 0.024000 -0.109000 0.225000
v 0.024000 -0.141000 0.225000
v 0.026939 -0.109000 0.224045
v 0.026939 -0.141000 0.224045
v 0.028755 -0.109000 0.221545
v 0.028755 -0.141000 0.221545
v 0.028755 -0.109000 0.218455
v 0.028755 -0.141000 0.218455
v 0.026939 -0.109000 0.215955
v 0.026939 -0.141000 0.215955
v 0.024000 -0.109000 0.215000
v 0.024000 -0.141000 0.215000
v 0.021061 -0.109000 0.215955
v 0.021061 -0.141000 0.215955
v 0.019245 -0.109000 0.218455
v 0.019245 -0.141000 0.218455
v 0.019245 -0.109000 0.221545
v 0.019245 -0.141000 0.221545
v 0.021061 -0.109000 0.224045
v 0.021061 -0.141000 0.224045
s 1
f 125 126 128 127
f 127 128 130 129
f 129 130 132 131
f 131 132 134 133
f 133 134 136 135
f 135 136 138 137
f 137 138 140 139
f 139 140 142 141
f 128 126 144 142 140 138 136 134 132 130
f 141 142 144 143
f 143 144 126 125
f 125 127 129 131 133 135 137 139 141 143
o waste_handle_st0.125
v 0.024000 0.141000 0.225000
v 0.024000 0.109000 0.225000
v 0.026939 0.141000 0.224045
v 0.026939 0.109000 0.224045
v 0.028755 0.141000 0.221545
v 0.028755 0.109000 0.221545
v 0.028755 0.141000 0.218455
v 0.028755 0.109000 0.218455
v 0.026939 0.141000 0.215955
v 0.026939 0.109000 0.215955
v 0.024000 0.141000 0.215000
v 0.024000 0.109000 0.215000
v 0.021061 0.141000 0.215955
v 0.021061 0.109000 0.215955
v 0.019245 0.141000 0.218455
v 0.019245 0.109000 0.218455
v 0.019245 0.141000 0.221545
v 0.019245 0.109000 0.221545
v 0.021061 0.141000 0.224045
v 0.021061 0.109000 0.224045
s 1
f 145 146 148 147
f 147 148 150 149
f 149 150 152 151
f 151 152 154 153
f 153 154 156 155
f 155 156 158 157
f 157 158 160 159
f 159 160 162 161
f 148 146 164 162 160 158 156 154 152 150
f 161 162 164 163
f 163 164 146 145
f 145 147 149 151 153 155 157 159 161 163
o waste_frame_b
v -0.538000 -0.273000 -0.317500
v -0.538000 -0.275000 -0.315500
v -0.540000 -0.273000 -0.315500
v -0.538000 -0.274414 -0.316914
v -0.539155 -0.274155 -0.316655
v -0.539414 -0.274414 -0.315500
v -0.539414 -0.273000 -0.316914
v -0.538000 -0.275000 -0.304500
v -0.538000 -0.273000 -0.302500
v -0.540000 -0.273000 -0.304500
v -0.538000 -0.274414 -0.303086
v -0.539155 -0.274155 -0.303345
v -0.539414 -0.273000 -0.303086
v -0.539414 -0.274414 -0.304500
v -0.538000 0.273000 -0.317500
v -0.540000 0.273000 -0.315500
v -0.538000 0.275000 -0.315500
v -0.539414 0.273000 -0.316914
v -0.539155 0.274155 -0.316655
v -0.539414 0.274414 -0.315500
v -0.538000 0.274414 -0.316914
v -0.538000 0.273000 -0.302500
v -0.538000 0.275000 -0.304500
v -0.540000 0.273000 -0.304500
v -0.538000 0.274414 -0.303086
v -0.539155 0.274155 -0.303345
v -0.539414 0.274414 -0.304500
v -0.539414 0.273000 -0.303086
v -0.022000 -0.273000 -0.317500
v -0.020000 -0.273000 -0.315500
v -0.022000 -0.275000 -0.315500
v -0.020586 -0.273000 -0.316914
v -0.020845 -0.274155 -0.316655
v -0.020586 -0.274414 -0.315500
v -0.022000 -0.274414 -0.316914
v -0.022000 -0.273000 -0.302500
v -0.022000 -0.275000 -0.304500
v -0.020000 -0.273000 -0.304500
v -0.022000 -0.274414 -0.303086
v -0.020845 -0.274155 -0.303345
v -0.020586 -0.274414 -0.304500
v -0.020586 -0.273000 -0.303086
v -0.022000 0.273000 -0.317500
v -0.022000 0.275000 -0.315500
v -0.020000 0.273000 -0.315500
v -0.022000 0.274414 -0.316914
v -0.020845 0.274155 -0.316655
v -0.020586 0.274414 -0.315500
v -0.020586 0.273000 -0.316914
v -0.022000 0.273000 -0.302500
v -0.020000 0.273000 -0.304500
v -0.022000 0.275000 -0.304500
v -0.020586 0.273000 -0.303086
v -0.020845 0.274155 -0.303345
v -0.020586 0.274414 -0.304500
v -0.022000 0.274414 -0.303086
v -0.538000 -0.274414 -0.316914
v -0.539155 -0.274155 -0.316655
v -0.539155 -0.274155 -0.316655
v -0.539414 -0.273000 -0.316914
v -0.539414 -0.274414 -0.315500
v -0.538000 -0.274414 -0.303086
v -0.539155 -0.274155 -0.303345
v -0.539155 -0.274155 -0.303345
v -0.539414 -0.274414 -0.304500
v -0.539414 -0.273000 -0.303086
v -0.539414 0.273000 -0.316914
v -0.539155 0.274155 -0.316655
v -0.539155 0.274155 -0.316655
v -0.538000 0.274414 -0.316914
v -0.539414 0.274414 -0.315500
v -0.538000 0.274414 -0.303086
v -0.539155 0.274155 -0.303345
v -0.539155 0.274155 -0.303345
v -0.539414 0.273000 -0.303086
v -0.539414 0.274414 -0.304500
v -0.020586 -0.273000 -0.316914
v -0.020845 -0.274155 -0.316655
v -0.020845 -0.274155 -0.316655
v -0.022000 -0.274414 -0.316914
v -0.020586 -0.274414 -0.315500
v -0.022000 -0.274414 -0.303086
v -0.020845 -0.274155 -0.303345
v -0.020845 -0.274155 -0.303345
v -0.020586 -0.273000 -0.303086
v -0.020586 -0.274414 -0.304500
v -0.022000 0.274414 -0.316914
v -0.020845 0.274155 -0.316655
v -0.020845 0.274155 -0.316655
v -0.020586 0.273000 -0.316914
v -0.020586 0.274414 -0.315500
v -0.020586 0.273000 -0.303086
v -0.020845 0.274155 -0.303345
v -0.020845 0.274155 -0.303345
v -0.022000 0.274414 -0.303086
v -0.020586 0.274414 -0.304500
s 0
f 195 201 172 166
f 209 215 202 194
f 214 186 173 200
f 167 174 188 180
f 181 187 216 208
f 165 221 222 224
f 166 225 223 168
f 167 171 169 170
f 172 226 227 229
f 173 230 228 175
f 174 178 176 177
f 179 231 232 234
f 180 235 233 182
f 181 185 183 184
f 186 236 237 239
f 187 240 238 189
f 188 192 190 191
f 193 241 242 244
f 194 245 243 196
f 195 199 197 198
f 200 246 247 249
f 201 250 248 203
f 202 206 204 205
f 207 251 252 254
f 208 255 253 210
f 209 213 211 212
f 214 256 257 259
f 215 260 258 217
f 216 220 218 219
f 179 165 224 231
f 182 171 167 180
f 166 172 229 225
f 170 178 174 167
f 173 186 239 230
f 177 192 188 174
f 187 181 184 240
f 191 235 180 188
f 207 179 234 251
f 210 185 181 208
f 186 214 259 236
f 189 220 216 187
f 215 209 212 260
f 219 255 208 216
f 193 207 254 241
f 196 213 209 194
f 214 200 249 256
f 217 206 202 215
f 201 195 198 250
f 205 245 194 202
f 165 193 244 221
f 168 199 195 166
f 200 173 175 246
f 203 226 172 201
f 179 207 193 165
o bin_paper_L
v -0.528000 -0.272000 -0.300000
v -0.528000 -0.274000 -0.298000
v -0.530000 -0.272000 -0.298000
v -0.528000 -0.273414 -0.299414
v -0.529155 -0.273155 -0.299155
v -0.529414 -0.273414 -0.298000
v -0.529414 -0.272000 -0.299414
v -0.528000 -0.274000 0.118000
v -0.528000 -0.272000 0.120000
v -0.530000 -0.272000 0.118000
v -0.528000 -0.273414 0.119414
v -0.529155 -0.273155 0.119155
v -0.529414 -0.272000 0.119414
v -0.529414 -0.273414 0.118000
v -0.528000 -0.268000 -0.300000
v -0.530000 -0.268000 -0.298000
v -0.528000 -0.266000 -0.298000
v -0.529414 -0.268000 -0.299414
v -0.529155 -0.266845 -0.299155
v -0.529414 -0.266586 -0.298000
v -0.528000 -0.266586 -0.299414
v -0.528000 -0.268000 0.120000
v -0.528000 -0.266000 0.118000
v -0.530000 -0.268000 0.118000
v -0.528000 -0.266586 0.119414
v -0.529155 -0.266845 0.119155
v -0.529414 -0.266586 0.118000
v -0.529414 -0.268000 0.119414
v -0.032000 -0.272000 -0.300000
v -0.030000 -0.272000 -0.298000
v -0.032000 -0.274000 -0.298000
v -0.030586 -0.272000 -0.299414
v -0.030845 -0.273155 -0.299155
v -0.030586 -0.273414 -0.298000
v -0.032000 -0.273414 -0.299414
v -0.032000 -0.272000 0.120000
v -0.032000 -0.274000 0.118000
v -0.030000 -0.272000 0.118000
v -0.032000 -0.273414 0.119414
v -0.030845 -0.273155 0.119155
v -0.030586 -0.273414 0.118000
v -0.030586 -0.272000 0.119414
v -0.032000 -0.268000 -0.300000
v -0.032000 -0.266000 -0.298000
v -0.030000 -0.268000 -0.298000
v -0.032000 -0.266586 -0.299414
v -0.030845 -0.266845 -0.299155
v -0.030586 -0.266586 -0.298000
v -0.030586 -0.268000 -0.299414
v -0.032000 -0.268000 0.120000
v -0.030000 -0.268000 0.118000
v -0.032000 -0.266000 0.118000
v -0.030586 -0.268000 0.119414
v -0.030845 -0.266845 0.119155
v -0.030586 -0.266586 0.118000
v -0.032000 -0.266586 0.119414
v -0.528000 -0.273414 -0.299414
v -0.529155 -0.273155 -0.299155
v -0.529155 -0.273155 -0.299155
v -0.529414 -0.272000 -0.299414
v -0.529414 -0.273414 -0.298000
v -0.528000 -0.273414 0.119414
v -0.529155 -0.273155 0.119155
v -0.529155 -0.273155 0.119155
v -0.529414 -0.273414 0.118000
v -0.529414 -0.272000 0.119414
v -0.529414 -0.268000 -0.299414
v -0.529155 -0.266845 -0.299155
v -0.529155 -0.266845 -0.299155
v -0.528000 -0.266586 -0.299414
v -0.529414 -0.266586 -0.298000
v -0.528000 -0.266586 0.119414
v -0.529155 -0.266845 0.119155
v -0.529155 -0.266845 0.119155
v -0.529414 -0.268000 0.119414
v -0.529414 -0.266586 0.118000
v -0.030586 -0.272000 -0.299414
v -0.030845 -0.273155 -0.299155
v -0.030845 -0.273155 -0.299155
v -0.032000 -0.273414 -0.299414
v -0.030586 -0.273414 -0.298000
v -0.032000 -0.273414 0.119414
v -0.030845 -0.273155 0.119155
v -0.030845 -0.273155 0.119155
v -0.030586 -0.272000 0.119414
v -0.030586 -0.273414 0.118000
v -0.032000 -0.266586 -0.299414
v -0.030845 -0.266845 -0.299155
v -0.030845 -0.266845 -0.299155
v -0.030586 -0.268000 -0.299414
v -0.030586 -0.266586 -0.298000
v -0.030586 -0.268000 0.119414
v -0.030845 -0.266845 0.119155
v -0.030845 -0.266845 0.119155
v -0.032000 -0.266586 0.119414
v -0.030586 -0.266586 0.118000
s 0
f 291 297 268 262
f 305 311 298 290
f 310 282 269 296
f 263 270 284 276
f 277 283 312 304
f 261 317 318 320
f 262 321 319 264
f 263 267 265 266
f 268 322 323 325
f 269 326 324 271
f 270 274 272 273
f 275 327 328 330
f 276 331 329 278
f 277 281 279 280
f 282 332 333 335
f 283 336 334 285
f 284 288 286 287
f 289 337 338 340
f 290 341 339 292
f 291 295 293 294
f 296 342 343 345
f 297 346 344 299
f 298 302 300 301
f 303 347 348 350
f 304 351 349 306
f 305 309 307 308
f 310 352 353 355
f 311 356 354 313
f 312 316 314 315
f 275 261 320 327
f 278 267 263 276
f 262 268 325 321
f 266 274 270 263
f 269 282 335 326
f 273 288 284 270
f 283 277 280 336
f 287 331 276 284
f 303 275 330 347
f 306 281 277 304
f 282 310 355 332
f 285 316 312 283
f 311 305 308 356
f 315 351 304 312
f 289 303 350 337
f 292 309 305 290
f 310 296 345 352
f 313 302 298 311
f 297 291 294 346
f 301 341 290 298
f 261 289 340 317
f 264 295 291 262
f 296 269 271 342
f 299 322 268 297
f 275 303 289 261
o bin_paper_R
v -0.528000 -0.012000 -0.300000
v -0.528000 -0.014000 -0.298000
v -0.530000 -0.012000 -0.298000
v -0.528000 -0.013414 -0.299414
v -0.529155 -0.013155 -0.299155
v -0.529414 -0.013414 -0.298000
v -0.529414 -0.012000 -0.299414
v -0.528000 -0.014000 0.118000
v -0.528000 -0.012000 0.120000
v -0.530000 -0.012000 0.118000
v -0.528000 -0.013414 0.119414
v -0.529155 -0.013155 0.119155
v -0.529414 -0.012000 0.119414
v -0.529414 -0.013414 0.118000
v -0.528000 -0.008000 -0.300000
v -0.530000 -0.008000 -0.298000
v -0.528000 -0.006000 -0.298000
v -0.529414 -0.008000 -0.299414
v -0.529155 -0.006845 -0.299155
v -0.529414 -0.006586 -0.298000
v -0.528000 -0.006586 -0.299414
v -0.528000 -0.008000 0.120000
v -0.528000 -0.006000 0.118000
v -0.530000 -0.008000 0.118000
v -0.528000 -0.006586 0.119414
v -0.529155 -0.006845 0.119155
v -0.529414 -0.006586 0.118000
v -0.529414 -0.008000 0.119414
v -0.032000 -0.012000 -0.300000
v -0.030000 -0.012000 -0.298000
v -0.032000 -0.014000 -0.298000
v -0.030586 -0.012000 -0.299414
v -0.030845 -0.013155 -0.299155
v -0.030586 -0.013414 -0.298000
v -0.032000 -0.013414 -0.299414
v -0.032000 -0.012000 0.120000
v -0.032000 -0.014000 0.118000
v -0.030000 -0.012000 0.118000
v -0.032000 -0.013414 0.119414
v -0.030845 -0.013155 0.119155
v -0.030586 -0.013414 0.118000
v -0.030586 -0.012000 0.119414
v -0.032000 -0.008000 -0.300000
v -0.032000 -0.006000 -0.298000
v -0.030000 -0.008000 -0.298000
v -0.032000 -0.006586 -0.299414
v -0.030845 -0.006845 -0.299155
v -0.030586 -0.006586 -0.298000
v -0.030586 -0.008000 -0.299414
v -0.032000 -0.008000 0.120000
v -0.030000 -0.008000 0.118000
v -0.032000 -0.006000 0.118000
v -0.030586 -0.008000 0.119414
v -0.030845 -0.006845 0.119155
v -0.030586 -0.006586 0.118000
v -0.032000 -0.006586 0.119414
v -0.528000 -0.013414 -0.299414
v -0.529155 -0.013155 -0.299155
v -0.529155 -0.013155 -0.299155
v -0.529414 -0.012000 -0.299414
v -0.529414 -0.013414 -0.298000
v -0.528000 -0.013414 0.119414
v -0.529155 -0.013155 0.119155
v -0.529155 -0.013155 0.119155
v -0.529414 -0.013414 0.118000
v -0.529414 -0.012000 0.119414
v -0.529414 -0.008000 -0.299414
v -0.529155 -0.006845 -0.299155
v -0.529155 -0.006845 -0.299155
v -0.528000 -0.006586 -0.299414
v -0.529414 -0.006586 -0.298000
v -0.528000 -0.006586 0.119414
v -0.529155 -0.006845 0.119155
v -0.529155 -0.006845 0.119155
v -0.529414 -0.008000 0.119414
v -0.529414 -0.006586 0.118000
v -0.030586 -0.012000 -0.299414
v -0.030845 -0.013155 -0.299155
v -0.030845 -0.013155 -0.299155
v -0.032000 -0.013414 -0.299414
v -0.030586 -0.013414 -0.298000
v -0.032000 -0.013414 0.119414
v -0.030845 -0.013155 0.119155
v -0.030845 -0.013155 0.119155
v -0.030586 -0.012000 0.119414
v -0.030586 -0.013414 0.118000
v -0.032000 -0.006586 -0.299414
v -0.030845 -0.006845 -0.299155
v -0.030845 -0.006845 -0.299155
v -0.030586 -0.008000 -0.299414
v -0.030586 -0.006586 -0.298000
v -0.030586 -0.008000 0.119414
v -0.030845 -0.006845 0.119155
v -0.030845 -0.006845 0.119155
v -0.032000 -0.006586 0.119414
v -0.030586 -0.006586 0.118000
s 0
f 387 393 364 358
f 401 407 394 386
f 406 378 365 392
f 359 366 380 372
f 373 379 408 400
f 357 413 414 416
f 358 417 415 360
f 359 363 361 362
f 364 418 419 421
f 365 422 420 367
f 366 370 368 369
f 371 423 424 426
f 372 427 425 374
f 373 377 375 376
f 378 428 429 431
f 379 432 430 381
f 380 384 382 383
f 385 433 434 436
f 386 437 435 388
f 387 391 389 390
f 392 438 439 441
f 393 442 440 395
f 394 398 396 397
f 399 443 444 446
f 400 447 445 402
f 401 405 403 404
f 406 448 449 451
f 407 452 450 409
f 408 412 410 411
f 371 357 416 423
f 374 363 359 372
f 358 364 421 417
f 362 370 366 359
f 365 378 431 422
f 369 384 380 366
f 379 373 376 432
f 383 427 372 380
f 399 371 426 443
f 402 377 373 400
f 378 406 451 428
f 381 412 408 379
f 407 401 404 452
f 411 447 400 408
f 385 399 446 433
f 388 405 401 386
f 406 392 441 448
f 409 398 394 407
f 393 387 390 442
f 397 437 386 394
f 357 385 436 413
f 360 391 387 358
f 392 365 367 438
f 395 418 364 393
f 371 399 385 357
o bin_paper_B
v -0.532000 -0.268000 -0.300000
v -0.532000 -0.270000 -0.298000
v -0.534000 -0.268000 -0.298000
v -0.532000 -0.269414 -0.299414
v -0.533155 -0.269155 -0.299155
v -0.533414 -0.269414 -0.298000
v -0.533414 -0.268000 -0.299414
v -0.532000 -0.270000 0.118000
v -0.532000 -0.268000 0.120000
v -0.534000 -0.268000 0.118000
v -0.532000 -0.269414 0.119414
v -0.533155 -0.269155 0.119155
v -0.533414 -0.268000 0.119414
v -0.533414 -0.269414 0.118000
v -0.532000 -0.012000 -0.300000
v -0.534000 -0.012000 -0.298000
v -0.532000 -0.010000 -0.298000
v -0.533414 -0.012000 -0.299414
v -0.533155 -0.010845 -0.299155
v -0.533414 -0.010586 -0.298000
v -0.532000 -0.010586 -0.299414
v -0.532000 -0.012000 0.120000
v -0.532000 -0.010000 0.118000
v -0.534000 -0.012000 0.118000
v -0.532000 -0.010586 0.119414
v -0.533155 -0.010845 0.119155
v -0.533414 -0.010586 0.118000
v -0.533414 -0.012000 0.119414
v -0.528000 -0.268000 -0.300000
v -0.526000 -0.268000 -0.298000
v -0.528000 -0.270000 -0.298000
v -0.526586 -0.268000 -0.299414
v -0.526845 -0.269155 -0.299155
v -0.526586 -0.269414 -0.298000
v -0.528000 -0.269414 -0.299414
v -0.528000 -0.268000 0.120000
v -0.528000 -0.270000 0.118000
v -0.526000 -0.268000 0.118000
v -0.528000 -0.269414 0.119414
v -0.526845 -0.269155 0.119155
v -0.526586 -0.269414 0.118000
v -0.526586 -0.268000 0.119414
v -0.528000 -0.012000 -0.300000
v -0.528000 -0.010000 -0.298000
v -0.526000 -0.012000 -0.298000
v -0.528000 -0.010586 -0.299414
v -0.526845 -0.010845 -0.299155
v -0.526586 -0.010586 -0.298000
v -0.526586 -0.012000 -0.299414
v -0.528000 -0.012000 0.120000
v -0.526000 -0.012000 0.118000
v -0.528000 -0.010000 0.118000
v -0.526586 -0.012000 0.119414
v -0.526845 -0.010845 0.119155
v -0.526586 -0.010586 0.118000
v -0.528000 -0.010586 0.119414
v -0.532000 -0.269414 -0.299414
v -0.533155 -0.269155 -0.299155
v -0.533155 -0.269155 -0.299155
v -0.533414 -0.268000 -0.299414
v -0.533414 -0.269414 -0.298000
v -0.532000 -0.269414 0.119414
v -0.533155 -0.269155 0.119155
v -0.533155 -0.269155 0.119155
v -0.533414 -0.269414 0.118000
v -0.533414 -0.268000 0.119414
v -0.533414 -0.012000 -0.299414
v -0.533155 -0.010845 -0.299155
v -0.533155 -0.010845 -0.299155
v -0.532000 -0.010586 -0.299414
v -0.533414 -0.010586 -0.298000
v -0.532000 -0.010586 0.119414
v -0.533155 -0.010845 0.119155
v -0.533155 -0.010845 0.119155
v -0.533414 -0.012000 0.119414
v -0.533414 -0.010586 0.118000
v -0.526586 -0.268000 -0.299414
v -0.526845 -0.269155 -0.299155
v -0.526845 -0.269155 -0.299155
v -0.528000 -0.269414 -0.299414
v -0.526586 -0.269414 -0.298000
v -0.528000 -0.269414 0.119414
v -0.526845 -0.269155 0.119155
v -0.526845 -0.269155 0.119155
v -0.526586 -0.268000 0.119414
v -0.526586 -0.269414 0.118000
v -0.528000 -0.010586 -0.299414
v -0.526845 -0.010845 -0.299155
v -0.526845 -0.010845 -0.299155
v -0.526586 -0.012000 -0.299414
v -0.526586 -0.010586 -0.298000
v -0.526586 -0.012000 0.119414
v -0.526845 -0.010845 0.119155
v -0.526845 -0.010845 0.119155
v -0.528000 -0.010586 0.119414
v -0.526586 -0.010586 0.118000
s 0
f 483 489 460 454
f 497 503 490 482
f 502 474 461 488
f 455 462 476 468
f 469 475 504 496
f 453 509 510 512
f 454 513 511 456
f 455 459 457 458
f 460 514 515 517
f 461 518 516 463
f 462 466 464 465
f 467 519 520 522
f 468 523 521 470
f 469 473 471 472
f 474 524 525 527
f 475 528 526 477
f 476 480 478 479
f 481 529 530 532
f 482 533 531 484
f 483 487 485 486
f 488 534 535 537
f 489 538 536 491
f 490 494 492 493
f 495 539 540 542
f 496 543 541 498
f 497 501 499 500
f 502 544 545 547
f 503 548 546 505
f 504 508 506 507
f 467 453 512 519
f 470 459 455 468
f 454 460 517 513
f 458 466 462 455
f 461 474 527 518
f 465 480 476 462
f 475 469 472 528
f 479 523 468 476
f 495 467 522 539
f 498 473 469 496
f 474 502 547 524
f 477 508 504 475
f 503 497 500 548
f 507 543 496 504
f 481 495 542 529
f 484 501 497 482
f 502 488 537 544
f 505 494 490 503
f 489 483 486 538
f 493 533 482 490
f 453 481 532 509
f 456 487 483 454
f 488 461 463 534
f 491 514 460 489
f 467 495 481 453
o bin_paper_F
v -0.032000 -0.268000 -0.300000
v -0.032000 -0.270000 -0.298000
v -0.034000 -0.268000 -0.298000
v -0.032000 -0.269414 -0.299414
v -0.033155 -0.269155 -0.299155
v -0.033414 -0.269414 -0.298000
v -0.033414 -0.268000 -0.299414
v -0.032000 -0.270000 0.118000
v -0.032000 -0.268000 0.120000
v -0.034000 -0.268000 0.118000
v -0.032000 -0.269414 0.119414
v -0.033155 -0.269155 0.119155
v -0.033414 -0.268000 0.119414
v -0.033414 -0.269414 0.118000
v -0.032000 -0.012000 -0.300000
v -0.034000 -0.012000 -0.298000
v -0.032000 -0.010000 -0.298000
v -0.033414 -0.012000 -0.299414
v -0.033155 -0.010845 -0.299155
v -0.033414 -0.010586 -0.298000
v -0.032000 -0.010586 -0.299414
v -0.032000 -0.012000 0.120000
v -0.032000 -0.010000 0.118000
v -0.034000 -0.012000 0.118000
v -0.032000 -0.010586 0.119414
v -0.033155 -0.010845 0.119155
v -0.033414 -0.010586 0.118000
v -0.033414 -0.012000 0.119414
v -0.028000 -0.268000 -0.300000
v -0.026000 -0.268000 -0.298000
v -0.028000 -0.270000 -0.298000
v -0.026586 -0.268000 -0.299414
v -0.026845 -0.269155 -0.299155
v -0.026586 -0.269414 -0.298000
v -0.028000 -0.269414 -0.299414
v -0.028000 -0.268000 0.120000
v -0.028000 -0.270000 0.118000
v -0.026000 -0.268000 0.118000
v -0.028000 -0.269414 0.119414
v -0.026845 -0.269155 0.119155
v -0.026586 -0.269414 0.118000
v -0.026586 -0.268000 0.119414
v -0.028000 -0.012000 -0.300000
v -0.028000 -0.010000 -0.298000
v -0.026000 -0.012000 -0.298000
v -0.028000 -0.010586 -0.299414
v -0.026845 -0.010845 -0.299155
v -0.026586 -0.010586 -0.298000
v -0.026586 -0.012000 -0.299414
v -0.028000 -0.012000 0.120000
v -0.026000 -0.012000 0.118000
v -0.028000 -0.010000 0.118000
v -0.026586 -0.012000 0.119414
v -0.026845 -0.010845 0.119155
v -0.026586 -0.010586 0.118000
v -0.028000 -0.010586 0.119414
v -0.032000 -0.269414 -0.299414
v -0.033155 -0.269155 -0.299155
v -0.033155 -0.269155 -0.299155
v -0.033414 -0.268000 -0.299414
v -0.033414 -0.269414 -0.298000
v -0.032000 -0.269414 0.119414
v -0.033155 -0.269155 0.119155
v -0.033155 -0.269155 0.119155
v -0.033414 -0.269414 0.118000
v -0.033414 -0.268000 0.119414
v -0.033414 -0.012000 -0.299414
v -0.033155 -0.010845 -0.299155
v -0.033155 -0.010845 -0.299155
v -0.032000 -0.010586 -0.299414
v -0.033414 -0.010586 -0.298000
v -0.032000 -0.010586 0.119414
v -0.033155 -0.010845 0.119155
v -0.033155 -0.010845 0.119155
v -0.033414 -0.012000 0.119414
v -0.033414 -0.010586 0.118000
v -0.026586 -0.268000 -0.299414
v -0.026845 -0.269155 -0.299155
v -0.026845 -0.269155 -0.299155
v -0.028000 -0.269414 -0.299414
v -0.026586 -0.269414 -0.298000
v -0.028000 -0.269414 0.119414
v -0.026845 -0.269155 0.119155
v -0.026845 -0.269155 0.119155
v -0.026586 -0.268000 0.119414
v -0.026586 -0.269414 0.118000
v -0.028000 -0.010586 -0.299414
v -0.026845 -0.010845 -0.299155
v -0.026845 -0.010845 -0.299155
v -0.026586 -0.012000 -0.299414
v -0.026586 -0.010586 -0.298000
v -0.026586 -0.012000 0.119414
v -0.026845 -0.010845 0.119155
v -0.026845 -0.010845 0.119155
v -0.028000 -0.010586 0.119414
v -0.026586 -0.010586 0.118000
s 0
f 579 585 556 550
f 593 599 586 578
f 598 570 557 584
f 551 558 572 564
f 565 571 600 592
f 549 605 606 608
f 550 609 607 552
f 551 555 553 554
f 556 610 611 613
f 557 614 612 559
f 558 562 560 561
f 563 615 616 618
f 564 619 617 566
f 565 569 567 568
f 570 620 621 623
f 571 624 622 573
f 572 576 574 575
f 577 625 626 628
f 578 629 627 580
f 579 583 581 582
f 584 630 631 633
f 585 634 632 587
f 586 590 588 589
f 591 635 636 638
f 592 639 637 594
f 593 597 595 596
f 598 640 641 643
f 599 644 642 601
f 600 604 602 603
f 563 549 608 615
f 566 555 551 564
f 550 556 613 609
f 554 562 558 551
f 557 570 623 614
f 561 576 572 558
f 571 565 568 624
f 575 619 564 572
f 591 563 618 635
f 594 569 565 592
f 570 598 643 620
f 573 604 600 571
f 599 593 596 644
f 603 639 592 600
f 577 591 638 625
f 580 597 593 578
f 598 584 633 640
f 601 590 586 599
f 585 579 582 634
f 589 629 578 586
f 549 577 628 605
f 552 583 579 550
f 584 557 559 630
f 587 610 556 585
f 563 591 577 549
o bin_plastic_L
v -0.528000 0.008000 -0.300000
v -0.528000 0.006000 -0.298000
v -0.530000 0.008000 -0.298000
v -0.528000 0.006586 -0.299414
v -0.529155 0.006845 -0.299155
v -0.529414 0.006586 -0.298000
v -0.529414 0.008000 -0.299414
v -0.528000 0.006000 0.118000
v -0.528000 0.008000 0.120000
v -0.530000 0.008000 0.118000
v -0.528000 0.006586 0.119414
v -0.529155 0.006845 0.119155
v -0.529414 0.008000 0.119414
v -0.529414 0.006586 0.118000
v -0.528000 0.012000 -0.300000
v -0.530000 0.012000 -0.298000
v -0.528000 0.014000 -0.298000
v -0.529414 0.012000 -0.299414
v -0.529155 0.013155 -0.299155
v -0.529414 0.013414 -0.298000
v -0.528000 0.013414 -0.299414
v -0.528000 0.012000 0.120000
v -0.528000 0.014000 0.118000
v -0.530000 0.012000 0.118000
v -0.528000 0.013414 0.119414
v -0.529155 0.013155 0.119155
v -0.529414 0.013414 0.118000
v -0.529414 0.012000 0.119414
v -0.032000 0.008000 -0.300000
v -0.030000 0.008000 -0.298000
v -0.032000 0.006000 -0.298000
v -0.030586 0.008000 -0.299414
v -0.030845 0.006845 -0.299155
v -0.030586 0.006586 -0.298000
v -0.032000 0.006586 -0.299414
v -0.032000 0.008000 0.120000
v -0.032000 0.006000 0.118000
v -0.030000 0.008000 0.118000
v -0.032000 0.006586 0.119414
v -0.030845 0.006845 0.119155
v -0.030586 0.006586 0.118000
v -0.030586 0.008000 0.119414
v -0.032000 0.012000 -0.300000
v -0.032000 0.014000 -0.298000
v -0.030000 0.012000 -0.298000
v -0.032000 0.013414 -0.299414
v -0.030845 0.013155 -0.299155
v -0.030586 0.013414 -0.298000
v -0.030586 0.012000 -0.299414
v -0.032000 0.012000 0.120000
v -0.030000 0.012000 0.118000
v -0.032000 0.014000 0.118000
v -0.030586 0.012000 0.119414
v -0.030845 0.013155 0.119155
v -0.030586 0.013414 0.118000
v -0.032000 0.013414 0.119414
v -0.528000 0.006586 -0.299414
v -0.529155 0.006845 -0.299155
v -0.529155 0.006845 -0.299155
v -0.529414 0.008000 -0.299414
v -0.529414 0.006586 -0.298000
v -0.528000 0.006586 0.119414
v -0.529155 0.006845 0.119155
v -0.529155 0.006845 0.119155
v -0.529414 0.006586 0.118000
v -0.529414 0.008000 0.119414
v -0.529414 0.012000 -0.299414
v -0.529155 0.013155 -0.299155
v -0.529155 0.013155 -0.299155
v -0.528000 0.013414 -0.299414
v -0.529414 0.013414 -0.298000
v -0.528000 0.013414 0.119414
v -0.529155 0.013155 0.119155
v -0.529155 0.013155 0.119155
v -0.529414 0.012000 0.119414
v -0.529414 0.013414 0.118000
v -0.030586 0.008000 -0.299414
v -0.030845 0.006845 -0.299155
v -0.030845 0.006845 -0.299155
v -0.032000 0.006586 -0.299414
v -0.030586 0.006586 -0.298000
v -0.032000 0.006586 0.119414
v -0.030845 0.006845 0.119155
v -0.030845 0.006845 0.119155
v -0.030586 0.008000 0.119414
v -0.030586 0.006586 0.118000
v -0.032000 0.013414 -0.299414
v -0.030845 0.013155 -0.299155
v -0.030845 0.013155 -0.299155
v -0.030586 0.012000 -0.299414
v -0.030586 0.013414 -0.298000
v -0.030586 0.012000 0.119414
v -0.030845 0.013155 0.119155
v -0.030845 0.013155 0.119155
v -0.032000 0.013414 0.119414
v -0.030586 0.013414 0.118000
s 0
f 675 681 652 646
f 689 695 682 674
f 694 666 653 680
f 647 654 668 660
f 661 667 696 688
f 645 701 702 704
f 646 705 703 648
f 647 651 649 650
f 652 706 707 709
f 653 710 708 655
f 654 658 656 657
f 659 711 712 714
f 660 715 713 662
f 661 665 663 664
f 666 716 717 719
f 667 720 718 669
f 668 672 670 671
f 673 721 722 724
f 674 725 723 676
f 675 679 677 678
f 680 726 727 729
f 681 730 728 683
f 682 686 684 685
f 687 731 732 734
f 688 735 733 690
f 689 693 691 692
f 694 736 737 739
f 695 740 738 697
f 696 700 698 699
f 659 645 704 711
f 662 651 647 660
f 646 652 709 705
f 650 658 654 647
f 653 666 719 710
f 657 672 668 654
f 667 661 664 720
f 671 715 660 668
f 687 659 714 731
f 690 665 661 688
f 666 694 739 716
f 669 700 696 667
f 695 689 692 740
f 699 735 688 696
f 673 687 734 721
f 676 693 689 674
f 694 680 729 736
f 697 686 682 695
f 681 675 678 730
f 685 725 674 682
f 645 673 724 701
f 648 679 675 646
f 680 653 655 726
f 683 706 652 681
f 659 687 673 645
o bin_plastic_R
v -0.528000 0.268000 -0.300000
v -0.528000 0.266000 -0.298000
v -0.530000 0.268000 -0.298000
v -0.528000 0.266586 -0.299414
v -0.529155 0.266845 -0.299155
v -0.529414 0.266586 -0.298000
v -0.529414 0.268000 -0.299414
v -0.528000 0.266000 0.118000
v -0.528000 0.268000 0.120000
v -0.530000 0.268000 0.118000
v -0.528000 0.266586 0.119414
v -0.529155 0.266845 0.119155
v -0.529414 0.268000 0.119414
v -0.529414 0.266586 0.118000
v -0.528000 0.272000 -0.300000
v -0.530000 0.272000 -0.298000
v -0.528000 0.274000 -0.298000
v -0.529414 0.272000 -0.299414
v -0.529155 0.273155 -0.299155
v -0.529414 0.273414 -0.298000
v -0.528000 0.273414 -0.299414
v -0.528000 0.272000 0.120000
v -0.528000 0.274000 0.118000
v -0.530000 0.272000 0.118000
v -0.528000 0.273414 0.119414
v -0.529155 0.273155 0.119155
v -0.529414 0.273414 0.118000
v -0.529414 0.272000 0.119414
v -0.032000 0.268000 -0.300000
v -0.030000 0.268000 -0.298000
v -0.032000 0.266000 -0.298000
v -0.030586 0.268000 -0.299414
v -0.030845 0.266845 -0.299155
v -0.030586 0.266586 -0.298000
v -0.032000 0.266586 -0.299414
v -0.032000 0.268000 0.120000
v -0.032000 0.266000 0.118000
v -0.030000 0.268000 0.118000
v -0.032000 0.266586 0.119414
v -0.030845 0.266845 0.119155
v -0.030586 0.266586 0.118000
v -0.030586 0.268000 0.119414
v -0.032000 0.272000 -0.300000
v -0.032000 0.274000 -0.298000
v -0.030000 0.272000 -0.298000
v -0.032000 0.273414 -0.299414
v -0.030845 0.273155 -0.299155
v -0.030586 0.273414 -0.298000
v -0.030586 0.272000 -0.299414
v -0.032000 0.272000 0.120000
v -0.030000 0.272000 0.118000
v -0.032000 0.274000 0.118000
v -0.030586 0.272000 0.119414
v -0.030845 0.273155 0.119155
v -0.030586 0.273414 0.118000
v -0.032000 0.273414 0.119414
v -0.528000 0.266586 -0.299414
v -0.529155 0.266845 -0.299155
v -0.529155 0.266845 -0.299155
v -0.529414 0.268000 -0.299414
v -0.529414 0.266586 -0.298000
v -0.528000 0.266586 0.119414
v -0.529155 0.266845 0.119155
v -0.529155 0.266845 0.119155
v -0.529414 0.266586 0.118000
v -0.529414 0.268000 0.119414
v -0.529414 0.272000 -0.299414
v -0.529155 0.273155 -0.299155
v -0.529155 0.273155 -0.299155
v -0.528000 0.273414 -0.299414
v -0.529414 0.273414 -0.298000
v -0.528000 0.273414 0.119414
v -0.529155 0.273155 0.119155
v -0.529155 0.273155 0.119155
v -0.529414 0.272000 0.119414
v -0.529414 0.273414 0.118000
v -0.030586 0.268000 -0.299414
v -0.030845 0.266845 -0.299155
v -0.030845 0.266845 -0.299155
v -0.032000 0.266586 -0.299414
v -0.030586 0.266586 -0.298000
v -0.032000 0.266586 0.119414
v -0.030845 0.266845 0.119155
v -0.030845 0.266845 0.119155
v -0.030586 0.268000 0.119414
v -0.030586 0.266586 0.118000
v -0.032000 0.273414 -0.299414
v -0.030845 0.273155 -0.299155
v -0.030845 0.273155 -0.299155
v -0.030586 0.272000 -0.299414
v -0.030586 0.273414 -0.298000
v -0.030586 0.272000 0.119414
v -0.030845 0.273155 0.119155
v -0.030845 0.273155 0.119155
v -0.032000 0.273414 0.119414
v -0.030586 0.273414 0.118000
s 0
f 771 777 748 742
f 785 791 778 770
f 790 762 749 776
f 743 750 764 756
f 757 763 792 784
f 741 797 798 800
f 742 801 799 744
f 743 747 745 746
f 748 802 803 805
f 749 806 804 751
f 750 754 752 753
f 755 807 808 810
f 756 811 809 758
f 757 761 759 760
f 762 812 813 815
f 763 816 814 765
f 764 768 766 767
f 769 817 818 820
f 770 821 819 772
f 771 775 773 774
f 776 822 823 825
f 777 826 824 779
f 778 782 780 781
f 783 827 828 830
f 784 831 829 786
f 785 789 787 788
f 790 832 833 835
f 791 836 834 793
f 792 796 794 795
f 755 741 800 807
f 758 747 743 756
f 742 748 805 801
f 746 754 750 743
f 749 762 815 806
f 753 768 764 750
f 763 757 760 816
f 767 811 756 764
f 783 755 810 827
f 786 761 757 784
f 762 790 835 812
f 765 796 792 763
f 791 785 788 836
f 795 831 784 792
f 769 783 830 817
f 772 789 785 770
f 790 776 825 832
f 793 782 778 791
f 777 771 774 826
f 781 821 770 778
f 741 769 820 797
f 744 775 771 742
f 776 749 751 822
f 779 802 748 777
f 755 783 769 741
o bin_plastic_B
v -0.532000 0.012000 -0.300000
v -0.532000 0.010000 -0.298000
v -0.534000 0.012000 -0.298000
v -0.532000 0.010586 -0.299414
v -0.533155 0.010845 -0.299155
v -0.533414 0.010586 -0.298000
v -0.533414 0.012000 -0.299414
v -0.532000 0.010000 0.118000
v -0.532000 0.012000 0.120000
v -0.534000 0.012000 0.118000
v -0.532000 0.010586 0.119414
v -0.533155 0.010845 0.119155
v -0.533414 0.012000 0.119414
v -0.533414 0.010586 0.118000
v -0.532000 0.268000 -0.300000
v -0.534000 0.268000 -0.298000
v -0.532000 0.270000 -0.298000
v -0.533414 0.268000 -0.299414
v -0.533155 0.269155 -0.299155
v -0.533414 0.269414 -0.298000
v -0.532000 0.269414 -0.299414
v -0.532000 0.268000 0.120000
v -0.532000 0.270000 0.118000
v -0.534000 0.268000 0.118000
v -0.532000 0.269414 0.119414
v -0.533155 0.269155 0.119155
v -0.533414 0.269414 0.118000
v -0.533414 0.268000 0.119414
v -0.528000 0.012000 -0.300000
v -0.526000 0.012000 -0.298000
v -0.528000 0.010000 -0.298000
v -0.526586 0.012000 -0.299414
v -0.526845 0.010845 -0.299155
v -0.526586 0.010586 -0.298000
v -0.528000 0.010586 -0.299414
v -0.528000 0.012000 0.120000
v -0.528000 0.010000 0.118000
v -0.526000 0.012000 0.118000
v -0.528000 0.010586 0.119414
v -0.526845 0.010845 0.119155
v -0.526586 0.010586 0.118000
v -0.526586 0.012000 0.119414
v -0.528000 0.268000 -0.300000
v -0.528000 0.270000 -0.298000
v -0.526000 0.268000 -0.298000
v -0.528000 0.269414 -0.299414
v -0.526845 0.269155 -0.299155
v -0.526586 0.269414 -0.298000
v -0.526586 0.268000 -0.299414
v -0.528000 0.268000 0.120000
v -0.526000 0.268000 0.118000
v -0.528000 0.270000 0.118000
v -0.526586 0.268000 0.119414
v -0.526845 0.269155 0.119155
v -0.526586 0.269414 0.118000
v -0.528000 0.269414 0.119414
v -0.532000 0.010586 -0.299414
v -0.533155 0.010845 -0.299155
v -0.533155 0.010845 -0.299155
v -0.533414 0.012000 -0.299414
v -0.533414 0.010586 -0.298000
v -0.532000 0.010586 0.119414
v -0.533155 0.010845 0.119155
v -0.533155 0.010845 0.119155
v -0.533414 0.010586 0.118000
v -0.533414 0.012000 0.119414
v -0.533414 0.268000 -0.299414
v -0.533155 0.269155 -0.299155
v -0.533155 0.269155 -0.299155
v -0.532000 0.269414 -0.299414
v -0.533414 0.269414 -0.298000
v -0.532000 0.269414 0.119414
v -0.533155 0.269155 0.119155
v -0.533155 0.269155 0.119155
v -0.533414 0.268000 0.119414
v -0.533414 0.269414 0.118000
v -0.526586 0.012000 -0.299414
v -0.526845 0.010845 -0.299155
v -0.526845 0.010845 -0.299155
v -0.528000 0.010586 -0.299414
v -0.526586 0.010586 -0.298000
v -0.528000 0.010586 0.119414
v -0.526845 0.010845 0.119155
v -0.526845 0.010845 0.119155
v -0.526586 0.012000 0.119414
v -0.526586 0.010586 0.118000
v -0.528000 0.269414 -0.299414
v -0.526845 0.269155 -0.299155
v -0.526845 0.269155 -0.299155
v -0.526586 0.268000 -0.299414
v -0.526586 0.269414 -0.298000
v -0.526586 0.268000 0.119414
v -0.526845 0.269155 0.119155
v -0.526845 0.269155 0.119155
v -0.528000 0.269414 0.119414
v -0.526586 0.269414 0.118000
s 0
f 867 873 844 838
f 881 887 874 866
f 886 858 845 872
f 839 846 860 852
f 853 859 888 880
f 837 893 894 896
f 838 897 895 840
f 839 843 841 842
f 844 898 899 901
f 845 902 900 847
f 846 850 848 849
f 851 903 904 906
f 852 907 905 854
f 853 857 855 856
f 858 908 909 911
f 859 912 910 861
f 860 864 862 863
f 865 913 914 916
f 866 917 915 868
f 867 871 869 870
f 872 918 919 921
f 873 922 920 875
f 874 878 876 877
f 879 923 924 926
f 880 927 925 882
f 881 885 883 884
f 886 928 929 931
f 887 932 930 889
f 888 892 890 891
f 851 837 896 903
f 854 843 839 852
f 838 844 901 897
f 842 850 846 839
f 845 858 911 902
f 849 864 860 846
f 859 853 856 912
f 863 907 852 860
f 879 851 906 923
f 882 857 853 880
f 858 886 931 908
f 861 892 888 859
f 887 881 884 932
f 891 927 880 888
f 865 879 926 913
f 868 885 881 866
f 886 872 921 928
f 889 878 874 887
f 873 867 870 922
f 877 917 866 874
f 837 865 916 893
f 840 871 867 838
f 872 845 847 918
f 875 898 844 873
f 851 879 865 837
o bin_plastic_F
v -0.032000 0.012000 -0.300000
v -0.032000 0.010000 -0.298000
v -0.034000 0.012000 -0.298000
v -0.032000 0.010586 -0.299414
v -0.033155 0.010845 -0.299155
v -0.033414 0.010586 -0.298000
v -0.033414 0.012000 -0.299414
v -0.032000 0.010000 0.118000
v -0.032000 0.012000 0.120000
v -0.034000 0.012000 0.118000
v -0.032000 0.010586 0.119414
v -0.033155 0.010845 0.119155
v -0.033414 0.012000 0.119414
v -0.033414 0.010586 0.118000
v -0.032000 0.268000 -0.300000
v -0.034000 0.268000 -0.298000
v -0.032000 0.270000 -0.298000
v -0.033414 0.268000 -0.299414
v -0.033155 0.269155 -0.299155
v -0.033414 0.269414 -0.298000
v -0.032000 0.269414 -0.299414
v -0.032000 0.268000 0.120000
v -0.032000 0.270000 0.118000
v -0.034000 0.268000 0.118000
v -0.032000 0.269414 0.119414
v -0.033155 0.269155 0.119155
v -0.033414 0.269414 0.118000
v -0.033414 0.268000 0.119414
v -0.028000 0.012000 -0.300000
v -0.026000 0.012000 -0.298000
v -0.028000 0.010000 -0.298000
v -0.026586 0.012000 -0.299414
v -0.026845 0.010845 -0.299155
v -0.026586 0.010586 -0.298000
v -0.028000 0.010586 -0.299414
v -0.028000 0.012000 0.120000
v -0.028000 0.010000 0.118000
v -0.026000 0.012000 0.118000
v -0.028000 0.010586 0.119414
v -0.026845 0.010845 0.119155
v -0.026586 0.010586 0.118000
v -0.026586 0.012000 0.119414
v -0.028000 0.268000 -0.300000
v -0.028000 0.270000 -0.298000
v -0.026000 0.268000 -0.298000
v -0.028000 0.269414 -0.299414
v -0.026845 0.269155 -0.299155
v -0.026586 0.269414 -0.298000
v -0.026586 0.268000 -0.299414
v -0.028000 0.268000 0.120000
v -0.026000 0.268000 0.118000
v -0.028000 0.270000 0.118000
v -0.026586 0.268000 0.119414
v -0.026845 0.269155 0.119155
v -0.026586 0.269414 0.118000
v -0.028000 0.269414 0.119414
v -0.032000 0.010586 -0.299414
v -0.033155 0.010845 -0.299155
v -0.033155 0.010845 -0.299155
v -0.033414 0.012000 -0.299414
v -0.033414 0.010586 -0.298000
v -0.032000 0.010586 0.119414
v -0.033155 0.010845 0.119155
v -0.033155 0.010845 0.119155
v -0.033414 0.010586 0.118000
v -0.033414 0.012000 0.119414
v -0.033414 0.268000 -0.299414
v -0.033155 0.269155 -0.299155
v -0.033155 0.269155 -0.299155
v -0.032000 0.269414 -0.299414
v -0.033414 0.269414 -0.298000
v -0.032000 0.269414 0.119414
v -0.033155 0.269155 0.119155
v -0.033155 0.269155 0.119155
v -0.033414 0.268000 0.119414
v -0.033414 0.269414 0.118000
v -0.026586 0.012000 -0.299414
v -0.026845 0.010845 -0.299155
v -0.026845 0.010845 -0.299155
v -0.028000 0.010586 -0.299414
v -0.026586 0.010586 -0.298000
v -0.028000 0.010586 0.119414
v -0.026845 0.010845 0.119155
v -0.026845 0.010845 0.119155
v -0.026586 0.012000 0.119414
v -0.026586 0.010586 0.118000
v -0.028000 0.269414 -0.299414
v -0.026845 0.269155 -0.299155
v -0.026845 0.269155 -0.299155
v -0.026586 0.268000 -0.299414
v -0.026586 0.269414 -0.298000
v -0.026586 0.268000 0.119414
v -0.026845 0.269155 0.119155
v -0.026845 0.269155 0.119155
v -0.028000 0.269414 0.119414
v -0.026586 0.269414 0.118000
s 0
f 963 969 940 934
f 977 983 970 962
f 982 954 941 968
f 935 942 956 948
f 949 955 984 976
f 933 989 990 992
f 934 993 991 936
f 935 939 937 938
f 940 994 995 997
f 941 998 996 943
f 942 946 944 945
f 947 999 1000 1002
f 948 1003 1001 950
f 949 953 951 952
f 954 1004 1005 1007
f 955 1008 1006 957
f 956 960 958 959
f 961 1009 1010 1012
f 962 1013 1011 964
f 963 967 965 966
f 968 1014 1015 1017
f 969 1018 1016 971
f 970 974 972 973
f 975 1019 1020 1022
f 976 1023 1021 978
f 977 981 979 980
f 982 1024 1025 1027
f 983 1028 1026 985
f 984 988 986 987
f 947 933 992 999
f 950 939 935 948
f 934 940 997 993
f 938 946 942 935
f 941 954 1007 998
f 945 960 956 942
f 955 949 952 1008
f 959 1003 948 956
f 975 947 1002 1019
f 978 953 949 976
f 954 982 1027 1004
f 957 988 984 955
f 983 977 980 1028
f 987 1023 976 984
f 961 975 1022 1009
f 964 981 977 962
f 982 968 1017 1024
f 985 974 970 983
f 969 963 966 1018
f 973 1013 962 970
f 933 961 1012 989
f 936 967 963 934
f 968 941 943 1014
f 971 994 940 969
f 947 975 961 933
o bin_paper_contents
v -0.418000 -0.238000 -0.180000
v -0.418000 -0.240000 -0.178000
v -0.420000 -0.238000 -0.178000
v -0.418000 -0.239414 -0.179414
v -0.419155 -0.239155 -0.179155
v -0.419414 -0.239414 -0.178000
v -0.419414 -0.238000 -0.179414
v -0.418000 -0.240000 -0.082000
v -0.418000 -0.238000 -0.080000
v -0.420000 -0.238000 -0.082000
v -0.418000 -0.239414 -0.080586
v -0.419155 -0.239155 -0.080845
v -0.419414 -0.238000 -0.080586
v -0.419414 -0.239414 -0.082000
v -0.418000 -0.042000 -0.180000
v -0.420000 -0.042000 -0.178000
v -0.418000 -0.040000 -0.178000
v -0.419414 -0.042000 -0.179414
v -0.419155 -0.040845 -0.179155
v -0.419414 -0.040586 -0.178000
v -0.418000 -0.040586 -0.179414
v -0.418000 -0.042000 -0.080000
v -0.418000 -0.040000 -0.082000
v -0.420000 -0.042000 -0.082000
v -0.418000 -0.040586 -0.080586
v -0.419155 -0.040845 -0.080845
v -0.419414 -0.040586 -0.082000
v -0.419414 -0.042000 -0.080586
v -0.142000 -0.238000 -0.180000
v -0.140000 -0.238000 -0.178000
v -0.142000 -0.240000 -0.178000
v -0.140586 -0.238000 -0.179414
v -0.140845 -0.239155 -0.179155
v -0.140586 -0.239414 -0.178000
v -0.142000 -0.239414 -0.179414
v -0.142000 -0.238000 -0.080000
v -0.142000 -0.240000 -0.082000
v -0.140000 -0.238000 -0.082000
v -0.142000 -0.239414 -0.080586
v -0.140845 -0.239155 -0.080845
v -0.140586 -0.239414 -0.082000
v -0.140586 -0.238000 -0.080586
v -0.142000 -0.042000 -0.180000
v -0.142000 -0.040000 -0.178000
v -0.140000 -0.042000 -0.178000
v -0.142000 -0.040586 -0.179414
v -0.140845 -0.040845 -0.179155
v -0.140586 -0.040586 -0.178000
v -0.140586 -0.042000 -0.179414
v -0.142000 -0.042000 -0.080000
v -0.140000 -0.042000 -0.082000
v -0.142000 -0.040000 -0.082000
v -0.140586 -0.042000 -0.080586
v -0.140845 -0.040845 -0.080845
v -0.140586 -0.040586 -0.082000
v -0.142000 -0.040586 -0.080586
v -0.418000 -0.239414 -0.179414
v -0.419155 -0.239155 -0.179155
v -0.419155 -0.239155 -0.179155
v -0.419414 -0.238000 -0.179414
v -0.419414 -0.239414 -0.178000
v -0.418000 -0.239414 -0.080586
v -0.419155 -0.239155 -0.080845
v -0.419155 -0.239155 -0.080845
v -0.419414 -0.239414 -0.082000
v -0.419414 -0.238000 -0.080586
v -0.419414 -0.042000 -0.179414
v -0.419155 -0.040845 -0.179155
v -0.419155 -0.040845 -0.179155
v -0.418000 -0.040586 -0.179414
v -0.419414 -0.040586 -0.178000
v -0.418000 -0.040586 -0.080586
v -0.419155 -0.040845 -0.080845
v -0.419155 -0.040845 -0.080845
v -0.419414 -0.042000 -0.080586
v -0.419414 -0.040586 -0.082000
v -0.140586 -0.238000 -0.179414
v -0.140845 -0.239155 -0.179155
v -0.140845 -0.239155 -0.179155
v -0.142000 -0.239414 -0.179414
v -0.140586 -0.239414 -0.178000
v -0.142000 -0.239414 -0.080586
v -0.140845 -0.239155 -0.080845
v -0.140845 -0.239155 -0.080845
v -0.140586 -0.238000 -0.080586
v -0.140586 -0.239414 -0.082000
v -0.142000 -0.040586 -0.179414
v -0.140845 -0.040845 -0.179155
v -0.140845 -0.040845 -0.179155
v -0.140586 -0.042000 -0.179414
v -0.140586 -0.040586 -0.178000
v -0.140586 -0.042000 -0.080586
v -0.140845 -0.040845 -0.080845
v -0.140845 -0.040845 -0.080845
v -0.142000 -0.040586 -0.080586
v -0.140586 -0.040586 -0.082000
s 0
f 1059 1065 1036 1030
f 1073 1079 1066 1058
f 1078 1050 1037 1064
f 1031 1038 1052 1044
f 1045 1051 1080 1072
f 1029 1085 1086 1088
f 1030 1089 1087 1032
f 1031 1035 1033 1034
f 1036 1090 1091 1093
f 1037 1094 1092 1039
f 1038 1042 1040 1041
f 1043 1095 1096 1098
f 1044 1099 1097 1046
f 1045 1049 1047 1048
f 1050 1100 1101 1103
f 1051 1104 1102 1053
f 1052 1056 1054 1055
f 1057 1105 1106 1108
f 1058 1109 1107 1060
f 1059 1063 1061 1062
f 1064 1110 1111 1113
f 1065 1114 1112 1067
f 1066 1070 1068 1069
f 1071 1115 1116 1118
f 1072 1119 1117 1074
f 1073 1077 1075 1076
f 1078 1120 1121 1123
f 1079 1124 1122 1081
f 1080 1084 1082 1083
f 1043 1029 1088 1095
f 1046 1035 1031 1044
f 1030 1036 1093 1089
f 1034 1042 1038 1031
f 1037 1050 1103 1094
f 1041 1056 1052 1038
f 1051 1045 1048 1104
f 1055 1099 1044 1052
f 1071 1043 1098 1115
f 1074 1049 1045 1072
f 1050 1078 1123 1100
f 1053 1084 1080 1051
f 1079 1073 1076 1124
f 1083 1119 1072 1080
f 1057 1071 1118 1105
f 1060 1077 1073 1058
f 1078 1064 1113 1120
f 1081 1070 1066 1079
f 1065 1059 1062 1114
f 1069 1109 1058 1066
f 1029 1057 1108 1085
f 1032 1063 1059 1030
f 1064 1037 1039 1110
f 1067 1090 1036 1065
f 1043 1071 1057 1029
